<svg id="Layer_1" data-name="Layer 1" xmlns="http://www.w3.org/2000/svg" viewBox="0 0 437.06 467.82"><defs><style>.cls-1{fill:#718a8e;}.cls-2{fill:#4d6062;}.cls-3{fill:#8cc2e9;}.cls-10,.cls-3,.cls-8{stroke:#222221;stroke-miterlimit:10;stroke-width:0.2px;}.cls-4{fill:#f6fc83;}.cls-5{fill:#6c98a7;}.cls-6{fill:#fff;}.cls-7{fill:#e5335a;}.cls-8{fill:#222221;}.cls-9{fill:#8aa5a8;}.cls-10{fill:#9ddbf9;}</style></defs><g id="Illustration"><path class="cls-1" d="M164.91,368.35c1.08,4.85,16.14,16.83,27.4,24.09A37.21,37.21,0,0,1,205,388c5.94-1,8.11-4.45,8.9-7.09l-1.35-.27c-1.08-.22-2.18-.47-3.3-.74l-1.13,2.44a8.75,8.75,0,0,1-2.23,3,3.89,3.89,0,0,1-2.28,1.08l-5.11-.37a14.27,14.27,0,0,1-3.88-.46l-7.37-3.41c-2.44-1.13-3.52-3.23-4.91-5.52a46.52,46.52,0,0,0-8.55-10.59c-6.31-3-12.2-6.1-17.15-8.7L154,358.44S163.51,362.06,164.91,368.35Zm-17.57-12.81,12.35-7.35-.13-.12a2.75,2.75,0,0,0-2.85-.49l-15.44,6.17,2.11,1.58A3.55,3.55,0,0,0,147.34,355.54ZM340.8,147.24c-4.22-2.21-24.62-17.68-71-26.39l6.53,13.46s14.34,1.58,37,9.77c27.64,10,30.56,8.28,42.75,27.27,9,14,9.38,15.74,9.38,15.92l1.2-7.08-13-27L361,172.05,347.84,153A25.29,25.29,0,0,0,340.8,147.24Zm9.34,190.81a106.19,106.19,0,0,1,11.07,2.79l1.92-3.7a69.77,69.77,0,0,0-11-3ZM342.21,162.4s-13.4-5.53-28.09-10C296.48,147.15,271,141,271,141l-7.84-7.23H232L224.11,141s-25.52,6.13-43.16,11.43c-14.68,4.42-28.09,10-28.09,10-2.76,3.18-10.41,16.6-10.41,16.6s46.71-28,105.07-28,105.07,28,105.07,28S345,165.58,342.21,162.4ZM214.34,375.66a9.23,9.23,0,0,0,6.95-.62l2.57-1.33L217.63,358c-8.71-1.26-29.94-11.38-30.27-11.53,5.09,5.44,30.54,16.39,30.94,16.55-13.2-3.08-41.14-16.15-41.14-16.15,3.57,4.37,21.15,14.42,21.15,14.42-12.16-3.19-33.32-16-33.65-16.17C176.72,362.77,204.35,372.59,214.34,375.66Zm75.73,3.13.73,1.68a3.09,3.09,0,0,0,3.26,1.83l9.13-1.28s4.29-1.78,5.69-4.95c.61-1.37,1.8-3.55,3-5.58-.75.33-1.5.67-2.26,1-2.12,3.15-5,6.82-7.8,8.39,0,0,1.58-3.09,2.83-6.29C299.67,375.6,294.75,377.4,290.07,378.79Zm40.11-10.44c1.41-6.3,10.92-9.92,10.92-9.92l-2.66-1.05c-4.95,2.6-10.84,5.65-17.15,8.7a46.25,46.25,0,0,0-8.55,10.59c-1.39,2.29-2.47,4.4-4.91,5.52l-7.37,3.41a14.27,14.27,0,0,1-3.88.46l-5.11.37a3.89,3.89,0,0,1-2.28-1.08,8.5,8.5,0,0,1-2.23-3l-1.13-2.44c-1.12.28-2.22.53-3.3.74l-1.35.27c.79,2.64,3,6.09,8.9,7.09a37,37,0,0,1,12.71,4.4C314,385.19,329.1,373.21,330.18,368.35ZM268,128.15,263.53,120l-16-1.34-16,1.34-4.49,8.17,2.08-1.07h36.8Zm39.72,218.29c-.33.16-21.57,10.27-30.27,11.53l-6.23,15.74,2.57,1.33a9.23,9.23,0,0,0,6.95.62c10-3.08,37.62-12.89,49.69-30.58-.33.2-21.49,13-33.65,16.17,0,0,17.58-10.05,21.15-14.42,0,0-27.94,13.08-41.14,16.15C277.2,362.82,302.65,351.87,307.74,346.44Zm-62.29,25.24a28.33,28.33,0,0,0,4.12,0l15.48-1.76a3.61,3.61,0,0,0,3-2.24l3.16-7.84-.71.22a5.4,5.4,0,0,0-2.75,2l-2.34,3.21A5.78,5.78,0,0,1,261,367.6l-12.43.56q-1,0-2,0l-12.43-.56a5.8,5.8,0,0,1-2.9-.94l-4.89-6.07-2.41-.75,3.16,7.84.81,2S239.19,371.31,245.45,371.68Zm-59.94-.2-2.26-1c1.16,2,2.35,4.21,3,5.58,1.41,3.16,5.69,4.95,5.69,4.95L201,382.3a3.1,3.1,0,0,0,3.26-1.83l.73-1.68c-4.68-1.39-9.6-3.19-14.54-5.21,1.26,3.21,2.83,6.29,2.83,6.29C190.52,378.3,187.63,374.63,185.51,371.48Zm62,37.53c15.9,0,37-7.24,46.67-11.66.78-.36,1.66-.81,2.62-1.33-5.11-3.73-9.92-2-14.14-5-3-2.06-4.65-6.41-5.48-9.37l-2,.26c1.28,8.59,5.45,12.33,8.78,13.4,3.61,1.16,3.67,1.77,3.67,1.77C275,401.91,257.45,406,247.56,406a68.78,68.78,0,0,1-28.38-6.51C243,406.23,245,387.77,245,387.77c1.88,3.25,1.17,11.71,1.17,11.71,1.86-2.06,3.42-9.8,3.42-9.8,4.49-1.72,6.7-3.93,7.77-5.84-6.7.55-9.77.57-9.77.57s-9-.06-29.67-2.73c-.83,3-2.49,7.31-5.48,9.37-4.23,2.92-9,1.23-14.14,5,1,.53,1.84,1,2.62,1.33C210.53,401.78,231.65,409,247.55,409ZM278.69,66.56l8.54,4.85c-.11-.34-7.49-21.84-43.2-22.64C244,48.78,268.34,54,278.69,66.56ZM122.54,360.71s-6.34-6.88-8.08-10.62a66.37,66.37,0,0,0-7,13.56l.91.93a24.76,24.76,0,0,1,5.21-6.78,67.25,67.25,0,0,0-3.3,8.54S117.1,372.32,122.54,360.71Zm-16.42,20.54s11,.47,12.13-5.29c-3.08-.93-9.57-3.22-12.58-6.87a64.69,64.69,0,0,0-1.86,12.16h.81a13.93,13.93,0,0,1,2.11-7C106.67,374.51,105.58,379.14,106.12,381.25Zm21.51-29.75q1.32-1.9,2.85-3.71l-4.55-9.18s-4.38,2.23-9.51,8.79l1.07,2a20.62,20.62,0,0,1,5.63-4.89s-3.48,4.22-4.05,6C119.06,350.54,122,354.22,127.63,351.5ZM391.3,381.25a65.51,65.51,0,0,0-1.86-12.16c-3,3.64-9.51,5.94-12.58,6.87,1.13,5.76,12.13,5.29,12.13,5.29.54-2.11-.55-6.74-.6-7a13.93,13.93,0,0,1,2.11,7Zm-24.41-15a54.54,54.54,0,0,0-4.62-8l-2,14.41A52.15,52.15,0,0,0,366.89,366.27Zm-243-261.13c35.53-28.08,96.54-35.06,116.87-36.65a88.73,88.73,0,0,1,13.64,0c3.07.24,7.06.6,11.76,1.14-29.12-33.59-78-15-78-15,9.91-6.36,52.85-16.08,99.35-6,37.05,8,63.3,35.55,75.18,50.45q4.47,2.87,8.56,6.07c3.18,2.51-28.13-67.52-123.69-67.52S120.67,107.66,123.85,105.14Zm-3.62,176.54c2.41,9.75,10.85,6.73,10.85,6.73-9.77-27.74-12.6-49-12.88-63.68l-7.9,8.52c0,.08,0,.17,0,.26C111.13,245.3,117.82,271.93,120.23,281.68Zm-.53-147.17-4.28,19.55c.11-.33,3.71-11.13,14.19-16.67,10.65-5.63,25.86-20.3,29.34-26.46s7-14.2,7-14.2l4.82-1.48-9.65,36.57,7-2.61L176,99.07S175,111.26,174.49,115s.87,10.32,6,9.64c0,0,32.44-13.39,67.09-13.39a148.65,148.65,0,0,1,15.2.8c4.95.5,9.76,1.21,14.31,2-6.15-39.35-62-28.16-62-28.16,27-8.88,63.27-4.55,84,1.27a53.48,53.48,0,0,1,16.61,8.52,6.56,6.56,0,0,0-.87-3.7c3.21,1.54,4.31,7,4.31,7L327,129.2l7,2.61-9.65-36.57,4.82,1.48s3.49,8,7,14.2,18.69,20.83,29.34,26.46c10.48,5.54,14.09,16.34,14.19,16.67l-4.28-19.55L389.85,174h9.64l-14.74-47.29c-57.11-52.23-137.2-48.35-137.2-48.35s-80.09-3.88-137.23,48.36L95.58,174h9.64Zm22.24,288.3L139.43,405l-16-10.83a44.67,44.67,0,0,0,3.66,14.27C132.43,420.09,141.94,422.81,141.94,422.81Zm-9.11-64.57a53.9,53.9,0,0,0-9.47,26.39c3.49,2.11,9.79,6,14.48,9.11Zm-7.38-33.66,1.06,2A48.61,48.61,0,0,1,138,323.93l-1.77-3.59Zm8.72-8.38-1.2-2.44s-7-.69-11.25,3.59l1.79,3.46Zm13.16,26.66a56.2,56.2,0,0,0-10.8,3.09l1.79,3.45,10.58-3.35Zm-18.83-12.4,1.43,2.75a61.65,61.65,0,0,1,11.38-2.55l-1.61-3.26A65.71,65.71,0,0,0,128.5,330.46Zm-.09-150.26,1.2,7.08c0-.18.36-1.88,9.38-15.92,12.19-19,15.11-17.28,42.75-27.27,22.65-8.19,37-9.77,37-9.77l6.53-13.46c-46.35,8.71-66.75,24.18-71,26.39a24.72,24.72,0,0,0-7,5.73l-13.16,19.09,7.34-18.89Zm-7.78,20.3c-11.72,12.21-11.71,18.65-10.87,27l8.48-9.34C118.63,206.62,120.58,200.68,120.63,200.5ZM145,338.05l-2-4a69.77,69.77,0,0,0-11,3l1.92,3.7A107.29,107.29,0,0,1,145,338.05ZM123.07,429.3s4.4-.71,1.73-11.48c-2.81,1.37-7.64,3.7-10.84,5.08a53.34,53.34,0,0,0,6.58,8.16l.83-.49s-2.69-3-2.48-5.78C118.9,424.81,121.94,427,123.07,429.3Zm200.38,11.13a11.52,11.52,0,0,0-4.85,6.33l-1.94,12.13a41.24,41.24,0,0,0,3.58-2.13,29.48,29.48,0,0,1,7-13.34c6.33-6.7,12.4-32.9,12.59-33.72l-3.16,37.06a36,36,0,0,1,5.26-2.32L348.77,397c-4.11.84-10.17,2.15-14,3.28C326.08,402.85,332.46,434.4,323.45,440.43Zm29-6.87c-.7.3-1.09.44-1.09.44l-.68,6.31,3.87-.49s-.36,2.07-4.22,3.78l-.17,1.54a60.39,60.39,0,0,0,8.89-3.26A36.41,36.41,0,0,1,352.44,433.56ZM324.2,425.2c.78-7.46.57-16.63,2.79-23.43-13.68,9.47-15.35,35.14-15.35,35.14L302,455.2s.8-25.62.8-30-6.43-6.33-6.43-6.33c-10.15,4-51.75,2.71-51.75,2.71,45.09-4,72.57-23,84.18-33a67.63,67.63,0,0,0,9.75-14.09,5.83,5.83,0,0,1,3.25-3l11.38-5,.64-4.43-13.27,4.31a7.23,7.23,0,0,0-4.39,4c-2.89,6.55-15,22.28-41.85,33.93-28.05,12.16-46.78,10.4-46.78,10.4s-18.73,1.76-46.78-10.4c-26.88-11.65-39-27.38-41.85-33.93a7.26,7.26,0,0,0-4.39-4l-13.27-4.31.64,4.43,11.38,5a5.87,5.87,0,0,1,3.25,3c2.67,5.56,12.14,20.29,30.11,31.22-2.08-1.25-15.62-9.45-22-14.08-4.93-3.57-14.67-4.91-19.88-5.38l.87,6,16.27,3.72a7.92,7.92,0,0,1,5.72,4.51c5.4,13.55-1,38.75,12.57,38l13.38,26.27c23.9,6.7,54,6.68,54,6.68s30.09,0,54-6.68l13.38-26.27C321.56,438.79,323.4,432.89,324.2,425.2ZM198.1,448.31A22.38,22.38,0,0,0,218,459.66S198.71,462.75,198.1,448.31Zm16.26,8.26c-11.08-1.47-11.3-7.5-11.3-7.5s-1-10.58-1-16.48,8.2-5.23,8.2-5.23l37.26,3.08,37.26-3.08s8.2-.67,8.2,5.23-1,16.48-1,16.48-.23,6-11.3,7.5c-10.36,1.38-24.6,2.76-33.19,2.93C239,459.33,224.72,458,214.36,456.57Zm62.69,3.1A22.37,22.37,0,0,0,297,448.32C296.39,462.75,277.05,459.67,277.05,459.67ZM123.93,434.2a52.89,52.89,0,0,0,7,5,12.48,12.48,0,0,1-2.52-4.17s3.25,2.95,5.33,3.05A19.77,19.77,0,0,0,132.63,428C130.21,429.76,126.41,432.52,123.93,434.2Zm237.47,3.85c2.08-.1,5.33-3.05,5.33-3.05a13,13,0,0,1-2.52,4.17,51.6,51.6,0,0,0,7-5c-2.49-1.68-6.28-4.44-8.7-6.21A19.77,19.77,0,0,0,361.4,438.05Zm-189.75,2.38c-9-6-2.63-37.58-11.32-40.16-3.83-1.13-9.89-2.44-14-3.28l6.87,47.46s6.34,1.85,21.25,12a40.69,40.69,0,0,0,4,2.4l-1.94-12.13A11.63,11.63,0,0,0,171.65,440.43Zm-31.08-.61,3.87.49-.68-6.31s-.4-.14-1.09-.44a36.57,36.57,0,0,1-6.58,8.33,60.39,60.39,0,0,0,8.89,3.26l-.17-1.54C140.92,441.9,140.57,439.82,140.57,439.82ZM448.41,301.67V194.06c0-12-11.92-11.18-11.92-11.18H394c-7.77,0-6.56,7.64-6.56,7.64v19.56a30.09,30.09,0,0,1,2.81,11.39c.54,7.23-4.62,40.06-4.62,40.06v41.06c0,6.38,1.46,10,3.19,12.08-.17-4.19.17-10.48,3.3-13.49V200.49s-.7-4.52,2.71-4.52l-5.33-10.62s6.7,5.56,9.58,5.56h33.43s6.83-1.88,8.24-5.09a68.2,68.2,0,0,0-1,12.06v96.26s.3,5.22-3.52,5.22l5.65,15.81C448.59,310.86,448.41,301.67,448.41,301.67ZM428.52,199h-20.8c-8.14,0-7.84,8.74-7.84,8.74v83c0,8.84,6.33,7.64,6.33,7.64h17.68c9.55,0,9-7.84,9-7.84V202.1C432.94,198.53,428.52,199,428.52,199Zm-26.69,27.7a16.15,16.15,0,0,0,15.43,11.38,16.38,16.38,0,0,0,4.17-.54,11.31,11.31,0,0,1-20.3-6.88A11,11,0,0,1,401.83,226.68ZM412.44,290a11.32,11.32,0,0,1-10.61-15.27,16.15,16.15,0,0,0,15.43,11.38,16,16,0,0,0,4.17-.55A11.32,11.32,0,0,1,412.44,290Zm2.71-7.64a12.76,12.76,0,1,1,12.76-12.76A12.76,12.76,0,0,1,415.15,282.31Zm0-48.86a12.76,12.76,0,1,1,12.76-12.76A12.76,12.76,0,0,1,415.15,233.45ZM426,304.69H402.89s-11.67-2-13.47,10.6a6.77,6.77,0,0,0,5,2.06h39.19a15.16,15.16,0,0,0,7.77-1.88C438.85,311.31,433.59,304.69,426,304.69ZM114.68,417.25s6.36-.19,4.93-12.75h0c-.13-.49-.24-1-.36-1.49a30.2,30.2,0,0,1-12.56,4.05,62.31,62.31,0,0,0,4.83,11.74l1.55-.68a12.35,12.35,0,0,1-2-6.7S112.9,416.52,114.68,417.25Zm263-29.77c0,1.12-.1,3.31-.1,3.31.8,7.7,9.38,10.12,9.38,10.12,2.14-2.75,1.74-10.65,1.74-10.65a20.75,20.75,0,0,1,.67,11.32l.43.21a74.94,74.94,0,0,0,1.67-15.31C387.59,387.4,381.55,387.52,377.64,387.48Zm13-33.29c2.6,4.33,4.67,8.41,5.41,11.42,0,0,8-19.56,8-37.78a40.78,40.78,0,0,1-5.6.4A68.77,68.77,0,0,1,390.62,354.19Zm-15.13,50.32h0c-1.43,12.55,4.93,12.74,4.93,12.74,1.78-.73,3.59-5.83,3.59-5.83a12.39,12.39,0,0,1-2,6.7l1.55.68a61.77,61.77,0,0,0,4.83-11.74A30.26,30.26,0,0,1,375.85,403ZM372,429.3c1.13-2.29,4.18-4.5,4.18-4.5.21,2.74-2.48,5.78-2.48,5.78l.83.49a52.17,52.17,0,0,0,6.58-8.16c-3.21-1.38-8-3.71-10.84-5.08C367.62,428.59,372,429.3,372,429.3ZM55.33,294.14V197.88a68.35,68.35,0,0,0-1-12.06c1.41,3.21,8.24,5.09,8.24,5.09H96c2.88,0,9.58-5.56,9.58-5.56L100.25,196c3.42,0,2.71,4.52,2.71,4.52V301.17c3.13,3,3.47,9.3,3.3,13.49,1.73-2.07,3.19-5.7,3.19-12.08V261.52s-5.15-32.82-4.62-40.06a30.09,30.09,0,0,1,2.81-11.39V190.51s1.21-7.64-6.56-7.64H58.61s-11.92-.8-11.92,11.18V301.66s-.18,9.19,6.5,13.5l5.65-15.81C55,299.36,55.33,294.14,55.33,294.14ZM368,408.48a44.6,44.6,0,0,0,3.66-14.27l-16,10.83-2.51,17.77S362.67,420.09,368,408.48Zm8-57.94c-.57-1.81-4-6-4-6a20.62,20.62,0,0,1,5.63,4.89l1.07-2c-5.13-6.56-9.51-8.79-9.51-8.79l-4.55,9.18q1.53,1.8,2.85,3.71C373.07,354.22,376,350.54,376,350.54ZM358.56,346a56.52,56.52,0,0,0-10.8-3.09l-1.58,3.19,10.58,3.35Zm11.35,28.5c-3.24,2.81-7.81,6.23-11.15,8.65l-1.5,10.63c4.69-3.14,11-7,14.48-9.11A53.56,53.56,0,0,0,369.91,374.45Zm14.86-140.93c0-.09,0-.18,0-.26l-7.9-8.52c-.28,14.67-3.11,35.94-12.88,63.68,0,0,8.44,3,10.85-6.73S384,245.3,384.77,233.52Zm-15.12,91.06-10.76-4.24-1.77,3.59a48.61,48.61,0,0,1,11.47,2.69Zm3.74-7.22c-4.28-4.29-11.25-3.59-11.25-3.59l-1.2,2.44,10.67,4.62ZM66.58,199s-4.42-.45-4.42,3.12v88.42s-.5,7.84,9,7.84H88.88s6.33,1.2,6.33-7.64v-83s.3-8.74-7.84-8.74Zm.61,70.57A12.76,12.76,0,1,1,80,282.31,12.76,12.76,0,0,1,67.19,269.55ZM82.66,290a11.29,11.29,0,0,1-9-4.44,16,16,0,0,0,4.17.55,16.15,16.15,0,0,0,15.43-11.38A11.32,11.32,0,0,1,82.66,290Zm10.61-63.27a11.32,11.32,0,0,1-19.59,10.83,16.38,16.38,0,0,0,4.17.54A16.12,16.12,0,0,0,93.27,226.68Zm-.57-6a12.76,12.76,0,1,1-12.76-12.76A12.76,12.76,0,0,1,92.7,220.69Zm13,94.6c-1.79-12.63-13.47-10.6-13.47-10.6H69.09c-7.59,0-12.85,6.62-15.41,10.78a15.26,15.26,0,0,0,7.77,1.88h39.19A6.77,6.77,0,0,0,105.67,315.29Zm279.19,51a67.25,67.25,0,0,0-3.3-8.54,25,25,0,0,1,5.21,6.78l.91-.93a66.63,66.63,0,0,0-7-13.56c-1.74,3.74-8.08,10.62-8.08,10.62C378,372.32,384.86,366.33,384.86,366.33ZM108.18,400.91s8.58-2.43,9.38-10.12c0,0-.09-2.19-.1-3.31-3.91,0-9.95-.07-13.79-1a74.86,74.86,0,0,0,1.67,15.31l.43-.21a20.64,20.64,0,0,1,.67-11.32S106,398.16,108.18,400.91Zm6.16-84.74c0,15.4-23.31,11.65-23.31,11.65,0,18.22,8,37.78,8,37.78,2.68-10.85,22.64-35.77,22.64-35.77Zm252.25,14.29a66.39,66.39,0,0,0-11.19-3.07l-1.61,3.26a62.69,62.69,0,0,1,11.38,2.55Zm14.17-14.29-7.37,13.66s6.94,8.66,13.18,18a113.68,113.68,0,0,0,4.48-20.33C385.71,326.31,380.76,323.27,380.76,316.17Zm-6.3-115.67c.06.18,2,6.12,2.39,17.7l8.48,9.34C386.17,219.15,386.18,212.71,374.46,200.5Z" transform="translate(-29.03 -18.4)"/><path class="cls-2" d="M110.3,179.8l-2.83,3.32.41-.44C113.25,176.49,110.3,179.8,110.3,179.8Z" transform="translate(-29.03 -18.4)"/><path class="cls-2" d="M113.18,312.77l15.32-18.64s-21.26-68.12-15-97.86c4.64-21.93-1.89-17.45-5.65-13.59l-2.32,2.67c-8.44,9.71-21.74,9.51-21.74,9.51L59,196.67l.6,97.26,8.64,7.84,27-1.41s11.36,4.33,10.45,14.92l-.36,4.3-4.1,3.89s1.33,18.95,8.23,25.12l8.8-9S114.43,331.23,113.18,312.77Zm-32-25.32C68.59,292.17,66,282.38,66,282.38c2.55,3.52,7.65,3.52,7.65,3.52-11.79-4.42-6.43-20-6.43-20l23.66,6.2S93.71,282.73,81.15,287.45Zm-2.6-27.68L79.24,245s1.41,4.29,1.61,13.2-1.15,3.35-1.15,3.35Zm-.5-21.71c-8,0-14.49-6.75-14.49-15.07s6.49-15.07,14.49-15.07S92.54,214.67,92.54,223,86.05,238.06,78.05,238.06Zm27.3,81.49c.12-1.16.32-3.38.32-3.38l5.25-1.91Z" transform="translate(-29.03 -18.4)"/><path class="cls-2" d="M105.57,185.36l1.91-2.24A29.32,29.32,0,0,0,105.57,185.36Z" transform="translate(-29.03 -18.4)"/><path class="cls-2" d="M91,324.35s6.7,33.76,10,39.52l6.34-9a62.76,62.76,0,0,1-10.23-30.54Z" transform="translate(-29.03 -18.4)"/><path class="cls-2" d="M304.78,102.36l14.7,28.71,5.57,2.51-41.73-14.93L294.13,141l-24.29-5.09-3.09-19.19,16.06,4.19-3-29.4-32.24-7.57s-19.47-.27-32.47,2.08a199.07,199.07,0,0,0-30.54,8.44s36.77-4.12,58.48,14.07c0,0-10.65-11.86-24.42-17,0,0,13-1.71,32.86,21.2l13.08,3.41-28.68-1,12.46,15.67-19.26-.65-17.18,9,4.55,1.07-24.25,11.92s45.41-15.41,80.65-6.43l7.64,10.75,80.92,35.27L374.49,179l-21.37-32.8,2.56,1.15,21.27,29H397s-4.82-17.68-11.36-36.3-49.49-40.19-56.47-43.27-24.4-7.44-24.4-7.44v13Z" transform="translate(-29.03 -18.4)"/><path class="cls-2" d="M277,367.38s33.86-2.87,47.63-11.34,11.25-18.58,11.25-18.58L318,331.61l-46.12,19,.64,15.2s35.29-9.62,47-16.68c-4.37,3-14,9.22-23.79,12.6C282.46,366.31,277,367.38,277,367.38Z" transform="translate(-29.03 -18.4)"/><polygon class="cls-2" points="323.35 332.2 340.62 289.87 318.37 296.77 307.25 324.46 323.35 332.2"/><path class="cls-2" d="M184.81,144.7l-33.89,14.6L142.48,173v6s21.43-18.76,63.1-34.3H184.81Z" transform="translate(-29.03 -18.4)"/><path class="cls-2" d="M258.09,399.5l6.43-17.81-24.25-5.29-1.07,5.29s5.86,18.55-20,17.79c0,0,15.21,4.84,22.57,4.84S258.09,399.5,258.09,399.5Z" transform="translate(-29.03 -18.4)"/><path class="cls-2" d="M209,122.83l-7.74,2.11L187.15,137.4S203.63,130.26,209,122.83Z" transform="translate(-29.03 -18.4)"/><polygon class="cls-2" points="113.69 332.2 129.79 324.46 118.67 296.77 96.42 289.87 113.69 332.2"/><path class="cls-2" d="M223.22,350.6l-46.12-19-17.88,5.85s-2.51,10.12,11.25,18.58,47.63,11.34,47.63,11.34-5.46-1.07-18.72-5.66c-9.8-3.39-19.43-9.59-23.79-12.6,11.71,7.06,47,16.68,47,16.68Z" transform="translate(-29.03 -18.4)"/><path class="cls-2" d="M132.29,191.65s6.7-20.3,14.63-31.16S198.6,123.4,198.6,123.4l-30.42,10.1,4.7-2.86.91-23.25-3-12.11-17.28,37.65,9.07,2.46L151.58,139l-22.31,12.46-6.63,35Z" transform="translate(-29.03 -18.4)"/><path class="cls-2" d="M229.69,73l76.19,3.89-.77-9.65S316,52.17,256.28,47.17,171.81,63,171.81,63C208.65,46.1,229.69,73,229.69,73Z" transform="translate(-29.03 -18.4)"/><path class="cls-2" d="M127.6,118.64c-5,6.23-7.9,15.87-7.9,15.87l-5.36,20.36-.8,7.5,12.06-11.66Z" transform="translate(-29.03 -18.4)"/><path class="cls-2" d="M216.92,399.42l-1.4,0Z" transform="translate(-29.03 -18.4)"/><path class="cls-2" d="M218.49,399.47l.56,0Z" transform="translate(-29.03 -18.4)"/><path class="cls-2" d="M356.64,365.45l-2.81-7.21-20.71,10.64,5.21-5.69,7.86-5-1.43-4.69-22.91,8.51s-11,22.84-12.59,27.66c-1.21,3.62,2.49,1.35,4.41,0l-4.15,4.49-24.11,10.11-22.18,9.28-31.17-2.69-13.16-2.4s7.57,11.09,25.72,13,37.18,1.81,37.18,1.81a15.69,15.69,0,0,0,6.56,5.63s7.1,18,1.71,23.8-26.56,18.2-58.51,14.89c0,0,21.9,5.93,35.37,6.53s40.19-5.43,40.19-5.43l9.54-25.34,7.74-10.15,4-24.76V397l20.35-20.58Z" transform="translate(-29.03 -18.4)"/><path class="cls-2" d="M217.72,399.44l-.79,0Z" transform="translate(-29.03 -18.4)"/><path class="cls-2" d="M218.18,399.46h0Z" transform="translate(-29.03 -18.4)"/><path class="cls-2" d="M213,399.3l-1.1,0Z" transform="translate(-29.03 -18.4)"/><path class="cls-2" d="M401.12,196.17l-11.59-10.82-1-6.36-2.85,5.43c3.12,30.43-19,107.91-19,107.91l11.57,16.58a51.43,51.43,0,0,0,3.39,5.52l-.31-.13s-1.14,19.45-3.62,24.31L392.86,364s9.65-21.73,10.72-40.52l-15.33-6.33a10.19,10.19,0,0,0,.6-2.49c1.53-11.63,17.15-13,17.15-13h25.62l3.32-9.34v-98Zm10.09,47.43s13.71-.25,17-8.14C428.24,235.46,432.41,245.36,411.21,243.6Zm-3.82-33.76s19.09,1.71,20.09,10.65-1.41,12.26-7.64,16.38-16.58-1-19-11.66S407.39,209.84,407.39,209.84Zm16.39,76c-6.52,3.41-12.87,1.59-12.57,1.29s2.83-8.74,2.83-8.74l-8.16-2.21V284s-6.33-8.34-2.41-13.66a63.13,63.13,0,0,1,8.44-9.24l-3.82-1s2.41-3.92,5.68-5c0,0-7.65-.18-12.21,5.44,0,0,9.11-14.34,23.91-4.39C436.83,263.69,432.46,281.28,423.78,285.81Z" transform="translate(-29.03 -18.4)"/><path class="cls-2" d="M339.8,409.7c-3.35,12.53-9.36,38.61-9.36,38.61l5.61,3.16s7.43-2.11,7.84-3.16,8.85-54.1,8.85-54.11l-16.68-.48S343.15,397.17,339.8,409.7Z" transform="translate(-29.03 -18.4)"/><path class="cls-2" d="M364.61,342.86,359,353.42l-5.23,27.84-1.06,12.95-.36,4.42-2.24,17.28c18.95-7.29,25.87-21.51,27.17-24.55l-7.87,19.55L353.79,428l-7.6,9.83c29.2-9.44,39.66-23.73,38.29-53.25S364.61,342.86,364.61,342.86Z" transform="translate(-29.03 -18.4)"/><path class="cls-2" d="M214.64,399.35,213,399.3Z" transform="translate(-29.03 -18.4)"/><path class="cls-2" d="M194.25,393.71l18.82-5.53,3.42-9.65-9.55-3s5.22,5.73-3.52,9.24-29.24-9.85-29.24-9.85C170.66,363.55,155.59,356,155.59,356l-4,3.8,7.23,2.21,3.32,8.43L186,392.89Z" transform="translate(-29.03 -18.4)"/><path class="cls-2" d="M181.59,433.56l-5.76-3.92c-2.68-19.16-10.13-31.86-10.13-31.86l3.57,36.55,8.57,5,7,27.53,21.7,1.88c-10.18-14.87-26.12-41.42-26.12-41.42Z" transform="translate(-29.03 -18.4)"/><path class="cls-2" d="M152.12,445.72l8.57,5c-.31-7.46-9.11-43.41-9.11-43.41Z" transform="translate(-29.03 -18.4)"/><path class="cls-2" d="M208.39,399.17h0Z" transform="translate(-29.03 -18.4)"/><path class="cls-2" d="M210.57,399.23l-.86,0C210,399.22,210.26,399.23,210.57,399.23Z" transform="translate(-29.03 -18.4)"/><path class="cls-2" d="M208,399.16h0Z" transform="translate(-29.03 -18.4)"/><path class="cls-2" d="M125.67,410.91l-7.87-19.55c1.29,3,8.22,17.26,27.17,24.55l-2.24-17.28-21-11.05.83-14.87s10.8,4.82,15.3,13.76,3.47-5.21,3.47-5.21l-5.23-27.84-5.59-10.56S112,355,110.63,384.56s9.09,43.81,38.29,53.25l-7.6-9.83Z" transform="translate(-29.03 -18.4)"/><path class="cls-2" d="M207.76,399.15Z" transform="translate(-29.03 -18.4)"/><path class="cls-3" d="M354.1,199.69c2.29,16.43,0,24.18,0,24.18A64.63,64.63,0,0,0,350,205.42,60.58,60.58,0,0,0,309.16,169l-23.64-6.38s4.22,10.85,2.68,22.49-12.34,4.55-12.34,4.55a46.57,46.57,0,0,1-2.06,15.15,143.75,143.75,0,0,0-7.74-45.3h-3.92c2.61,5.48.74,16.06.74,16.06,0-5.89-2-7.47-2-7.47,0,40.19-13.31,35.17-13.31,35.17s-13.31,5-13.31-35.17c0,0-2,1.57-2,7.47,0,0-1.88-10.58.74-16.06h-3.92a144.09,144.09,0,0,0-7.74,45.3,46.57,46.57,0,0,1-2.06-15.15s-10.8,7.08-12.34-4.55,2.68-22.49,2.68-22.49L186,169a60.56,60.56,0,0,0-40.82,36.39A64.3,64.3,0,0,0,141,223.87s-2.29-7.75,0-24.18c0,0-17,24.81-3.57,74.13L151,270.09a70,70,0,0,0-11.54,10.16,88.15,88.15,0,0,0,4.3,10.14,48.94,48.94,0,0,1,17.29-5.84s-8.21,5.61-13.57,12.62a99.29,99.29,0,0,0,6.45,9.4,47.78,47.78,0,0,1,20.88-9.33s-9.45,6.64-15.44,15.82c1.62,1.79,3.29,3.51,5,5.16a107.36,107.36,0,0,1,41.3-30.83L201.54,293a71.58,71.58,0,0,1,30.71-7.94s1.9-9.58,15.32-9.58,15.32,9.58,15.32,9.58A71.58,71.58,0,0,1,293.6,293l-4.12-5.63a107.44,107.44,0,0,1,41.3,30.83c1.7-1.66,3.37-3.37,5-5.16-6-9.17-15.44-15.82-15.44-15.82a47.78,47.78,0,0,1,20.88,9.33,100.59,100.59,0,0,0,6.45-9.4c-5.35-7-13.57-12.62-13.57-12.62a48.8,48.8,0,0,1,17.29,5.84,91.82,91.82,0,0,0,4.3-10.14,70,70,0,0,0-11.54-10.16l13.55,3.73C371.07,224.5,354.1,199.69,354.1,199.69ZM225.94,250.53C214,234.72,181.33,216.1,181.33,216.1,209.06,221.46,225.94,250.53,225.94,250.53Zm-7,21.3a103.77,103.77,0,0,1-31.75,19.69,55.94,55.94,0,0,0,14.54-12.73s-19.46,3.15-25.25,2.55a38.14,38.14,0,0,0,12.76-2.95s-36.14.94-45.85-38.52c0,0-4.27,2.51-8.59,1.61,0,0,3-13.87,22.86-14.33s39.25,9.31,52.92,26.86,22.64,24.05,27.23,10.05C237.76,264.06,239.6,280.77,218.9,271.83Zm94.87-55.73s-32.69,18.62-44.61,34.43C269.16,250.53,286,221.46,313.77,216.1Zm-7.87,62.29a38.42,38.42,0,0,0,12.76,2.95c-5.79.6-25.25-2.55-25.25-2.55A55.77,55.77,0,0,0,308,291.52a103.77,103.77,0,0,1-31.75-19.69c-20.7,8.94-18.86-7.77-18.86-7.77,4.59,14,13.56,7.5,27.23-10.05s33.09-27.33,52.92-26.86,22.86,14.33,22.86,14.33c-4.32.9-8.59-1.61-8.59-1.61C342,279.33,305.9,278.39,305.9,278.39ZM247.55,292.8s-8.62,1-11.5-5.76c0,0-2.46,8.71,11.5,8.71s11.5-8.71,11.5-8.71C256.17,293.8,247.55,292.8,247.55,292.8Z" transform="translate(-29.03 -18.4)"/><path class="cls-4" d="M289.54,162s-1.61,12.16,3.72,12.86c0,0-2.31,6.63,2.21,9.8,0,0-5.09,5.58-4,10.8s.47,10.25,11.12,9c0,0,0,14.87,9.58,19.89,0,0-9,.33-12.66-11.39,0,0,.3,20.23,17.48,18.72l31.42,3.78s13.45,10.05,8.74,44.48l7.5-23.93,5-50.15-27.2-22-50-24.33Z" transform="translate(-29.03 -18.4)"/><path class="cls-5" d="M208.25,275.85l-25.13.4L161,267.1,148.9,242.29l-2.14-9-4.69,3.15s-.27,23.44,16.21,39,31.21,9.65,31.21,9.65S184,291.62,177,293.73c0,0,11.65,2.31,31.25-11.86a22.68,22.68,0,0,1-11.35,10.95l1.61,2.87s25.76-7.26,26.42-19.85c0,0,2.68,1.34,0,8.17,0,0,3.75-2,3.75-10.38l-10.27-5.22Zm-60,25.86c1.54-6.36,12.79-17.15,12.79-17.15l-17.08,10.78s-4.62,4.69-2.48-6.77a37.42,37.42,0,0,1,10.25-18.89l-14.27,7.57-4.76,4.52,8.64,20.6L155,319.15s7.23,5.33,8.24.6,11.55-22.51,11.55-22.51l-23.48,11.22Zm-11.78-61.42,6.83-7c-2.14-17.68,3.18-35.55,5.95-43.32-2.45,8.57-4.21,24.9-4.21,24.9,7.77-25.72,28.8-44.34,28.8-44.34l-39.07,20.5-8.19,26.83,9.88,55.22C135,264.45,136.45,240.29,136.45,240.29ZM155.8,214c4.82-8.18,24.82-31.15,24.82-31.15C156.81,192.57,155.8,214,155.8,214Zm70.14,36.51S214,233.22,203.16,228a114.48,114.48,0,0,1-17.85-10.48l-4.69-1.44S213.88,247.52,225.94,250.53Zm3.59.9-.53-.13Zm1.33.33-.55-.14Zm-4.68-1.17-.19-.05ZM239.6,158.9l-5.89-4.15-25.4,4.5c-2.4,3-4.37,9-5.07,18-.12,1.51-.8,16.65,6.74,18.19A10.77,10.77,0,0,0,221.22,191l-.88,3.8c.65,15.44,3.79,18.22,3.79,18.22-1.47-15,4.62-43.54,4.62-43.54a61.24,61.24,0,0,0,9.78,27.61l-1.61-11.95Zm-11.12,92.27-.92-.23Z" transform="translate(-29.03 -18.4)"/><path class="cls-5" d="M264.79,251.62l-.55.14ZM271,213s3.14-2.78,3.79-18.22l-.88-3.8a10.77,10.77,0,0,0,11.24,4.47c7.55-1.54,6.86-16.68,6.74-18.19-.7-9-2.67-15-5.07-18l-25.4-4.5-5.89,4.15,2.68,26.24-1.61,12a61.24,61.24,0,0,0,9.78-27.61S272.44,198,271,213Zm-1.81,37.51c12.06-3,45.31-34.43,45.31-34.43l-4.69,1.44A113.55,113.55,0,0,1,291.93,228C281.07,233.22,269.16,250.53,269.16,250.53Zm-3.07.77-.53.13Zm39.51,33.79s14.74,5.89,31.21-9.65,16.21-39,16.21-39l-4.69-3.15-2.14,9L334.07,267.1,312,276.25l-25.13-.4-10.16-7.44-10.27,5.22c0,8.37,3.75,10.38,3.75,10.38-2.68-6.83,0-8.17,0-8.17.67,12.59,26.42,19.85,26.42,19.85l1.61-2.87a22.68,22.68,0,0,1-11.35-10.95c19.59,14.17,31.25,11.86,31.25,11.86C311.06,291.62,305.6,285.09,305.6,285.09Zm52-7.83-14.27-7.57a37.56,37.56,0,0,1,10.25,18.89c2.14,11.45-2.48,6.77-2.48,6.77l-17.08-10.78s11.25,10.78,12.79,17.15l-3.08,6.77L320.3,297.27s10.55,17.78,11.55,22.51,8.24-.6,8.24-.6l13.66-16.78,8.64-20.6Zm-88.73-26.67.19-.05Zm-2.3.58.92-.23Z" transform="translate(-29.03 -18.4)"/><path class="cls-6" d="M215,269.29a51.37,51.37,0,0,0-9.75-13.21c.29,3.72.49,11.08-1.77,15.8C207,271.26,210.84,270.41,215,269.29Zm127.49-30.4a76,76,0,0,0-18.6.3A32.84,32.84,0,0,1,333,263C342.79,252.93,342.44,238.89,342.44,238.89Zm-52.55,17.18a51.56,51.56,0,0,0-9.75,13.21c4.11,1.13,7.94,2,11.52,2.59C289.41,267.16,289.61,259.8,289.89,256.07ZM171.25,239.19a76,76,0,0,0-18.6-.3s-.35,14,9.43,24.13A32.84,32.84,0,0,1,171.25,239.19Zm131.07,58.36,4.62,8c-13.66-14.57-44.28-14.07-44.28-14.07,0,8-15.12,7.7-15.12,7.7s-15.12.27-15.12-7.7c0,0-30.61-.5-44.28,14.07l4.62-8S175.67,308.37,167,320.73c20.23,18.52,44.54,28.19,56.43,30l6.73-5.53,17.39-.1,17.39.1,6.73,5.53c11.89-1.78,36.2-11.45,56.43-30C319.41,308.38,302.32,297.55,302.32,297.55Zm-37.48,37.78c-8.59,5.48-11.86,4.72-17.29,4.92-5.44-.2-8.7.55-17.29-4.92-12.19-7.77-12.31-14.92-11.6-19.54s6.68-5.58,11.91-2.86,17,2.81,17,2.81,11.77-.1,17-2.81,11.2-1.76,11.91,2.86S277,327.56,264.84,335.33Z" transform="translate(-29.03 -18.4)"/><path class="cls-4" d="M220.61,166.13a6.14,6.14,0,0,0-.27.64Zm-4.72,20s-4.67-.18-3.72-24.11c0,0-6.5,28.89,2.85,26.38,9-2.42,3.06-15.42,5.32-21.62C219.28,169.29,215.54,178.78,215.89,186.13Zm-35.82,81.48s9.53-8.07,7.94-21.35A31.08,31.08,0,0,0,180.07,267.61Zm94.69-100.84a6.14,6.14,0,0,0-.27-.64Zm4.45,19.36c.35-7.35-3.39-16.84-4.45-19.35,2.26,6.2-3.7,19.19,5.32,21.62,9.34,2.51,2.85-26.38,2.85-26.38C283.88,186,279.21,186.13,279.21,186.13Zm-31.66,7.53c-9.13,0-9.62-20.7-9.62-20.7,0,26.29,9.62,24.31,9.62,24.31s9.62,2,9.62-24.31C257.17,173,256.68,193.66,247.55,193.66Zm59.54,52.6c-1.59,13.28,7.94,21.35,7.94,21.35A31.08,31.08,0,0,0,307.09,246.26Z" transform="translate(-29.03 -18.4)"/><path class="cls-7" d="M186.71,243.49a60.08,60.08,0,0,0-9.71-3.21,18.57,18.57,0,0,0-7.49,8.23c-2.58,6.09-2.38,14.06-2,18.58-.18-2.34-.73-15.23,8.56-21.73,0,0-4.63,10.78-1,19.35h0A29.84,29.84,0,0,1,186.71,243.49Zm14.15,8.62c2,14.33-6.47,17.91-6.47,17.91,5.28-9-1.76-20.74-4.7-25,.71,2.89,1.35,8,.08,15.43-1.13,6.69-4.12,10.3-6.64,12.22a64.51,64.51,0,0,0,15-.08,24.28,24.28,0,0,0,4-19.46Zm124.72-3.59a18.57,18.57,0,0,0-7.49-8.23,60.4,60.4,0,0,0-9.71,3.21A29.72,29.72,0,0,1,320,264.74h0c3.66-8.58-1-19.35-1-19.35,9.29,6.5,8.75,19.38,8.56,21.73C328,262.58,328.16,254.61,325.58,248.52Zm-96,80.68c4.55,6.36,18,6.1,18,6.1s13.44.27,18-6.1c0,0-6.8-5.17-18-5.17S229.55,329.2,229.55,329.2Zm75.78-68.72c-1.26-7.46-.63-12.55.08-15.43-3,4.24-10,16-4.7,25,0,0-8.52-3.58-6.47-17.91-.42.35-.84.7-1.24,1a24.28,24.28,0,0,0,4,19.46,65.07,65.07,0,0,0,15,.08C309.45,270.78,306.47,267.16,305.33,260.48Z" transform="translate(-29.03 -18.4)"/><path class="cls-4" d="M456,172.42a32.79,32.79,0,0,0-20.21-6.87H417.42l-13.25-43.43a7.85,7.85,0,0,0-2.33-3.6L392.06,110c-5.19-23.77-22.74-42.32-36.82-53.85-17.74-14.52-39.76-26-60.43-31.43a179.69,179.69,0,0,0-44.34-6.28c-1.39,0-2.39,0-2.91.05s-1.52-.05-2.91-.05a179.69,179.69,0,0,0-44.34,6.28c-20.67,5.46-42.7,16.91-60.43,31.43C125.79,67.64,108.25,86.19,103.06,110l-9.78,8.56a7.85,7.85,0,0,0-2.33,3.6L77.7,165.55H59.33a32.82,32.82,0,0,0-20.2,6.86c-6.61,5.18-10.1,12-10.1,19.84V298.64a38.77,38.77,0,0,0,5.75,20.51C41,329.19,50.42,334.5,62,334.5H74.76c.45,3.82,1.14,8.8,2.18,14.1,2.71,13.86,6.48,23.65,11.46,29.75-.37,10.21.36,39.2,18.43,60.18C118,451.47,133.49,458.91,153,460.7c2.49,3.37,7,7.84,15.16,12,17.31,8.95,44,13.48,79.41,13.48s62.1-4.54,79.41-13.48c8.13-4.2,12.67-8.67,15.16-12,19.5-1.78,35-9.23,46.16-22.17,18.07-21,18.8-50,18.43-60.18,5-6.1,8.74-15.89,11.46-29.75,1-5.3,1.73-10.28,2.18-14.1h12.79c11.56,0,21-5.31,27.19-15.35a38.8,38.8,0,0,0,5.75-20.51V192.25C466.07,184.46,462.58,177.6,456,172.42Z" transform="translate(-29.03 -18.4)"/><path class="cls-8" d="M77.84,286.06a16,16,0,0,1-4.17-.55,11.32,11.32,0,0,0,19.59-10.83A16.13,16.13,0,0,1,77.84,286.06Zm152.42,49.27c8.59,5.48,11.86,4.72,17.29,4.92,5.44-.2,8.7.55,17.29-4.92,12.19-7.77,12.31-14.92,11.6-19.54s-6.68-5.58-11.91-2.86-17,2.81-17,2.81-11.77-.1-17-2.81-11.2-1.76-11.91,2.86S218.07,327.56,230.26,335.33ZM247.55,324c11.19,0,18,5.17,18,5.17-4.55,6.36-18,6.1-18,6.1s-13.44.27-18-6.1C229.55,329.2,236.36,324,247.55,324Zm29.5,135.64s19.34,3.09,19.94-11.35A22.39,22.39,0,0,1,277.05,459.67Zm15-10.6s1-10.58,1-16.48-8.2-5.23-8.2-5.23l-37.26,3.08-37.26-3.08s-8.2-.67-8.2,5.23,1,16.48,1,16.48.23,6,11.3,7.5c10.36,1.38,24.6,2.76,33.19,2.93,8.58-.17,22.83-1.55,33.19-2.93C291.81,455.1,292,449.07,292,449.07ZM401.83,274.68a11.32,11.32,0,0,0,19.59,10.83,16,16,0,0,1-4.17.55A16.15,16.15,0,0,1,401.83,274.68ZM198.1,448.31c.6,14.44,19.94,11.35,19.94,11.35A22.36,22.36,0,0,1,198.1,448.31Zm253-269.75a24.88,24.88,0,0,0-15.38-5.2H411.63l-14.93-49-11.79-10.32c-6.83-39.19-54.79-72-92.1-81.85-25.49-6.73-43.62-6-45.15-6h-.22c-1.53-.07-19.67-.76-45.15,6C165,42.08,117,74.9,110.19,114.08L98.4,124.4l-14.94,49H59.33A24.88,24.88,0,0,0,44,178.56c-3.77,2.95-7.11,7.36-7.11,13.69V298.64A31,31,0,0,0,41.41,315c3.62,5.83,9.9,11.66,20.55,11.66H81.85s2.48,38.18,14.54,48.76c0,0-7.5,74.42,61.22,77.73,0,0,7.66,25.22,89.93,25.22s89.93-25.22,89.93-25.22c68.73-3.32,61.22-77.73,61.22-77.73,12.06-10.58,14.54-48.76,14.54-48.76h19.89c10.65,0,16.93-5.83,20.55-11.66a31,31,0,0,0,4.57-16.39V192.25C458.26,185.92,454.91,181.52,451.14,178.56ZM247.55,37.62c95.56,0,126.88,70,123.69,67.52-2.71-2.14-5.58-4.16-8.56-6.07-11.88-14.9-38.14-42.41-75.18-50.45-46.5-10.09-89.43-.38-99.35,6,0,0,48.84-18.56,78,15-4.7-.54-8.69-.9-11.76-1.14a88.73,88.73,0,0,0-13.64,0c-20.33,1.59-81.34,8.57-116.87,36.65C120.67,107.66,152,37.62,247.55,37.62Zm39.67,33.79-8.54-4.85C268.34,54,244,48.78,244,48.78,279.73,49.57,287.11,71.08,287.22,71.41Zm-176.9,55.34C167.45,74.5,247.54,78.39,247.55,78.39s80.09-3.88,137.23,48.36L399.52,174h-9.64l-14.47-39.52,4.28,19.55c-.11-.33-3.71-11.13-14.19-16.67-10.65-5.63-25.86-20.3-29.34-26.46s-7-14.2-7-14.2l-4.82-1.48L334,131.83l-7-2.61-7.91-30.14s-1.09-5.49-4.31-7a6.56,6.56,0,0,1,.87,3.7,53.48,53.48,0,0,0-16.61-8.52c-20.73-5.83-57-10.15-84-1.27,0,0,55.83-11.19,62,28.16-4.55-.83-9.36-1.54-14.31-2a148.65,148.65,0,0,0-15.2-.8c-34.65,0-67.09,13.39-67.09,13.39-5.09.67-6.5-5.89-6-9.64S176,99.09,176,99.09l-7.91,30.14-7,2.61,9.65-36.57L166,96.75s-3.49,8-7,14.2-18.69,20.83-29.34,26.46c-10.48,5.54-14.09,16.34-14.19,16.67l4.28-19.55-14.47,39.52H95.62ZM388.38,374.28c.05.23,1.14,4.86.6,7,0,0-11,.47-12.13-5.29h0c3.08-.93,9.57-3.22,12.58-6.87a64.69,64.69,0,0,1,1.86,12.16h-.81A13.72,13.72,0,0,0,388.38,374.28Zm-283.77,7h-.81a65.51,65.51,0,0,1,1.86-12.16c3,3.64,9.51,5.94,12.58,6.87h0c-1.13,5.76-12.13,5.29-12.13,5.29-.54-2.11.55-6.74.6-7A14,14,0,0,0,104.61,381.25Zm5.63-14.92a67.25,67.25,0,0,1,3.3-8.54,25,25,0,0,0-5.21,6.78l-.91-.93a66.63,66.63,0,0,1,7-13.56c1.74,3.74,8.08,10.62,8.08,10.62C117.1,372.32,110.24,366.33,110.24,366.33Zm8.82-15.79c.57-1.81,4-6,4-6a20.62,20.62,0,0,0-5.63,4.89l-1.07-2c5.13-6.56,9.51-8.79,9.51-8.79l4.55,9.18q-1.53,1.8-2.85,3.71C122,354.22,119.06,350.54,119.06,350.54Zm-.86-125.81c.28,14.67,3.11,35.94,12.88,63.68,0,0-8.44,3-10.85-6.73s-9.11-36.37-9.91-48.16c0-.09,0-.18,0-.26Zm-8.44,2.81c-.83-8.39-.85-14.83,10.87-27-.06.18-2,6.12-2.39,17.7ZM147.26,153a24.72,24.72,0,0,1,7-5.73c4.22-2.21,24.62-17.68,71-26.39l-6.53,13.46s-14.34,1.58-37,9.77c-27.64,10-30.56,8.28-42.75,27.27-9,14-9.38,15.74-9.38,15.92l-1.2-7.08,13-27-7.34,18.89ZM232,133.78h31.17L271,141s25.52,6.13,43.16,11.43c14.68,4.42,28.09,9.95,28.09,9.95,2.76,3.18,10.41,16.6,10.41,16.6s-46.71-28-105.07-28-105.07,28-105.07,28,7.65-13.41,10.41-16.6c0,0,13.4-5.53,28.09-9.95,17.64-5.3,43.16-11.43,43.16-11.43Zm-4.89-5.63,4.49-8.17,16-1.34,16,1.34,4.49,8.17L266,127.08h-36.8Zm126.59,25,13,27-1.2,7.08c0-.18-.36-1.88-9.38-15.92-12.19-19-15.11-17.28-42.75-27.27-22.65-8.19-37-9.77-37-9.77l-6.53-13.46c46.35,8.71,66.75,24.18,71,26.39a24.72,24.72,0,0,1,7,5.73L361,172.06Zm7.56,187.66A107.49,107.49,0,0,0,350.15,338l2-4a69.77,69.77,0,0,1,11,3Zm5.67,25.44a51.48,51.48,0,0,1-6.65,6.38l2-14.41A55.46,55.46,0,0,1,366.89,366.27Zm-13.1-35.61,1.61-3.26a65.45,65.45,0,0,1,11.19,3.07l-1.43,2.75A59.62,59.62,0,0,0,353.79,330.66Zm3.33-6.73,1.77-3.59,10.76,4.24-1.06,2A48.87,48.87,0,0,0,357.12,323.93Zm3.81-7.73,1.2-2.44s7-.69,11.25,3.59l-1.79,3.46ZM364,288.41c9.77-27.74,12.6-49,12.88-63.68l7.9,8.52c0,.08,0,.17,0,.26-.8,11.79-7.5,38.41-9.91,48.16S364,288.41,364,288.41ZM274.76,166.77l-.27-.64a6.14,6.14,0,0,1,.27.64c1.05,2.51,4.79,12,4.45,19.35,0,0,4.67-.18,3.72-24.11,0,0,6.5,28.89-2.85,26.38C271.06,186,277,173,274.76,166.77ZM257.17,173c0,26.29-9.62,24.31-9.62,24.31s-9.62,2-9.62-24.31c0,0,.49,20.7,9.62,20.7S257.17,173,257.17,173ZM215,188.39c-9.34,2.51-2.85-26.38-2.85-26.38-1,23.93,3.72,24.11,3.72,24.11-.35-7.35,3.39-16.84,4.45-19.35a6.14,6.14,0,0,1,.27-.64l-.27.64C218.08,173,224,186,215,188.39ZM133,313.76l1.2,2.44-10.67,4.62-1.79-3.46C126,313.07,133,313.76,133,313.76Zm-3,19.45-1.43-2.75a66.39,66.39,0,0,1,11.19-3.07l1.61,3.26A61.59,61.59,0,0,0,129.93,333.21Zm13.07.88,2,4a107.08,107.08,0,0,0-11.08,2.79l-1.92-3.7A68.77,68.77,0,0,1,143,334.09Zm-16.49-7.47-1.06-2,10.76-4.24,1.77,3.59A48.61,48.61,0,0,0,126.51,326.62Zm6.32,31.62,5,35.49c-4.69-3.14-11-7-14.48-9.11A53.91,53.91,0,0,1,132.83,358.24Zm6.6,46.8,2.51,17.77s-9.51-2.72-14.87-14.34a44.6,44.6,0,0,1-3.66-14.27Zm-1.11-55.64L136.53,346a56.52,56.52,0,0,1,10.8-3.09l1.58,3.19Zm18.39-1.82a2.79,2.79,0,0,1,2.85.49l.13.12-12.35,7.35a3.57,3.57,0,0,1-4-.21l-2.11-1.58Zm-.05,9.81c5,2.6,10.84,5.65,17.15,8.7a46.25,46.25,0,0,1,8.55,10.59c1.39,2.29,2.47,4.4,4.91,5.52l7.37,3.41a14.27,14.27,0,0,0,3.88.46l5.11.37a3.89,3.89,0,0,0,2.28-1.08,8.5,8.5,0,0,0,2.23-3l1.13-2.44c1.12.28,2.22.53,3.3.74l1.35.27c-.79,2.64-3,6.09-8.9,7.09a37,37,0,0,0-12.71,4.4c-11.26-7.26-26.32-19.24-27.4-24.09-1.41-6.3-10.92-9.92-10.92-9.92Zm75.77-65.87c0,8,15.12,7.7,15.12,7.7s15.12.27,15.12-7.7c0,0,30.61-.5,44.28,14.07l-4.62-8s17.09,10.82,25.79,23.18c-20.23,18.52-44.54,28.19-56.43,30L265,345.17l-17.39-.1-17.39.1-6.73,5.53c-11.89-1.78-36.2-11.45-56.43-30,8.69-12.35,25.79-23.18,25.79-23.18l-4.62,8C201.82,291,232.43,291.52,232.43,291.52Zm3.62-4.48c2.88,6.77,11.5,5.76,11.5,5.76s8.62,1,11.5-5.76c0,0,2.46,8.71-11.5,8.71S236.05,287,236.05,287Zm73.53,84.44,2.26-1c-1.16,2-2.35,4.21-3,5.58-1.41,3.16-5.69,4.95-5.69,4.95l-9.13,1.28a3.1,3.1,0,0,1-3.26-1.83l-.73-1.68c4.68-1.39,9.6-3.19,14.54-5.21-1.26,3.21-2.83,6.29-2.83,6.29C304.58,378.3,307.46,374.63,309.58,371.48Zm-28.82,4.18a9.23,9.23,0,0,1-6.95-.62l-2.57-1.33L277.47,358c8.71-1.26,29.94-11.38,30.27-11.53-5.09,5.44-30.54,16.39-30.94,16.55,13.2-3.08,41.14-16.15,41.14-16.15-3.57,4.37-21.15,14.42-21.15,14.42,12.16-3.19,33.32-16,33.65-16.17C318.38,362.77,290.75,372.59,280.76,375.66Zm-9.59-15.81L268,367.69a3.61,3.61,0,0,1-3,2.24l-15.48,1.76a28.33,28.33,0,0,1-4.12,0c-6.25-.37-17.55-2-17.55-2l-.81-2-3.16-7.84,2.41.75,4.89,6.07a5.8,5.8,0,0,0,2.9.94l12.43.56q1,0,2,0l12.43-.56a5.78,5.78,0,0,0,4.39-2.36l2.34-3.21a5.42,5.42,0,0,1,2.75-2Zm-94-13s27.94,13.08,41.14,16.15c-.4-.17-25.85-11.12-30.94-16.55.33.16,21.57,10.27,30.27,11.53l6.23,15.74L221.28,375a9.23,9.23,0,0,1-6.95.62c-10-3.08-37.62-12.89-49.69-30.58.33.2,21.49,13,33.65,16.17C198.3,361.25,180.72,351.21,177.15,346.84Zm13.33,26.74c4.94,2,9.86,3.82,14.54,5.21l-.73,1.68A3.09,3.09,0,0,1,201,382.3L191.9,381s-4.29-1.78-5.69-4.95c-.61-1.37-1.8-3.55-3-5.58.75.33,1.5.67,2.26,1,2.12,3.15,5,6.82,7.8,8.39C193.31,379.87,191.74,376.79,190.48,373.58Zm21.92,17.48c3-2.06,4.65-6.41,5.48-9.37,20.7,2.67,29.67,2.73,29.67,2.73s3.08,0,9.77-.57c-1.08,1.9-3.29,4.12-7.77,5.84,0,0-1.56,7.74-3.42,9.8,0,0,.7-8.46-1.17-11.71,0,0-2,18.45-25.79,11.71A68.78,68.78,0,0,0,247.55,406c9.89,0,27.42-4.09,40.08-8.87,0,0-.06-.61-3.67-1.77-3.33-1.07-7.5-4.81-8.78-13.4l2-.26c.83,3,2.49,7.31,5.48,9.37,4.23,2.92,9,1.23,14.14,5-1,.53-1.84,1-2.62,1.33-9.65,4.42-30.77,11.66-46.67,11.66s-37-7.24-46.67-11.66c-.78-.36-1.66-.81-2.62-1.33C203.37,392.3,208.18,394,212.4,391.06Zm77.67-3c-5.94-1-8.11-4.45-8.9-7.09l1.35-.27c1.08-.22,2.18-.47,3.3-.74l1.13,2.44a8.75,8.75,0,0,0,2.23,3,3.89,3.89,0,0,0,2.28,1.08l5.11-.37a14.27,14.27,0,0,0,3.88-.46l7.37-3.41c2.44-1.13,3.52-3.23,4.91-5.52a46.52,46.52,0,0,1,8.55-10.59c6.31-3.05,12.2-6.1,17.15-8.7l2.66,1.05s-9.51,3.62-10.92,9.92c-1.08,4.85-16.14,16.83-27.4,24.09A36.38,36.38,0,0,0,290.07,388.05Zm30.23-90.8s9.45,6.64,15.44,15.82c-1.62,1.79-3.29,3.51-5,5.16a107.36,107.36,0,0,0-41.3-30.83l4.12,5.63a71.58,71.58,0,0,0-30.71-7.94s-1.9-9.58-15.32-9.58-15.32,9.58-15.32,9.58A71.58,71.58,0,0,0,201.51,293l4.12-5.63a107.44,107.44,0,0,0-41.3,30.83c-1.7-1.66-3.37-3.37-5-5.16,6-9.17,15.44-15.82,15.44-15.82a47.78,47.78,0,0,0-20.88,9.33,100.59,100.59,0,0,1-6.45-9.4c5.35-7,13.57-12.62,13.57-12.62a48.8,48.8,0,0,0-17.29,5.84,91.82,91.82,0,0,1-4.3-10.14A70,70,0,0,1,151,270.1l-13.55,3.73C124,224.51,141,199.7,141,199.7c-2.29,16.43,0,24.18,0,24.18a64.63,64.63,0,0,1,4.12-18.45A60.58,60.58,0,0,1,185.93,169l23.64-6.38s-4.22,10.85-2.68,22.49,12.34,4.55,12.34,4.55a46.57,46.57,0,0,0,2.06,15.15,143.75,143.75,0,0,1,7.74-45.3H233c-2.61,5.48-.74,16.06-.74,16.06,0-5.89,2-7.47,2-7.47,0,40.19,13.31,35.17,13.31,35.17s13.31,5,13.31-35.17c0,0,2,1.57,2,7.47,0,0,1.88-10.58-.74-16.06H266a144.09,144.09,0,0,1,7.74,45.3,46.57,46.57,0,0,0,2.06-15.15s10.8,7.08,12.34-4.55-2.68-22.49-2.68-22.49L309.13,169A60.56,60.56,0,0,1,350,205.43a64.3,64.3,0,0,1,4.12,18.45s2.29-7.75,0-24.18c0,0,17,24.81,3.57,74.13l-13.55-3.73a70,70,0,0,1,11.54,10.16,88.15,88.15,0,0,1-4.3,10.14A48.94,48.94,0,0,0,334,284.56s8.21,5.61,13.57,12.62a99.29,99.29,0,0,1-6.45,9.4A47.51,47.51,0,0,0,320.3,297.25Zm27.47,45.61a56.2,56.2,0,0,1,10.8,3.09l-1.79,3.45-10.58-3.35Zm23.92,51.35A44.67,44.67,0,0,1,368,408.48c-5.36,11.62-14.87,14.34-14.87,14.34l2.51-17.77Zm-14.43-.48,1.5-10.63c3.34-2.42,7.92-5.84,11.15-8.65a55.18,55.18,0,0,1,1.83,10.17C368.25,386.74,362,390.6,357.26,393.73Zm10.2-42.23q-1.32-1.9-2.85-3.71l4.55-9.18s4.38,2.23,9.51,8.79l-1.07,2A20.62,20.62,0,0,0,372,344.5s3.48,4.22,4,6C376,350.54,373.07,354.22,367.46,351.5Zm13.18-1.42a66.37,66.37,0,0,1,7,13.56l-.91.93a24.76,24.76,0,0,0-5.21-6.78,67.25,67.25,0,0,1,3.3,8.54s-6.86,6-12.3-5.62C372.56,360.71,378.9,353.83,380.64,350.08Zm5.93-2.24c-6.25-9.33-13.18-18-13.18-18l7.37-13.66c0,7.1,4.95,10.13,10.29,11.33A112.78,112.78,0,0,1,386.57,347.84ZM376.85,218.2c-.38-11.58-2.33-17.51-2.39-17.7,11.72,12.21,11.71,18.65,10.87,27ZM46.69,301.67V194.06c0-12,11.92-11.18,11.92-11.18h42.47c7.77,0,6.56,7.64,6.56,7.64v19.56a30.09,30.09,0,0,0-2.81,11.39c-.54,7.23,4.62,40.06,4.62,40.06v41.06c0,6.38-1.46,10-3.19,12.08.17-4.19-.17-10.48-3.3-13.49V200.49s.7-4.52-2.71-4.52l5.33-10.62s-6.7,5.56-9.58,5.56H62.57s-6.83-1.88-8.24-5.09a68.2,68.2,0,0,1,1,12.06v96.26s-.3,5.22,3.52,5.22L53.2,315.17C46.51,310.86,46.69,301.67,46.69,301.67Zm48.53-93.94v83c0,8.84-6.33,7.64-6.33,7.64H71.21c-9.55,0-9-7.84-9-7.84V202.1c0-3.57,4.42-3.12,4.42-3.12h20.8C95.52,199,95.22,207.73,95.22,207.73ZM61.46,317.35a15.16,15.16,0,0,1-7.77-1.88c2.56-4.16,7.82-10.78,15.41-10.78H92.21s11.67-2,13.47,10.6a6.77,6.77,0,0,1-5,2.06ZM91,327.83s23.31,3.75,23.31-11.65l7.37,13.66s-20,24.92-22.64,35.77C99.07,365.61,91,346.05,91,327.83Zm14.74,73.75-.43.21a74.94,74.94,0,0,1-1.67-15.31c3.84.93,9.88,1,13.79,1,0,1.12.1,3.31.1,3.31-.8,7.7-9.38,10.12-9.38,10.12-2.14-2.75-1.74-10.65-1.74-10.65A20.61,20.61,0,0,0,105.77,401.58Zm5.75,17.22a61.77,61.77,0,0,1-4.83-11.74A30.26,30.26,0,0,0,119.25,403c.12.5.23,1,.36,1.49h0c1.43,12.55-4.93,12.75-4.93,12.75-1.78-.73-3.59-5.83-3.59-5.83a12.39,12.39,0,0,0,2,6.7Zm9.86,11.78-.83.49a52.17,52.17,0,0,1-6.58-8.16c3.21-1.38,8-3.71,10.84-5.08,2.67,10.77-1.73,11.48-1.73,11.48-1.13-2.29-4.18-4.5-4.18-4.5C118.69,427.54,121.38,430.58,121.38,430.58Zm12.32,7.47c-2.08-.1-5.33-3.05-5.33-3.05a13,13,0,0,0,2.52,4.17,51.6,51.6,0,0,1-7-5c2.49-1.68,6.28-4.44,8.7-6.21A19.77,19.77,0,0,1,133.7,438.05Zm2.37,3.84a36.57,36.57,0,0,0,6.58-8.33c.7.3,1.09.44,1.09.44l.68,6.31-3.87-.49s.36,2.07,4.22,3.78l.17,1.54A61,61,0,0,1,136.07,441.89Zm38.37,14.59c-14.91-10.18-21.25-12-21.25-12L146.32,397c4.11.84,10.17,2.15,14,3.28,8.69,2.58,2.31,34.13,11.32,40.16a11.52,11.52,0,0,1,4.85,6.33l1.94,12.13A41.72,41.72,0,0,1,174.44,456.48Zm140.47-18.06-13.38,26.27c-23.9,6.7-54,6.68-54,6.68s-30.09,0-54-6.68l-13.38-26.27c-13.53.75-7.17-24.45-12.57-38a7.9,7.9,0,0,0-5.72-4.51l-16.27-3.72-.87-6c5.22.48,14.95,1.81,19.88,5.38,6.39,4.63,19.93,12.83,22,14.08-18-10.92-27.45-25.65-30.11-31.22a5.83,5.83,0,0,0-3.25-3l-11.38-5-.64-4.43,13.27,4.31a7.23,7.23,0,0,1,4.39,4c2.89,6.55,15,22.28,41.85,33.93,28.05,12.16,46.78,10.4,46.78,10.4s18.73,1.76,46.78-10.4c26.88-11.65,39-27.38,41.85-33.93a7.26,7.26,0,0,1,4.39-4l13.27-4.31-.64,4.43-11.38,5a5.87,5.87,0,0,0-3.25,3,67.36,67.36,0,0,1-9.75,14.09c-11.61,10-39.09,29-84.18,33,0,0,41.6,1.31,51.75-2.71,0,0,6.43,1.91,6.43,6.33s-.8,30-.8,30l9.65-18.29s1.67-25.68,15.35-35.14c-2.23,6.8-2,16-2.79,23.43C323.4,432.89,321.56,438.79,314.91,438.42Zm27,6a36,36,0,0,0-5.26,2.32l3.16-37.06c-.19.82-6.26,27-12.59,33.72a29.38,29.38,0,0,0-7,13.34c-1.13.75-2.32,1.46-3.58,2.13l1.94-12.13a11.52,11.52,0,0,1,4.85-6.33c9-6,2.63-37.58,11.32-40.16,3.83-1.13,9.89-2.44,14-3.28Zm8.23.71.17-1.54c3.87-1.71,4.22-3.78,4.22-3.78l-3.87.49.68-6.31s.4-.14,1.09-.44A36.57,36.57,0,0,0,359,441.9,61.58,61.58,0,0,1,350.14,445.15Zm14.06-6a12.48,12.48,0,0,0,2.52-4.17s-3.25,2.95-5.33,3.05A19.77,19.77,0,0,1,362.47,428c2.42,1.77,6.21,4.53,8.7,6.21A51.6,51.6,0,0,1,364.2,439.17Zm10.35-8.1-.83-.49s2.69-3,2.48-5.78c0,0-3.05,2.21-4.18,4.5,0,0-4.4-.71-1.73-11.48,2.81,1.37,7.64,3.7,10.84,5.08A51.78,51.78,0,0,1,374.55,431.07Zm9-12.27-1.55-.68a12.35,12.35,0,0,0,2-6.7s-1.81,5.09-3.59,5.83c0,0-6.36-.19-4.93-12.75h0c.13-.49.24-1,.36-1.49a30.2,30.2,0,0,0,12.56,4.05A61.77,61.77,0,0,1,383.57,418.8Zm6.19-17-.43-.21a20.64,20.64,0,0,0-.67-11.32s.4,7.9-1.74,10.65c0,0-8.58-2.43-9.38-10.12,0,0,.09-2.19.1-3.31,3.91,0,9.95-.07,13.79-1A75,75,0,0,1,389.76,401.78ZM396,365.61c-.74-3-2.81-7.08-5.41-11.42a68.68,68.68,0,0,0,7.84-26,40.78,40.78,0,0,0,5.6-.4C404.06,346.05,396,365.61,396,365.61Zm37.61-48.26H394.45a6.77,6.77,0,0,1-5-2.06c1.79-12.63,13.47-10.6,13.47-10.6H426c7.59,0,12.85,6.62,15.41,10.78A15.26,15.26,0,0,1,433.64,317.35Zm-9.75-19H406.21s-6.33,1.2-6.33-7.64v-83s-.3-8.74,7.84-8.74h20.8s4.42-.45,4.42,3.12v88.42S433.44,298.36,423.89,298.36Zm18,16.81-5.65-15.81c3.82,0,3.52-5.22,3.52-5.22V197.88a68.35,68.35,0,0,1,1-12.06c-1.41,3.21-8.24,5.09-8.24,5.09H399.1c-2.88,0-9.58-5.56-9.58-5.56L394.85,196c-3.42,0-2.71,4.52-2.71,4.52V301.17c-3.13,3-3.47,9.3-3.3,13.49-1.73-2.07-3.19-5.7-3.19-12.08V261.52s5.15-32.82,4.62-40.06a30.09,30.09,0,0,0-2.81-11.39V190.51s-1.21-7.64,6.56-7.64h42.47s11.92-.8,11.92,11.18V301.66S448.59,310.86,441.9,315.17Zm-26.75-58.38a12.76,12.76,0,1,0,12.76,12.76A12.76,12.76,0,0,0,415.15,256.79Zm0-48.86a12.76,12.76,0,1,0,12.76,12.76A12.76,12.76,0,0,0,415.15,207.93Zm-2.71,34a11.29,11.29,0,0,0,9-4.44,16.38,16.38,0,0,1-4.17.54,16.15,16.15,0,0,1-15.43-11.38A11.33,11.33,0,0,0,412.44,242ZM210.53,254c-13.66-17.55-33.09-27.33-52.92-26.86s-22.86,14.33-22.86,14.33c4.32.9,8.59-1.61,8.59-1.61,9.71,39.45,45.85,38.52,45.85,38.52a38.42,38.42,0,0,1-12.76,2.95c5.79.6,25.25-2.55,25.25-2.55a55.77,55.77,0,0,1-14.54,12.73,103.77,103.77,0,0,0,31.75-19.69c20.7,8.94,18.86-7.77,18.86-7.77C233.17,278.06,224.19,271.56,210.53,254Zm-57.87-15.12a76,76,0,0,1,18.6.3A32.84,32.84,0,0,0,162.09,263C152.3,252.93,152.66,238.89,152.66,238.89Zm22.46,25.84c-3.66-8.58,1-19.35,1-19.35-9.29,6.5-8.75,19.38-8.56,21.73-.4-4.52-.6-12.49,2-18.58A18.57,18.57,0,0,1,177,240.3a60.4,60.4,0,0,1,9.71,3.21,29.72,29.72,0,0,0-11.58,21.24Zm4.95,2.88A31.08,31.08,0,0,1,188,246.26C189.6,259.54,180.07,267.61,180.07,267.61Zm18.06,5a65.07,65.07,0,0,1-15,.08c2.52-1.92,5.51-5.53,6.64-12.22,1.26-7.46.63-12.55-.08-15.43,2.95,4.24,10,16,4.7,25,0,0,8.52-3.58,6.47-17.91.42.35.84.7,1.24,1A24.23,24.23,0,0,1,198.13,272.62Zm5.3-.75c2.26-4.71,2.06-12.07,1.77-15.8A51.56,51.56,0,0,1,215,269.28C210.84,270.41,207,271.26,203.43,271.87ZM313.77,216.1c-27.73,5.36-44.61,34.43-44.61,34.43C281.08,234.72,313.77,216.1,313.77,216.1ZM67.19,220.69A12.76,12.76,0,1,0,80,207.93,12.76,12.76,0,0,0,67.19,220.69Zm158.75,29.84s-16.88-29.07-44.61-34.43C181.32,216.1,214,234.72,225.94,250.53ZM77.84,238.06a16.38,16.38,0,0,1-4.17-.54,11.32,11.32,0,0,0,19.59-10.83A16.13,16.13,0,0,1,77.84,238.06ZM92.7,269.55a12.76,12.76,0,1,0-12.76,12.76A12.76,12.76,0,0,0,92.7,269.55Zm259.05-29.67s4.27,2.51,8.59,1.61c0,0-3-13.87-22.86-14.33s-39.25,9.31-52.92,26.86-22.64,24-27.23,10c0,0-1.84,16.71,18.86,7.77a103.77,103.77,0,0,0,31.75,19.69A55.94,55.94,0,0,1,293.4,278.8s19.46,3.15,25.25,2.55a38.14,38.14,0,0,1-12.76-3S342,279.33,351.75,239.88Zm-9.31-1s.35,14-9.43,24.13a32.78,32.78,0,0,0-9.17-23.83A76,76,0,0,1,342.44,238.89Zm-24.35,1.4a18.57,18.57,0,0,1,7.49,8.23c2.58,6.09,2.38,14.06,2,18.58.18-2.34.73-15.23-8.56-21.73,0,0,4.63,10.78,1,19.35h0a29.78,29.78,0,0,0-11.58-21.24A60.94,60.94,0,0,1,318.09,240.29Zm-11,6A31.08,31.08,0,0,1,315,267.61S305.5,259.54,307.09,246.26Zm-26.94,23a51.37,51.37,0,0,1,9.75-13.21c-.29,3.72-.49,11.08,1.77,15.8C288.08,271.26,284.25,270.41,280.15,269.29ZM297,272.62a24.28,24.28,0,0,1-4-19.46c.4-.35.82-.7,1.24-1-2,14.33,6.47,17.91,6.47,17.91-5.28-9,1.76-20.74,4.7-25-.71,2.89-1.35,8-.08,15.43,1.13,6.69,4.12,10.3,6.64,12.22A63.83,63.83,0,0,1,297,272.62Z" transform="translate(-29.03 -18.4)"/><path class="cls-9" d="M164.91,368.35c1.08,4.85,16.14,16.83,27.4,24.09A37.21,37.21,0,0,1,205,388c5.94-1,8.11-4.45,8.9-7.09l-1.35-.27c-1.08-.22-2.18-.47-3.3-.74l-1.13,2.44a8.75,8.75,0,0,1-2.23,3,3.89,3.89,0,0,1-2.28,1.08l-5.11-.37a14.27,14.27,0,0,1-3.88-.46l-7.37-3.41c-2.44-1.13-3.52-3.23-4.91-5.52a46.52,46.52,0,0,0-8.55-10.59c-6.31-3-12.2-6.1-17.15-8.7L154,358.44S163.51,362.06,164.91,368.35Zm-17.57-12.81,12.35-7.35-.13-.12a2.75,2.75,0,0,0-2.85-.49l-15.44,6.17,2.11,1.58A3.55,3.55,0,0,0,147.34,355.54ZM340.8,147.24c-4.22-2.21-24.62-17.68-71-26.39l6.53,13.46s14.34,1.58,37,9.77c27.64,10,30.56,8.28,42.75,27.27,9,14,9.38,15.74,9.38,15.92l1.2-7.08-13-27L361,172.05,347.84,153A25.29,25.29,0,0,0,340.8,147.24Zm9.34,190.81a106.19,106.19,0,0,1,11.07,2.79l1.92-3.7a69.77,69.77,0,0,0-11-3ZM342.21,162.4s-13.4-5.53-28.09-10C296.48,147.15,271,141,271,141l-7.84-7.23H232L224.11,141s-25.52,6.13-43.16,11.43c-14.68,4.42-28.09,10-28.09,10-2.76,3.18-10.41,16.6-10.41,16.6s46.71-28,105.07-28,105.07,28,105.07,28S345,165.58,342.21,162.4ZM214.34,375.66a9.23,9.23,0,0,0,6.95-.62l2.57-1.33L217.63,358c-8.71-1.26-29.94-11.38-30.27-11.53,5.09,5.44,30.54,16.39,30.94,16.55-13.2-3.08-41.14-16.15-41.14-16.15,3.57,4.37,21.15,14.42,21.15,14.42-12.16-3.19-33.32-16-33.65-16.17C176.72,362.77,204.35,372.59,214.34,375.66Zm75.73,3.13.73,1.68a3.09,3.09,0,0,0,3.26,1.83l9.13-1.28s4.29-1.78,5.69-4.95c.61-1.37,1.8-3.55,3-5.58-.75.33-1.5.67-2.26,1-2.12,3.15-5,6.82-7.8,8.39,0,0,1.58-3.09,2.83-6.29C299.67,375.6,294.75,377.4,290.07,378.79Zm40.11-10.44c1.41-6.3,10.92-9.92,10.92-9.92l-2.66-1.05c-4.95,2.6-10.84,5.65-17.15,8.7a46.25,46.25,0,0,0-8.55,10.59c-1.39,2.29-2.47,4.4-4.91,5.52l-7.37,3.41a14.27,14.27,0,0,1-3.88.46l-5.11.37a3.89,3.89,0,0,1-2.28-1.08,8.5,8.5,0,0,1-2.23-3l-1.13-2.44c-1.12.28-2.22.53-3.3.74l-1.35.27c.79,2.64,3,6.09,8.9,7.09a37,37,0,0,1,12.71,4.4C314,385.19,329.1,373.21,330.18,368.35ZM268,128.15,263.53,120l-16-1.34-16,1.34-4.49,8.17,2.08-1.07h36.8Zm39.72,218.29c-.33.16-21.57,10.27-30.27,11.53l-6.23,15.74,2.57,1.33a9.23,9.23,0,0,0,6.95.62c10-3.08,37.62-12.89,49.69-30.58-.33.2-21.49,13-33.65,16.17,0,0,17.58-10.05,21.15-14.42,0,0-27.94,13.08-41.14,16.15C277.2,362.82,302.65,351.87,307.74,346.44Zm-62.29,25.24a28.33,28.33,0,0,0,4.12,0l15.48-1.76a3.61,3.61,0,0,0,3-2.24l3.16-7.84-.71.22a5.4,5.4,0,0,0-2.75,2l-2.34,3.21A5.78,5.78,0,0,1,261,367.6l-12.43.56q-1,0-2,0l-12.43-.56a5.8,5.8,0,0,1-2.9-.94l-4.89-6.07-2.41-.75,3.16,7.84.81,2S239.19,371.31,245.45,371.68Zm-59.94-.2-2.26-1c1.16,2,2.35,4.21,3,5.58,1.41,3.16,5.69,4.95,5.69,4.95L201,382.3a3.1,3.1,0,0,0,3.26-1.83l.73-1.68c-4.68-1.39-9.6-3.19-14.54-5.21,1.26,3.21,2.83,6.29,2.83,6.29C190.52,378.3,187.63,374.63,185.51,371.48Zm62,37.53c15.9,0,37-7.24,46.67-11.66.78-.36,1.66-.81,2.62-1.33-5.11-3.73-9.92-2-14.14-5-3-2.06-4.65-6.41-5.48-9.37l-2,.26c1.28,8.59,5.45,12.33,8.78,13.4,3.61,1.16,3.67,1.77,3.67,1.77C275,401.91,257.45,406,247.56,406a68.78,68.78,0,0,1-28.38-6.51C243,406.23,245,387.77,245,387.77c1.88,3.25,1.17,11.71,1.17,11.71,1.86-2.06,3.42-9.8,3.42-9.8,4.49-1.72,6.7-3.93,7.77-5.84-6.7.55-9.77.57-9.77.57s-9-.06-29.67-2.73c-.83,3-2.49,7.31-5.48,9.37-4.23,2.92-9,1.23-14.14,5,1,.53,1.84,1,2.62,1.33C210.53,401.78,231.65,409,247.55,409ZM278.69,66.56l8.54,4.85c-.11-.34-7.49-21.84-43.2-22.64C244,48.78,268.34,54,278.69,66.56ZM122.54,360.71s-6.34-6.88-8.08-10.62a66.37,66.37,0,0,0-7,13.56l.91.93a24.76,24.76,0,0,1,5.21-6.78,67.25,67.25,0,0,0-3.3,8.54S117.1,372.32,122.54,360.71Zm-16.42,20.54s11,.47,12.13-5.29c-3.08-.93-9.57-3.22-12.58-6.87a64.69,64.69,0,0,0-1.86,12.16h.81a13.93,13.93,0,0,1,2.11-7C106.67,374.51,105.58,379.14,106.12,381.25Zm21.51-29.75q1.32-1.9,2.85-3.71l-4.55-9.18s-4.38,2.23-9.51,8.79l1.07,2a20.62,20.62,0,0,1,5.63-4.89s-3.48,4.22-4.05,6C119.06,350.54,122,354.22,127.63,351.5ZM391.3,381.25a65.51,65.51,0,0,0-1.86-12.16c-3,3.64-9.51,5.94-12.58,6.87,1.13,5.76,12.13,5.29,12.13,5.29.54-2.11-.55-6.74-.6-7a13.93,13.93,0,0,1,2.11,7Zm-24.41-15a54.54,54.54,0,0,0-4.62-8l-2,14.41A52.15,52.15,0,0,0,366.89,366.27Zm-243-261.13c35.53-28.08,96.54-35.06,116.87-36.65a88.73,88.73,0,0,1,13.64,0c3.07.24,7.06.6,11.76,1.14-29.12-33.59-78-15-78-15,9.91-6.36,52.85-16.08,99.35-6,37.05,8,63.3,35.55,75.18,50.45q4.47,2.87,8.56,6.07c3.18,2.51-28.13-67.52-123.69-67.52S120.67,107.66,123.85,105.14Zm-3.62,176.54c2.41,9.75,10.85,6.73,10.85,6.73-9.77-27.74-12.6-49-12.88-63.68l-7.9,8.52c0,.08,0,.17,0,.26C111.13,245.3,117.82,271.93,120.23,281.68Zm-.53-147.17-4.28,19.55c.11-.33,3.71-11.13,14.19-16.67,10.65-5.63,25.86-20.3,29.34-26.46s7-14.2,7-14.2l4.82-1.48-9.65,36.57,7-2.61L176,99.07S175,111.26,174.49,115s.87,10.32,6,9.64c0,0,32.44-13.39,67.09-13.39a148.65,148.65,0,0,1,15.2.8c4.95.5,9.76,1.21,14.31,2-6.15-39.35-62-28.16-62-28.16,27-8.88,63.27-4.55,84,1.27a53.48,53.48,0,0,1,16.61,8.52,6.56,6.56,0,0,0-.87-3.7c3.21,1.54,4.31,7,4.31,7L327,129.2l7,2.61-9.65-36.57,4.82,1.48s3.49,8,7,14.2,18.69,20.83,29.34,26.46c10.48,5.54,14.09,16.34,14.19,16.67l-4.28-19.55L389.85,174h9.64l-14.74-47.29c-57.11-52.23-137.2-48.35-137.2-48.35s-80.09-3.88-137.23,48.36L95.58,174h9.64Zm22.24,288.3L139.43,405l-16-10.83a44.67,44.67,0,0,0,3.66,14.27C132.43,420.09,141.94,422.81,141.94,422.81Zm-9.11-64.57a53.9,53.9,0,0,0-9.47,26.39c3.49,2.11,9.79,6,14.48,9.11Zm-7.38-33.66,1.06,2A48.61,48.61,0,0,1,138,323.93l-1.77-3.59Zm8.72-8.38-1.2-2.44s-7-.69-11.25,3.59l1.79,3.46Zm13.16,26.66a56.2,56.2,0,0,0-10.8,3.09l1.79,3.45,10.58-3.35Zm-18.83-12.4,1.43,2.75a61.65,61.65,0,0,1,11.38-2.55l-1.61-3.26A65.71,65.71,0,0,0,128.5,330.46Zm-.09-150.26,1.2,7.08c0-.18.36-1.88,9.38-15.92,12.19-19,15.11-17.28,42.75-27.27,22.65-8.19,37-9.77,37-9.77l6.53-13.46c-46.35,8.71-66.75,24.18-71,26.39a24.72,24.72,0,0,0-7,5.73l-13.16,19.09,7.34-18.89Zm-7.78,20.3c-11.72,12.21-11.71,18.65-10.87,27l8.48-9.34C118.63,206.62,120.58,200.68,120.63,200.5ZM145,338.05l-2-4a69.77,69.77,0,0,0-11,3l1.92,3.7A107.29,107.29,0,0,1,145,338.05ZM123.07,429.3s4.4-.71,1.73-11.48c-2.81,1.37-7.64,3.7-10.84,5.08a53.34,53.34,0,0,0,6.58,8.16l.83-.49s-2.69-3-2.48-5.78C118.9,424.81,121.94,427,123.07,429.3Zm200.38,11.13a11.52,11.52,0,0,0-4.85,6.33l-1.94,12.13a41.24,41.24,0,0,0,3.58-2.13,29.48,29.48,0,0,1,7-13.34c6.33-6.7,12.4-32.9,12.59-33.72l-3.16,37.06a36,36,0,0,1,5.26-2.32L348.77,397c-4.11.84-10.17,2.15-14,3.28C326.08,402.85,332.46,434.4,323.45,440.43Zm29-6.87c-.7.3-1.09.44-1.09.44l-.68,6.31,3.87-.49s-.36,2.07-4.22,3.78l-.17,1.54a60.39,60.39,0,0,0,8.89-3.26A36.41,36.41,0,0,1,352.44,433.56ZM324.2,425.2c.78-7.46.57-16.63,2.79-23.43-13.68,9.47-15.35,35.14-15.35,35.14L302,455.2s.8-25.62.8-30-6.43-6.33-6.43-6.33c-10.15,4-51.75,2.71-51.75,2.71,45.09-4,72.57-23,84.18-33a67.63,67.63,0,0,0,9.75-14.09,5.83,5.83,0,0,1,3.25-3l11.38-5,.64-4.43-13.27,4.31a7.23,7.23,0,0,0-4.39,4c-2.89,6.55-15,22.28-41.85,33.93-28.05,12.16-46.78,10.4-46.78,10.4s-18.73,1.76-46.78-10.4c-26.88-11.65-39-27.38-41.85-33.93a7.26,7.26,0,0,0-4.39-4l-13.27-4.31.64,4.43,11.38,5a5.87,5.87,0,0,1,3.25,3c2.67,5.56,12.14,20.29,30.11,31.22-2.08-1.25-15.62-9.45-22-14.08-4.93-3.57-14.67-4.91-19.88-5.38l.87,6,16.27,3.72a7.92,7.92,0,0,1,5.72,4.51c5.4,13.55-1,38.75,12.57,38l13.38,26.27c23.9,6.7,54,6.68,54,6.68s30.09,0,54-6.68l13.38-26.27C321.56,438.79,323.4,432.89,324.2,425.2ZM198.1,448.31A22.38,22.38,0,0,0,218,459.66S198.71,462.75,198.1,448.31Zm16.26,8.26c-11.08-1.47-11.3-7.5-11.3-7.5s-1-10.58-1-16.48,8.2-5.23,8.2-5.23l37.26,3.08,37.26-3.08s8.2-.67,8.2,5.23-1,16.48-1,16.48-.23,6-11.3,7.5c-10.36,1.38-24.6,2.76-33.19,2.93C239,459.33,224.72,458,214.36,456.57Zm62.69,3.1A22.37,22.37,0,0,0,297,448.32C296.39,462.75,277.05,459.67,277.05,459.67ZM123.93,434.2a52.89,52.89,0,0,0,7,5,12.48,12.48,0,0,1-2.52-4.17s3.25,2.95,5.33,3.05A19.77,19.77,0,0,0,132.63,428C130.21,429.76,126.41,432.52,123.93,434.2Zm237.47,3.85c2.08-.1,5.33-3.05,5.33-3.05a13,13,0,0,1-2.52,4.17,51.6,51.6,0,0,0,7-5c-2.49-1.68-6.28-4.44-8.7-6.21A19.77,19.77,0,0,0,361.4,438.05Zm-189.75,2.38c-9-6-2.63-37.58-11.32-40.16-3.83-1.13-9.89-2.44-14-3.28l6.87,47.46s6.34,1.85,21.25,12a40.69,40.69,0,0,0,4,2.4l-1.94-12.13A11.63,11.63,0,0,0,171.65,440.43Zm-31.08-.61,3.87.49-.68-6.31s-.4-.14-1.09-.44a36.57,36.57,0,0,1-6.58,8.33,60.39,60.39,0,0,0,8.89,3.26l-.17-1.54C140.92,441.9,140.57,439.82,140.57,439.82ZM448.41,301.67V194.06c0-12-11.92-11.18-11.92-11.18H394c-7.77,0-6.56,7.64-6.56,7.64v19.56a30.09,30.09,0,0,1,2.81,11.39c.54,7.23-4.62,40.06-4.62,40.06v41.06c0,6.38,1.46,10,3.19,12.08-.17-4.19.17-10.48,3.3-13.49V200.49s-.7-4.52,2.71-4.52l-5.33-10.62s6.7,5.56,9.58,5.56h33.43s6.83-1.88,8.24-5.09a68.2,68.2,0,0,0-1,12.06v96.26s.3,5.22-3.52,5.22l5.65,15.81C448.59,310.86,448.41,301.67,448.41,301.67ZM428.52,199h-20.8c-8.14,0-7.84,8.74-7.84,8.74v83c0,8.84,6.33,7.64,6.33,7.64h17.68c9.55,0,9-7.84,9-7.84V202.1C432.94,198.53,428.52,199,428.52,199Zm-26.69,27.7a16.15,16.15,0,0,0,15.43,11.38,16.38,16.38,0,0,0,4.17-.54,11.31,11.31,0,0,1-20.3-6.88A11,11,0,0,1,401.83,226.68ZM412.44,290a11.32,11.32,0,0,1-10.61-15.27,16.15,16.15,0,0,0,15.43,11.38,16,16,0,0,0,4.17-.55A11.32,11.32,0,0,1,412.44,290Zm2.71-7.64a12.76,12.76,0,1,1,12.76-12.76A12.76,12.76,0,0,1,415.15,282.31Zm0-48.86a12.76,12.76,0,1,1,12.76-12.76A12.76,12.76,0,0,1,415.15,233.45ZM426,304.69H402.89s-11.67-2-13.47,10.6a6.77,6.77,0,0,0,5,2.06h39.19a15.16,15.16,0,0,0,7.77-1.88C438.85,311.31,433.59,304.69,426,304.69ZM114.68,417.25s6.36-.19,4.93-12.75h0c-.13-.49-.24-1-.36-1.49a30.2,30.2,0,0,1-12.56,4.05,62.31,62.31,0,0,0,4.83,11.74l1.55-.68a12.35,12.35,0,0,1-2-6.7S112.9,416.52,114.68,417.25Zm263-29.77c0,1.12-.1,3.31-.1,3.31.8,7.7,9.38,10.12,9.38,10.12,2.14-2.75,1.74-10.65,1.74-10.65a20.75,20.75,0,0,1,.67,11.32l.43.21a74.94,74.94,0,0,0,1.67-15.31C387.59,387.4,381.55,387.52,377.64,387.48Zm13-33.29c2.6,4.33,4.67,8.41,5.41,11.42,0,0,8-19.56,8-37.78a40.78,40.78,0,0,1-5.6.4A68.77,68.77,0,0,1,390.62,354.19Zm-15.13,50.32h0c-1.43,12.55,4.93,12.74,4.93,12.74,1.78-.73,3.59-5.83,3.59-5.83a12.39,12.39,0,0,1-2,6.7l1.55.68a61.77,61.77,0,0,0,4.83-11.74A30.26,30.26,0,0,1,375.85,403ZM372,429.3c1.13-2.29,4.18-4.5,4.18-4.5.21,2.74-2.48,5.78-2.48,5.78l.83.49a52.17,52.17,0,0,0,6.58-8.16c-3.21-1.38-8-3.71-10.84-5.08C367.62,428.59,372,429.3,372,429.3ZM55.33,294.14V197.88a68.35,68.35,0,0,0-1-12.06c1.41,3.21,8.24,5.09,8.24,5.09H96c2.88,0,9.58-5.56,9.58-5.56L100.25,196c3.42,0,2.71,4.52,2.71,4.52V301.17c3.13,3,3.47,9.3,3.3,13.49,1.73-2.07,3.19-5.7,3.19-12.08V261.52s-5.15-32.82-4.62-40.06a30.09,30.09,0,0,1,2.81-11.39V190.51s1.21-7.64-6.56-7.64H58.61s-11.92-.8-11.92,11.18V301.66s-.18,9.19,6.5,13.5l5.65-15.81C55,299.36,55.33,294.14,55.33,294.14ZM368,408.48a44.6,44.6,0,0,0,3.66-14.27l-16,10.83-2.51,17.77S362.67,420.09,368,408.48Zm8-57.94c-.57-1.81-4-6-4-6a20.62,20.62,0,0,1,5.63,4.89l1.07-2c-5.13-6.56-9.51-8.79-9.51-8.79l-4.55,9.18q1.53,1.8,2.85,3.71C373.07,354.22,376,350.54,376,350.54ZM358.56,346a56.52,56.52,0,0,0-10.8-3.09l-1.58,3.19,10.58,3.35Zm11.35,28.5c-3.24,2.81-7.81,6.23-11.15,8.65l-1.5,10.63c4.69-3.14,11-7,14.48-9.11A53.56,53.56,0,0,0,369.91,374.45Zm14.86-140.93c0-.09,0-.18,0-.26l-7.9-8.52c-.28,14.67-3.11,35.94-12.88,63.68,0,0,8.44,3,10.85-6.73S384,245.3,384.77,233.52Zm-15.12,91.06-10.76-4.24-1.77,3.59a48.61,48.61,0,0,1,11.47,2.69Zm3.74-7.22c-4.28-4.29-11.25-3.59-11.25-3.59l-1.2,2.44,10.67,4.62ZM66.58,199s-4.42-.45-4.42,3.12v88.42s-.5,7.84,9,7.84H88.88s6.33,1.2,6.33-7.64v-83s.3-8.74-7.84-8.74Zm.61,70.57A12.76,12.76,0,1,1,80,282.31,12.76,12.76,0,0,1,67.19,269.55ZM82.66,290a11.29,11.29,0,0,1-9-4.44,16,16,0,0,0,4.17.55,16.15,16.15,0,0,0,15.43-11.38A11.32,11.32,0,0,1,82.66,290Zm10.61-63.27a11.32,11.32,0,0,1-19.59,10.83,16.38,16.38,0,0,0,4.17.54A16.12,16.12,0,0,0,93.27,226.68Zm-.57-6a12.76,12.76,0,1,1-12.76-12.76A12.76,12.76,0,0,1,92.7,220.69Zm13,94.6c-1.79-12.63-13.47-10.6-13.47-10.6H69.09c-7.59,0-12.85,6.62-15.41,10.78a15.26,15.26,0,0,0,7.77,1.88h39.19A6.77,6.77,0,0,0,105.67,315.29Zm279.19,51a67.25,67.25,0,0,0-3.3-8.54,25,25,0,0,1,5.21,6.78l.91-.93a66.63,66.63,0,0,0-7-13.56c-1.74,3.74-8.08,10.62-8.08,10.62C378,372.32,384.86,366.33,384.86,366.33ZM108.18,400.91s8.58-2.43,9.38-10.12c0,0-.09-2.19-.1-3.31-3.91,0-9.95-.07-13.79-1a74.86,74.86,0,0,0,1.67,15.31l.43-.21a20.64,20.64,0,0,1,.67-11.32S106,398.16,108.18,400.91Zm6.16-84.74c0,15.4-23.31,11.65-23.31,11.65,0,18.22,8,37.78,8,37.78,2.68-10.85,22.64-35.77,22.64-35.77Zm252.25,14.29a66.39,66.39,0,0,0-11.19-3.07l-1.61,3.26a62.69,62.69,0,0,1,11.38,2.55Zm14.17-14.29-7.37,13.66s6.94,8.66,13.18,18a113.68,113.68,0,0,0,4.48-20.33C385.71,326.31,380.76,323.27,380.76,316.17Zm-6.3-115.67c.06.18,2,6.12,2.39,17.7l8.48,9.34C386.17,219.15,386.18,212.71,374.46,200.5Z" transform="translate(-29.03 -18.4)"/><path class="cls-2" d="M110.3,179.8l-2.83,3.32.41-.44C113.25,176.49,110.3,179.8,110.3,179.8Z" transform="translate(-29.03 -18.4)"/><path class="cls-2" d="M113.18,312.77l15.32-18.64s-21.26-68.12-15-97.86c4.64-21.93-1.89-17.45-5.65-13.59l-2.32,2.67c-8.44,9.71-21.74,9.51-21.74,9.51L59,196.67l.6,97.26,8.64,7.84,27-1.41s11.36,4.33,10.45,14.92l-.36,4.3-4.1,3.89s1.33,18.95,8.23,25.12l8.8-9S114.43,331.23,113.18,312.77Zm-32-25.32C68.59,292.17,66,282.38,66,282.38c2.55,3.52,7.65,3.52,7.65,3.52-11.79-4.42-6.43-20-6.43-20l23.66,6.2S93.71,282.73,81.15,287.45Zm-2.6-27.68L79.24,245s1.41,4.29,1.61,13.2-1.15,3.35-1.15,3.35Zm-.5-21.71c-8,0-14.49-6.75-14.49-15.07s6.49-15.07,14.49-15.07S92.54,214.67,92.54,223,86.05,238.06,78.05,238.06Zm27.3,81.49c.12-1.16.32-3.38.32-3.38l5.25-1.91Z" transform="translate(-29.03 -18.4)"/><path class="cls-2" d="M105.57,185.36l1.91-2.24A29.32,29.32,0,0,0,105.57,185.36Z" transform="translate(-29.03 -18.4)"/><path class="cls-2" d="M91,324.35s6.7,33.76,10,39.52l6.34-9a62.76,62.76,0,0,1-10.23-30.54Z" transform="translate(-29.03 -18.4)"/><path class="cls-2" d="M304.78,102.36l14.7,28.71,5.57,2.51-41.73-14.93L294.13,141l-24.29-5.09-3.09-19.19,16.06,4.19-3-29.4-32.24-7.57s-19.47-.27-32.47,2.08a199.07,199.07,0,0,0-30.54,8.44s36.77-4.12,58.48,14.07c0,0-10.65-11.86-24.42-17,0,0,13-1.71,32.86,21.2l13.08,3.41-28.68-1,12.46,15.67-19.26-.65-17.18,9,4.55,1.07-24.25,11.92s45.41-15.41,80.65-6.43l7.64,10.75,80.92,35.27L374.49,179l-21.37-32.8,2.56,1.15,21.27,29H397s-4.82-17.68-11.36-36.3-49.49-40.19-56.47-43.27-24.4-7.44-24.4-7.44v13Z" transform="translate(-29.03 -18.4)"/><path class="cls-2" d="M277,367.38s33.86-2.87,47.63-11.34,11.25-18.58,11.25-18.58L318,331.61l-46.12,19,.64,15.2s35.29-9.62,47-16.68c-4.37,3-14,9.22-23.79,12.6C282.46,366.31,277,367.38,277,367.38Z" transform="translate(-29.03 -18.4)"/><polygon class="cls-2" points="323.35 332.2 340.62 289.87 318.37 296.77 307.25 324.46 323.35 332.2"/><path class="cls-2" d="M184.81,144.7l-33.89,14.6L142.48,173v6s21.43-18.76,63.1-34.3H184.81Z" transform="translate(-29.03 -18.4)"/><path class="cls-2" d="M258.09,399.5l6.43-17.81-24.25-5.29-1.07,5.29s5.86,18.55-20,17.79c0,0,15.21,4.84,22.57,4.84S258.09,399.5,258.09,399.5Z" transform="translate(-29.03 -18.4)"/><path class="cls-2" d="M209,122.83l-7.74,2.11L187.15,137.4S203.63,130.26,209,122.83Z" transform="translate(-29.03 -18.4)"/><polygon class="cls-2" points="113.69 332.2 129.79 324.46 118.67 296.77 96.42 289.87 113.69 332.2"/><path class="cls-2" d="M223.22,350.6l-46.12-19-17.88,5.85s-2.51,10.12,11.25,18.58,47.63,11.34,47.63,11.34-5.46-1.07-18.72-5.66c-9.8-3.39-19.43-9.59-23.79-12.6,11.71,7.06,47,16.68,47,16.68Z" transform="translate(-29.03 -18.4)"/><path class="cls-2" d="M132.29,191.65s6.7-20.3,14.63-31.16S198.6,123.4,198.6,123.4l-30.42,10.1,4.7-2.86.91-23.25-3-12.11-17.28,37.65,9.07,2.46L151.58,139l-22.31,12.46-6.63,35Z" transform="translate(-29.03 -18.4)"/><path class="cls-2" d="M229.69,73l76.19,3.89-.77-9.65S316,52.17,256.28,47.17,171.81,63,171.81,63C208.65,46.1,229.69,73,229.69,73Z" transform="translate(-29.03 -18.4)"/><path class="cls-2" d="M127.6,118.64c-5,6.23-7.9,15.87-7.9,15.87l-5.36,20.36-.8,7.5,12.06-11.66Z" transform="translate(-29.03 -18.4)"/><path class="cls-2" d="M216.92,399.42l-1.4,0Z" transform="translate(-29.03 -18.4)"/><path class="cls-2" d="M218.49,399.47l.56,0Z" transform="translate(-29.03 -18.4)"/><path class="cls-2" d="M356.64,365.45l-2.81-7.21-20.71,10.64,5.21-5.69,7.86-5-1.43-4.69-22.91,8.51s-11,22.84-12.59,27.66c-1.21,3.62,2.49,1.35,4.41,0l-4.15,4.49-24.11,10.11-22.18,9.28-31.17-2.69-13.16-2.4s7.57,11.09,25.72,13,37.18,1.81,37.18,1.81a15.69,15.69,0,0,0,6.56,5.63s7.1,18,1.71,23.8-26.56,18.2-58.51,14.89c0,0,21.9,5.93,35.37,6.53s40.19-5.43,40.19-5.43l9.54-25.34,7.74-10.15,4-24.76V397l20.35-20.58Z" transform="translate(-29.03 -18.4)"/><path class="cls-2" d="M217.72,399.44l-.79,0Z" transform="translate(-29.03 -18.4)"/><path class="cls-2" d="M218.18,399.46h0Z" transform="translate(-29.03 -18.4)"/><path class="cls-2" d="M213,399.3l-1.1,0Z" transform="translate(-29.03 -18.4)"/><path class="cls-2" d="M401.12,196.17l-11.59-10.82-1-6.36-2.85,5.43c3.12,30.43-19,107.91-19,107.91l11.57,16.58a51.43,51.43,0,0,0,3.39,5.52l-.31-.13s-1.14,19.45-3.62,24.31L392.86,364s9.65-21.73,10.72-40.52l-15.33-6.33a10.19,10.19,0,0,0,.6-2.49c1.53-11.63,17.15-13,17.15-13h25.62l3.32-9.34v-98Zm10.09,47.43s13.71-.25,17-8.14C428.24,235.46,432.41,245.36,411.21,243.6Zm-3.82-33.76s19.09,1.71,20.09,10.65-1.41,12.26-7.64,16.38-16.58-1-19-11.66S407.39,209.84,407.39,209.84Zm16.39,76c-6.52,3.41-12.87,1.59-12.57,1.29s2.83-8.74,2.83-8.74l-8.16-2.21V284s-6.33-8.34-2.41-13.66a63.13,63.13,0,0,1,8.44-9.24l-3.82-1s2.41-3.92,5.68-5c0,0-7.65-.18-12.21,5.44,0,0,9.11-14.34,23.91-4.39C436.83,263.69,432.46,281.28,423.78,285.81Z" transform="translate(-29.03 -18.4)"/><path class="cls-2" d="M339.8,409.7c-3.35,12.53-9.36,38.61-9.36,38.61l5.61,3.16s7.43-2.11,7.84-3.16,8.85-54.1,8.85-54.11l-16.68-.48S343.15,397.17,339.8,409.7Z" transform="translate(-29.03 -18.4)"/><path class="cls-2" d="M364.61,342.86,359,353.42l-5.23,27.84-1.06,12.95-.36,4.42-2.24,17.28c18.95-7.29,25.87-21.51,27.17-24.55l-7.87,19.55L353.79,428l-7.6,9.83c29.2-9.44,39.66-23.73,38.29-53.25S364.61,342.86,364.61,342.86Z" transform="translate(-29.03 -18.4)"/><path class="cls-2" d="M214.64,399.35,213,399.3Z" transform="translate(-29.03 -18.4)"/><path class="cls-2" d="M194.25,393.71l18.82-5.53,3.42-9.65-9.55-3s5.22,5.73-3.52,9.24-29.24-9.85-29.24-9.85C170.66,363.55,155.59,356,155.59,356l-4,3.8,7.23,2.21,3.32,8.43L186,392.89Z" transform="translate(-29.03 -18.4)"/><path class="cls-2" d="M181.59,433.56l-5.76-3.92c-2.68-19.16-10.13-31.86-10.13-31.86l3.57,36.55,8.57,5,7,27.53,21.7,1.88c-10.18-14.87-26.12-41.42-26.12-41.42Z" transform="translate(-29.03 -18.4)"/><path class="cls-2" d="M152.12,445.72l8.57,5c-.31-7.46-9.11-43.41-9.11-43.41Z" transform="translate(-29.03 -18.4)"/><path class="cls-2" d="M208.39,399.17h0Z" transform="translate(-29.03 -18.4)"/><path class="cls-2" d="M210.57,399.23l-.86,0C210,399.22,210.26,399.23,210.57,399.23Z" transform="translate(-29.03 -18.4)"/><path class="cls-2" d="M208,399.16h0Z" transform="translate(-29.03 -18.4)"/><path class="cls-2" d="M125.67,410.91l-7.87-19.55c1.29,3,8.22,17.26,27.17,24.55l-2.24-17.28-21-11.05.83-14.87s10.8,4.82,15.3,13.76,3.47-5.21,3.47-5.21l-5.23-27.84-5.59-10.56S112,355,110.63,384.56s9.09,43.81,38.29,53.25l-7.6-9.83Z" transform="translate(-29.03 -18.4)"/><path class="cls-2" d="M207.76,399.15Z" transform="translate(-29.03 -18.4)"/><path class="cls-10" d="M354.1,199.69c2.29,16.43,0,24.18,0,24.18A64.63,64.63,0,0,0,350,205.42,60.58,60.58,0,0,0,309.16,169l-23.64-6.38s4.22,10.85,2.68,22.49-12.34,4.55-12.34,4.55a46.57,46.57,0,0,1-2.06,15.15,143.75,143.75,0,0,0-7.74-45.3h-3.92c2.61,5.48.74,16.06.74,16.06,0-5.89-2-7.47-2-7.47,0,40.19-13.31,35.17-13.31,35.17s-13.31,5-13.31-35.17c0,0-2,1.57-2,7.47,0,0-1.88-10.58.74-16.06h-3.92a144.09,144.09,0,0,0-7.74,45.3,46.57,46.57,0,0,1-2.06-15.15s-10.8,7.08-12.34-4.55,2.68-22.49,2.68-22.49L186,169a60.56,60.56,0,0,0-40.82,36.39A64.3,64.3,0,0,0,141,223.87s-2.29-7.75,0-24.18c0,0-17,24.81-3.57,74.13L151,270.09a70,70,0,0,0-11.54,10.16,88.15,88.15,0,0,0,4.3,10.14,48.94,48.94,0,0,1,17.29-5.84s-8.21,5.61-13.57,12.62a99.29,99.29,0,0,0,6.45,9.4,47.78,47.78,0,0,1,20.88-9.33s-9.45,6.64-15.44,15.82c1.62,1.79,3.29,3.51,5,5.16a107.36,107.36,0,0,1,41.3-30.83L201.54,293a71.58,71.58,0,0,1,30.71-7.94s1.9-9.58,15.32-9.58,15.32,9.58,15.32,9.58A71.58,71.58,0,0,1,293.6,293l-4.12-5.63a107.44,107.44,0,0,1,41.3,30.83c1.7-1.66,3.37-3.37,5-5.16-6-9.17-15.44-15.82-15.44-15.82a47.78,47.78,0,0,1,20.88,9.33,100.59,100.59,0,0,0,6.45-9.4c-5.35-7-13.57-12.62-13.57-12.62a48.8,48.8,0,0,1,17.29,5.84,91.82,91.82,0,0,0,4.3-10.14,70,70,0,0,0-11.54-10.16l13.55,3.73C371.07,224.5,354.1,199.69,354.1,199.69ZM225.94,250.53C214,234.72,181.33,216.1,181.33,216.1,209.06,221.46,225.94,250.53,225.94,250.53Zm-7,21.3a103.77,103.77,0,0,1-31.75,19.69,55.94,55.94,0,0,0,14.54-12.73s-19.46,3.15-25.25,2.55a38.14,38.14,0,0,0,12.76-2.95s-36.14.94-45.85-38.52c0,0-4.27,2.51-8.59,1.61,0,0,3-13.87,22.86-14.33s39.25,9.31,52.92,26.86,22.64,24.05,27.23,10.05C237.76,264.06,239.6,280.77,218.9,271.83Zm94.87-55.73s-32.69,18.62-44.61,34.43C269.16,250.53,286,221.46,313.77,216.1Zm-7.87,62.29a38.42,38.42,0,0,0,12.76,2.95c-5.79.6-25.25-2.55-25.25-2.55A55.77,55.77,0,0,0,308,291.52a103.77,103.77,0,0,1-31.75-19.69c-20.7,8.94-18.86-7.77-18.86-7.77,4.59,14,13.56,7.5,27.23-10.05s33.09-27.33,52.92-26.86,22.86,14.33,22.86,14.33c-4.32.9-8.59-1.61-8.59-1.61C342,279.33,305.9,278.39,305.9,278.39ZM247.55,292.8s-8.62,1-11.5-5.76c0,0-2.46,8.71,11.5,8.71s11.5-8.71,11.5-8.71C256.17,293.8,247.55,292.8,247.55,292.8Z" transform="translate(-29.03 -18.4)"/><path class="cls-4" d="M289.54,162s-1.61,12.16,3.72,12.86c0,0-2.31,6.63,2.21,9.8,0,0-5.09,5.58-4,10.8s.47,10.25,11.12,9c0,0,0,14.87,9.58,19.89,0,0-9,.33-12.66-11.39,0,0,.3,20.23,17.48,18.72l31.42,3.78s13.45,10.05,8.74,44.48l7.5-23.93,5-50.15-27.2-22-50-24.33Z" transform="translate(-29.03 -18.4)"/><path class="cls-5" d="M208.25,275.85l-25.13.4L161,267.1,148.9,242.29l-2.14-9-4.69,3.15s-.27,23.44,16.21,39,31.21,9.65,31.21,9.65S184,291.62,177,293.73c0,0,11.65,2.31,31.25-11.86a22.68,22.68,0,0,1-11.35,10.95l1.61,2.87s25.76-7.26,26.42-19.85c0,0,2.68,1.34,0,8.17,0,0,3.75-2,3.75-10.38l-10.27-5.22Zm-60,25.86c1.54-6.36,12.79-17.15,12.79-17.15l-17.08,10.78s-4.62,4.69-2.48-6.77a37.42,37.42,0,0,1,10.25-18.89l-14.27,7.57-4.76,4.52,8.64,20.6L155,319.15s7.23,5.33,8.24.6,11.55-22.51,11.55-22.51l-23.48,11.22Zm-11.78-61.42,6.83-7c-2.14-17.68,3.18-35.55,5.95-43.32-2.45,8.57-4.21,24.9-4.21,24.9,7.77-25.72,28.8-44.34,28.8-44.34l-39.07,20.5-8.19,26.83,9.88,55.22C135,264.45,136.45,240.29,136.45,240.29ZM155.8,214c4.82-8.18,24.82-31.15,24.82-31.15C156.81,192.57,155.8,214,155.8,214Zm70.14,36.51S214,233.22,203.16,228a114.48,114.48,0,0,1-17.85-10.48l-4.69-1.44S213.88,247.52,225.94,250.53Zm3.59.9-.53-.13Zm1.33.33-.55-.14Zm-4.68-1.17-.19-.05ZM239.6,158.9l-5.89-4.15-25.4,4.5c-2.4,3-4.37,9-5.07,18-.12,1.51-.8,16.65,6.74,18.19A10.77,10.77,0,0,0,221.22,191l-.88,3.8c.65,15.44,3.79,18.22,3.79,18.22-1.47-15,4.62-43.54,4.62-43.54a61.24,61.24,0,0,0,9.78,27.61l-1.61-11.95Zm-11.12,92.27-.92-.23Z" transform="translate(-29.03 -18.4)"/><path class="cls-5" d="M264.79,251.62l-.55.14ZM271,213s3.14-2.78,3.79-18.22l-.88-3.8a10.77,10.77,0,0,0,11.24,4.47c7.55-1.54,6.86-16.68,6.74-18.19-.7-9-2.67-15-5.07-18l-25.4-4.5-5.89,4.15,2.68,26.24-1.61,12a61.24,61.24,0,0,0,9.78-27.61S272.44,198,271,213Zm-1.81,37.51c12.06-3,45.31-34.43,45.31-34.43l-4.69,1.44A113.55,113.55,0,0,1,291.93,228C281.07,233.22,269.16,250.53,269.16,250.53Zm-3.07.77-.53.13Zm39.51,33.79s14.74,5.89,31.21-9.65,16.21-39,16.21-39l-4.69-3.15-2.14,9L334.07,267.1,312,276.25l-25.13-.4-10.16-7.44-10.27,5.22c0,8.37,3.75,10.38,3.75,10.38-2.68-6.83,0-8.17,0-8.17.67,12.59,26.42,19.85,26.42,19.85l1.61-2.87a22.68,22.68,0,0,1-11.35-10.95c19.59,14.17,31.25,11.86,31.25,11.86C311.06,291.62,305.6,285.09,305.6,285.09Zm52-7.83-14.27-7.57a37.56,37.56,0,0,1,10.25,18.89c2.14,11.45-2.48,6.77-2.48,6.77l-17.08-10.78s11.25,10.78,12.79,17.15l-3.08,6.77L320.3,297.27s10.55,17.78,11.55,22.51,8.24-.6,8.24-.6l13.66-16.78,8.64-20.6Zm-88.73-26.67.19-.05Zm-2.3.58.92-.23Z" transform="translate(-29.03 -18.4)"/><path class="cls-6" d="M215,269.29a51.37,51.37,0,0,0-9.75-13.21c.29,3.72.49,11.08-1.77,15.8C207,271.26,210.84,270.41,215,269.29Zm127.49-30.4a76,76,0,0,0-18.6.3A32.84,32.84,0,0,1,333,263C342.79,252.93,342.44,238.89,342.44,238.89Zm-52.55,17.18a51.56,51.56,0,0,0-9.75,13.21c4.11,1.13,7.94,2,11.52,2.59C289.41,267.16,289.61,259.8,289.89,256.07ZM171.25,239.19a76,76,0,0,0-18.6-.3s-.35,14,9.43,24.13A32.84,32.84,0,0,1,171.25,239.19Zm131.07,58.36,4.62,8c-13.66-14.57-44.28-14.07-44.28-14.07,0,8-15.12,7.7-15.12,7.7s-15.12.27-15.12-7.7c0,0-30.61-.5-44.28,14.07l4.62-8S175.67,308.37,167,320.73c20.23,18.52,44.54,28.19,56.43,30l6.73-5.53,17.39-.1,17.39.1,6.73,5.53c11.89-1.78,36.2-11.45,56.43-30C319.41,308.38,302.32,297.55,302.32,297.55Zm-37.48,37.78c-8.59,5.48-11.86,4.72-17.29,4.92-5.44-.2-8.7.55-17.29-4.92-12.19-7.77-12.31-14.92-11.6-19.54s6.68-5.58,11.91-2.86,17,2.81,17,2.81,11.77-.1,17-2.81,11.2-1.76,11.91,2.86S277,327.56,264.84,335.33Z" transform="translate(-29.03 -18.4)"/><path class="cls-4" d="M220.61,166.13a6.14,6.14,0,0,0-.27.64Zm-4.72,20s-4.67-.18-3.72-24.11c0,0-6.5,28.89,2.85,26.38,9-2.42,3.06-15.42,5.32-21.62C219.28,169.29,215.54,178.78,215.89,186.13Zm-35.82,81.48s9.53-8.07,7.94-21.35A31.08,31.08,0,0,0,180.07,267.61Zm94.69-100.84a6.14,6.14,0,0,0-.27-.64Zm4.45,19.36c.35-7.35-3.39-16.84-4.45-19.35,2.26,6.2-3.7,19.19,5.32,21.62,9.34,2.51,2.85-26.38,2.85-26.38C283.88,186,279.21,186.13,279.21,186.13Zm-31.66,7.53c-9.13,0-9.62-20.7-9.62-20.7,0,26.29,9.62,24.31,9.62,24.31s9.62,2,9.62-24.31C257.17,173,256.68,193.66,247.55,193.66Zm59.54,52.6c-1.59,13.28,7.94,21.35,7.94,21.35A31.08,31.08,0,0,0,307.09,246.26Z" transform="translate(-29.03 -18.4)"/><path class="cls-7" d="M186.71,243.49a60.08,60.08,0,0,0-9.71-3.21,18.57,18.57,0,0,0-7.49,8.23c-2.58,6.09-2.38,14.06-2,18.58-.18-2.34-.73-15.23,8.56-21.73,0,0-4.63,10.78-1,19.35h0A29.84,29.84,0,0,1,186.71,243.49Zm14.15,8.62c2,14.33-6.47,17.91-6.47,17.91,5.28-9-1.76-20.74-4.7-25,.71,2.89,1.35,8,.08,15.43-1.13,6.69-4.12,10.3-6.64,12.22a64.51,64.51,0,0,0,15-.08,24.28,24.28,0,0,0,4-19.46Zm124.72-3.59a18.57,18.57,0,0,0-7.49-8.23,60.4,60.4,0,0,0-9.71,3.21A29.72,29.72,0,0,1,320,264.74h0c3.66-8.58-1-19.35-1-19.35,9.29,6.5,8.75,19.38,8.56,21.73C328,262.58,328.16,254.61,325.58,248.52Zm-96,80.68c4.55,6.36,18,6.1,18,6.1s13.44.27,18-6.1c0,0-6.8-5.17-18-5.17S229.55,329.2,229.55,329.2Zm75.78-68.72c-1.26-7.46-.63-12.55.08-15.43-3,4.24-10,16-4.7,25,0,0-8.52-3.58-6.47-17.91-.42.35-.84.7-1.24,1a24.28,24.28,0,0,0,4,19.46,65.07,65.07,0,0,0,15,.08C309.45,270.78,306.47,267.16,305.33,260.48Z" transform="translate(-29.03 -18.4)"/><path class="cls-8" d="M77.84,286.06a16,16,0,0,1-4.17-.55,11.32,11.32,0,0,0,19.59-10.83A16.13,16.13,0,0,1,77.84,286.06Zm152.42,49.27c8.59,5.48,11.86,4.72,17.29,4.92,5.44-.2,8.7.55,17.29-4.92,12.19-7.77,12.31-14.92,11.6-19.54s-6.68-5.58-11.91-2.86-17,2.81-17,2.81-11.77-.1-17-2.81-11.2-1.76-11.91,2.86S218.07,327.56,230.26,335.33ZM247.55,324c11.19,0,18,5.17,18,5.17-4.55,6.36-18,6.1-18,6.1s-13.44.27-18-6.1C229.55,329.2,236.36,324,247.55,324Zm29.5,135.64s19.34,3.09,19.94-11.35A22.39,22.39,0,0,1,277.05,459.67Zm15-10.6s1-10.58,1-16.48-8.2-5.23-8.2-5.23l-37.26,3.08-37.26-3.08s-8.2-.67-8.2,5.23,1,16.48,1,16.48.23,6,11.3,7.5c10.36,1.38,24.6,2.76,33.19,2.93,8.58-.17,22.83-1.55,33.19-2.93C291.81,455.1,292,449.07,292,449.07ZM401.83,274.68a11.32,11.32,0,0,0,19.59,10.83,16,16,0,0,1-4.17.55A16.15,16.15,0,0,1,401.83,274.68ZM198.1,448.31c.6,14.44,19.94,11.35,19.94,11.35A22.36,22.36,0,0,1,198.1,448.31Zm253-269.75a24.88,24.88,0,0,0-15.38-5.2H411.63l-14.93-49-11.79-10.32c-6.83-39.19-54.79-72-92.1-81.85-25.49-6.73-43.62-6-45.15-6h-.22c-1.53-.07-19.67-.76-45.15,6C165,42.08,117,74.9,110.19,114.08L98.4,124.4l-14.94,49H59.33A24.88,24.88,0,0,0,44,178.56c-3.77,2.95-7.11,7.36-7.11,13.69V298.64A31,31,0,0,0,41.41,315c3.62,5.83,9.9,11.66,20.55,11.66H81.85s2.48,38.18,14.54,48.76c0,0-7.5,74.42,61.22,77.73,0,0,7.66,25.22,89.93,25.22s89.93-25.22,89.93-25.22c68.73-3.32,61.22-77.73,61.22-77.73,12.06-10.58,14.54-48.76,14.54-48.76h19.89c10.65,0,16.93-5.83,20.55-11.66a31,31,0,0,0,4.57-16.39V192.25C458.26,185.92,454.91,181.52,451.14,178.56ZM247.55,37.62c95.56,0,126.88,70,123.69,67.52-2.71-2.14-5.58-4.16-8.56-6.07-11.88-14.9-38.14-42.41-75.18-50.45-46.5-10.09-89.43-.38-99.35,6,0,0,48.84-18.56,78,15-4.7-.54-8.69-.9-11.76-1.14a88.73,88.73,0,0,0-13.64,0c-20.33,1.59-81.34,8.57-116.87,36.65C120.67,107.66,152,37.62,247.55,37.62Zm39.67,33.79-8.54-4.85C268.34,54,244,48.78,244,48.78,279.73,49.57,287.11,71.08,287.22,71.41Zm-176.9,55.34C167.45,74.5,247.54,78.39,247.55,78.39s80.09-3.88,137.23,48.36L399.52,174h-9.64l-14.47-39.52,4.28,19.55c-.11-.33-3.71-11.13-14.19-16.67-10.65-5.63-25.86-20.3-29.34-26.46s-7-14.2-7-14.2l-4.82-1.48L334,131.83l-7-2.61-7.91-30.14s-1.09-5.49-4.31-7a6.56,6.56,0,0,1,.87,3.7,53.48,53.48,0,0,0-16.61-8.52c-20.73-5.83-57-10.15-84-1.27,0,0,55.83-11.19,62,28.16-4.55-.83-9.36-1.54-14.31-2a148.65,148.65,0,0,0-15.2-.8c-34.65,0-67.09,13.39-67.09,13.39-5.09.67-6.5-5.89-6-9.64S176,99.09,176,99.09l-7.91,30.14-7,2.61,9.65-36.57L166,96.75s-3.49,8-7,14.2-18.69,20.83-29.34,26.46c-10.48,5.54-14.09,16.34-14.19,16.67l4.28-19.55-14.47,39.52H95.62ZM388.38,374.28c.05.23,1.14,4.86.6,7,0,0-11,.47-12.13-5.29h0c3.08-.93,9.57-3.22,12.58-6.87a64.69,64.69,0,0,1,1.86,12.16h-.81A13.72,13.72,0,0,0,388.38,374.28Zm-283.77,7h-.81a65.51,65.51,0,0,1,1.86-12.16c3,3.64,9.51,5.94,12.58,6.87h0c-1.13,5.76-12.13,5.29-12.13,5.29-.54-2.11.55-6.74.6-7A14,14,0,0,0,104.61,381.25Zm5.63-14.92a67.25,67.25,0,0,1,3.3-8.54,25,25,0,0,0-5.21,6.78l-.91-.93a66.63,66.63,0,0,1,7-13.56c1.74,3.74,8.08,10.62,8.08,10.62C117.1,372.32,110.24,366.33,110.24,366.33Zm8.82-15.79c.57-1.81,4-6,4-6a20.62,20.62,0,0,0-5.63,4.89l-1.07-2c5.13-6.56,9.51-8.79,9.51-8.79l4.55,9.18q-1.53,1.8-2.85,3.71C122,354.22,119.06,350.54,119.06,350.54Zm-.86-125.81c.28,14.67,3.11,35.94,12.88,63.68,0,0-8.44,3-10.85-6.73s-9.11-36.37-9.91-48.16c0-.09,0-.18,0-.26Zm-8.44,2.81c-.83-8.39-.85-14.83,10.87-27-.06.18-2,6.12-2.39,17.7ZM147.26,153a24.72,24.72,0,0,1,7-5.73c4.22-2.21,24.62-17.68,71-26.39l-6.53,13.46s-14.34,1.58-37,9.77c-27.64,10-30.56,8.28-42.75,27.27-9,14-9.38,15.74-9.38,15.92l-1.2-7.08,13-27-7.34,18.89ZM232,133.78h31.17L271,141s25.52,6.13,43.16,11.43c14.68,4.42,28.09,9.95,28.09,9.95,2.76,3.18,10.41,16.6,10.41,16.6s-46.71-28-105.07-28-105.07,28-105.07,28,7.65-13.41,10.41-16.6c0,0,13.4-5.53,28.09-9.95,17.64-5.3,43.16-11.43,43.16-11.43Zm-4.89-5.63,4.49-8.17,16-1.34,16,1.34,4.49,8.17L266,127.08h-36.8Zm126.59,25,13,27-1.2,7.08c0-.18-.36-1.88-9.38-15.92-12.19-19-15.11-17.28-42.75-27.27-22.65-8.19-37-9.77-37-9.77l-6.53-13.46c46.35,8.71,66.75,24.18,71,26.39a24.72,24.72,0,0,1,7,5.73L361,172.06Zm7.56,187.66A107.49,107.49,0,0,0,350.15,338l2-4a69.77,69.77,0,0,1,11,3Zm5.67,25.44a51.48,51.48,0,0,1-6.65,6.38l2-14.41A55.46,55.46,0,0,1,366.89,366.27Zm-13.1-35.61,1.61-3.26a65.45,65.45,0,0,1,11.19,3.07l-1.43,2.75A59.62,59.62,0,0,0,353.79,330.66Zm3.33-6.73,1.77-3.59,10.76,4.24-1.06,2A48.87,48.87,0,0,0,357.12,323.93Zm3.81-7.73,1.2-2.44s7-.69,11.25,3.59l-1.79,3.46ZM364,288.41c9.77-27.74,12.6-49,12.88-63.68l7.9,8.52c0,.08,0,.17,0,.26-.8,11.79-7.5,38.41-9.91,48.16S364,288.41,364,288.41ZM274.76,166.77l-.27-.64a6.14,6.14,0,0,1,.27.64c1.05,2.51,4.79,12,4.45,19.35,0,0,4.67-.18,3.72-24.11,0,0,6.5,28.89-2.85,26.38C271.06,186,277,173,274.76,166.77ZM257.17,173c0,26.29-9.62,24.31-9.62,24.31s-9.62,2-9.62-24.31c0,0,.49,20.7,9.62,20.7S257.17,173,257.17,173ZM215,188.39c-9.34,2.51-2.85-26.38-2.85-26.38-1,23.93,3.72,24.11,3.72,24.11-.35-7.35,3.39-16.84,4.45-19.35a6.14,6.14,0,0,1,.27-.64l-.27.64C218.08,173,224,186,215,188.39ZM133,313.76l1.2,2.44-10.67,4.62-1.79-3.46C126,313.07,133,313.76,133,313.76Zm-3,19.45-1.43-2.75a66.39,66.39,0,0,1,11.19-3.07l1.61,3.26A61.59,61.59,0,0,0,129.93,333.21Zm13.07.88,2,4a107.08,107.08,0,0,0-11.08,2.79l-1.92-3.7A68.77,68.77,0,0,1,143,334.09Zm-16.49-7.47-1.06-2,10.76-4.24,1.77,3.59A48.61,48.61,0,0,0,126.51,326.62Zm6.32,31.62,5,35.49c-4.69-3.14-11-7-14.48-9.11A53.91,53.91,0,0,1,132.83,358.24Zm6.6,46.8,2.51,17.77s-9.51-2.72-14.87-14.34a44.6,44.6,0,0,1-3.66-14.27Zm-1.11-55.64L136.53,346a56.52,56.52,0,0,1,10.8-3.09l1.58,3.19Zm18.39-1.82a2.79,2.79,0,0,1,2.85.49l.13.12-12.35,7.35a3.57,3.57,0,0,1-4-.21l-2.11-1.58Zm-.05,9.81c5,2.6,10.84,5.65,17.15,8.7a46.25,46.25,0,0,1,8.55,10.59c1.39,2.29,2.47,4.4,4.91,5.52l7.37,3.41a14.27,14.27,0,0,0,3.88.46l5.11.37a3.89,3.89,0,0,0,2.28-1.08,8.5,8.5,0,0,0,2.23-3l1.13-2.44c1.12.28,2.22.53,3.3.74l1.35.27c-.79,2.64-3,6.09-8.9,7.09a37,37,0,0,0-12.71,4.4c-11.26-7.26-26.32-19.24-27.4-24.09-1.41-6.3-10.92-9.92-10.92-9.92Zm75.77-65.87c0,8,15.12,7.7,15.12,7.7s15.12.27,15.12-7.7c0,0,30.61-.5,44.28,14.07l-4.62-8s17.09,10.82,25.79,23.18c-20.23,18.52-44.54,28.19-56.43,30L265,345.17l-17.39-.1-17.39.1-6.73,5.53c-11.89-1.78-36.2-11.45-56.43-30,8.69-12.35,25.79-23.18,25.79-23.18l-4.62,8C201.82,291,232.43,291.52,232.43,291.52Zm3.62-4.48c2.88,6.77,11.5,5.76,11.5,5.76s8.62,1,11.5-5.76c0,0,2.46,8.71-11.5,8.71S236.05,287,236.05,287Zm73.53,84.44,2.26-1c-1.16,2-2.35,4.21-3,5.58-1.41,3.16-5.69,4.95-5.69,4.95l-9.13,1.28a3.1,3.1,0,0,1-3.26-1.83l-.73-1.68c4.68-1.39,9.6-3.19,14.54-5.21-1.26,3.21-2.83,6.29-2.83,6.29C304.58,378.3,307.46,374.63,309.58,371.48Zm-28.82,4.18a9.23,9.23,0,0,1-6.95-.62l-2.57-1.33L277.47,358c8.71-1.26,29.94-11.38,30.27-11.53-5.09,5.44-30.54,16.39-30.94,16.55,13.2-3.08,41.14-16.15,41.14-16.15-3.57,4.37-21.15,14.42-21.15,14.42,12.16-3.19,33.32-16,33.65-16.17C318.38,362.77,290.75,372.59,280.76,375.66Zm-9.59-15.81L268,367.69a3.61,3.61,0,0,1-3,2.24l-15.48,1.76a28.33,28.33,0,0,1-4.12,0c-6.25-.37-17.55-2-17.55-2l-.81-2-3.16-7.84,2.41.75,4.89,6.07a5.8,5.8,0,0,0,2.9.94l12.43.56q1,0,2,0l12.43-.56a5.78,5.78,0,0,0,4.39-2.36l2.34-3.21a5.42,5.42,0,0,1,2.75-2Zm-94-13s27.94,13.08,41.14,16.15c-.4-.17-25.85-11.12-30.94-16.55.33.16,21.57,10.27,30.27,11.53l6.23,15.74L221.28,375a9.23,9.23,0,0,1-6.95.62c-10-3.08-37.62-12.89-49.69-30.58.33.2,21.49,13,33.65,16.17C198.3,361.25,180.72,351.21,177.15,346.84Zm13.33,26.74c4.94,2,9.86,3.82,14.54,5.21l-.73,1.68A3.09,3.09,0,0,1,201,382.3L191.9,381s-4.29-1.78-5.69-4.95c-.61-1.37-1.8-3.55-3-5.58.75.33,1.5.67,2.26,1,2.12,3.15,5,6.82,7.8,8.39C193.31,379.87,191.74,376.79,190.48,373.58Zm21.92,17.48c3-2.06,4.65-6.41,5.48-9.37,20.7,2.67,29.67,2.73,29.67,2.73s3.08,0,9.77-.57c-1.08,1.9-3.29,4.12-7.77,5.84,0,0-1.56,7.74-3.42,9.8,0,0,.7-8.46-1.17-11.71,0,0-2,18.45-25.79,11.71A68.78,68.78,0,0,0,247.55,406c9.89,0,27.42-4.09,40.08-8.87,0,0-.06-.61-3.67-1.77-3.33-1.07-7.5-4.81-8.78-13.4l2-.26c.83,3,2.49,7.31,5.48,9.37,4.23,2.92,9,1.23,14.14,5-1,.53-1.84,1-2.62,1.33-9.65,4.42-30.77,11.66-46.67,11.66s-37-7.24-46.67-11.66c-.78-.36-1.66-.81-2.62-1.33C203.37,392.3,208.18,394,212.4,391.06Zm77.67-3c-5.94-1-8.11-4.45-8.9-7.09l1.35-.27c1.08-.22,2.18-.47,3.3-.74l1.13,2.44a8.75,8.75,0,0,0,2.23,3,3.89,3.89,0,0,0,2.28,1.08l5.11-.37a14.27,14.27,0,0,0,3.88-.46l7.37-3.41c2.44-1.13,3.52-3.23,4.91-5.52a46.52,46.52,0,0,1,8.55-10.59c6.31-3.05,12.2-6.1,17.15-8.7l2.66,1.05s-9.51,3.62-10.92,9.92c-1.08,4.85-16.14,16.83-27.4,24.09A36.38,36.38,0,0,0,290.07,388.05Zm30.23-90.8s9.45,6.64,15.44,15.82c-1.62,1.79-3.29,3.51-5,5.16a107.36,107.36,0,0,0-41.3-30.83l4.12,5.63a71.58,71.58,0,0,0-30.71-7.94s-1.9-9.58-15.32-9.58-15.32,9.58-15.32,9.58A71.58,71.58,0,0,0,201.51,293l4.12-5.63a107.44,107.44,0,0,0-41.3,30.83c-1.7-1.66-3.37-3.37-5-5.16,6-9.17,15.44-15.82,15.44-15.82a47.78,47.78,0,0,0-20.88,9.33,100.59,100.59,0,0,1-6.45-9.4c5.35-7,13.57-12.62,13.57-12.62a48.8,48.8,0,0,0-17.29,5.84,91.82,91.82,0,0,1-4.3-10.14A70,70,0,0,1,151,270.1l-13.55,3.73C124,224.51,141,199.7,141,199.7c-2.29,16.43,0,24.18,0,24.18a64.63,64.63,0,0,1,4.12-18.45A60.58,60.58,0,0,1,185.93,169l23.64-6.38s-4.22,10.85-2.68,22.49,12.34,4.55,12.34,4.55a46.57,46.57,0,0,0,2.06,15.15,143.75,143.75,0,0,1,7.74-45.3H233c-2.61,5.48-.74,16.06-.74,16.06,0-5.89,2-7.47,2-7.47,0,40.19,13.31,35.17,13.31,35.17s13.31,5,13.31-35.17c0,0,2,1.57,2,7.47,0,0,1.88-10.58-.74-16.06H266a144.09,144.09,0,0,1,7.74,45.3,46.57,46.57,0,0,0,2.06-15.15s10.8,7.08,12.34-4.55-2.68-22.49-2.68-22.49L309.13,169A60.56,60.56,0,0,1,350,205.43a64.3,64.3,0,0,1,4.12,18.45s2.29-7.75,0-24.18c0,0,17,24.81,3.57,74.13l-13.55-3.73a70,70,0,0,1,11.54,10.16,88.15,88.15,0,0,1-4.3,10.14A48.94,48.94,0,0,0,334,284.56s8.21,5.61,13.57,12.62a99.29,99.29,0,0,1-6.45,9.4A47.51,47.51,0,0,0,320.3,297.25Zm27.47,45.61a56.2,56.2,0,0,1,10.8,3.09l-1.79,3.45-10.58-3.35Zm23.92,51.35A44.67,44.67,0,0,1,368,408.48c-5.36,11.62-14.87,14.34-14.87,14.34l2.51-17.77Zm-14.43-.48,1.5-10.63c3.34-2.42,7.92-5.84,11.15-8.65a55.18,55.18,0,0,1,1.83,10.17C368.25,386.74,362,390.6,357.26,393.73Zm10.2-42.23q-1.32-1.9-2.85-3.71l4.55-9.18s4.38,2.23,9.51,8.79l-1.07,2A20.62,20.62,0,0,0,372,344.5s3.48,4.22,4,6C376,350.54,373.07,354.22,367.46,351.5Zm13.18-1.42a66.37,66.37,0,0,1,7,13.56l-.91.93a24.76,24.76,0,0,0-5.21-6.78,67.25,67.25,0,0,1,3.3,8.54s-6.86,6-12.3-5.62C372.56,360.71,378.9,353.83,380.64,350.08Zm5.93-2.24c-6.25-9.33-13.18-18-13.18-18l7.37-13.66c0,7.1,4.95,10.13,10.29,11.33A112.78,112.78,0,0,1,386.57,347.84ZM376.85,218.2c-.38-11.58-2.33-17.51-2.39-17.7,11.72,12.21,11.71,18.65,10.87,27ZM46.69,301.67V194.06c0-12,11.92-11.18,11.92-11.18h42.47c7.77,0,6.56,7.64,6.56,7.64v19.56a30.09,30.09,0,0,0-2.81,11.39c-.54,7.23,4.62,40.06,4.62,40.06v41.06c0,6.38-1.46,10-3.19,12.08.17-4.19-.17-10.48-3.3-13.49V200.49s.7-4.52-2.71-4.52l5.33-10.62s-6.7,5.56-9.58,5.56H62.57s-6.83-1.88-8.24-5.09a68.2,68.2,0,0,1,1,12.06v96.26s-.3,5.22,3.52,5.22L53.2,315.17C46.51,310.86,46.69,301.67,46.69,301.67Zm48.53-93.94v83c0,8.84-6.33,7.64-6.33,7.64H71.21c-9.55,0-9-7.84-9-7.84V202.1c0-3.57,4.42-3.12,4.42-3.12h20.8C95.52,199,95.22,207.73,95.22,207.73ZM61.46,317.35a15.16,15.16,0,0,1-7.77-1.88c2.56-4.16,7.82-10.78,15.41-10.78H92.21s11.67-2,13.47,10.6a6.77,6.77,0,0,1-5,2.06ZM91,327.83s23.31,3.75,23.31-11.65l7.37,13.66s-20,24.92-22.64,35.77C99.07,365.61,91,346.05,91,327.83Zm14.74,73.75-.43.21a74.94,74.94,0,0,1-1.67-15.31c3.84.93,9.88,1,13.79,1,0,1.12.1,3.31.1,3.31-.8,7.7-9.38,10.12-9.38,10.12-2.14-2.75-1.74-10.65-1.74-10.65A20.61,20.61,0,0,0,105.77,401.58Zm5.75,17.22a61.77,61.77,0,0,1-4.83-11.74A30.26,30.26,0,0,0,119.25,403c.12.5.23,1,.36,1.49h0c1.43,12.55-4.93,12.75-4.93,12.75-1.78-.73-3.59-5.83-3.59-5.83a12.39,12.39,0,0,0,2,6.7Zm9.86,11.78-.83.49a52.17,52.17,0,0,1-6.58-8.16c3.21-1.38,8-3.71,10.84-5.08,2.67,10.77-1.73,11.48-1.73,11.48-1.13-2.29-4.18-4.5-4.18-4.5C118.69,427.54,121.38,430.58,121.38,430.58Zm12.32,7.47c-2.08-.1-5.33-3.05-5.33-3.05a13,13,0,0,0,2.52,4.17,51.6,51.6,0,0,1-7-5c2.49-1.68,6.28-4.44,8.7-6.21A19.77,19.77,0,0,1,133.7,438.05Zm2.37,3.84a36.57,36.57,0,0,0,6.58-8.33c.7.3,1.09.44,1.09.44l.68,6.31-3.87-.49s.36,2.07,4.22,3.78l.17,1.54A61,61,0,0,1,136.07,441.89Zm38.37,14.59c-14.91-10.18-21.25-12-21.25-12L146.32,397c4.11.84,10.17,2.15,14,3.28,8.69,2.58,2.31,34.13,11.32,40.16a11.52,11.52,0,0,1,4.85,6.33l1.94,12.13A41.72,41.72,0,0,1,174.44,456.48Zm140.47-18.06-13.38,26.27c-23.9,6.7-54,6.68-54,6.68s-30.09,0-54-6.68l-13.38-26.27c-13.53.75-7.17-24.45-12.57-38a7.9,7.9,0,0,0-5.72-4.51l-16.27-3.72-.87-6c5.22.48,14.95,1.81,19.88,5.38,6.39,4.63,19.93,12.83,22,14.08-18-10.92-27.45-25.65-30.11-31.22a5.83,5.83,0,0,0-3.25-3l-11.38-5-.64-4.43,13.27,4.31a7.23,7.23,0,0,1,4.39,4c2.89,6.55,15,22.28,41.85,33.93,28.05,12.16,46.78,10.4,46.78,10.4s18.73,1.76,46.78-10.4c26.88-11.65,39-27.38,41.85-33.93a7.26,7.26,0,0,1,4.39-4l13.27-4.31-.64,4.43-11.38,5a5.87,5.87,0,0,0-3.25,3,67.36,67.36,0,0,1-9.75,14.09c-11.61,10-39.09,29-84.18,33,0,0,41.6,1.31,51.75-2.71,0,0,6.43,1.91,6.43,6.33s-.8,30-.8,30l9.65-18.29s1.67-25.68,15.35-35.14c-2.23,6.8-2,16-2.79,23.43C323.4,432.89,321.56,438.79,314.91,438.42Zm27,6a36,36,0,0,0-5.26,2.32l3.16-37.06c-.19.82-6.26,27-12.59,33.72a29.38,29.38,0,0,0-7,13.34c-1.13.75-2.32,1.46-3.58,2.13l1.94-12.13a11.52,11.52,0,0,1,4.85-6.33c9-6,2.63-37.58,11.32-40.16,3.83-1.13,9.89-2.44,14-3.28Zm8.23.71.17-1.54c3.87-1.71,4.22-3.78,4.22-3.78l-3.87.49.68-6.31s.4-.14,1.09-.44A36.57,36.57,0,0,0,359,441.9,61.58,61.58,0,0,1,350.14,445.15Zm14.06-6a12.48,12.48,0,0,0,2.52-4.17s-3.25,2.95-5.33,3.05A19.77,19.77,0,0,1,362.47,428c2.42,1.77,6.21,4.53,8.7,6.21A51.6,51.6,0,0,1,364.2,439.17Zm10.35-8.1-.83-.49s2.69-3,2.48-5.78c0,0-3.05,2.21-4.18,4.5,0,0-4.4-.71-1.73-11.48,2.81,1.37,7.64,3.7,10.84,5.08A51.78,51.78,0,0,1,374.55,431.07Zm9-12.27-1.55-.68a12.35,12.35,0,0,0,2-6.7s-1.81,5.09-3.59,5.83c0,0-6.36-.19-4.93-12.75h0c.13-.49.24-1,.36-1.49a30.2,30.2,0,0,0,12.56,4.05A61.77,61.77,0,0,1,383.57,418.8Zm6.19-17-.43-.21a20.64,20.64,0,0,0-.67-11.32s.4,7.9-1.74,10.65c0,0-8.58-2.43-9.38-10.12,0,0,.09-2.19.1-3.31,3.91,0,9.95-.07,13.79-1A75,75,0,0,1,389.76,401.78ZM396,365.61c-.74-3-2.81-7.08-5.41-11.42a68.68,68.68,0,0,0,7.84-26,40.78,40.78,0,0,0,5.6-.4C404.06,346.05,396,365.61,396,365.61Zm37.61-48.26H394.45a6.77,6.77,0,0,1-5-2.06c1.79-12.63,13.47-10.6,13.47-10.6H426c7.59,0,12.85,6.62,15.41,10.78A15.26,15.26,0,0,1,433.64,317.35Zm-9.75-19H406.21s-6.33,1.2-6.33-7.64v-83s-.3-8.74,7.84-8.74h20.8s4.42-.45,4.42,3.12v88.42S433.44,298.36,423.89,298.36Zm18,16.81-5.65-15.81c3.82,0,3.52-5.22,3.52-5.22V197.88a68.35,68.35,0,0,1,1-12.06c-1.41,3.21-8.24,5.09-8.24,5.09H399.1c-2.88,0-9.58-5.56-9.58-5.56L394.85,196c-3.42,0-2.71,4.52-2.71,4.52V301.17c-3.13,3-3.47,9.3-3.3,13.49-1.73-2.07-3.19-5.7-3.19-12.08V261.52s5.15-32.82,4.62-40.06a30.09,30.09,0,0,0-2.81-11.39V190.51s-1.21-7.64,6.56-7.64h42.47s11.92-.8,11.92,11.18V301.66S448.59,310.86,441.9,315.17Zm-26.75-58.38a12.76,12.76,0,1,0,12.76,12.76A12.76,12.76,0,0,0,415.15,256.79Zm0-48.86a12.76,12.76,0,1,0,12.76,12.76A12.76,12.76,0,0,0,415.15,207.93Zm-2.71,34a11.29,11.29,0,0,0,9-4.44,16.38,16.38,0,0,1-4.17.54,16.15,16.15,0,0,1-15.43-11.38A11.33,11.33,0,0,0,412.44,242ZM210.53,254c-13.66-17.55-33.09-27.33-52.92-26.86s-22.86,14.33-22.86,14.33c4.32.9,8.59-1.61,8.59-1.61,9.71,39.45,45.85,38.52,45.85,38.52a38.42,38.42,0,0,1-12.76,2.95c5.79.6,25.25-2.55,25.25-2.55a55.77,55.77,0,0,1-14.54,12.73,103.77,103.77,0,0,0,31.75-19.69c20.7,8.94,18.86-7.77,18.86-7.77C233.17,278.06,224.19,271.56,210.53,254Zm-57.87-15.12a76,76,0,0,1,18.6.3A32.84,32.84,0,0,0,162.09,263C152.3,252.93,152.66,238.89,152.66,238.89Zm22.46,25.84c-3.66-8.58,1-19.35,1-19.35-9.29,6.5-8.75,19.38-8.56,21.73-.4-4.52-.6-12.49,2-18.58A18.57,18.57,0,0,1,177,240.3a60.4,60.4,0,0,1,9.71,3.21,29.72,29.72,0,0,0-11.58,21.24Zm4.95,2.88A31.08,31.08,0,0,1,188,246.26C189.6,259.54,180.07,267.61,180.07,267.61Zm18.06,5a65.07,65.07,0,0,1-15,.08c2.52-1.92,5.51-5.53,6.64-12.22,1.26-7.46.63-12.55-.08-15.43,2.95,4.24,10,16,4.7,25,0,0,8.52-3.58,6.47-17.91.42.35.84.7,1.24,1A24.23,24.23,0,0,1,198.13,272.62Zm5.3-.75c2.26-4.71,2.06-12.07,1.77-15.8A51.56,51.56,0,0,1,215,269.28C210.84,270.41,207,271.26,203.43,271.87ZM313.77,216.1c-27.73,5.36-44.61,34.43-44.61,34.43C281.08,234.72,313.77,216.1,313.77,216.1ZM67.19,220.69A12.76,12.76,0,1,0,80,207.93,12.76,12.76,0,0,0,67.19,220.69Zm158.75,29.84s-16.88-29.07-44.61-34.43C181.32,216.1,214,234.72,225.94,250.53ZM77.84,238.06a16.38,16.38,0,0,1-4.17-.54,11.32,11.32,0,0,0,19.59-10.83A16.13,16.13,0,0,1,77.84,238.06ZM92.7,269.55a12.76,12.76,0,1,0-12.76,12.76A12.76,12.76,0,0,0,92.7,269.55Zm259.05-29.67s4.27,2.51,8.59,1.61c0,0-3-13.87-22.86-14.33s-39.25,9.31-52.92,26.86-22.64,24-27.23,10c0,0-1.84,16.71,18.86,7.77a103.77,103.77,0,0,0,31.75,19.69A55.94,55.94,0,0,1,293.4,278.8s19.46,3.15,25.25,2.55a38.14,38.14,0,0,1-12.76-3S342,279.33,351.75,239.88Zm-9.31-1s.35,14-9.43,24.13a32.78,32.78,0,0,0-9.17-23.83A76,76,0,0,1,342.44,238.89Zm-24.35,1.4a18.57,18.57,0,0,1,7.49,8.23c2.58,6.09,2.38,14.06,2,18.58.18-2.34.73-15.23-8.56-21.73,0,0,4.63,10.78,1,19.35h0a29.78,29.78,0,0,0-11.58-21.24A60.94,60.94,0,0,1,318.09,240.29Zm-11,6A31.08,31.08,0,0,1,315,267.61S305.5,259.54,307.09,246.26Zm-26.94,23a51.37,51.37,0,0,1,9.75-13.21c-.29,3.72-.49,11.08,1.77,15.8C288.08,271.26,284.25,270.41,280.15,269.29ZM297,272.62a24.28,24.28,0,0,1-4-19.46c.4-.35.82-.7,1.24-1-2,14.33,6.47,17.91,6.47,17.91-5.28-9,1.76-20.74,4.7-25-.71,2.89-1.35,8-.08,15.43,1.13,6.69,4.12,10.3,6.64,12.22A63.83,63.83,0,0,1,297,272.62Z" transform="translate(-29.03 -18.4)"/></g></svg>