<svg xmlns="http://www.w3.org/2000/svg" xmlns:xlink="http://www.w3.org/1999/xlink" viewBox="0 0 681.07 625.18"><defs><style>.cls-1{fill:none;clip-rule:evenodd;}.cls-13,.cls-2,.cls-4{fill:#1b1b19;}.cls-11,.cls-13,.cls-16,.cls-17,.cls-2{stroke:#fff;stroke-miterlimit:10;}.cls-2{stroke-width:8.5px;}.cls-10,.cls-11,.cls-12,.cls-13,.cls-14,.cls-15,.cls-16,.cls-17,.cls-2,.cls-3,.cls-4,.cls-5,.cls-6,.cls-9{fill-rule:evenodd;}.cls-3{fill:#314491;}.cls-5{fill:#20202d;}.cls-16,.cls-6{fill:#f0c82c;}.cls-7{clip-path:url(#clip-path);}.cls-8{fill:url(#linear-gradient);}.cls-9{fill:#ad1b4e;}.cls-10{fill:#fff;}.cls-11{fill:#d16a27;stroke-width:6.24px;}.cls-12{fill:#efc51c;}.cls-13{stroke-width:4.68px;}.cls-14{fill:#6e2530;}.cls-15{fill:#008dc7;}.cls-16,.cls-17{stroke-width:0.55px;}.cls-17{fill:#9c9b9b;}</style><clipPath id="clip-path" transform="translate(-21.61 -60)"><path class="cls-1" d="M207.92,109.56,87.45,398.34,362.14,612.09,636.83,398.34,516.36,109.56ZM362.14,74.79H181.73L39.61,415.47l322.53,251,322.53-251L542.55,74.79Z"/></clipPath><linearGradient id="linear-gradient" x1="340.54" y1="32.39" x2="340.54" y2="559.31" gradientUnits="userSpaceOnUse"><stop offset="0" stop-color="#ad1b4e"/><stop offset="1" stop-color="#4b1f27"/></linearGradient></defs><g id="Layer_7" data-name="Layer 7"><polygon class="cls-2" points="153.1 4.25 527.97 4.25 675.89 358.84 340.54 619.8 5.17 358.84 153.1 4.25"/><polygon class="cls-3" points="185.64 38.78 60.01 339.96 346.48 562.87 632.95 339.96 507.32 38.78 185.64 38.78"/><path class="cls-4" d="M263.82,577c-56.19-36-104.54-75.26-143.24-122.3l-6-9c-16-6.26-32-17.21-44.62-26.74l-6-4.53.83-7.48c1.38-12.59,5.46-26.67,9-38.82l2.22-7.56,2.58-.55,2.51-5.57c8.89-19.68,17.31-39.61,25.54-59.57l5-12,12.12,4.78c39.29,15.54,79.84,29.14,120,42.29,58.48,19.15,117.35,37.26,176.28,55,27.91-29.27,59.29-32.36,88.91-5.22,8.33-11.51,19.07-18.8,31.46-22.14l0-.24c-2.81-40.9,12.83-72.55,57.6-72.33l6.84,0,3.93,5.6c21.8,31.11,49.06,72.88,59.23,109.78l2.2,8L664,413.7c-35.85,31.54-73.05,62-110.09,92.1Q466.14,577.14,377.17,647l-3.74,2.95-4.77-.11c-9.6-.24-28.61-14.86-36.23-20.37-23.28-16.83-46.06-34.71-68.61-52.5" transform="translate(-21.61 -60)"/><path class="cls-5" d="M369,636.6q210-165.71,286.25-232.82-10.87-39.45-57.32-105.72-48.36-.22-44.35,58.21,38.19,6,46.11,40.32Q585.32,373,566.16,369.12c-21.44-2.92-38.58,6.57-49.39,23.44,8.43-1.08,15.82,3,17.89,10.33q-23.83-7.36-36.28,12.09.21-12.74,8.56-18.64-41.44-46.08-82.64,3.52-216.64-65-305.4-100-14.37,34.88-25.71,60,61.41-3.6,67.66,57.57-18.79-57.42-74.33-45.61Q79.23,396.57,78,408.31q31.67,23.83,51.9,28.22,28.83-19.06,53.17.75,19.89-7.14,40.57,6.81-38.4-4.09-58,19.65A40.49,40.49,0,0,1,176,444.34q-20.41-15-44.35,3,52.83,80,139.09,118.18Q360.5,636.4,369,636.6" transform="translate(-21.61 -60)"/><path class="cls-6" d="M171.93,449.29a43.5,43.5,0,0,1,4-5q-20.41-15-44.35,3,1.69,2.56,3.42,5.09,18.19-12.48,36.89-3.16" transform="translate(-21.61 -60)"/><path class="cls-6" d="M237.59,445.09q-33-3.51-52.05,13.5h0q35.76-15.31,71.19.88-8.34-10.41-19.14-14.38" transform="translate(-21.61 -60)"/><path class="cls-6" d="M160.85,417.37q-18.79-57.42-74.33-45.61-1.18,4-2.21,7.71,61.55.09,76.54,37.9" transform="translate(-21.61 -60)"/><path class="cls-6" d="M599.82,300.8l-1.91-2.74q-48.36-.22-44.35,58.21c1.19.19,2.36.39,3.5.62q3.47-47.89,42.76-56.09" transform="translate(-21.61 -60)"/><path class="cls-6" d="M539.87,407.41a18.89,18.89,0,0,1,4.57-4.57Q503,356.76,461.8,406.37q39.26-27.54,78.07,1m75-27.63a38.86,38.86,0,0,0-11.17-4.16c-21.44-2.92-38.58,6.57-49.39,23.44,5.54-1.06,13.63,1.54,16.38,6.6a51.47,51.47,0,0,1,13.72,7.9,27,27,0,0,0-11.59-15.63Q588.25,376.48,614.83,379.78Z" transform="translate(-21.61 -60)"/><path class="cls-6" d="M283.5,389.5q44.1-26.76,65.26,24.44-33.18-35.82-77-9.31,7.63-11.55,11.78-15.13" transform="translate(-21.61 -60)"/><path class="cls-6" d="M441.75,374q-28.85-12-48,13.75-5,8.58-5.17,21Q414,373,446.51,379.51a32.39,32.39,0,0,0-4.76-5.56" transform="translate(-21.61 -60)"/><g class="cls-7"><rect class="cls-8" x="18.01" y="14.79" width="645.06" height="591.64"/></g><path class="cls-9" d="M200.9,99H523.38l126.27,302.7L362.14,625.44,74.63,401.72ZM188.75,85.33,52.44,412.09l309.7,241,309.7-241L535.53,85.33Z" transform="translate(-21.61 -60)"/><path class="cls-10" d="M462.72,128.55l2,6.18a11.8,11.8,0,0,0,7.91,7.86l6.07,1.92-6.18,2a11.79,11.79,0,0,0-7.86,7.9l-1.92,6.07-2-6.18a11.81,11.81,0,0,0-7.9-7.86l-6.07-1.92,6.18-2a11.82,11.82,0,0,0,7.86-7.91Z" transform="translate(-21.61 -60)"/><path class="cls-10" d="M463.83,246l1.91,2.17a5.24,5.24,0,0,0,4.62,1.81l2.82-.3L471,251.56a5.27,5.27,0,0,0-1.81,4.62l.3,2.82-1.91-2.17A5.24,5.24,0,0,0,463,255l-2.82.3,2.17-1.91a5.27,5.27,0,0,0,1.81-4.62Z" transform="translate(-21.61 -60)"/><path class="cls-10" d="M199.77,208.48l1.63,13.77a7.73,7.73,0,0,0,6.49,6.46l9.39,1.57-9.48,1.63a7.8,7.8,0,0,0-6.46,6.49l-1.57,12.16-1.63-12.25a7.77,7.77,0,0,0-6.49-6.45l-9.4-1.58,9.49-1.63a7.74,7.74,0,0,0,6.46-6.48Z" transform="translate(-21.61 -60)"/><path class="cls-10" d="M497.19,179l1.07,9.11a5.14,5.14,0,0,0,4.3,4.28l6.22,1-6.28,1.08a5.16,5.16,0,0,0-4.27,4.29l-1,8.06-1.08-8.12a5.16,5.16,0,0,0-4.3-4.27l-6.21-1,6.27-1.08a5.1,5.1,0,0,0,4.27-4.29Z" transform="translate(-21.61 -60)"/><path class="cls-3" d="M238.22,192.68c4.08-1.48,9.37,2.76,11.81,9.47s1.12,13.36-3,14.84-9.37-2.75-11.81-9.46-1.12-13.36,3-14.85" transform="translate(-21.61 -60)"/><path class="cls-10" d="M256.5,129.79l2,6.18a11.81,11.81,0,0,0,7.9,7.86l6.07,1.92-6.18,2a11.77,11.77,0,0,0-7.86,7.9l-1.92,6.07-2-6.18a11.82,11.82,0,0,0-7.91-7.86l-6.07-1.92,6.18-2a11.81,11.81,0,0,0,7.86-7.9Z" transform="translate(-21.61 -60)"/><path class="cls-10" d="M283.5,279.79l2,6.18a11.81,11.81,0,0,0,7.9,7.86l6.07,1.92-6.18,2a11.77,11.77,0,0,0-7.86,7.9l-1.92,6.07-2-6.18a11.82,11.82,0,0,0-7.91-7.86l-6.07-1.92,6.18-2a11.81,11.81,0,0,0,7.86-7.9Z" transform="translate(-21.61 -60)"/><path class="cls-10" d="M225,187.32l1.08,9.11a5.14,5.14,0,0,0,4.29,4.28l6.22,1-6.28,1.08a5.15,5.15,0,0,0-4.27,4.29l-1,8-1.08-8.11a5.16,5.16,0,0,0-4.29-4.27l-6.22-1,6.27-1.08a5.12,5.12,0,0,0,4.28-4.29Z" transform="translate(-21.61 -60)"/></g><g id="Layer_6" data-name="Layer 6"><path class="cls-11" d="M357.89,389.4q-9.78-6.18-18.8-.16c0-29.1-6.57-38.28-9.9-58.71,17.87,8.8,41.39,8.14,57,2.22-3.38,10.92-8.16,23.47-11.48,39.83-2.87,1-5,2.38-16.82,16.82" transform="translate(-21.61 -60)"/><path class="cls-12" d="M377.72,332.36q-29.36.64-38.72-1.17c-1.51,10.13,3,18.16,8.5,30.52,2.35,5.32,5.12,13.42,7.35,18.55a121.62,121.62,0,0,1,4.78-23.07c.3,3.3-.8,11-.55,14.77,4.58-7.53,11.25-22.51,18.64-39.6" transform="translate(-21.61 -60)"/><path class="cls-12" d="M374.08,338.34c-1.24,10.85-6.86,28.89-12.62,39.24,2.85-9.76,9-29.28,12.62-39.24" transform="translate(-21.61 -60)"/><path class="cls-13" d="M419.25,272.39l2.59,5.79a171.05,171.05,0,0,1,13.55,51.09c.35,3.16-.48,6.28-3.2,8.2-4.26,3-9.11.58-12.95-1.76-3.35-2-6.56-4.35-9.89-6.44-2.27-1.41-7.85-4.78-10.57-4.7l-1.68.05q-1.14,2.33-2.29,4.64l-.7,1.38-1.24.91c-19,13.91-49,13.86-67.94-.12l-1.25-.92-.68-1.38-.08-.15-34.74,25.31a7.86,7.86,0,0,1-12.11-8.78l23.3-71.66c-2.72-7.43-5.29-14.91-7.64-22.41-2.14-6.81-4.14-13.73-5.72-20.69a74.6,74.6,0,0,1-2.25-15.2c-.48-56.37,23.1-104.43,61.4-145a19.51,19.51,0,0,1,28.44.06c38.14,40.69,61.55,88.84,60.86,145.21a74.59,74.59,0,0,1-2.3,15.19c-1.61,6.95-3.64,13.86-5.8,20.66s-4.59,13.85-7.11,20.71" transform="translate(-21.61 -60)"/><path class="cls-14" d="M400.63,191.61c.08-1.11.16-2.21.23-3.3a62,62,0,0,0,14.39-8.06,182.59,182.59,0,0,1-.13,19.08,29.37,29.37,0,0,0-10.94-6.76,27.37,27.37,0,0,0-3.55-1m-59.56,81.93c3.07-.63,6.34,2.66,7.31,7.35s-.75,9-3.82,9.63l-.22,0A158,158,0,0,0,353,312.65q7.71.53,13.14.39,9.38-11.34,16.47-41.08.42,19.2-1,28.2a112.83,112.83,0,0,0,9.95-32.29l.42-2.77a25.8,25.8,0,0,0,2.91.27,26.12,26.12,0,0,0,9-1.25l.61-.2q-3,12.38-6.94,25.79a303.09,303.09,0,0,1-11.16,33.37q-26.61,15.8-52.91.5l-.6-1.63-4.62,3.37.47,1c16.69,12.31,43.64,12.36,60.37.12,20.43-40.78,38.77-94,39-110.65a182.53,182.53,0,0,0-5.51-47.21,78.57,78.57,0,0,1-21.3,15.08c-12,5.78-26,8.92-42.1,8.89s-30.13-3.22-42.06-9a78.43,78.43,0,0,1-21.24-15.16,182.44,182.44,0,0,0-5.69,47.19c.07,8.91,5.34,28.42,13.34,50.89l9.05-10.94a316.23,316.23,0,0,1-6-33.06,202.37,202.37,0,0,1-.31-39.41q9,6.56,24,10.31a117.78,117.78,0,0,0,21.28,2.54Q353.28,200,344.2,209q-9.21,7.51-12.15,13.88c.2,2.24.42,4.46.64,6.65a9.13,9.13,0,0,0-2.18,5.86c-.13,3.65,1.49,6.74,3.75,7.43q2.25,16.89,5.6,31.24A3.74,3.74,0,0,1,341.07,273.54Zm-1.21-46.2c2-.07,3.7,2.34,3.81,5.39s-1.42,5.57-3.41,5.64-3.7-2.34-3.81-5.39S337.87,227.41,339.86,227.34Zm-3.1-91.55c2.68.1,4.72,3.49,4.57,7.57s-2.44,7.31-5.12,7.21-4.71-3.49-4.56-7.57S334.09,135.7,336.76,135.79ZM368.93,75c26.33,28.09,43.33,57.46,52.06,87.79a75.56,75.56,0,0,1-6.75,6.4q-3.14-23.1-14.49-36.19,2.4,14.53,1.93,36.51a33.37,33.37,0,0,0-5.31-9.57q-1.08,12.75-2,21.14c-10.21,4.12-21.93,6.32-35.17,6.3-1.73,0-3.43-.05-5.11-.12q-.75-41.06-1-89.24-6.94,39.67-7.15,88.54a89.53,89.53,0,0,1-16.08-3.49q-.23-15.1.62-28.4a3.94,3.94,0,0,1-.77-.07c-4.31-.69-6.94-6.58-5.89-13.15,1-6.32,5.08-11,9.22-10.71,2-13.58,9.85-32.43,18.36-47.26-23.66,28.2-38.55,54.85-43.78,88.25a73.17,73.17,0,0,1-10.18-9.17c8.84-30.29,25.94-59.6,52.37-87.6a13.14,13.14,0,0,1,19.13,0Z" transform="translate(-21.61 -60)"/><path class="cls-15" d="M314.1,181.94a78.61,78.61,0,0,1-18.25-13.63,182.44,182.44,0,0,0-5.69,47.19c.07,8.91,5.34,28.42,13.33,50.89l9.06-10.94a316.23,316.23,0,0,1-6-33.06,202.37,202.37,0,0,1-.31-39.41c3.65-.23,6.08-.41,7.88-1M343.49,333.4c-7.86-5.48-7.72-6.41-10-9.82l-.6-1.63-4.62,3.37.47,1A46.28,46.28,0,0,0,343.49,333.4Zm1.84-242.49c-20.16,25.52-32.95,50.36-37.72,80.81a73.17,73.17,0,0,1-10.18-9.17c8.84-30.29,25.94-59.6,52.37-87.6a12.73,12.73,0,0,1,9.51-4.11A129.6,129.6,0,0,0,345.33,90.91Z" transform="translate(-21.61 -60)"/><path class="cls-9" d="M365.19,335.21q1.2-2.81,2.3-4.82h0a56.28,56.28,0,0,0,18.89-7.3,303.09,303.09,0,0,0,11.16-33.37q3.88-13.41,6.94-25.79l-.61.2a26.12,26.12,0,0,1-9,1.25,25.8,25.8,0,0,1-2.91-.27c-2.79-.52-14.45-4.64-14.85-1.87q-5.33,32.2-14.78,38.55-3.72-49.41-2.94-104.17c19.08-2.13,36.23-7,41.46-9.3-.08,1.17-.19,2.74-.23,3.3a27.37,27.37,0,0,1,3.55,1,29.37,29.37,0,0,1,10.94,6.76,181.21,181.21,0,0,0,.14-18.86q2.5-1.69,4.7-3.48,3.78,4.17,6.89,15a186.51,186.51,0,0,1,1.21,23.78c-.2,16.61-18.54,69.87-39,110.65a49.56,49.56,0,0,1-23.9,8.81" transform="translate(-21.61 -60)"/><path class="cls-9" d="M368.93,75c26.33,28.09,43.33,57.46,52.06,87.79a75.56,75.56,0,0,1-6.75,6.4q-3.14-23.1-14.49-36.19,1,6,1.48,13.15a189.91,189.91,0,0,0-15.39-32.51q7.29,40.17,4.22,60.77-16,5.81-29.18,3.32c-1.05-25.09-.55-54.67-2.85-88.49-.64-6.79,0-14,1.28-18.39h.07A12.67,12.67,0,0,1,368.93,75" transform="translate(-21.61 -60)"/><path class="cls-15" d="M316.43,271.58l2.42-5.13-4.36-3-8.23,9.94-24.11,74.14a1.42,1.42,0,0,0,.54,1.63,1.44,1.44,0,0,0,1.72,0l4.86-3.54,2.86-9.57,8.09-6,8.71-17.34,2.27,10.13,2.41-2.41L313,302.05l6.76-1.32L326.38,316Z" transform="translate(-21.61 -60)"/><path class="cls-12" d="M294.57,309.31l-7.76,23.85q23.51-34.95,23.11-40.94-1.08-5.94-2.39-10.73-3.55,3.48-13,27.82" transform="translate(-21.61 -60)"/><path class="cls-14" d="M429,330a163.57,163.57,0,0,0-13-49.19L405.7,302.92a33.28,33.28,0,0,1,5.95,8.22c-.54,2.2-1,4.2-1.53,6,1.19-1.14,2.2-2.1,3-2.89A63.72,63.72,0,0,1,417,326.59c7.07,4.68,12.68,8.62,12.09,3.39" transform="translate(-21.61 -60)"/><path class="cls-9" d="M429,330a163.57,163.57,0,0,0-13-49.19l-5.87,12.61q7.83,10.23,13.05,29c-.81-8.84-3.27-18.11-5.32-25.81,6.05,16,7.68,27.94,7.91,35.4,2.27,1,3.56.66,3.26-2" transform="translate(-21.61 -60)"/><path class="cls-10" d="M429,330a163.57,163.57,0,0,0-13-49.19l-1.75,3.76a160.85,160.85,0,0,1,13.92,47.85c.7-.21,1-.95.86-2.42" transform="translate(-21.61 -60)"/><path class="cls-4" d="M395.61,195.91c14.07.52,25.2,15.42,24.85,33.29s-12,31.92-26.11,31.4-25.2-15.43-24.85-33.29,12-31.92,26.11-31.4" transform="translate(-21.61 -60)"/><path class="cls-12" d="M394.22,196.94a16.12,16.12,0,0,0-5.12.65,18.25,18.25,0,0,0-6.23,3.29,14.38,14.38,0,0,1,4.47-.53,14.92,14.92,0,0,1,3.92.68c5.92,1.89,10,6.84,12.28,12.57a1.38,1.38,0,0,1-1.8,1.8,6.8,6.8,0,0,0-2.25-.48,6.33,6.33,0,0,0-2.07.26c-4.29,1.28-6.4,6.25-6.48,10.4s2,9.6,6.44,11a6.34,6.34,0,0,0,1.73.3,6.53,6.53,0,0,0,2.08-.26,1.38,1.38,0,0,1,1.64,1.93c-2.4,5-6.27,9.22-11.68,10.83a14.57,14.57,0,0,1-3.82.6c.53.23,1.09.44,1.65.62a16.17,16.17,0,0,0,4.3.75,15.9,15.9,0,0,0,5.13-.65c10.63-3.16,15.86-15.48,16.06-25.74.21-10.66-5-23.78-16-27.29a16,16,0,0,0-4.3-.75" transform="translate(-21.61 -60)"/><path class="cls-16" d="M413.72,381.56Q385.16,370,357.94,391.5q12.8-20.88,32.65-22.37,14.6,2.82,23.13,12.43" transform="translate(-21.61 -60)"/><path class="cls-16" d="M303.58,353.62q24.54,2.69,17.67,28.28-2.17-23.26-26.55-26a39.26,39.26,0,0,1,8.88-2.31" transform="translate(-21.61 -60)"/><path class="cls-16" d="M339.15,392.05q-7.45-13-22.23-8.76a19.94,19.94,0,0,0-8.09,6.48q20.09-6.18,30.51,5.77a15.5,15.5,0,0,0-.19-3.49" transform="translate(-21.61 -60)"/><path class="cls-17" d="M339.15,392.05q1-9.6-13.58-14.22c1.52-16.61-9.85-29.43-26.47-24.09,16.78,2.35,23,8.6,20.81,25.78a22.12,22.12,0,0,0-8.75,7.62q16.35-8.44,28,4.91" transform="translate(-21.61 -60)"/><path class="cls-17" d="M410.87,377.77q-29.24-15.56-53,11.63,21.84-39,53-11.63" transform="translate(-21.61 -60)"/><path class="cls-3" d="M381.86,207c2,.62,2.76,3.77,1.73,7s-3.47,5.4-5.45,4.77-2.76-3.77-1.73-7,3.47-5.4,5.45-4.77" transform="translate(-21.61 -60)"/><path class="cls-12" d="M384.59,329.26c13.53-28.73,37.61-82.19,38.17-109.8a200.66,200.66,0,0,0-4.55-46.91q2.24-1.92,4.34-4a182.53,182.53,0,0,1,5.51,47.21c-.2,16.61-18.54,69.87-39,110.65a43.4,43.4,0,0,1-4.5,2.86M374.93,81.6c22.94,26.07,38,53.22,46.06,81.18q-2,2.13-4.11,4.09C409.22,136,394.52,107.62,374.93,81.6Zm0,0Z" transform="translate(-21.61 -60)"/><path class="cls-14" d="M355.93,86.42a17.92,17.92,0,0,1,1.67-11.48c13.34,16.5,23.88,48.9,26.26,92-7.85-35-15.32-64.37-27.93-80.52" transform="translate(-21.61 -60)"/><path class="cls-11" d="M505.73,397.68q-4.87-10.5-15.72-10.3c15.75-24.46,15.14-35.76,23.37-54.75,10.29,17.06,30.44,29.21,46.77,32.66-8.74,7.37-19.54,15.35-31.18,27.32-2.94-.73-5.46-.69-23.24,5.07" transform="translate(-21.61 -60)"/><path class="cls-12" d="M553.24,360.39q-25.05-15.31-32-21.91c-6.74,7.71-7.25,16.92-9.33,30.28-.89,5.75-2.94,14.06-3.84,19.58A122.81,122.81,0,0,1,524.6,371.5c-1.53,2.95-6.6,8.81-8.44,12.14,7.92-3.86,21.62-12.86,37.08-23.25" transform="translate(-21.61 -60)"/><path class="cls-12" d="M546.94,363.45c-6.9,8.47-21.38,20.61-31.82,26.21,7.68-6.68,23.37-19.81,31.82-26.21" transform="translate(-21.61 -60)"/><path class="cls-13" d="M620.58,332.36l-.94,6.27a171,171,0,0,1-16.2,50.31c-1.41,2.85-3.79,5-7.12,5.18-5.22.22-8-4.44-10-8.48-1.71-3.54-3.17-7.21-4.85-10.76-1.14-2.42-4-8.27-6.35-9.67l-1.44-.87q-2.22,1.35-4.44,2.67l-1.33.79-1.54.09c-23.5,1.44-48.71-14.81-57.11-36.81l-.55-1.44.17-1.54a.88.88,0,0,0,0-.16L466,330.47a7.86,7.86,0,0,1-5.44-13.93l58.32-47.71q2.57-11.59,5.67-23c1.88-6.88,3.94-13.79,6.36-20.5a75,75,0,0,1,6.32-14c30.05-47.69,75.86-75.4,130-88.84a19.52,19.52,0,0,1,23.9,15.41c10.12,54.85,3.8,108-27.23,155.08a75.06,75.06,0,0,1-10.14,11.53c-5.11,5-10.55,9.71-16,14.26s-11.33,9.18-17.17,13.59" transform="translate(-21.61 -60)"/><path class="cls-14" d="M648.56,254.33l2-2.66a61.66,61.66,0,0,0,16.46,1,178.34,178.34,0,0,1-10.41,16A29.54,29.54,0,0,0,651,257a27.67,27.67,0,0,0-2.47-2.71m-94.39,36.76c2.93,1.13,3.9,5.66,2.18,10.13s-5.49,7.18-8.41,6l-.21-.09a158.59,158.59,0,0,0-4.64,23.27q6.21,4.62,10.85,7.43,14-4.49,36-25.68-10,16.38-16.09,23.19a112.9,112.9,0,0,0,25.81-21.8l1.86-2.1a24.85,24.85,0,0,0,2.3,1.79,26.16,26.16,0,0,0,8.23,3.81l.63.16Q603.47,326,593,335.2a304.37,304.37,0,0,1-27.42,22.06q-30.93-1.08-44.8-28.16l.38-1.7-5.71.34-.12,1.06c7.39,19.37,30,34,50.74,32.71,39.22-23.27,83.43-58.19,92.57-72.05a182.83,182.83,0,0,0,20.86-42.71,78.67,78.67,0,0,1-26.07,1.19c-13.18-1.6-26.69-6.54-40.23-15.27s-23.61-19-30.51-30.33A78.63,78.63,0,0,1,573,178.1a182.48,182.48,0,0,0-30.28,36.64c-4.76,7.54-10.86,26.8-16.27,50L540,260.46a313.93,313.93,0,0,1,12.79-31.07,202.17,202.17,0,0,1,21-33.33q4.07,10.4,14.59,21.62a117.93,117.93,0,0,0,16.54,13.63q-.72,4.47-13.2,7.13-11.82,1.35-17.72,5.11-1.58,3-3.06,5.94a9.13,9.13,0,0,0-5,3.76c-2.08,3-2.39,6.48-.86,8.27q-7.23,15.45-12.17,29.31A4,4,0,0,1,554.17,291.09Zm24-39.53c1.71,1,1.84,4,.29,6.59s-4.2,3.92-5.92,2.9-1.85-4-.3-6.58S576.4,250.54,578.12,251.56ZM625,172.85c2.2,1.53,2.09,5.48-.24,8.83s-6,4.83-8.2,3.31-2.09-5.49.25-8.84S622.77,171.32,625,172.85Zm59.93-33.79c7,37.86,5.41,71.76-3.63,102a75,75,0,0,1-9.13,1.74q9.84-21.13,7.36-38.28-5.85,13.51-18.1,31.76a33.4,33.4,0,0,0,.69-10.92q-7.8,10.14-13.14,16.69c-10.81-2.05-21.86-6.53-33-13.7q-2.18-1.41-4.23-2.86,21.54-35,47.39-75.62-27.29,29.64-53.85,70.64a88.9,88.9,0,0,1-11.65-11.63q8-12.82,15.87-23.55a5.7,5.7,0,0,1-.62-.48c-3.25-2.91-2.28-9.29,2.16-14.25,4.27-4.77,10.2-6.49,13.53-4,9-10.34,25.82-22,41-29.85-35.15,10.95-62.07,25.33-84.52,50.62a74.84,74.84,0,0,1-3.61-13.23c23.8-20.71,54-36.14,91.4-45.42a13.14,13.14,0,0,1,16.08,10.37Z" transform="translate(-21.61 -60)"/><path class="cls-15" d="M581,199.43a78.17,78.17,0,0,1-8-21.33,182.76,182.76,0,0,0-30.28,36.64c-4.76,7.55-10.86,26.8-16.27,50L540,260.46a313.93,313.93,0,0,1,12.79-31.07,202.17,202.17,0,0,1,21-33.33c3.19,1.77,5.34,2.94,7.2,3.37m-57.1,143.34c-3.65-8.86-3-9.56-3.13-13.67l.38-1.7-5.71.34-.12,1.06A46.23,46.23,0,0,0,523.87,342.77ZM656.42,139.71c-30.75,10.58-54.93,24.58-75.4,47.63a74.84,74.84,0,0,1-3.61-13.23c23.8-20.71,54-36.14,91.4-45.42A12.76,12.76,0,0,1,679,130.36,130.77,130.77,0,0,0,656.42,139.71Z" transform="translate(-21.61 -60)"/><path class="cls-9" d="M541.15,356a53.46,53.46,0,0,1,4.55-2.82h0a56.54,56.54,0,0,0,19.84,4.06A304.37,304.37,0,0,0,593,335.2q10.51-9.18,19.77-17.95l-.63-.16a26.16,26.16,0,0,1-8.23-3.81,24.85,24.85,0,0,1-2.3-1.79c-2.07-1.95-9.65-11.71-11.49-9.6q-21.89,24.23-33.26,24.45,23.55-43.57,53.8-89.24c17.2,8.51,34.24,13.72,39.91,14.57l-2,2.66A26.37,26.37,0,0,1,651,257a29.43,29.43,0,0,1,5.56,11.61,181.08,181.08,0,0,0,10.3-15.8c2,0,4-.18,5.84-.39q.93,5.55-2.3,16.32a186.82,186.82,0,0,1-11.82,20.68c-9.14,13.86-53.35,48.78-92.57,72.05A49.54,49.54,0,0,1,541.15,356" transform="translate(-21.61 -60)"/><path class="cls-9" d="M684.89,139.06c7,37.86,5.41,71.76-3.63,102a75,75,0,0,1-9.13,1.74q9.84-21.13,7.36-38.28-2.4,5.53-5.86,11.86,4.32-20.24,4.6-35.67Q662.68,218.45,649,234.13q-16.58-3.74-26.35-13c12.67-21.68,29.07-46.3,45.41-76,3.12-6.05,7.54-11.81,11-14.79l.06,0a12.76,12.76,0,0,1,5.8,8.66" transform="translate(-21.61 -60)"/><path class="cls-15" d="M534.49,276.13l4.82-3-2-4.91L525,272.13l-60.33,49.36a1.46,1.46,0,0,0,1,2.59l6-.35,7.58-6.52,10.06-.69,16.7-9.88-3.56,9.75,3.33-.72,9.42-15.73,6.39,2.54-2.69,16.38Z" transform="translate(-21.61 -60)"/><path class="cls-12" d="M495.72,296.07,476.3,312q38.67-16.71,41.57-22,2.29-5.58,3.78-10.32-4.86,1-25.93,16.41" transform="translate(-21.61 -60)"/><path class="cls-14" d="M597.71,386.11a163.63,163.63,0,0,0,15.61-48.43l-20.63,13a33.65,33.65,0,0,1,.57,10.14c-1.65,1.56-3.15,3-4.52,4.2,1.62-.31,3-.58,4.1-.81a64.26,64.26,0,0,1-3.47,12.47c3.42,7.77,6,14.12,8.34,9.39" transform="translate(-21.61 -60)"/><path class="cls-9" d="M597.71,386.11a163.63,163.63,0,0,0,15.61-48.43l-11.76,7.43q1.07,12.86-4.67,31.45c4.1-7.89,7-17,9.47-24.6-3.53,16.7-8.63,27.66-12.46,34.06,1.38,2,2.63,2.48,3.81.09" transform="translate(-21.61 -60)"/><path class="cls-10" d="M597.71,386.11a163.63,163.63,0,0,0,15.61-48.43l-3.5,2.21a161.07,161.07,0,0,1-14.14,47.79c.7.21,1.37-.25,2-1.57" transform="translate(-21.61 -60)"/><path class="cls-4" d="M642,255.23c11.56,8,12.87,26.59,2.93,41.43S617.56,317,606,309s-12.87-26.59-2.93-41.44,27.38-20.36,38.94-12.31" transform="translate(-21.61 -60)"/><path class="cls-12" d="M640.29,255.35a15.67,15.67,0,0,0-4.67-2.22,18.25,18.25,0,0,0-7-.6,14.46,14.46,0,0,1,4,2,14.74,14.74,0,0,1,2.93,2.7c4,4.79,4.71,11.14,3.55,17.21a1.38,1.38,0,0,1-1.07,1.1,1.36,1.36,0,0,1-1.43-.56,6.74,6.74,0,0,0-1.62-1.62,6.3,6.3,0,0,0-1.89-.89c-4.3-1.25-8.77,1.79-11.07,5.24s-3.51,9.16-.54,12.75a6.72,6.72,0,0,0,1.3,1.2,7,7,0,0,0,1.89.9,1.35,1.35,0,0,1,1,1.14A1.38,1.38,0,0,1,625,295c-4.73,2.92-10.26,4.37-15.68,2.8a14.19,14.19,0,0,1-3.54-1.56,16.95,16.95,0,0,0,4.27,4.37,15.5,15.5,0,0,0,4.66,2.22c10.66,3.08,21.72-4.45,27.43-13,5.93-8.86,8.67-22.69,1.32-31.58a16.34,16.34,0,0,0-3.21-3" transform="translate(-21.61 -60)"/><path class="cls-16" d="M557,421.24q-17.81-25.15-52.32-21.77,22.07-10.67,39.56-1.19,10.77,10.26,12.76,23" transform="translate(-21.61 -60)"/><path class="cls-16" d="M479.37,338.22q19.19,15.52-.42,33.35,10.74-20.76-8.31-36.19a39.67,39.67,0,0,1,8.73,2.84" transform="translate(-21.61 -60)"/><path class="cls-16" d="M488.53,389.78q.74-14.94-14-19.39a20,20,0,0,0-10.31,1.09q20.24,5.65,22.56,21.34a15.16,15.16,0,0,0,1.72-3" transform="translate(-21.61 -60)"/><path class="cls-17" d="M488.53,389.78q6-7.53-3.75-19.3c10.26-13.15,7.62-30.09-9.25-34.58,12.84,11.05,14.71,19.67,3.58,32.94a22.19,22.19,0,0,0-11.48,1.69q18.33,1.73,20.9,19.25" transform="translate(-21.61 -60)"/><path class="cls-17" d="M556.6,416.5q-16.19-28.87-50.87-18.82,39.45-21,50.87,18.82" transform="translate(-21.61 -60)"/><path class="cls-3" d="M624.45,257.12c1.33,1.6.28,4.67-2.34,6.85s-5.83,2.67-7.16,1.07-.29-4.66,2.34-6.85,5.83-2.67,7.16-1.07" transform="translate(-21.61 -60)"/><path class="cls-12" d="M560.69,361.49c26.91-16.87,76.06-48.85,91.44-71.77a200.18,200.18,0,0,0,21.51-42c2-.26,3.89-.61,5.82-1a182.83,182.83,0,0,1-20.86,42.71c-9.14,13.86-53.35,48.78-92.57,72.05a41.38,41.38,0,0,1-5.34,0M686.36,147.86c5.22,34.33,3.23,65.32-5.1,93.2-1.87.48-3.76.88-5.67,1.22C685.81,212.2,688.79,180.34,686.36,147.86Zm0,0h0Z" transform="translate(-21.61 -60)"/><path class="cls-14" d="M667.77,141.66a17.87,17.87,0,0,1,7.6-8.77c2.31,21.1-6.32,54.05-27.6,91.61,12.28-33.66,21.88-62.44,20-82.84" transform="translate(-21.61 -60)"/><path class="cls-11" d="M229.06,417.84q-11.56-.16-16.1,9.7c-15.19-24.82-25.63-29.19-39.16-44.85,19.83-1.85,39.53-14.72,49.73-27.94,2.84,11.08,5.33,24.27,11.06,40-1.93,2.33-3,4.62-5.53,23.13" transform="translate(-21.61 -60)"/><path class="cls-12" d="M216.12,358.85q-24.69,15.91-33.62,19.27c4,9.42,12.08,13.89,23.21,21.56,4.79,3.3,11.39,8.76,16,12a122.55,122.55,0,0,1-8-22.16c2,2.65,5.07,9.77,7.27,12.87,0-8.81-2.19-25.06-4.83-43.5" transform="translate(-21.61 -60)"/><path class="cls-12" d="M216.14,365.86c4.62,9.89,9.27,28.21,9.78,40-2.68-9.82-7.69-29.65-9.78-40" transform="translate(-21.61 -60)"/><path class="cls-13" d="M220.12,286l5.24,3.57A171.14,171.14,0,0,1,263.64,326c1.95,2.51,2.88,5.6,1.56,8.67-2.05,4.79-7.46,5.26-11.95,5.27-3.93,0-7.87-.27-11.8-.31-2.68,0-9.2,0-11.47,1.52l-1.41.93c.17,1.71.33,3.43.48,5.15l.13,1.54-.58,1.43c-8.92,21.79-34.5,37.44-58,35.45l-1.54-.13-1.31-.83-.15-.08L151.28,424.4a7.86,7.86,0,0,1-14.91-1.15L118.73,350c-6.21-4.9-12.31-9.94-18.24-15.1-5.39-4.69-10.71-9.54-15.71-14.64a74.87,74.87,0,0,1-9.86-11.77C45,260.7,40,207.4,51.37,152.8A19.54,19.54,0,0,1,75.64,138c53.8,14.72,98.94,43.51,127.84,91.9a74.11,74.11,0,0,1,6,14.15c2.27,6.76,4.16,13.72,5.87,20.64s3.34,14.2,4.78,21.37" transform="translate(-21.61 -60)"/><path class="cls-14" d="M162,226.92,160.45,224a62,62,0,0,0,8.05-14.39,181.35,181.35,0,0,1,9.88,16.32,29.4,29.4,0,0,0-12.87,0,28.45,28.45,0,0,0-3.52,1m-7.89,101c2.29-2.15,6.79-1.06,10.07,2.43s4.08,8.07,1.79,10.21l-.16.15A157.61,157.61,0,0,0,184.74,355c4.57-2.39,8.36-4.57,11.4-6.55q2.06-14.56-7.46-43.62,10.4,16.14,13.9,24.57a113.17,113.17,0,0,0-8.43-32.73l-1.08-2.58a26.21,26.21,0,0,0,9.62-7.06l.41-.49q3.89,12.14,7.58,25.61a302.21,302.21,0,0,1,8,34.27q-14.41,27.39-44.83,28.12l-1.36-1.08-2.18,5.29.91.57c20.66,1.76,43.65-12.3,51.5-31.49C218.76,302.38,206.51,247.4,198,233.14a182.52,182.52,0,0,0-29.4-37.35,78.33,78.33,0,0,1-10.26,24C151.17,231,140.85,241,127.11,249.4s-27.36,13-40.58,14.3a78.38,78.38,0,0,1-26-1.81,183,183,0,0,0,19.84,43.2c4.73,7.55,19.42,21.42,38,36.38l2-14.06a314.05,314.05,0,0,1-22.43-25A202.3,202.3,0,0,1,77,269q11.13.86,25.81-3.75a118,118,0,0,0,19.46-9q3.72,2.58.69,15-3.92,11.24-3.1,18.19c1.35,1.81,2.69,3.58,4,5.33a9.13,9.13,0,0,0,1.21,6.13c1.8,3.18,4.8,5,7.08,4.38Q143,318.48,153.32,329A3.78,3.78,0,0,1,154.1,327.91Zm-25.2-38.74c1.66-1.1,4.37.06,6.06,2.6s1.71,5.49,0,6.59-4.37-.06-6.06-2.6S127.24,290.27,128.9,289.17ZM78.35,212.78c2.33-1.32,5.85.5,7.85,4.06s1.75,7.5-.58,8.82-5.85-.51-7.85-4.06S76,214.09,78.35,212.78ZM74,144.13c37.14,10.16,67,26.3,90.3,47.57a74.87,74.87,0,0,1-2.4,9q-14.76-18-31.29-23.26,9.65,11.13,20.75,30.1a32.91,32.91,0,0,0-9.53-5.37q5.75,11.43,9.32,19.08c-6.55,8.85-15.38,16.86-26.67,23.77q-2.22,1.35-4.42,2.56Q97.89,213,72.49,172q14.85,37.44,40.23,79.2a89.06,89.06,0,0,1-15.53,5.43q-8.09-12.75-14.33-24.52a5.58,5.58,0,0,1-.69.35c-4,1.66-9.36-2-11.9-8.13-2.44-5.93-1.42-12,2.25-14-5.39-12.63-8.57-32.79-9.08-49.88C58,197,59.29,227.44,72.31,258.65a74.58,74.58,0,0,1-13.48-2.49c-8.31-30.44-9.08-64.37-1.2-102.05a13.12,13.12,0,0,1,16.32-10Z" transform="translate(-21.61 -60)"/><path class="cls-15" d="M83.19,264a78.2,78.2,0,0,1-22.69-2.06,183,183,0,0,0,19.84,43.2c4.73,7.55,19.42,21.42,38,36.38l2-14.06a314.05,314.05,0,0,1-22.43-25A202.72,202.72,0,0,1,77,269c3-2.1,5-3.53,6.17-5m104.3,113.71c-9.57-.56-9.93-1.43-13.68-3.13l-1.36-1.08-2.18,5.29.91.57A46.56,46.56,0,0,0,187.49,377.66ZM62.17,170.05c-3.82,32.29-1.73,60.15,10.14,88.6a74.58,74.58,0,0,1-13.48-2.49c-8.31-30.44-9.08-64.37-1.2-102.05a12.67,12.67,0,0,1,5.94-8.48A130,130,0,0,0,62.17,170.05Z" transform="translate(-21.61 -60)"/><path class="cls-9" d="M206.93,367.84q-.45-3-.57-5.31h0a56.5,56.5,0,0,0,12.28-16.11,302.21,302.21,0,0,0-8-34.27q-3.7-13.47-7.58-25.61l-.41.49a26.21,26.21,0,0,1-9.62,7.06c-2.66,1-14.75,3.61-13.64,6.17q12.3,30.24,7.57,40.59-29-40.15-57-87.23c15.14-11.8,27.24-24.88,30.46-29.62l1.54,2.93a28.45,28.45,0,0,1,3.52-1,29.4,29.4,0,0,1,12.87,0,181.6,181.6,0,0,0-9.76-16.14c.84-1.84,1.56-3.65,2.18-5.43q5.4,1.58,13.71,9.16A185.74,185.74,0,0,1,198,233.14c8.52,14.26,20.77,69.24,24.69,114.68a49.58,49.58,0,0,1-15.75,20" transform="translate(-21.61 -60)"/><path class="cls-9" d="M74,144.13c37.14,10.16,67,26.3,90.3,47.57a74.87,74.87,0,0,1-2.4,9q-14.76-18-31.29-23.26,4,4.56,8.15,10.43a189.83,189.83,0,0,0-30.14-19.65q27.24,30.42,35.4,49.57-10.56,13.31-23.12,18.1c-14-20.83-29.08-46.29-48.74-73.92C68,156.52,64.75,150,63.57,145.63l.06,0A12.72,12.72,0,0,1,74,144.13" transform="translate(-21.61 -60)"/><path class="cls-15" d="M132.08,339.13l-.63-5.64-5.3-.31L124.34,346l18.25,75.79a1.44,1.44,0,0,0,1.31,1.12,1.46,1.46,0,0,0,1.47-.9l2.29-5.56-2.58-9.66,3.75-9.36-1.66-19.34,7.24,7.45.8-3.32-10.07-15.32,5.06-4.65,13.59,9.54Z" transform="translate(-21.61 -60)"/><path class="cls-12" d="M133.19,382.72l5.87,24.39q1.74-42.09-1.73-47-4-4.49-7.65-7.89-1.2,4.83,3.51,30.49" transform="translate(-21.61 -60)"/><path class="cls-14" d="M258.6,330a163.68,163.68,0,0,0-36.84-35.09l2.79,24.24a33.87,33.87,0,0,1,9.37,3.89q1.05,3.24,1.83,5.9c.42-1.6.76-3,1-4.05a64.53,64.53,0,0,1,9.73,8.54c8.48.3,15.33.72,12.08-3.43" transform="translate(-21.61 -60)"/><path class="cls-9" d="M258.6,330a163.68,163.68,0,0,0-36.84-35.09l1.59,13.81q12,4.62,26.29,17.87c-5.32-7.12-12.26-13.73-18-19.21,13.51,10.43,21.17,19.78,25.26,26,2.44-.37,3.38-1.3,1.74-3.4" transform="translate(-21.61 -60)"/><path class="cls-10" d="M258.6,330a163.68,163.68,0,0,0-36.84-35.09l.47,4.11a160.36,160.36,0,0,1,36.9,33.5c.5-.55.38-1.35-.53-2.52" transform="translate(-21.61 -60)"/><path class="cls-4" d="M160,233.21c12.26-6.92,29.54,0,38.59,15.37s6.45,33.5-5.82,40.42-29.54,0-38.59-15.37-6.45-33.5,5.82-40.42" transform="translate(-21.61 -60)"/><path class="cls-12" d="M159.32,234.82a15.75,15.75,0,0,0-4,3.23,18.26,18.26,0,0,0-3.59,6.07,14.73,14.73,0,0,1,3.53-2.8,14.94,14.94,0,0,1,3.7-1.46c6-1.49,12.09.6,17,4.28a1.36,1.36,0,0,1,.53,1.44,1.38,1.38,0,0,1-1.12,1,6.94,6.94,0,0,0-2.17.76,6.43,6.43,0,0,0-1.62,1.31c-3,3.33-2.19,8.68-.09,12.25s6.73,7.14,11.25,6a6.31,6.31,0,0,0,1.64-.65A6.14,6.14,0,0,0,186,265a1.39,1.39,0,0,1,2.41.78c.58,5.54-.52,11.15-4.28,15.35a14.75,14.75,0,0,1-3,2.51c.58-.08,1.16-.2,1.74-.34a16.15,16.15,0,0,0,4.06-1.61,15.87,15.87,0,0,0,4-3.23c7.4-8.26,5.42-21.5.23-30.34-5.41-9.2-16.67-17.68-27.88-14.91a15.93,15.93,0,0,0-4.05,1.61" transform="translate(-21.61 -60)"/><path class="cls-16" d="M272.54,381.94Q242.15,387,230.2,419.6q0-24.5,16.12-36.14,13.91-5.25,26.22-1.52" transform="translate(-21.61 -60)"/><path class="cls-16" d="M164.06,415.76q22.31-10.54,29.85,14.86-14-18.69-36.21-8.24a39.77,39.77,0,0,1,6.36-6.62" transform="translate(-21.61 -60)"/><path class="cls-16" d="M214.47,429.9q-13.12-7.15-23.53,4.17a20.11,20.11,0,0,0-3.5,9.76q13.89-15.78,29-11.05a15.25,15.25,0,0,0-2-2.88" transform="translate(-21.61 -60)"/><path class="cls-17" d="M214.47,429.9q-4.16-8.7-19-5c-7.39-14.95-23.79-19.93-35.16-6.68,15.53-6.77,24.1-4.71,31.23,11.08a22.05,22.05,0,0,0-3.48,11.08q9.52-15.76,26.42-10.47" transform="translate(-21.61 -60)"/><path class="cls-17" d="M268.12,380.2q-33,2-39.06,37.64-1.78-44.65,39.06-37.64" transform="translate(-21.61 -60)"/><path class="cls-3" d="M154,249.85c2-.51,4.33,1.77,5.16,5.09s-.13,6.41-2.15,6.91-4.32-1.77-5.15-5.08.13-6.42,2.14-6.92" transform="translate(-21.61 -60)"/><path class="cls-12" d="M220.35,352.62c-3.51-31.57-11-89.73-24.93-113.54A201,201,0,0,0,167,201.48q.9-2.8,1.6-5.69A182.6,182.6,0,0,1,198,233.14c8.52,14.26,20.77,69.24,24.69,114.68a42.43,42.43,0,0,1-2.33,4.8m-137.83-206c33.19,10.22,60.24,25.47,81.73,45.08-.39,1.9-.84,3.78-1.37,5.64C140.23,175.07,112.83,158.54,82.52,146.62Zm0,0h0Z" transform="translate(-21.61 -60)"/><path class="cls-14" d="M68.85,160.67A18,18,0,0,1,64.26,150c20,7.09,45.94,29.18,70.52,64.66-25-25.67-46.73-46.83-65.93-54" transform="translate(-21.61 -60)"/></g></svg>