<svg id="Layer_2" data-name="Layer 2" xmlns="http://www.w3.org/2000/svg" viewBox="0 0 383.73 644.18"><defs><style>.cls-1{fill:#efc51c;}.cls-1,.cls-2,.cls-3,.cls-4,.cls-5,.cls-6,.cls-7,.cls-8,.cls-9{fill-rule:evenodd;}.cls-10,.cls-2{fill:#060606;}.cls-3{fill:#008dc7;}.cls-4{fill:#009de0;}.cls-5{fill:#859199;}.cls-11,.cls-6{fill:#ebeaea;}.cls-7{fill:#413f40;}.cls-8{fill:#919191;}.cls-9{fill:#cecece;}</style></defs><path class="cls-1" d="M495.36,531.67a77.14,77.14,0,0,0-5.68-8.65c.17-3,.25-6,.25-9a159.22,159.22,0,0,0-1-17.87A92.71,92.71,0,0,0,495.6,489l3-3.6.15-4.67c.3-9.53-2.34-19.53-5.56-28.44a218.41,218.41,0,0,0-16.06-33.77l-3.61-6.33-7.25-.53c-3.14-.23-6.28-.37-9.43-.49-1.77-.06-3.55-.11-5.32-.15-1.16-1.33-2.33-2.64-3.53-3.93A28.69,28.69,0,0,0,457.64,396c4.29-8.47,5-18.82,4.61-28.17a111.69,111.69,0,0,0-8.17-36.19c-3.72-9.18-10.63-22.35-20.67-26.1a38,38,0,0,0,26.64-8.1c9.47-7.54,14.91-18.95,17.89-30.44l.7-2.71-.43-2.78a143.28,143.28,0,0,0-12.37-39.69,185.65,185.65,0,0,0-24.16-37.65l-.62-.76-.68-.63-.87-.8A164.37,164.37,0,0,0,437.06,148a105.39,105.39,0,0,0-12-33.64l-2.1-3.63L419.17,109c-5.07-2.44-11.85-3.38-17.42-4.06-5.27-.64-10.55-1.07-15.84-1.42q-.56-2.4-1.27-4.75c-4.44-14.6-13.3-26.95-24.28-37.33-3.78-11.2-9.62-24.33-19.12-31.46l-2.7-2-3.34-.53c-6.94-1.11-13.48,2.2-18.88,6.24a99.1,99.1,0,0,0-11.23,10.07c-3,0-6,.11-8.94.35-4.62.36-9.2,1-13.76,1.77a75.35,75.35,0,0,0-12.82-2.86c-5.21-.62-10.63-.45-15.57,1.47L249.94,46l-2.39,3.62c-2.5,3.79-3.17,8.5-3.27,13-.05,2.38,0,4.77.18,7.15a83.28,83.28,0,0,0-7.62,10.59c-7.52-3.22-15.86-2.88-23.7-.76l-.26.07c-27.19,6.25-37.74,25.57-31.63,52.18,1.19,12.47,2.8,25,5.82,37.21,2.13,8.58,5.3,18.21,10.82,25.23l.17.24.29.33a96.66,96.66,0,0,0,15.82,14.35,145.27,145.27,0,0,0,12.3,8.28c.22,8.52,1.67,17.09,5.39,24.82a43.55,43.55,0,0,0,15.78,17.92q.88,3.52,2,7c-2,4.8-3.87,9.66-5.62,14.56-3.27,9.15-6.17,18.42-8.83,27.76a54.14,54.14,0,0,0-19.34.84c-10.74,2.7-18.67,9.47-22.62,19.87l-.38,1-.23,1.16a68.12,68.12,0,0,0-1.36,18.24,51.17,51.17,0,0,0,4.11,17.08l.71,1.62,1.13,1.41c5.74,7.18,14,13,21.88,17.7,3.66,2.19,7.41,4.24,11.22,6.17a158.18,158.18,0,0,0-37.89,48.15q-1.6.4-3.21.87a37.77,37.77,0,0,0-8.09,3.17l-4.67,2.62-1.64,5.11a301.44,301.44,0,0,0-8.53,32.36,199.37,199.37,0,0,0-3.8,29.41l-.24,5.12,3.18,4a46.12,46.12,0,0,0,7.57,7.34c1.25,1,2.54,1.94,3.85,2.85A156.32,156.32,0,0,0,209.58,612c5.2,12.94,16.25,25.81,27.27,34.08,10.66,8,23.28,13.42,36.71,13.75A157.21,157.21,0,0,0,452.2,616.22c1,0,2-.05,3-.1,3.62-.16,7.23-.47,10.82-.88l5.32-.61,3.49-4.08c5.45-6.37,9.59-14.54,13.07-22.14a360.52,360.52,0,0,0,13.28-34.33l1.34-3.94-1.1-4A64,64,0,0,0,495.36,531.67ZM418.45,305.76c-2.73.48-5.65,1-8.57,1.44,1.25-4.12,2.31-8.44,3.17-12.63a23.83,23.83,0,0,0,12.48,9.66l.8.26.31.07A74.46,74.46,0,0,0,418.45,305.76Z" transform="translate(-131.01 -27.15)"/><path class="cls-2" d="M490.4,534.46a71.44,71.44,0,0,0-6.54-9.65q.38-5.38.38-10.79a153.9,153.9,0,0,0-1.07-18.08c-.07-.65-.16-1.29-.24-1.94a92.08,92.08,0,0,0,8.29-8.65l1.74-2.1.09-2.72c.27-8.72-2.29-18.19-5.23-26.33a215.3,215.3,0,0,0-15.65-32.89l-2.11-3.69-4.23-.31c-3.06-.22-6.14-.36-9.21-.47-2.6-.09-5.19-.16-7.79-.2a152.43,152.43,0,0,0-10.6-11.4,21.89,21.89,0,0,0,14.34-11.87c3.8-7.5,4.35-17.08,4-25.34a106.52,106.52,0,0,0-7.75-34.3c-3.09-7.62-9.92-21.33-18.79-23.33l-.72-.16-.77,0a49.82,49.82,0,0,0-9.11,1.16c-4.82.84-12.17,2.21-17.85,2.22,2.95-7,5.63-17.78,7.14-26.77a24.33,24.33,0,0,0,6.28.95l.84.05c2.27,5.11,5.88,9.11,11.51,11l.46.16.52.1c10.15,2,20,.35,28.19-6.15,8.45-6.73,13.27-17.17,15.92-27.42l.41-1.57-.25-1.63a137.5,137.5,0,0,0-11.89-38.11,179.8,179.8,0,0,0-23.42-36.49l-.37-.45-.4-.37c-.91-.84-1.84-1.68-2.77-2.51a161.77,161.77,0,0,0-2.27-35.31,99.84,99.84,0,0,0-11.35-31.83l-1.22-2.11-2.2-1.07c-4.28-2.06-10.95-3-15.64-3.53-6.58-.8-13.25-1.28-19.88-1.66a65.24,65.24,0,0,0-2-8.51c-4.29-14.09-13.06-25.92-23.78-35.81-3.38-10.31-8.85-23.51-17.6-30.08l-1.57-1.18L334.31,33c-5.26-.84-10.53,2.15-14.58,5.18A101.53,101.53,0,0,0,307.46,49.4a101.11,101.11,0,0,0-10.87.3A143.14,143.14,0,0,0,282,51.65a71.89,71.89,0,0,0-13.13-3.06c-4.25-.51-8.8-.44-12.83,1.12l-2.37.92-1.39,2.11c-1.84,2.79-2.26,6.68-2.33,9.95a87,87,0,0,0,.33,9A77.21,77.21,0,0,0,239,88.07a21.55,21.55,0,0,0-3-1.88c-6.67-3.43-14.31-3.08-21.37-1.16l-.37.1c-24.32,5.55-33,22-27.38,45.74,1.16,12.21,2.76,24.86,5.71,36.76,1.91,7.68,4.86,16.89,9.85,23.18l.11.16.13.15a93.07,93.07,0,0,0,14.9,13.48,143.7,143.7,0,0,0,14.56,9.56c-.1,8.74,1,17.71,4.85,25.63a38.28,38.28,0,0,0,15.63,16.78c.86,3.67,1.86,7.31,3,10.9-2.29,5.32-4.38,10.73-6.32,16.19-3.78,10.57-7.08,21.37-10.06,32.21-7.25-1.29-15.06-1.77-22.08,0-8.95,2.25-15.41,7.71-18.7,16.37l-.2.54-.14.71a62.18,62.18,0,0,0-1.26,16.72,45.23,45.23,0,0,0,3.64,15.18l.41.94.66.83c5.24,6.55,13.21,12.09,20.36,16.37a195.92,195.92,0,0,0,18.86,9.83,152.22,152.22,0,0,0-44.54,54.29c-1.86.42-3.71.88-5.53,1.41a33.19,33.19,0,0,0-6.9,2.67l-2.71,1.53-1,3A297.14,297.14,0,0,0,171.81,488a193.39,193.39,0,0,0-3.69,28.56l-.15,3,1.86,2.34a40.35,40.35,0,0,0,6.64,6.42c1.81,1.43,3.7,2.77,5.63,4.05a150.8,150.8,0,0,0,32.46,76.83c4.68,12.24,15.41,24.69,25.7,32.41,10,7.48,21.85,12.59,34.45,12.62a150,150,0,0,0,27.47,8.39,151.47,151.47,0,0,0,147.35-52c1.79,0,3.59,0,5.38-.12,3.48-.16,7-.45,10.42-.85l3.1-.36,2-2.38c5-5.84,9-13.85,12.23-20.81a361,361,0,0,0,13.07-33.79l.78-2.29-.65-2.36A58.65,58.65,0,0,0,490.4,534.46Z" transform="translate(-131.01 -27.15)"/><path class="cls-3" d="M455.57,237.33l-.38-.93-.68.74a44.08,44.08,0,0,1-14.7,10.54,57.72,57.72,0,0,1-23.61,4.5h-.31l-.19.25c-1.11,1.43-2.18,2.92-3.22,4.4-1.45,2.07-2.86,4.16-4.22,6.29l-.14.22.06.26a44.79,44.79,0,0,0,1.74,5.33,53.65,53.65,0,0,1,2.29,7.33l.07.35.34.12a13.06,13.06,0,0,0,3.74.54c.62,0,1.25.07,1.88.13l.81.06-.14-.8c-.79-4.57-.38-8.49,2.53-11.87.25,2.78.88,5.59,1.29,8.34.82,5.62,2.6,13.49,8.64,15.69l.05,0h.05c6.9,1.33,13.63.34,19.22-4.12,6.38-5.07,10-13.4,12.08-21.08l0-.13,0-.14A125.24,125.24,0,0,0,455.57,237.33Z" transform="translate(-131.01 -27.15)"/><path class="cls-4" d="M439.81,247.68a57.72,57.72,0,0,1-23.61,4.5h-.31l-.19.25c-1.11,1.43-2.18,2.92-3.22,4.4-1.45,2.07-2.86,4.16-4.22,6.29l-.14.22.06.26a44.79,44.79,0,0,0,1.74,5.33,53.65,53.65,0,0,1,2.29,7.33l.07.35.34.12a13.06,13.06,0,0,0,3.74.54c.62,0,1.25.07,1.88.13l.81.06-.14-.8c-.79-4.57-.38-8.49,2.53-11.87.25,2.78.88,5.59,1.29,8.34.53,3.64,1.46,8.24,3.7,11.61q18.07,2.64,24.89-13.61-.18-9.94-5.35-26.78A45,45,0,0,1,439.81,247.68Z" transform="translate(-131.01 -27.15)"/><path class="cls-5" d="M451.89,228.89A169.7,169.7,0,0,0,430,194.78l0,0,0,0a249.64,249.64,0,0,0-21.42-17.65A218.65,218.65,0,0,0,388,163.68l-.35-.2-.33.24a63.56,63.56,0,0,0-11.66,10.08l-.08.09,0,.12a59.27,59.27,0,0,0-4.16,22.67,23.63,23.63,0,0,0,.2,3.25l.42,3.17.82-3.09c.67-2.51,2.71-5.66,4.54-8.31a51.36,51.36,0,0,0-.39,19.65l.06.31.29.14c3.63,1.76,7.33,3.39,11,5,4.73,2,9.51,3.92,14.3,5.78l.55.21.25-.53c1.71-3.6,6.91-6.34,11.05-7.2-.37.47-.76.92-1.15,1.38a28.69,28.69,0,0,0-5.45,9.14l-.12.31.18.27a65.67,65.67,0,0,1,5.79,10.69,52.89,52.89,0,0,1,3,9.46l.11.5h.52a51.53,51.53,0,0,0,20.24-4.06,39,39,0,0,0,14.92-11.61l.24-.3-.16-.35C452.38,229.93,452.14,229.41,451.89,228.89Z" transform="translate(-131.01 -27.15)"/><path class="cls-6" d="M420.2,211.51q2.18-3.69,8.56-7.94-17.89-20.3-47.37-35.37a52.46,52.46,0,0,0-5.76,5.6l-.08.09,0,.12a59.27,59.27,0,0,0-4.16,22.67,23.63,23.63,0,0,0,.2,3.25l.42,3.17.82-3.09c.67-2.51,2.71-5.66,4.54-8.31a51.36,51.36,0,0,0-.39,19.65l.06.31.29.14c3.63,1.76,7.33,3.39,11,5,4.73,2,9.51,3.92,14.3,5.78l.55.21.25-.53c1.71-3.6,6.91-6.34,11.05-7.2-.37.47-.76.92-1.15,1.38a28.69,28.69,0,0,0-5.45,9.14l-.12.31.18.27a65.67,65.67,0,0,1,5.79,10.69,52.89,52.89,0,0,1,3,9.46l.11.5h.52a51.53,51.53,0,0,0,20.24-4.06,38.66,38.66,0,0,0,8.83-5.41q-1.47-10.86-14.67-28.73Q427.71,208.63,420.2,211.51Z" transform="translate(-131.01 -27.15)"/><path class="cls-6" d="M314.33,195.48c-17.59,4.76-34,1.9-49.34-7.91l-.6-.39-.31.64c-1.6,3.26-2.11,7.36-2.27,10.94a87.59,87.59,0,0,0,1,15.85l.15,1.07,1.28-1,.72-.09c5.61-.7,12.33-.46,18-.32,10.67.27,21.37.86,32,1.52h.16l.15-.07a20.17,20.17,0,0,0,5.92-4.05,12,12,0,0,0,3.08-5.48l0-.11a83.56,83.56,0,0,1,6.09-15.69l.91-1.74-1.75.88A80.25,80.25,0,0,1,314.33,195.48Z" transform="translate(-131.01 -27.15)"/><path class="cls-3" d="M416.91,133.57l0-.06,0,0a15,15,0,0,0-4.21-4.7c-2.1-1.36-5.17-.26-7.46,1.2,1.56-2.29,5-5.06,6.7-5.06H413l-.79-1.42-.22-.08c-3.29-1.18-7.87-1.73-11.33-2.15-7.4-.9-14.91-1.39-22.35-1.79l-.66,0v.66a71.82,71.82,0,0,1-3.31,20.46l-.07.25.12.24a11.86,11.86,0,0,1,1.5,4.91,8.7,8.7,0,0,1,0,1v.56l.57.07c7.66.85,17.74,3.38,17.45,12.92v.37l.32.19c.44.26.88.52,1.31.79l1.09.66-.13-1.27c-.8-7.59,0-14.4,3.42-20.93a87.86,87.86,0,0,0,.19,24.13l0,.28.24.16q5.79,3.72,11.35,7.8,5.76,4.22,11.26,8.76l1,.83,0-1.3a147.84,147.84,0,0,0-2.19-29.86A98.84,98.84,0,0,0,416.91,133.57Z" transform="translate(-131.01 -27.15)"/><path class="cls-4" d="M411.94,123.4c-3.29-1.18-7.87-1.73-11.33-2.15-7.4-.9-14.91-1.39-22.35-1.79l-.66,0v.66a71.82,71.82,0,0,1-3.31,20.46l-.07.25.12.24a11.86,11.86,0,0,1,1.5,4.91,8.7,8.7,0,0,1,0,1v.56l.57.07c7.66.85,17.74,3.38,17.45,12.92v.37l.32.19c.44.26.88.52,1.31.79l1.09.66-.13-1.27c-.79-7.43,0-14.1,3.2-20.5q2.06-8,7.05-11.66a15.42,15.42,0,0,0-1.55.86c1.56-2.29,5-5.06,6.7-5.06H413l-.79-1.42Z" transform="translate(-131.01 -27.15)"/><path class="cls-5" d="M446.74,368.63a95.41,95.41,0,0,0-7-30.77c-1.6-4-6.56-15.3-10.9-16.84l-.12,0h-.13c-1,.06-2,.25-3,.4l-1.08.18.69.85c4.74,5.82,7.37,18.09,7.74,26.92a112.88,112.88,0,0,0-7.37-16.63,38.07,38.07,0,0,0-7.32-9.82l-.22-.2-.31,0c-2.89.48-5.78.91-8.69,1.21l-1.41.15,1.05.95c8.56,7.74,11.15,18.27,11.18,29.18A64.79,64.79,0,0,0,408,332.05a26.86,26.86,0,0,0-16.32-9.5l-.34-.06-.24.25a29.44,29.44,0,0,1-3.18,2.93A38.85,38.85,0,0,1,382.8,329c-9.11,5.09-19.34,6.62-29.66,6.07-11.89-.64-23.95-4-35.07-8.12l-.65-.25-.18.68c-1.75,6.57-3.58,13.13-5.55,19.64l-.06.23.09.21a37.27,37.27,0,0,0,7.62,10.83,52.27,52.27,0,0,0,12.6,9.41l.14.08h1.35a144.81,144.81,0,0,1,31.34,3.36l.09,0H365c6-.38,45.46-4.45,49.87-3l-.13.1-.05.16c-.66.93-4.3,2.65-5.46,2.93l-.72.18.29.68c2.64,6.24,6.26,13.16,11.18,17.92,6.36,6.16,14.64,9.36,17.6-1.89a74.83,74.83,0,0,0,2.62-18.15,32,32,0,0,1,.46,19,24.48,24.48,0,0,1-1.08,3.23l-.94,2.28,1.92-1.54a12.89,12.89,0,0,0,3.37-4.28c2.9-5.72,3.14-13.8,2.86-20.08Z" transform="translate(-131.01 -27.15)"/><path class="cls-6" d="M414.13,368l-.32-.65q-14.34-13.05-50.88-14.24-9.33-2.46-23.51-19.84a144.59,144.59,0,0,1-21.35-6.3l-.65-.25-.18.68c-1.75,6.57-3.58,13.13-5.55,19.64l-.06.23.09.21a37.27,37.27,0,0,0,7.62,10.83,52.27,52.27,0,0,0,12.6,9.41l.14.08h1.35a144.81,144.81,0,0,1,31.34,3.36l.09,0H365C370.68,370.79,407.33,367,414.13,368Z" transform="translate(-131.01 -27.15)"/><path class="cls-6" d="M414.44,368.6a17.7,17.7,0,0,1-5.26,2.71l-.72.18.29.68c2.64,6.24,6.26,13.16,11.18,17.92,2.63,2.55,5.58,4.58,8.35,5.31q2.75-.34,5.51-.78a7,7,0,0,0,.94-.81,10.22,10.22,0,0,1-5.18-2.71A98.38,98.38,0,0,1,414.44,368.6Z" transform="translate(-131.01 -27.15)"/><path class="cls-4" d="M446.74,368.63a95.41,95.41,0,0,0-7-30.77c-1.6-4-6.56-15.3-10.9-16.84l-.12,0h-.13c-1,.06-2,.25-3,.4l-1.08.18.69.85c3.63,4.46,6,12.71,7.12,20.3q6.3,18.27,7.44,33.47a58,58,0,0,0,.36-6.13,32,32,0,0,1,.46,19,24.48,24.48,0,0,1-1.08,3.23l-.94,2.28,1.92-1.54a12.89,12.89,0,0,0,3.37-4.28c2.9-5.72,3.14-13.8,2.86-20.08Z" transform="translate(-131.01 -27.15)"/><path class="cls-5" d="M359.25,150.65c3.28-3.44,6.5-7,9.51-10.66l.07-.1,0-.11c3.78-11.89,4.63-24.17,1-36.19C365.92,90.72,357.47,80,347.53,71.17l-.56-.49-.23-.73c-2.53-8.09-7-20.47-13.64-26.16l-.23-.19-.3,0c-1.76.33-4.24,2.13-5.65,3.18a104.39,104.39,0,0,0-13.41,12.68l-.89,1-1.3-.11a84.13,84.13,0,0,0-13.09.09,138.67,138.67,0,0,0-15.43,2.17l-.69.13-.69-.23a65.89,65.89,0,0,0-13-3.22,25.31,25.31,0,0,0-4.35-.19l-1.44.08,1,1a16.63,16.63,0,0,1,1.54,1.71,18.5,18.5,0,0,1,3,6l.53,1.72-1.37,1.15c-9.11,7.61-16.34,16.82-20.67,27.92a66.74,66.74,0,0,0-4.13,17l-.41,3.66,1.6-3.32a48.73,48.73,0,0,1,11-14.67,55.92,55.92,0,0,1,74.29,0,45.7,45.7,0,0,1,0,68.65A54.93,54.93,0,0,1,292,184.16a55.78,55.78,0,0,1-29.38-8.25l-2.22-1.38,1.35,2.24c.59,1,1.13,2,1.64,3l.06.13.13.09c14.9,11.09,31.33,15.14,49.38,10.25,21.86-5.92,41.77-23.58,56.75-39.88l.08-.09.05-.11a10.34,10.34,0,0,0,.55-2l.27-1.71-1.31,1.13a126.17,126.17,0,0,1-16,11.92,67.56,67.56,0,0,1-7.89,4.34c1.58-1.31,3.12-2.71,4.58-4.07C353.22,156.81,356.28,153.76,359.25,150.65Z" transform="translate(-131.01 -27.15)"/><path class="cls-6" d="M332.29,43.72a19.24,19.24,0,0,0-5.37,3.11,104.39,104.39,0,0,0-13.41,12.68l-.89,1-1.3-.11a84.13,84.13,0,0,0-13.09.09,138.67,138.67,0,0,0-15.43,2.17l-.69.13-.69-.23a65.89,65.89,0,0,0-13-3.22,25.31,25.31,0,0,0-4.35-.19l-1.44.08,1,1a16.63,16.63,0,0,1,1.54,1.71,18.5,18.5,0,0,1,3,6l.53,1.72-1.37,1.15c-9.11,7.61-16.34,16.82-20.67,27.92a66.74,66.74,0,0,0-4.13,17l-.41,3.66,1.6-3.32a48.73,48.73,0,0,1,11-14.67,55.92,55.92,0,0,1,74.29,0,45.7,45.7,0,0,1,0,68.65A54.93,54.93,0,0,1,292,184.16a55.78,55.78,0,0,1-29.38-8.25l-2.22-1.38,1.35,2.24c.59,1,1.13,2,1.64,3l.06.13.13.09c14.9,11.09,31.33,15.14,49.38,10.25a76.18,76.18,0,0,0,15.32-6.09c-.05-1.24-.18-2.65-.4-4.24q-1.25.06-6.47-.2,5.82-2.1,12.32-8.15a59.56,59.56,0,0,1,.37,9.31q4-2.44,7.85-5.23a35.72,35.72,0,0,0-.91-9.3q6-7.18,15.24-19.84-4.22-12.27,5.43-18.16,1.6-29.26-18-53.46A90.7,90.7,0,0,0,332.29,43.72Z" transform="translate(-131.01 -27.15)"/><path class="cls-5" d="M243.31,169c-.48-.52-1-1.05-1.45-1.57l-.07-.08-.1-.06c-1.32-.66-4.27,3.3-5,4.15-.48.54-2.89,3.36-3.69,3.59a1.63,1.63,0,0,1,0-.34c2.29-2.94,3.9-12.48,4.37-16.19a112.07,112.07,0,0,0,.17-21.36l-.07-.95-.85.43a35.9,35.9,0,0,1-16.37,3.85,57.53,57.53,0,0,1-20.35-4.07l-1-.37.11,1a219.92,219.92,0,0,0,4.73,28.15c1.5,6,3.91,14.16,7.82,19.11a83.7,83.7,0,0,0,13.2,11.9,132.53,132.53,0,0,0,13.07,8.59l.85.49.09-1a99.51,99.51,0,0,1,3.53-19.07,49.55,49.55,0,0,1,4.94-11.46l.27-.43-.37-.35C245.81,171.74,244.56,170.36,243.31,169Z" transform="translate(-131.01 -27.15)"/><path class="cls-6" d="M234.82,173.51c-.23.24-.46.47-.69.68q-8.12,10.47-6.74-4.14,4.2-17.64,1.08-30.5a39.08,39.08,0,0,1-8.26.92,57.53,57.53,0,0,1-20.35-4.07l-1-.37.11,1a219.92,219.92,0,0,0,4.73,28.15c1.5,6,3.91,14.16,7.82,19.11a83.7,83.7,0,0,0,13.2,11.9,132.53,132.53,0,0,0,13.07,8.59l.85.49.09-1a99.51,99.51,0,0,1,3.53-19.07l.36-1.14a101.6,101.6,0,0,0-8-10.41Z" transform="translate(-131.01 -27.15)"/><path class="cls-3" d="M231.94,95.78c-4.15-2.13-9.4-1.49-13.75-.34l-.44.12-.1,0c-18.13,4.07-23.77,15.94-19.49,33.49l.05.18.06.68.35.14a67.54,67.54,0,0,0,11.51,3.82l2.48.57-1.93-1.66a17.8,17.8,0,0,1-2.8-3.08c-1.95-2.68-4.52-2.84-5.59-5.62,1.05.81,2.32,1.56,2.86,1a.8.8,0,0,0,.09-.92,16.31,16.31,0,0,1-.41-1.84c-.12-.7-.48-4.26.13-5.6,1.51,6.65,5.91,11.37,12.39,13.87,3.39,1.31,7.33.88,10.77,0a47.58,47.58,0,0,0,8.31-3.05l.37-.17V127a80.61,80.61,0,0,1,2.1-21.17l0-.17-.05-.16C237.73,101.57,235.7,97.72,231.94,95.78Z" transform="translate(-131.01 -27.15)"/><path class="cls-4" d="M218.19,95.44l-.44.12-.1,0c-15.87,3.56-22.17,13.1-20.62,27.2q2.63-4.31,7.82-.33l0-.13c-.12-.7-.48-4.26.13-5.6a19,19,0,0,0,3,6.88q35.82,1.86,22.07-28.58C226.28,93.84,221.91,94.46,218.19,95.44Z" transform="translate(-131.01 -27.15)"/><path class="cls-7" d="M193.08,527.52h0v0Z" transform="translate(-131.01 -27.15)"/><path class="cls-7" d="M481.93,539.8q-1.2-2.13-2.58-4.17l-.91-1.34-.24,1.61q-.57,3.81-1.34,7.59a145,145,0,0,1-8.71,28,5,5,0,0,1-.54.68c-1.2-2.89,3.24-26.17,4-29.75,1.75-8.57,2-18.68,2.2-27.44.2-8,.2-16,.46-24,0-1.31.32-10.4,1.27-11.54a1.7,1.7,0,0,1,.22.24c.4,1.68.78,3.36,1.12,5.05l.23,1.11.83-.78a70.47,70.47,0,0,0,5.19-5.46l.15-.17v-.24c0-7-2.25-14.72-4.61-21.26a199.82,199.82,0,0,0-14-29.66l-.17-.3-.34,0q-3.51-.22-7-.34l-4.41-.13-1.28,0,.75,1c1.24,1.71,7.13,15.22,10.67,24.13-11-23.21-29.28-41-50.6-55.38a141,141,0,0,0-207.13,58.59c-1,2.2-1.95,4.44-2.84,6.7s-1.73,4.55-2.5,6.86a2.41,2.41,0,0,1-.16.37c-1.07-1.22-2.47-8.95-2-10.12l.46-1.15-1.2.31c-.77.19-1.53.4-2.29.61a32.2,32.2,0,0,0-3.47,1.18l-.27.12-.09.28a280,280,0,0,0-7.64,29.22,183.44,183.44,0,0,0-3.42,25.66l0,.27.18.19a32.93,32.93,0,0,0,4.08,3.75c.77.61,1.56,1.2,2.36,1.77l.08,0,.1,0c2.56.81,4.25-7.88,6.26-11.15,0,3.36-.21,6.81,0,10.1.1,2.23.26,4.43.46,6.65a140.12,140.12,0,0,0,26,69.12l.63.88.46-1a6.77,6.77,0,0,1,3.71-3.12c1-.39,4.55-1.3,6-.94l0,0c-3.79,2.28-6.37,7.65-4.9,12,3.68,10.73,13.56,22,22.51,28.73,8.47,6.36,18.75,10.87,29.52,10.47a24.49,24.49,0,0,0,7.5-1.32,11,11,0,0,0,5.49-4c2.21-3.74,2.55-9.65,1.46-14.05,2.55,2,4.14,6.06,4.55,8.94a12.51,12.51,0,0,1-.59,6.33,10,10,0,0,1-.93,1.78,15.48,15.48,0,0,1-6.2,5.25l-1.38.67,1.46.5a141,141,0,0,0,163.24-56.67l.18-.21c.6,1.54-.32,8,1.11,9l.17.11h.2l2-.07c2.79-.13,5.57-.36,8.35-.66l.26,0,.16-.21c3.93-5,7.17-11.54,9.81-17.3,4.71-10.29,8.67-21.12,12.32-31.82l.07-.19-.06-.19A48.18,48.18,0,0,0,481.93,539.8Z" transform="translate(-131.01 -27.15)"/><path class="cls-8" d="M193.08,527.52h0v0Z" transform="translate(-131.01 -27.15)"/><path class="cls-8" d="M325.84,553.05a8.56,8.56,0,1,0,8.36,8.56A8.46,8.46,0,0,0,325.84,553.05Z" transform="translate(-131.01 -27.15)"/><path class="cls-8" d="M426.68,518.63a5.1,5.1,0,0,1,1.51,4.17q32.57-46.26,14.44-99.82a170.09,170.09,0,0,0-30.44-25.76,141,141,0,0,0-207.13,58.59c-1,2.2-1.95,4.44-2.84,6.7s-1.73,4.55-2.5,6.86a2.41,2.41,0,0,1-.16.37c-1.07-1.22-2.47-8.95-2-10.12l.46-1.15-1.2.31c-.77.19-1.53.4-2.29.61a32.2,32.2,0,0,0-3.47,1.18l-.27.12-.09.28a280,280,0,0,0-7.64,29.22,183.44,183.44,0,0,0-3.42,25.66l0,.27.18.19a32.93,32.93,0,0,0,4.08,3.75c.77.61,1.56,1.2,2.36,1.77l.08,0,.1,0c2.56.81,4.25-7.88,6.26-11.15,0,3.36-.21,6.81,0,10.1.1,2.23.26,4.43.46,6.65q.58,6.21,1.71,12.31a96.51,96.51,0,0,1,2.46-19.59c5.8,39,38.34,62.46,78.75,68.29a3,3,0,0,1,0-.42c0-3.4,4.34-6.16,9.71-6.16s9.71,2.76,9.71,6.16A4.11,4.11,0,0,1,295,590a154.88,154.88,0,0,0,17.13-.79q-13.24,10.3-6.86,21.57c7.12,11.62,43.55,8.16,44.06-11.07q.3-12.67-14.4-14.47,5.44-1.35,10.88-3.09c-.4-3.91,3.35-8.54,9.15-10.91s11.8-1.7,14.23,1.42a163.9,163.9,0,0,0,19.52-11.42,7.7,7.7,0,0,1,.42-5.1c-5.13,2.39-10.36,2-12.49-1.13-2.51-3.72.22-10,6.1-13.9s12.68-4.13,15.18-.4c1.2,1.77,1.2,4.11.25,6.5a15.19,15.19,0,0,1,1.59-.65,82.6,82.6,0,0,0,2.76,9.4q-28.35,27.4-19.42,45.83,5.74,7.35,14.93,1.78-15.17-12.78,8.25-37.07,13.65-15.41,28.61-11-6.52-11.19-21.93-4.39-4.29-2,1.11-11.3c1.71-1.77,3.39-3.6,5-5.46-2.26.76-4.41.59-5.82-.67-2.64-2.36-1.76-7.64,2-11.79S424.05,516.28,426.68,518.63ZM325.84,570.17a8.56,8.56,0,1,1,8.36-8.56A8.46,8.46,0,0,1,325.84,570.17Z" transform="translate(-131.01 -27.15)"/><path class="cls-8" d="M464.61,428.26l-.17-.3-.34,0q-3.51-.22-7-.34l-4.41-.13-1.28,0,.75,1c.88,1.22,4.12,8.41,7.19,15.66l.24.4c4.25,6.73,12,28.41,14.74,31.1,1.89,1.84,5.93-1.23,8.48-2.27a82.08,82.08,0,0,0-4.14-15.44A199.82,199.82,0,0,0,464.61,428.26Z" transform="translate(-131.01 -27.15)"/><path class="cls-9" d="M464.44,428l-.34,0q-3.51-.22-7-.34l-1,0c3,3.29,7.14,10.79,8.89,13.55a106,106,0,0,1,6.55,11.49c.34.74,2.91,1,5.44.94a215.07,215.07,0,0,0-12.36-25.29Z" transform="translate(-131.01 -27.15)"/><path class="cls-9" d="M251.1,451.83c-.08,0-.24-.14-.35-.16-5.38-.71-3.19,7.83,1,4.35C252.2,455.68,253.27,452.48,251.1,451.83Z" transform="translate(-131.01 -27.15)"/><path class="cls-9" d="M236.91,476.26c-6,1.37-13,7.44-9.59,14.1,2.94,5.68,11.73,2.38,15.33-.75,4.21-3.64,5.75-6.26,2.23-11C244.05,477.5,238.43,475.92,236.91,476.26Z" transform="translate(-131.01 -27.15)"/><path class="cls-9" d="M348.31,374a141,141,0,0,0-143.25,81.84c-1,2.2-1.95,4.44-2.84,6.7s-1.73,4.55-2.5,6.86a2.41,2.41,0,0,1-.16.37c-1.07-1.22-2.47-8.95-2-10.12l.46-1.15-1.2.31c-.77.19-1.53.4-2.29.61a32.2,32.2,0,0,0-3.47,1.18l-.27.12-.09.28a280,280,0,0,0-7.64,29.22c-.11.54-.22,1.09-.32,1.63q9.27.45,16.71-16.18c2.74-.62,4.76-.59,6.05.11q7.94,14.91,16.81-3.45a203.73,203.73,0,0,1,22.15-38.68q9.92,0,18.88-8.31,8.91-9.54,7.59-19.69Q303.13,379.37,348.31,374Z" transform="translate(-131.01 -27.15)"/><path class="cls-9" d="M230,511.16c-5.3-1.53-9.41-1.08-13.15,3-2.9,3.13-2.94,7.21-3.4,8.09s1.71,1,3.22-1.29c2.17-3.29,8.35-6.46,12.71-5.93C238.17,516.07,231.08,511.48,230,511.16Z" transform="translate(-131.01 -27.15)"/><path class="cls-9" d="M200.15,490.78a3.5,3.5,0,1,0,3.34,3.5A3.42,3.42,0,0,0,200.15,490.78Z" transform="translate(-131.01 -27.15)"/><path class="cls-9" d="M335.54,389.48c-1.72,6,12.52,7.85,11.78.14,0-.46-1.38-3.19-2-3.1C343.41,386.75,337.12,384,335.54,389.48Z" transform="translate(-131.01 -27.15)"/><path class="cls-9" d="M414,471.82c-5.57,2.61-4.53,2.46-8.07,8.09-1.33,2.11-1.51,10.49-.89,10.68,1.56.5,1.79,1.29,2.32-2.3.72-4.81,6.9-12.67,12-13.83C428.94,472.3,424.48,466.92,414,471.82Z" transform="translate(-131.01 -27.15)"/><path class="cls-9" d="M369.69,383.23l-3.32-1c-6.76-2.61-6.31,9,2.67,9C375.15,391.27,371.1,383.49,369.69,383.23Z" transform="translate(-131.01 -27.15)"/><path class="cls-9" d="M287.07,462.69c4.87-13.73-16.45-6.55-11.17,1.49C277.52,466.65,285.25,467.8,287.07,462.69Z" transform="translate(-131.01 -27.15)"/><path class="cls-9" d="M371.53,418.18c-2.26,1.74-3.54,3.31-3.54,6.4,2.86-4.43,2.72-5.54,9.81-5.54,5.62,0,2.66.53,5.28,1.35l.36.11C382.61,417.52,375,415.51,371.53,418.18Z" transform="translate(-131.01 -27.15)"/><path class="cls-9" d="M289.91,401.79q-8.4,10,2,15.45c2.08.5,4-.44,5.75-2.81q15.36-17.18,39.67,5.95,13.56,13.44,11.07,28c8.47-3.3,12.78-18.86,9.5-22.55Q321.05,382.28,289.91,401.79Z" transform="translate(-131.01 -27.15)"/><path class="cls-9" d="M282.69,427.54a2.85,2.85,0,0,0-1.83-2.44c-7.76-2.49-8.54,9-1.79,9C283.16,434.08,283,431.71,282.69,427.54Z" transform="translate(-131.01 -27.15)"/><path class="cls-9" d="M293.79,492.45c-5.45,0-14.16,1.36-17.24,6.5a18.86,18.86,0,0,0-2.69,13.29c.12.52,1.65.39,1.78.27,3.19-2.88,1.37-6.88,8.37-11.89,2.46-1.76,8.34-4,11.07-3.89C302.32,497,302.72,492.45,293.79,492.45Z" transform="translate(-131.01 -27.15)"/><path class="cls-3" d="M248,199a23,23,0,0,1,8-2.17l.52-.05.05-.53c.09-1,.21-2.07.38-3.1l.11-.73h-.73a21.08,21.08,0,0,0-4.34.42,27.76,27.76,0,0,0-6.18,2.08l-.29.14-.06.32c-.27,1.44-.5,2.88-.7,4.32l-.19,1.4,1.17-.79A21.88,21.88,0,0,1,248,199Z" transform="translate(-131.01 -27.15)"/><path class="cls-3" d="M254.28,181.61a24.24,24.24,0,0,1,3,.21l1.23.15-1-1.79-.26-.07a24.37,24.37,0,0,0-3.81-.71,17.24,17.24,0,0,0-2.69-.06l-.37,0-.16.34c-.2.42-.4.85-.58,1.28l-.45,1,1.11-.15A27,27,0,0,1,254.28,181.61Z" transform="translate(-131.01 -27.15)"/><path class="cls-3" d="M246.55,211a33.94,33.94,0,0,1,9.5-6.29l.39-.17,0-.43c-.05-1.16-.07-2.33-.06-3.49v-.72l-.71.09a19.31,19.31,0,0,0-6.26,1.8,16.85,16.85,0,0,0-5.22,4l-.13.16,0,.21c-.11,1.21-.2,2.43-.27,3.64,0,.89-.1,1.78-.12,2.67l-.06,1.79,1.17-1.36A24.81,24.81,0,0,1,246.55,211Z" transform="translate(-131.01 -27.15)"/><path class="cls-3" d="M255.59,238.09l-.41-3.75-.83,3.68a46,46,0,0,0-.87,5.23l0,.32.24.21c.57.51,1.16,1,1.76,1.48l1.25,1-.24-1.56Q256,241.39,255.59,238.09Z" transform="translate(-131.01 -27.15)"/><path class="cls-3" d="M258.17,219.86c-.29-1.73-.56-3.48-.8-5.22l-.18-1.36-.91,1a29.56,29.56,0,0,0-4.32,6.41,54.34,54.34,0,0,0-4.64,14.2l0,.2.11.22a28.8,28.8,0,0,0,2.35,4l.86,1.22.28-1.47a49.73,49.73,0,0,1,2-7.39c.54-1.51,1.14-3,1.82-4.45v-.07a14.06,14.06,0,0,1,1.92-3.66,8.42,8.42,0,0,0,1.51-2.81,2.85,2.85,0,0,0,.05-.77v-.08Z" transform="translate(-131.01 -27.15)"/><path class="cls-3" d="M256.52,209.63l.25-.21-.13-1.45-.83.43a29.37,29.37,0,0,0-7.06,4.93,22.9,22.9,0,0,0-4.92,6.82l-.07.15v.16a51.43,51.43,0,0,0,.94,6.78l.51,2.41.71-2.35a48.41,48.41,0,0,1,3.19-8A30.43,30.43,0,0,1,256.52,209.63Z" transform="translate(-131.01 -27.15)"/><path class="cls-3" d="M254.24,184.79a25.35,25.35,0,0,0-6,.67l-.35.08-.11.35c-.09.3-.19.6-.28.91-.32,1.07-.62,2.14-.89,3.22l-.28,1.15,1.11-.4a28,28,0,0,1,3.94-1.1,23.55,23.55,0,0,1,5.92-.44l.5,0,.14-.47a22.25,22.25,0,0,1,1-2.66l.32-.72-.77-.16A22.15,22.15,0,0,0,254.24,184.79Z" transform="translate(-131.01 -27.15)"/><path class="cls-4" d="M248,199a20.87,20.87,0,0,1,2.31-1c.14-1.64.32-3.29.52-4.95a28.85,28.85,0,0,0-5,1.82l-.29.14-.06.32c-.27,1.44-.5,2.88-.7,4.32l-.19,1.4,1.17-.79A21.88,21.88,0,0,1,248,199Z" transform="translate(-131.01 -27.15)"/><path class="cls-4" d="M251.29,189.69q.36-2.4.81-4.83a26.4,26.4,0,0,0-3.87.6l-.35.08-.11.35c-.09.3-.19.6-.28.91-.32,1.07-.62,2.14-.89,3.22l-.28,1.15,1.11-.4A26.93,26.93,0,0,1,251.29,189.69Z" transform="translate(-131.01 -27.15)"/><path class="cls-4" d="M246.55,211a28.72,28.72,0,0,1,3.3-2.74q0-3.35.2-6.77c-.22.09-.43.19-.65.3a16.85,16.85,0,0,0-5.22,4l-.13.16,0,.21c-.11,1.21-.2,2.43-.27,3.64,0,.89-.1,1.78-.12,2.67l-.06,1.79,1.17-1.36A24.81,24.81,0,0,1,246.55,211Z" transform="translate(-131.01 -27.15)"/><path class="cls-4" d="M250.22,217.25c-.14-1.65-.24-3.3-.3-5-.4.34-.79.69-1.17,1.06a22.9,22.9,0,0,0-4.92,6.82l-.07.15v.16a51.43,51.43,0,0,0,.94,6.78l.51,2.41.71-2.35a48.41,48.41,0,0,1,3.19-8C249.46,218.58,249.83,217.91,250.22,217.25Z" transform="translate(-131.01 -27.15)"/><path class="cls-4" d="M247.32,234.91l0,.2.11.22a28.8,28.8,0,0,0,2.35,4l.86,1.22.28-1.47a50.27,50.27,0,0,1,1.75-6.72c-.73-3.05-1.32-6.17-1.77-9.33A58.71,58.71,0,0,0,247.32,234.91Z" transform="translate(-131.01 -27.15)"/><path class="cls-3" d="M340.46,204.78q-4-2-7.87-4.25l-.64-.36-.26.69c-.51,1.37-1,2.75-1.42,4.14l-.09.31.19.26a39,39,0,0,0,6.83,6.93,40.13,40.13,0,0,0,7.56,4.66l.66.32.21-.71c.21-.68.4-1.36.58-2.05l0-.11q.87-2.78,1.86-5.53l.19-.55-.53-.24C345.3,207.19,342.87,206,340.46,204.78Z" transform="translate(-131.01 -27.15)"/><path class="cls-3" d="M335.23,215a41.09,41.09,0,0,1-5.47-5.16l-.67-.76-.39.93a17.42,17.42,0,0,1-2.29,3.91l-.26.34.21.36a41.24,41.24,0,0,0,6.41,8.5,33.94,33.94,0,0,0,7.24,5.54l.56.32.31-.56a58.55,58.55,0,0,0,3.32-7.36l.2-.55-.53-.25A42.65,42.65,0,0,1,335.23,215Z" transform="translate(-131.01 -27.15)"/><path class="cls-3" d="M345.94,194a67.46,67.46,0,0,0-9.75-2.11l-.44-.06-.2.39q-1.17,2.17-2.16,4.44l-.23.52.49.28c2.72,1.55,5.47,3.05,8.25,4.47q3.42,1.76,6.93,3.34l.6.27.24-.61c1-2.53,2.09-5,3.27-7.48l.26-.57-.55-.27A43.13,43.13,0,0,0,345.94,194Z" transform="translate(-131.01 -27.15)"/><path class="cls-3" d="M322.74,231.61a41.7,41.7,0,0,1-4-10.68l-.17-.77-1.26.6-.09.12c-.4.51-.78,1-1.13,1.58l-.09.15v.17a40.53,40.53,0,0,0,1.54,14.37,21.06,21.06,0,0,0,4.89,8.3l.3.31.4-.18a33.52,33.52,0,0,0,6.48-3.77l.59-.44-.52-.52A39.6,39.6,0,0,1,322.74,231.61Z" transform="translate(-131.01 -27.15)"/><path class="cls-3" d="M330.52,225.36a42.9,42.9,0,0,1-6.29-8.1l-.38-.62-.56.46q-.72.59-1.47,1.11l-.34.23.08.41a39.65,39.65,0,0,0,4,11.24,37,37,0,0,0,6.66,8.77l.44.43.44-.43c.36-.34.71-.7,1.05-1.06a41.93,41.93,0,0,0,4.42-5.52l.37-.57-.58-.33A37.48,37.48,0,0,1,330.52,225.36Z" transform="translate(-131.01 -27.15)"/><path class="cls-3" d="M375,152.88l-.46,0-.16.36-.86,1,1.16.18a18.56,18.56,0,0,1,4.85,1.38,11.54,11.54,0,0,1,4.23,3.15l.37.46.48-.34,1.3-.91,1.3-.89-.57-.54C384,154.05,378.6,153.22,375,152.88Z" transform="translate(-131.01 -27.15)"/><path class="cls-3" d="M378.24,158.61a19.13,19.13,0,0,0-7.26-1.42h-.28l-.19.21c-1.05,1.09-2.1,2.18-3.17,3.26l-.79.8,1.1.26a17.3,17.3,0,0,1,3.19,1.06,16.19,16.19,0,0,1,4.51,3l.42.4.43-.39q2.37-2.13,4.88-4.11l.52-.41-.43-.5A8.58,8.58,0,0,0,378.24,158.61Z" transform="translate(-131.01 -27.15)"/><path class="cls-3" d="M369.56,165.69a16.54,16.54,0,0,0-5.67-1.33l-.28,0-.2.19q-2.42,2.33-4.9,4.56l-.91.82,1.2.27a29.54,29.54,0,0,1,8.91,3.51l.45.27.35-.4q2.16-2.44,4.47-4.76l.48-.47-.5-.45A12.68,12.68,0,0,0,369.56,165.69Z" transform="translate(-131.01 -27.15)"/><path class="cls-3" d="M354.68,172.71l-.27,0-.21.18q-3.82,3.22-7.85,6.22l-1.25.93,1.54.2q2.66.36,5.25,1a51.86,51.86,0,0,1,8.17,2.63l.48.2.29-.43c.37-.56.75-1.11,1.14-1.66q1.75-2.5,3.67-4.91l.46-.58-.64-.36A28.44,28.44,0,0,0,354.68,172.71Z" transform="translate(-131.01 -27.15)"/><path class="cls-3" d="M351.18,184.27h-.08a54.2,54.2,0,0,0-8.87-1.29l-.31,0-.2.24a42.86,42.86,0,0,0-3.7,4.88l-.54.81,1,.16a67.48,67.48,0,0,1,8.42,1.92,46.5,46.5,0,0,1,7.21,2.83l.56.27.29-.55c1.09-2.09,2.26-4.15,3.49-6.16l.39-.64-.7-.28A49.09,49.09,0,0,0,351.18,184.27Z" transform="translate(-131.01 -27.15)"/><path class="cls-4" d="M323.85,216.64l-.56.46q-.72.59-1.47,1.11l-.34.23.08.41a40.13,40.13,0,0,0,3.24,9.8,52.47,52.47,0,0,0,4.79-4.25,44,44,0,0,1-5.36-7.14Z" transform="translate(-131.01 -27.15)"/><path class="cls-4" d="M329.76,209.84l-.67-.76-.39.93a17.42,17.42,0,0,1-2.29,3.91l-.26.34.21.36a41.37,41.37,0,0,0,5.42,7.45,52.5,52.5,0,0,0,4.67-6.14c-.41-.31-.82-.61-1.22-.93A41.09,41.09,0,0,1,329.76,209.84Z" transform="translate(-131.01 -27.15)"/><path class="cls-4" d="M318.58,220.16l-1.26.6-.09.12c-.4.51-.78,1-1.13,1.58l-.09.15v.17a45.28,45.28,0,0,0,.69,11.13,57.85,57.85,0,0,0,5.5-3.34,42.78,42.78,0,0,1-3.44-9.64Z" transform="translate(-131.01 -27.15)"/><path class="cls-4" d="M335.75,191.85l-.2.39q-1.17,2.17-2.16,4.44l-.23.52.49.28c2.72,1.55,5.47,3.05,8.25,4.47l1.05.53a77.62,77.62,0,0,0,2.41-8.63,67.93,67.93,0,0,0-9.17-1.94Z" transform="translate(-131.01 -27.15)"/><path class="cls-4" d="M332.59,200.53l-.64-.36-.26.69c-.51,1.37-1,2.75-1.42,4.14l-.09.31.19.26a39,39,0,0,0,6.83,6.93c.3.24.61.47.92.7a59.94,59.94,0,0,0,3.71-7.73l-1.37-.69Q336.47,202.74,332.59,200.53Z" transform="translate(-131.01 -27.15)"/><path class="cls-4" d="M345.1,180l1.54.2.68.1c.05-.68.1-1.37.14-2.05l-1.11.82Z" transform="translate(-131.01 -27.15)"/><path class="cls-4" d="M341.92,183l-.2.24a42.86,42.86,0,0,0-3.7,4.88l-.54.81,1,.16a66.88,66.88,0,0,1,7.55,1.67c.43-2.33.77-4.74,1-7.23-1.6-.24-3.19-.4-4.8-.51Z" transform="translate(-131.01 -27.15)"/><path class="cls-5" d="M393.88,224.91l-.29-.12c-2.47-1-4.92-2-7.37-3-4.42-1.88-8.83-3.84-13.12-6l-.6-.3-.38-.52A30,30,0,0,1,366,196.66a36.36,36.36,0,0,1,2.37-12.24l1.59-4.31-2.69,3.73c-.28.38-.56.77-.83,1.16a112.81,112.81,0,0,0-14.95,31.14c-2.51,9.31-6.69,18.37-13.39,25.38a39.32,39.32,0,0,1-16,10.28l-1.35.46,1.25.69c2.27,1.27,4.48,2.65,6.63,4.12l1.36.95.21.15.25,0a31.81,31.81,0,0,1,14.69,1.67c5,1.64,11.3,6,15.23,10.33-6.4-3.09-14.65-6-21.24-6.34l-1.83-.1,1.38,1.21c5.38,4.68,14.54,12.53,18.18,19.6a226.56,226.56,0,0,0-18.33-14c-4.28-3-8.62-6-12.94-8.95-7.54-5.16-16.07-9.3-25.2-10.54h-.06a49.6,49.6,0,0,0-16.57,2,30.14,30.14,0,0,0-11.62,6.71l-.07.07-.05.09a202.85,202.85,0,0,0-11.77,27.51C256,299,252.43,311,249.23,322.91l-.16.59.58.18c4.9,1.51,11,4.92,15.31,7.63,2.7,1.68,13.74,8.85,13.69,13.33a118.41,118.41,0,0,0-17.17-10.53A95.34,95.34,0,0,0,245.07,328c-7.45-1.91-16.89-3.56-24.48-1.65a15.42,15.42,0,0,0-11.25,9.62l0,.05v.06a52.32,52.32,0,0,0-1,13.56,38.32,38.32,0,0,0,.54,4.27l.23,1.25.85-.93c2.77-3,7.32-3.41,11.16-3.16l.25,0a155.69,155.69,0,0,1,35.54,9.33,115.85,115.85,0,0,1,27.46,15.51l.27.21L285,376q5-1.77,10.22-3.17l1.24-.34-1-.78a151,151,0,0,0-27-16.39c-9.83-4.61-21.08-9.1-31.87-11.65,10.56-.49,24.5,4.69,33.21,8.77a154.32,154.32,0,0,1,27.79,16.92l.66.5.31-.77c.48-1.19.94-2.39,1.39-3.6l.09-.25-.11-.24a41.94,41.94,0,0,0-3.53-6.14,13.41,13.41,0,0,0-2.23-2.53c3.2-1,7.27,5.15,8.75.72q1.23-3.72,2.39-7.46c3.68-11.81,6.91-23.8,9.91-35.79v-.06a71.21,71.21,0,0,0,.76-11.48v-.13l-.05-.11a47.66,47.66,0,0,0-4.13-7.51,69.42,69.42,0,0,0-8.71-10.1c4.11.59,6.36,1.8,9.35,5.61l1.5,1.91-.38-2.4a32.16,32.16,0,0,0-3.12-8.38c10.38,8.55,12,20.44,10.1,33.53l0,.16,0,.12c-.49,2-1,4-1.51,5.93l-.14.54.53.21c10.76,4.07,22.54,7.42,34.09,8,9.25.5,18.6-.78,26.77-5.39l.07,0a28.6,28.6,0,0,0,4.25-2.8,20.09,20.09,0,0,0,7.84-13.7c.66-5.91-1.2-11.88-4-17-1.23-2.28-2.48-5.06-3.92-7.42,4.57,2.7,8.08,7.39,10.48,12l1.52,2.9-.33-3.25a79.51,79.51,0,0,0-1.46-8.66l3.63,6.55a.65.65,0,0,0,.64.46c.93,0,.74-2.2.75-2.74,0-1.56.06-3.12.08-4.68,0-2,0-4,.12-6a114.29,114.29,0,0,0,.44-12.42c-.25-14.18-2.78-28.56-6.34-42.26Z" transform="translate(-131.01 -27.15)"/><path class="cls-6" d="M373.1,215.75l-.6-.3-.38-.52A30,30,0,0,1,366,196.66a36.36,36.36,0,0,1,2.37-12.24l1.59-4.31-2.69,3.73c-.28.38-.56.77-.83,1.16a112.81,112.81,0,0,0-14.95,31.14c-2.51,9.31-6.69,18.37-13.39,25.38a39.32,39.32,0,0,1-16,10.28l-1.35.46,1.25.69c2.27,1.27,4.48,2.65,6.63,4.12l1.36.95.21.15.25,0a31.81,31.81,0,0,1,14.69,1.67c5,1.64,11.3,6,15.23,10.33-6.4-3.09-14.65-6-21.24-6.34l-1.83-.1,1.38,1.21c5.38,4.68,14.54,12.53,18.18,19.6a226.56,226.56,0,0,0-18.33-14c-4.28-3-8.62-6-12.94-8.95-7.54-5.16-16.07-9.3-25.2-10.54h-.06a49.6,49.6,0,0,0-16.57,2,30.14,30.14,0,0,0-11.62,6.71l-.07.07-.05.09a202.85,202.85,0,0,0-11.77,27.51C256,299,252.43,311,249.23,322.91l-.16.59.58.18c4.9,1.51,11,4.92,15.31,7.63,2.7,1.68,13.74,8.85,13.69,13.33a118.41,118.41,0,0,0-17.17-10.53A95.34,95.34,0,0,0,245.07,328c-7.45-1.91-16.89-3.56-24.48-1.65a15.42,15.42,0,0,0-11.25,9.62l0,.05v.06a52.32,52.32,0,0,0-1,13.56l0,.49a217,217,0,0,1,38.25-3.56c-3.37-1.11-6.75-2.08-10.08-2.87,6.61-.31,14.55,1.61,21.7,4.09q20.17,3.53,27.33,6.27,13.88-25.65,19-49.49Q301.83,284,292.24,272.8q11.1.9,15.87,5a28.06,28.06,0,0,0-1-6.68q17.54,12.21,31.74,34.25,23.19,12,24-2.3Q391,308.77,386,286.58a37.27,37.27,0,0,0-6-9.45q7.65,4.64,11.7,1.83,4.19-36.07-10.63-59.46C378.38,218.3,375.72,217.06,373.1,215.75Z" transform="translate(-131.01 -27.15)"/><path class="cls-4" d="M268.4,355.32c-9.83-4.61-21.08-9.1-31.87-11.65a34,34,0,0,1,3.63,0q-17.46-3.09-31.94,3c0,1,0,1.95.1,2.93a38.32,38.32,0,0,0,.54,4.27l.23,1.25.85-.93c2.77-3,7.32-3.41,11.16-3.16l.25,0a155.69,155.69,0,0,1,35.54,9.33,115.85,115.85,0,0,1,27.46,15.51l.27.21L285,376q5-1.77,10.22-3.17l1.24-.34-1-.78A151,151,0,0,0,268.4,355.32Z" transform="translate(-131.01 -27.15)"/><path class="cls-3" d="M310.69,221l-1-.06c-8.95-.52-17.92-1-26.88-1.22a140.33,140.33,0,0,0-16.28.21l-.2,0-.15.12c-1,.79-1.87,1.65-2.75,2.53-1.1,1.1-2.16,2.26-3.18,3.44l-.17.19v.25a160.49,160.49,0,0,0,2.27,20.86q1,5.94,2.64,11.76l.43,1.56.74-1.44q.6-1.17,1.23-2.34l.2-.36.3-.3a35.51,35.51,0,0,1,14.13-8.33,54.49,54.49,0,0,1,18.53-2.24h.16l.11,0A49.34,49.34,0,0,1,309,247.4l1.29.38-.53-1.23a31.81,31.81,0,0,1-2.56-11.15,27.18,27.18,0,0,1,3-13.57Z" transform="translate(-131.01 -27.15)"/><path class="cls-4" d="M260.2,226.07l-.1.12v.25a160.49,160.49,0,0,0,2.27,20.86q1,5.94,2.64,11.76l.43,1.56.74-1.44q.6-1.17,1.23-2.34l.2-.36.3-.3a35.51,35.51,0,0,1,14.13-8.33,54.49,54.49,0,0,1,18.53-2.24h.2q-1.54-8.09-4.37-18.45Q282.05,225.33,260.2,226.07Z" transform="translate(-131.01 -27.15)"/><path class="cls-10" d="M292,92.55a49.74,49.74,0,0,0-33.68,12.73,40.47,40.47,0,0,0,0,60.86,50.9,50.9,0,0,0,67.37,0,40.47,40.47,0,0,0,0-60.86A49.74,49.74,0,0,0,292,92.55Z" transform="translate(-131.01 -27.15)"/><path class="cls-4" d="M204.62,228.38c-5.71,0-10.34,4.91-10.34,11s4.63,11,10.34,11,10.34-4.91,10.34-11S210.33,228.38,204.62,228.38Z" transform="translate(-131.01 -27.15)"/><path class="cls-4" d="M166.48,149.51a5.8,5.8,0,1,0,5.45,5.79A5.63,5.63,0,0,0,166.48,149.51Z" transform="translate(-131.01 -27.15)"/><path class="cls-4" d="M195.69,400.86a7,7,0,1,0,6.58,7A6.79,6.79,0,0,0,195.69,400.86Z" transform="translate(-131.01 -27.15)"/><path class="cls-4" d="M139,306.54a8.44,8.44,0,1,0,7.95,8.43A8.2,8.2,0,0,0,139,306.54Z" transform="translate(-131.01 -27.15)"/><path class="cls-4" d="M400.79,86.11a4.7,4.7,0,1,0-4.43-4.7A4.57,4.57,0,0,0,400.79,86.11Z" transform="translate(-131.01 -27.15)"/><path class="cls-4" d="M505.84,337.44a9.47,9.47,0,1,0,8.9,9.45A9.19,9.19,0,0,0,505.84,337.44Z" transform="translate(-131.01 -27.15)"/><path class="cls-4" d="M425.32,567.07c-5.61-4.52-16-.9-23.29,8.08s-8.6,20-3,24.48,16,.9,23.29-8.09S430.93,571.6,425.32,567.07Z" transform="translate(-131.01 -27.15)"/><path class="cls-4" d="M503.15,268.69a4.43,4.43,0,1,0,4.43-4.7A4.56,4.56,0,0,0,503.15,268.69Z" transform="translate(-131.01 -27.15)"/><path class="cls-4" d="M514.09,174.14c0-7.12-5.44-12.89-12.15-12.89s-12.15,5.77-12.15,12.89S495.23,187,501.94,187,514.09,181.26,514.09,174.14Z" transform="translate(-131.01 -27.15)"/><path class="cls-2" d="M324.86,594.76c-7.29,1.44-12.47,6.29-11.57,10.83s7.52,7.06,14.81,5.62,12.47-6.28,11.57-10.83S332.14,593.32,324.86,594.76Z" transform="translate(-131.01 -27.15)"/><path class="cls-2" d="M261,609.48c-9-6-18.75-6.74-21.78-1.65s1.81,14.08,10.81,20.08,18.75,6.73,21.78,1.64S270,615.47,261,609.48Z" transform="translate(-131.01 -27.15)"/><path class="cls-2" d="M290.31,405c.67-.39,20.13-10.27,13.87-10.35-20.12-.28-22.78,16.53-20.1,16.18C284.67,410.64,287.8,406.43,290.31,405Z" transform="translate(-131.01 -27.15)"/><path class="cls-2" d="M228.13,524.61c-4.95,0-7.53,5.14-5.76,11.37s7.21,11.23,12.16,11.18,7.53-5.14,5.77-11.37S233.08,524.56,228.13,524.61Z" transform="translate(-131.01 -27.15)"/><path class="cls-2" d="M426.6,456.88c2.94,0,5.33-2.89,5.33-6.47s-2.39-6.47-5.33-6.47-5.32,2.89-5.32,6.47S423.66,456.88,426.6,456.88Z" transform="translate(-131.01 -27.15)"/><path class="cls-2" d="M234.79,454.17c3.19-1.91,5.16-5.67,4.39-8.41s-4-3.42-7.16-1.51-5.16,5.67-4.4,8.41S231.59,456.08,234.79,454.17Z" transform="translate(-131.01 -27.15)"/><path class="cls-2" d="M293.47,502.89c-7.06.08-10.74,7.33-8.22,16.21s10.29,16,17.35,15.95,10.74-7.33,8.22-16.21S300.53,502.82,293.47,502.89Z" transform="translate(-131.01 -27.15)"/><path class="cls-2" d="M425.65,480c-6.3-1.36-11,4.36-10.59,12.78s5.93,16.35,12.23,17.71,11-4.37,10.59-12.78S432,481.38,425.65,480Z" transform="translate(-131.01 -27.15)"/><path class="cls-2" d="M379.32,426c-3.11.5-4.25,3.95-2.55,7.71s5.61,6.39,8.73,5.88,4.25-3.95,2.55-7.71S382.43,425.48,379.32,426Z" transform="translate(-131.01 -27.15)"/><path class="cls-2" d="M312.8,395.6c6,2.12,25.87,12,30.28,16.22,6.69,6.33,12,9.84,12,20.46,0,6.61-1.58,14.87-9,16.78,10.93.33,20.69-14.92,15-25.29C352.64,408.29,330,398,312.8,395.6Z" transform="translate(-131.01 -27.15)"/><path class="cls-2" d="M313.53,406.93c-9.19.34-12.26,7.84-6.86,16.75s17.23,15.87,26.42,15.53,12.27-7.83,6.87-16.75S322.72,406.6,313.53,406.93Z" transform="translate(-131.01 -27.15)"/><path class="cls-9" d="M258.75,593.76c-13.93-6.45-29.69-6.91-33.85-.67,1.47-.42,3.87-.9,5-.62l0,0c-3.79,2.28-6.37,7.65-4.9,12a52.85,52.85,0,0,0,8.42,14.79q-7-19.56.48-22.45,9.32-4.66,36.44,12.43A40.7,40.7,0,0,0,258.75,593.76Z" transform="translate(-131.01 -27.15)"/><path class="cls-9" d="M391.61,571.67c-2.16,1.64-4.11,3.23-5.87,4.77q-8,14.25-2.69,25.3a11,11,0,0,0,4.27,3.49q4.44-1.08,2.51-6-3-15.71,13.4-29.54,1.41-1.61,3-3.25,8.17-9.23,16.82-11.33Q406.46,553.28,391.61,571.67Z" transform="translate(-131.01 -27.15)"/><path class="cls-9" d="M335.9,584.93q-12.45-1-25.26,5.4-11.44,9.76-5.42,20.4a14.6,14.6,0,0,0,5.84,5.34,33.08,33.08,0,0,0,6.16-.54c4.16-.67-4.32-.28-6.68-6.79-3.51-9.68,2.84-15.59,16.6-18.27,7.55-1.47,11.76-2.48,11.66-4.54a28.47,28.47,0,0,0-3.92-.74Z" transform="translate(-131.01 -27.15)"/><path class="cls-4" d="M347,70.68l-.23-.73c-2.53-8.09-7-20.47-13.64-26.16l-.23-.19-.3,0c-1.76.33-4.24,2.13-5.65,3.18a104.39,104.39,0,0,0-13.41,12.68l-.89,1-1.3-.11a84.13,84.13,0,0,0-13.09.09,138.67,138.67,0,0,0-15.43,2.17l-.69.13-.69-.23a65.89,65.89,0,0,0-13-3.22,25.31,25.31,0,0,0-4.35-.19l-1.44.08,1,1a16.63,16.63,0,0,1,1.54,1.71,18.5,18.5,0,0,1,3,6l.53,1.72-1.37,1.15-.59.5c-1.93,3.78-4.45,20.74-4.4,24.3A55.89,55.89,0,0,1,292,87.27a56.6,56.6,0,0,1,21.68,4.29q2.47-6.82,8-19.08,18.23,5.94,25.68-.41a8.28,8.28,0,0,0,.18-.87l0,0Z" transform="translate(-131.01 -27.15)"/><path class="cls-3" d="M240.93,360.68q-3.66-1-7.37-1.86l-.32-.07L220.7,369.62l.67.47c1.4,1,2.82,1.92,4.27,2.84l.36.23L242.16,361Z" transform="translate(-131.01 -27.15)"/><path class="cls-3" d="M225.26,357.16c-1.53-.26-3.07-.51-4.61-.73-2-.13-5.35-.16-6.78,1.47l-.41.47.06.05c-.78,1.46-.42,3.61-.08,5.08l.05.18.13.13q1.13,1.08,2.31,2.1l.41.35,10.23-8.87Z" transform="translate(-131.01 -27.15)"/><path class="cls-3" d="M258.77,367.05c-1.29-.57-2.58-1.12-3.89-1.65q-3-1.2-6.08-2.27l-.32-.1L231,376.14l.85.48c2.07,1.16,4.18,2.28,6.3,3.36l.3.15,21.44-12.58Z" transform="translate(-131.01 -27.15)"/><path class="cls-3" d="M270.91,380.4l.55,1.1.55-.25q2.76-1.28,5.56-2.44l1.06-.44L277,377.22Z" transform="translate(-131.01 -27.15)"/><path class="cls-3" d="M270.84,373.27q-2.38-1.42-4.83-2.71l-.31-.17L244.28,383l1.09.51c1.33.61,2.66,1.22,4,1.81l.28.13,22.16-11.57Z" transform="translate(-131.01 -27.15)"/><path class="cls-3" d="M256.05,388.16l1.68.69.27-.17,1.72-1,.53-.31-.59-1.07Z" transform="translate(-131.01 -27.15)"/><path class="cls-11" d="M264,111.62a33.17,33.17,0,0,0-11.1,24.51,31.31,31.31,0,0,0,.43,5.24c1.31,1.67,3,2.57,6,1.15,3.28-1.54-.7-11.37,4.66-17.47C270.6,117.61,274.24,102.27,264,111.62Z" transform="translate(-131.01 -27.15)"/><path class="cls-11" d="M280.06,105.14c-.18,3.14,4.82,3.79,7.05,2.62,2.94-1.54,3.11-4.42,1.51-6.11C287.57,100.54,280.35,100,280.06,105.14Z" transform="translate(-131.01 -27.15)"/><path class="cls-10" d="M487.2,536.85a69,69,0,0,0-7.26-10.42c.33-4,.51-8.15.51-12.28a149.9,149.9,0,0,0-1-17.54c-.17-1.41-.36-2.82-.57-4.22a86.2,86.2,0,0,0,9.64-9.85l.74-.89,0-1.13c.21-6.74-1.5-15.06-4.95-24.63A212.61,212.61,0,0,0,469,423.72l-.88-1.55-1.78-.13c-2.5-.19-5.52-.34-9-.46q-4.39-.16-9.83-.24a147.78,147.78,0,0,0-20-20.23,21.53,21.53,0,0,0,7.36.35,17.37,17.37,0,0,0,14.49-10q4.14-8.19,3.5-23.06a102.67,102.67,0,0,0-7.42-32.77c-4.51-11.13-10.52-19.42-15.54-20.56l-.3-.07h-.32A53.1,53.1,0,0,0,421,316c-6.89,1.19-16.73,2.9-22.77,2-.84-.29-1.69-.56-2.56-.79a26,26,0,0,0,1.22-2.76c4.48-8.35,8.72-29.11,9.22-37.76a14,14,0,0,1,.35,1.85l.15,1.52,1.23.88c2.84,2,5.36,2.15,8.18,2.3a23.23,23.23,0,0,1,3.91.45c1.63,4.9,4.4,9.09,9.67,10.85l.17,0,.23.05c9.79,2,17.94-.07,24.42-5.24,6.72-5.35,11.5-14,14.33-25l.17-.66-.1-.69a133,133,0,0,0-11.5-36.83,176.2,176.2,0,0,0-22.83-35.55l-.16-.21-.16-.14q-2.16-2-4.34-3.91a159.65,159.65,0,0,0-2.11-36.46A94.88,94.88,0,0,0,417,119.69l-.52-.89-.92-.44q-3.84-1.86-14.19-3.11-8.94-1.09-23.4-1.85a60.27,60.27,0,0,0-2.32-11.56Q370,83.27,352.23,67.27q-7-22-16.36-29l-.66-.5-.82-.13c-2.92-.46-6.62,1-11.09,4.32a107.11,107.11,0,0,0-13.12,12.24,93.32,93.32,0,0,0-12.42.19,143.76,143.76,0,0,0-15.24,2.1,70.51,70.51,0,0,0-13.37-3.22q-6.43-.78-10.61.84l-1,.39-.58.88c-1,1.46-1.49,4-1.57,7.51a96.14,96.14,0,0,0,.49,10.48,71.91,71.91,0,0,0-14.64,22.87,17.63,17.63,0,0,0-6.53-5.85q-7.19-3.69-18.06-.81l-.46.12Q184.27,97,192.25,130.25q2.1,22.16,5.63,36.4,3.68,14.79,9.05,21.51l.07.1A89.87,89.87,0,0,0,221.15,201a139.23,139.23,0,0,0,16.48,10.58c-.43,10.85,1,19.46,4.32,26.3a34.14,34.14,0,0,0,15.53,15.75,128.09,128.09,0,0,0,3.91,14.15c-2.39,5.43-4.7,11.33-6.91,17.51-4,11.34-7.79,23.76-11.08,36q-14.73-3.31-24.27-.91-11.46,2.88-15.51,13.53l-.08.2-.07.34A57.9,57.9,0,0,0,202.3,350a40.66,40.66,0,0,0,3.26,13.65l.17.38.29.36c4,5,10.55,10.17,19.11,15.29a215.89,215.89,0,0,0,25.72,12.83,147.66,147.66,0,0,0-50.58,59.28c-2.92.61-5.4,1.22-7.43,1.81a28.48,28.48,0,0,0-5.92,2.26l-1.14.64-.4,1.25A291.5,291.5,0,0,0,177.14,489a189,189,0,0,0-3.61,27.87l-.06,1.25.78,1a36.62,36.62,0,0,0,5.89,5.66,82.22,82.22,0,0,0,7.11,5A146.07,146.07,0,0,0,219.43,607c3.39,9.37,12.36,22,24.41,31,9.33,7,20.56,11.92,32.59,11.7a146.91,146.91,0,0,0,171.74-43.65q3.49.09,7.34-.09c3.24-.14,6.61-.42,10.11-.82l1.3-.15.85-1q5.39-6.3,11.54-19.74,6-13.2,12.9-33.35l.32-1-.27-1A53.92,53.92,0,0,0,487.2,536.85Zm-79.73-204.4c4.75,5.69,10.86,15.76,12.91,26.45.6-10.61-.42-24.53-11.26-34.34,3-.31,6-.76,8.73-1.21a37.32,37.32,0,0,1,7.2,9.65,117,117,0,0,1,8.55,20.43c.5-9.55-2.53-24.86-7.88-31.42,1.29-.21,2.31-.36,2.92-.4,2.85,1,6.91,7.57,10.53,16.48a96,96,0,0,1,6.94,30.54h0q.58,13.14-2.79,19.78a12.43,12.43,0,0,1-3.2,4.07,25.84,25.84,0,0,0,1.1-3.32,32.35,32.35,0,0,0-1.83-22.7c.62,8-1.25,16.93-2.47,21.57-2.73,10.39-10.18,7.77-16.55,1.6q-6-5.81-11-17.71c2.29-.55,5.74-2.76,5.9-3.32,5.25-3.8-38.09,1.14-50.33,1.91a146.88,146.88,0,0,0-31.47-3.38h-1.2a51.75,51.75,0,0,1-12.43-9.29,36.63,36.63,0,0,1-7.5-10.64c1.78-5.94,3.65-12.51,5.55-19.67q19.59,7.32,35.26,8.16,17.4.93,30-6.15a35.87,35.87,0,0,0,5.15-3.39,30.36,30.36,0,0,0,3.26-3A26.29,26.29,0,0,1,407.47,332.45Zm4,57.1a146.65,146.65,0,0,0-28.38-13.8q10.89-1.08,19.52-2.55A74.51,74.51,0,0,0,411.49,389.55Zm-90.64-21.88A149.13,149.13,0,0,0,304.64,370c1.53-3.92,3.19-8.63,4.94-14a48.6,48.6,0,0,0,5.47,6.6A56.23,56.23,0,0,0,320.85,367.67Zm86.69-114.29c-.62.88-1.24,1.79-1.85,2.7A198.63,198.63,0,0,0,401,228.39l1.65.64a60.52,60.52,0,0,1,5.55,10.12,46,46,0,0,1,2.89,9.41C410,249.89,408.81,251.57,407.54,253.38Zm54.62,10.11c-2.49,9.23-6.44,16.44-11.86,20.75-4.9,3.9-11.13,5.45-18.71,4-5.2-1.88-7.23-8.3-8.24-15.19-.72-5-1.26-6.63-1.38-9.72-2.35,2.25-5,5.85-3.68,13.46-.65-.06-1.28-.09-1.9-.13a12.58,12.58,0,0,1-3.56-.51,56.71,56.71,0,0,0-2.32-7.42,53,53,0,0,1-1.72-5.25c1.34-2.08,2.81-4.28,4.2-6.26,1.15-1.64,2.26-3.16,3.21-4.39a58,58,0,0,0,23.86-4.56A44.71,44.71,0,0,0,455,237.56,123.87,123.87,0,0,1,462.16,263.49Zm-32.64-68.31a168.46,168.46,0,0,1,21.8,34c.25.52.49,1,.73,1.56a38.43,38.43,0,0,1-14.68,11.43,50.86,50.86,0,0,1-20,4,53,53,0,0,0-3.06-9.58,66.4,66.4,0,0,0-5.85-10.79c2.85-7.19,5-8.1,7.46-11.6-4.68.44-11.09,3.63-13.06,7.78q-8-3.11-14.29-5.77t-11-5c-1.32-6.77-.92-14.11,1.05-22.45-1.88,2.69-5.52,7.63-6.43,11.07a22.21,22.21,0,0,1-.2-3.17c.07-11.62,2.13-17,4.12-22.46,4.26-4.78,6.37-6.24,11.56-10a215,215,0,0,1,20.49,13.34A246.85,246.85,0,0,1,429.52,195.18ZM316.63,222.81c.34-.53.71-1,1.09-1.55l.41-.19a42.86,42.86,0,0,0,4.05,10.84,40.53,40.53,0,0,0,7.05,9.39,32.88,32.88,0,0,1-6.35,3.7,20.19,20.19,0,0,1-4.74-8A39.81,39.81,0,0,1,316.63,222.81ZM315,215.18q-19.53-1.22-32-1.52-12.9-.32-18.08.33l-.89.11-.56.43a88.48,88.48,0,0,1-1-15.74q.3-6.78,2.2-10.69,23.58,15.1,49.85,8a81.58,81.58,0,0,0,15.34-6A83.78,83.78,0,0,0,323.69,206l0,.1a11.24,11.24,0,0,1-2.92,5.2A19.23,19.23,0,0,1,315,215.18Zm11.09,14.61a38.74,38.74,0,0,1-3.92-11.06c.53-.37,1-.75,1.51-1.14a43.62,43.62,0,0,0,6.38,8.21,37.46,37.46,0,0,0,8,6.12,41.16,41.16,0,0,1-4.36,5.45c-.34.35-.68.7-1,1A36,36,0,0,1,326.1,229.79Zm7.12-7.12a39.77,39.77,0,0,1-6.31-8.36,17.46,17.46,0,0,0,2.37-4.06,41.8,41.8,0,0,0,5.56,5.25,43.79,43.79,0,0,0,8.77,5.34,56.61,56.61,0,0,1-3.29,7.28A33.3,33.3,0,0,1,333.22,222.67ZM337.59,212a37.64,37.64,0,0,1-6.71-6.81c.43-1.38.9-2.75,1.4-4.11q4.05,2.29,7.89,4.26c2.52,1.29,5,2.46,7.34,3.53q-1,2.73-1.86,5.56l0,.13c-.18.69-.37,1.36-.57,2A38.92,38.92,0,0,1,337.59,212Zm4.6-10.61q-4-2-8.23-4.46c.67-1.5,1.38-3,2.14-4.39a65.52,65.52,0,0,1,9.65,2.08,43.28,43.28,0,0,1,6.62,2.57c-1.17,2.44-2.26,4.94-3.28,7.52C346.85,203.7,344.55,202.6,342.19,201.39Zm4.85-11a68.11,68.11,0,0,0-8.49-2,43.3,43.3,0,0,1,3.64-4.81,54.75,54.75,0,0,1,8.83,1.29h0a47.71,47.71,0,0,1,6.84,2.13c-1.22,2-2.4,4.07-3.51,6.2A47.67,47.67,0,0,0,347,190.36Zm5-9.81q-2.6-.6-5.31-1,3.91-2.9,7.88-6.25a27.8,27.8,0,0,1,10.54,3.27q-1.92,2.38-3.7,4.94c-.39.55-.77,1.1-1.14,1.67A52.85,52.85,0,0,0,352,180.55Zm6.89-11q2.44-2.2,4.92-4.57a16.21,16.21,0,0,1,5.45,1.27,12.24,12.24,0,0,1,3.24,2.09q-2.32,2.31-4.5,4.8A30.31,30.31,0,0,0,358.93,169.56Zm8.86-8.47c1.06-1.06,2.11-2.15,3.17-3.27a18.36,18.36,0,0,1,7,1.37,7.67,7.67,0,0,1,2.71,2c-1.69,1.32-3.32,2.7-4.91,4.13a16.85,16.85,0,0,0-4.68-3.09A19.18,19.18,0,0,0,367.79,161.09Zm10.44-41q13.62.73,22.3,1.79a58.36,58.36,0,0,1,11.2,2.11l.15.28c-2.55,0-8.07,5-8.12,7.56,2.54-2.33,6.44-3.9,8.54-2.54a14.23,14.23,0,0,1,4,4.51,98.2,98.2,0,0,1,4.88,17.45A146.79,146.79,0,0,1,423.38,181q-5.6-4.62-11.28-8.79t-11.39-7.82a87.26,87.26,0,0,1,.3-27.19c-3.8,5.87-6.32,13.13-5.16,24.15l-1.31-.8q.33-11.52-18-13.56c0-.36,0-.72,0-1.07a12.8,12.8,0,0,0-1.58-5.17A72.72,72.72,0,0,0,378.23,120.09Zm-3.29,33.46,0,0q8.34.8,11.27,3.59l-.66.45-1.3.91a12.16,12.16,0,0,0-4.46-3.33,19,19,0,0,0-5-1.42ZM247.35,99q6.12-15.66,20.49-27.67l1.7-1.41-.65-2.12a19.3,19.3,0,0,0-3.16-6.22,17.12,17.12,0,0,0-1.61-1.79,23.73,23.73,0,0,1,4.25.19,65.84,65.84,0,0,1,12.85,3.19l.84.28.86-.16a135.16,135.16,0,0,1,15.36-2.16,83.32,83.32,0,0,1,13-.09l1.6.13,1.1-1.19A107,107,0,0,1,327.3,47.34q3.66-2.75,5.39-3.07,7.31,6.28,13.45,25.87l.28.89.69.61q16.92,15,22.12,32.14,5.1,16.74-1,35.81c-7.56,9.24-19.95,21.61-26.16,26,4.87-.95,16.83-8.14,27.64-17.58a9.84,9.84,0,0,1-.52,1.92q-29.88,32.51-56.46,39.7-25.78,7-48.84-10.14c-.55-1.11-1.1-2.13-1.66-3.05A56.34,56.34,0,0,0,292,184.79a55.54,55.54,0,0,0,37.58-14.29,46.34,46.34,0,0,0,0-69.58,56.58,56.58,0,0,0-75.15,0,49.24,49.24,0,0,0-11.14,14.87A66.28,66.28,0,0,1,247.35,99Zm-48.5,30.44,0-.24-.06-.23q-6.56-27,19-32.72l.13,0,.45-.12q8.4-2.22,13.29.3,4.59,2.36,6.63,9.3A81,81,0,0,0,236.16,127a46.61,46.61,0,0,1-8.19,3q-6.3,1.59-10.39,0c-7.31-2.82-11.09-8.18-12.21-14.41-1.72.3-1.77,5.14-.72,8.79.5,1-2.26-.85-3.42-2.06.57,5,3.93,4.74,6.13,7.78a19.3,19.3,0,0,0,2.91,3.18,68.59,68.59,0,0,1-11.41-3.79Zm42.85,55.69a100.21,100.21,0,0,0-3.56,19.19,132,132,0,0,1-13-8.56,84,84,0,0,1-13.08-11.78q-4.41-5.58-7.71-18.88A223.78,223.78,0,0,1,199.64,137a57.56,57.56,0,0,0,20.57,4.11,36.57,36.57,0,0,0,16.66-3.91,113.18,113.18,0,0,1-.17,21.23c-.71,5.62-2.45,13.89-4.38,16.05,0,5,7.72-7.3,9.08-6.61.49.53,1,1,1.45,1.57,1.36,1.47,2.64,2.87,3.85,4A50,50,0,0,0,241.7,185.08Zm10.42,8.34a19.52,19.52,0,0,1,4.2-.4c-.16,1-.29,2-.38,3.15a23.23,23.23,0,0,0-8.22,2.24,19.83,19.83,0,0,0-2.33,1.34c.2-1.48.43-2.91.69-4.3A26.36,26.36,0,0,1,252.12,193.42Zm-7.73,16.46q.12-1.84.27-3.63a16.27,16.27,0,0,1,5-3.86,19.11,19.11,0,0,1,6-1.74c0,1.13,0,2.31.06,3.53a34.55,34.55,0,0,0-9.68,6.4c-.65.63-1.27,1.28-1.84,1.95C244.29,211.66,244.34,210.78,244.39,209.88Zm0,10.54a22.54,22.54,0,0,1,4.79-6.64A28.94,28.94,0,0,1,256.1,209v.19a31.24,31.24,0,0,0-7.56,9.82,49.84,49.84,0,0,0-3.22,8.14A50.43,50.43,0,0,1,244.4,220.42Zm9.71,22.89a45,45,0,0,1,.85-5.15q.38,3.34.87,6.6C255.23,244.29,254.66,243.81,254.11,243.31Zm0-16.33q-1,2.24-1.83,4.51a49.32,49.32,0,0,0-2,7.49,27.16,27.16,0,0,1-2.3-3.93l0,0a54.07,54.07,0,0,1,4.58-14,29,29,0,0,1,4.23-6.27q.35,2.53.8,5.25C257.65,222,255.35,223.24,254.1,227Zm3.23-38.39a24.64,24.64,0,0,0-6.08.46,28.82,28.82,0,0,0-4,1.13c.28-1.11.58-2.17.88-3.2.1-.3.19-.61.28-.9a24,24,0,0,1,5.87-.66,20.91,20.91,0,0,1,4.1.44A23.73,23.73,0,0,0,257.33,188.59Zm-7.15-7.35c.18-.44.38-.86.57-1.27a16.19,16.19,0,0,1,2.59.06,22.38,22.38,0,0,1,3.71.69l.26.47a25.25,25.25,0,0,0-3-.21A27.18,27.18,0,0,0,250.18,181.24Zm-4.82-45.53a40.43,40.43,0,0,1,13.54-29.88,50,50,0,0,1,66.17,0,39.75,39.75,0,0,1,0,59.77,50,50,0,0,1-66.17,0A40.46,40.46,0,0,1,245.36,135.71Zm15.38,90.7c1.08-1.25,2.14-2.38,3.16-3.41a35.93,35.93,0,0,1,2.71-2.48,150.47,150.47,0,0,1,16.2-.2q10.57.26,26.86,1.21a27.76,27.76,0,0,0-3.1,13.89,32.25,32.25,0,0,0,2.61,11.37,51.14,51.14,0,0,0-8.25-1.78l-.15,0h-.17a55.29,55.29,0,0,0-18.75,2.27,36,36,0,0,0-14.38,8.48l-.37.36-.24.45c-.42.77-.83,1.55-1.24,2.35q-1.56-5.65-2.63-11.7A160,160,0,0,1,260.74,226.41ZM209.48,353.77a37.63,37.63,0,0,1-.53-4.2,51.5,51.5,0,0,1,1-13.4,14.79,14.79,0,0,1,10.82-9.24q8.94-2.25,24.15,1.64h0a95.65,95.65,0,0,1,16.3,6.11,135.73,135.73,0,0,1,17.87,11.06c2.63-6.57-20.92-20.1-29.23-22.67,3.21-12,6.9-24.21,10.93-35.49a207.16,207.16,0,0,1,11.72-27.42,29.52,29.52,0,0,1,11.38-6.57,48.71,48.71,0,0,1,16.36-2q12.07,1.63,24.92,10.43c11.21,7.68,24.5,16.72,33.29,24.78C356,279,345.05,269.68,339,264.42c7.34.41,17.05,4.11,23.59,7.6-3.67-5.26-11.54-10.9-17.35-12.82a32.13,32.13,0,0,0-15-1.69c-.45-.33-.91-.64-1.36-1-2.24-1.53-4.46-2.91-6.68-4.15A39.93,39.93,0,0,0,338.5,242c6-6.31,10.65-14.89,13.54-25.63a111.8,111.8,0,0,1,14.87-31c.27-.39.54-.77.82-1.15a36.64,36.64,0,0,0-2.41,12.44,30.54,30.54,0,0,0,6.29,18.66l.47.64.74.36q5.52,2.77,13.15,6,3.5,1.49,7.38,3.05c4,15.48,6.1,29.62,6.32,42.11a112.44,112.44,0,0,1-.44,12.37c-.15,3.09-.12,13.82-.37,12.71l-6.12-11A93.5,93.5,0,0,1,395.47,295c-2.87-5.48-7.21-11-13-13.37,1.82,2.28,4,7.1,5.29,9.4,3.1,5.7,4.5,11.44,3.92,16.65a19.39,19.39,0,0,1-7.61,13.28,28.66,28.66,0,0,1-4.19,2.76l0,0Q369,329.88,353.45,329q-14.85-.8-33.9-8,.76-2.91,1.51-5.93l0-.15,0-.19c1.9-13.19.56-26.57-12.48-35.75,2.06,4.21,3.79,7.68,4.25,10.61-3.64-4.64-6.36-5.56-11.73-6.08a76.71,76.71,0,0,1,10.07,11.32,46.59,46.59,0,0,1,4.07,7.4,69.61,69.61,0,0,1-.76,11.38c-3.46,13.8-6.82,25.84-9.9,35.75q-1.23,4-2.39,7.45c-1.32,4-5.57-3.59-9.35-.57a9.52,9.52,0,0,1,2.92,2.94,42.11,42.11,0,0,1,3.47,6c-.48,1.27-.94,2.47-1.39,3.59a154.13,154.13,0,0,0-27.9-17c-9.92-4.66-26.36-10.61-37.29-8.38,11.59,2.27,24.86,7.45,35.41,12.4A149.81,149.81,0,0,1,295,372.21q-5.21,1.41-10.26,3.19a116.46,116.46,0,0,0-27.62-15.6,156.18,156.18,0,0,0-35.71-9.37l-.27,0Q213.06,349.88,209.48,353.77Zm67.85,24.46q-2.82,1.17-5.58,2.44L277,378Zm-63.27-14.88c-.59-2.45-.49-4.13.29-5h0c.91-1,3-1.46,6.22-1.27,1.55.23,3.08.47,4.59.74l-8.81,7.64C215.53,364.73,214.76,364,214.06,363.35Zm7.67,6.22,11.69-10.13c2.5.56,4.94,1.18,7.34,1.85L226,372.39C224.48,371.45,223.06,370.51,221.73,369.57Zm10.44,6.5,16.42-12.34q3.09,1.06,6,2.26c1.31.52,2.6,1.07,3.88,1.63l-20.08,11.79C236.25,378.3,234.16,377.18,232.17,376.07Zm17.46,8.65c-1.36-.61-2.69-1.21-4-1.81l20.08-11.8q2.44,1.31,4.8,2.7Zm9.77,2.4-1.72,1-.14-.06ZM473.25,581.48Q468,593,463.53,598.66q-4.42.47-8.31.65l-2,.07c-1.3-.88.41-11.93-2.16-8.65a140.48,140.48,0,0,1-162.52,56.43,16,16,0,0,0,6.44-5.47c4.23-6.28.24-16.7-4.63-18.78,1.09,3,2,10.2-.9,15.08a10.23,10.23,0,0,1-5.18,3.74A23.93,23.93,0,0,1,277,643c-10.62.39-20.7-4-29.13-10.34-11.18-8.39-19.4-20-22.28-28.44-1.39-4,1.13-9.1,4.61-11.2,3.44-1.91-8.08-2.15-10.56,3.22a139.43,139.43,0,0,1-25.89-68.77h0c-.2-2.17-.36-4.39-.46-6.65-.1-2.07.06-9.31.06-11.69-2.55,1.47-4.7,12.81-6.71,12.17-.84-.59-1.61-1.18-2.33-1.75a32.22,32.22,0,0,1-4-3.67,184.48,184.48,0,0,1,3.41-25.58,281.66,281.66,0,0,1,7.62-29.15,33.58,33.58,0,0,1,3.4-1.16c.7-.2,1.46-.41,2.28-.61-.71,1.77,1.78,14.52,3.35,10.18q1.13-3.37,2.49-6.83c.91-2.32,1.86-4.55,2.82-6.67a140.42,140.42,0,0,1,206.21-58.32c23.07,15.57,42.51,35.09,53.05,61.22,5.69,9.5-10.2-28-12.26-30.87l4.41.13c2.51.09,4.86.2,7,.34a201.71,201.71,0,0,1,14,29.57c3,8.23,4.54,15.33,4.57,21a64.79,64.79,0,0,1-5.15,5.41q-.52-2.61-1.16-5.19c-4.81-6.84-1.16,42.32-5.34,62.89-1.9,9.31-6.82,36.4-2.25,29.49a145.79,145.79,0,0,0,8.77-28.16q.76-3.79,1.34-7.63c.94,1.37,1.79,2.75,2.56,4.12a48.65,48.65,0,0,1,4.18,9.62Q479,569,473.25,581.48Z" transform="translate(-131.01 -27.15)"/><path class="cls-10" d="M334.93,68.53c1.21-3.86.31-11.93-2.71-16.71-4.38,2.9-7.51,8-9.29,14.3C326.45,67.25,330.6,69.38,334.93,68.53Z" transform="translate(-131.01 -27.15)"/><path class="cls-10" d="M402.87,557.91a3.17,3.17,0,0,0-4.53-.46c-9.43,8-15.47,16.54-18.63,24.32A33.72,33.72,0,0,0,377,595.33c.32,10.11,10.47,14,14.44,10.95a22.14,22.14,0,0,1-5.54-4.1,11.9,11.9,0,0,1-2.25-7.06,27.07,27.07,0,0,1,2.23-10.85c2.79-6.87,8.21-14.48,16.75-21.72a3.17,3.17,0,0,0,.44-4.37Z" transform="translate(-131.01 -27.15)"/><path class="cls-10" d="M428.35,546q-6.27-1.62-14.34,1.56a3.17,3.17,0,0,0-1.7,4.32l.15.3a3.16,3.16,0,0,0,4,1.57q6-2.37,10.21-1.3c3.18.82,7.58,2.5,9.54,6.61C437.84,553.53,433,547.34,428.35,546Z" transform="translate(-131.01 -27.15)"/></svg>