<svg id="Layer_1" data-name="Layer 1" xmlns="http://www.w3.org/2000/svg" viewBox="0 0 468.3 632.54"><defs><style>.cls-1,.cls-12{fill:#222221;}.cls-1{stroke:#fff;stroke-miterlimit:10;stroke-width:5.67px;}.cls-1,.cls-10,.cls-11,.cls-12,.cls-2,.cls-3,.cls-4,.cls-5,.cls-6,.cls-7,.cls-8,.cls-9{fill-rule:evenodd;}.cls-2{fill:#008dc7;}.cls-3{fill:#efc51c;}.cls-4{fill:#ebeaea;}.cls-5{fill:#7e7e98;}.cls-6{fill:#fff;}.cls-7{fill:#5e5c5d;}.cls-8{fill:#8f8d8e;}.cls-9{fill:#2c211b;}.cls-10{fill:#e6e5f3;}.cls-11{fill:#060606;}</style></defs><path class="cls-1" d="M564.9,168.64l-.57-.27-.56-.15c-6.24-1.65-12.8-1.83-18.77.88s-10.08,7.7-12.83,13.56l-.29.62-.15.63c-.21.83-.39,1.67-.53,2.52l-.09,0a12.58,12.58,0,0,0-5.82,0,17,17,0,0,0-8.95,5.72,22,22,0,0,0-4.6,8.8,15.49,15.49,0,0,0-.19,7.1l0,.08.13.49,0,.11a36.46,36.46,0,0,1,1.82,8.33,24.65,24.65,0,0,1,0,4.12,66.17,66.17,0,0,0-12.08,10.51,112,112,0,0,0-7.72,9.35c-.6-7.47-1.26-14.94-2.05-22.39-.73-7-1.56-14-2.75-21l-.46-2.65-2.16-1.62c-5.2-3.9-11.55-6.72-17.65-8.88a158.32,158.32,0,0,0-18.64-5.22,88.1,88.1,0,0,0-.2-28.62c-2.41-14-8.35-27.95-17.63-38.83,1.73-12.65,0-26.95-4.12-38.92-4-11.58-11-23.3-21.89-29.51l-.15-.1-.14-.07a12.67,12.67,0,0,0-4.77-1.38c-4.55-.37-8.67,1.76-12,4.75a38.33,38.33,0,0,0-7.77,10.56,59.21,59.21,0,0,0-5.37,15.14,119.56,119.56,0,0,0-24.66-1.07,103.1,103.1,0,0,0-21.92,3.86c-10-8.64-25.13-19.69-38.6-18.23l-1.49.16-1.29.79C280.9,62.16,278.06,70,277.3,78c-.87,9.15.75,19.43,2.77,28.49A90,90,0,0,0,269.89,124c-7.24,16.4-9.44,34.36-8.78,52.16a95.45,95.45,0,0,0,9.39,38.42,80.08,80.08,0,0,0,18.11,24.34,18.9,18.9,0,0,0-8.28,6.84c-3.2,4.83-3.72,10.67-3,16.29.12,1,.28,2,.47,2.94l.14.65.3.7c.61,1.41,1.24,2.8,1.9,4.19a108.72,108.72,0,0,0,2.06,32.93q.66,2.88,1.51,5.72c-.84.37-1.69.74-2.54,1.09q-3.23,1.32-6.54,2.42c-8.62-3.48-17.1-3.24-25.07.9L193.69,192.68c-.13-4.78.26-10.55,2.47-14.78a10.61,10.61,0,0,1,6.78-5.56c14.57-.63,29.35-4.4,39.85-15.14s13.88-25.8,13.9-40.54c.28-7.28,1.25-15.63,4.27-22.34,1.87-4.17,4.62-7.81,8.87-9.74a6.78,6.78,0,0,0,0-12.35c-20.15-9.14-38.35-6.81-51,12.35a5.67,5.67,0,0,0-.59,1,32.65,32.65,0,0,1-4.76,7.21,52,52,0,0,1-7.25,6.9,33,33,0,0,1-9.94,2.56,96.35,96.35,0,0,1-17.32.29h-.46a26,26,0,0,0-16,5.92,40.51,40.51,0,0,0-5.09,4.8,10.43,10.43,0,0,0-5-4.93l-.11-1.85-1.73-1.8c-2.53-2.62-5.07-5.25-7.79-7.67a40.41,40.41,0,0,0-9.23-6.45l-9-4.26-.7,9.92c-.2,2.94-.28,5.87-.27,8.81,0,3.74.16,7.49.33,11.22l.13,2.69,1.94,1.87.14.13a12.48,12.48,0,0,0-.34,2.43v0a10.79,10.79,0,0,0,2.49,7.39,12,12,0,0,0,3.52,2.88L219.2,327.25c-8.53,5.1-11,13.41-8.53,23.31,2.91,11.51,12.52,24.12,20.06,33.05l1.73,2.06,2.69.31a60.28,60.28,0,0,0,10.66.27L252.9,402c-.53,1.08-1.06,2.17-1.58,3.25-7.41-.69-15-.3-22,2.57C220.73,411.36,215,418,211,426.24l0,.12-.1.24c-3.92,9-4.27,18.12-.26,27.34a43.54,43.54,0,0,0,4.08,7.27,67.65,67.65,0,0,0-4,8.22h-.06l-.93,2.5a118.56,118.56,0,0,0-5.16,19.27l-.53,2.85,1.7,2.36c2.17,3,4.2,6.12,6.15,9.28s3.71,6.23,5.44,9.42a142.65,142.65,0,0,0,15,63.85,142.14,142.14,0,0,0,84.58,71.9c2.1.66,4.21,1.26,6.34,1.82l6.18,13.47,3.7.5a211.45,211.45,0,0,0,28.22,2,156.55,156.55,0,0,0,25.67-2l2.85-.47,1.64-2.41c1.33-2,2.57-4,3.75-6.1s2.26-4,3.35-6a141.93,141.93,0,0,0,89.81-78.19c1.37-3,2.63-6.12,3.78-9.24a45.61,45.61,0,0,0,8.74-1.77c3.88-1.25,7.82-3.47,9.54-7.37l.31-.69.15-.75c1.47-7.54,2.7-15,3.43-22.71a140.75,140.75,0,0,0,.2-27.23,150.41,150.41,0,0,0,20.16-20.37l.85-1.06c6.53-8.4,9.68-18.28,7.52-28.79-2-9.63-8-17.82-15.53-24l-1.06-.88h0l-.39-.31-.21-.16-.43-.25a34.19,34.19,0,0,0-20.62-4.46c-.49-6.53-1.09-13.07-1.9-19.56a131.37,131.37,0,0,0-3.3-18.26l-.3-1.07-.61-.91-8.88-13.31a19.61,19.61,0,0,0,7.9-4.3,12.76,12.76,0,0,0,4.07-10.16v-.13a16.3,16.3,0,0,0-.39-2.69c-1.16-6.32-1.91-12.8-2.54-19.19s-1.15-13-1.58-19.57c20.7-1.06,47-33,58-46.75,7.32-2.73,13.06-8.2,17.6-14.48a101.17,101.17,0,0,0,10.86-20.48l.27-.66.14-.74c2.21-12.35,3.42-26.67,0-38.92C581.17,181.6,575,173.34,564.9,168.64Z" transform="translate(-120.83 -38.95)"/><path class="cls-2" d="M482.91,219.49c-.67-6.4-1.43-12.83-2.48-19.18l-.06-.35-.29-.2a61,61,0,0,0-14.32-6.9,160.42,160.42,0,0,0-21.32-5.73l-.77-.15-.2.75c-.63,2.25-1.35,4.48-2.17,6.67l-.3.81.82.27a11.65,11.65,0,0,1,6.88,6,22.28,22.28,0,0,1,2.07,8.07l.1,1.16,1.06-.47a48.34,48.34,0,0,1,7.77-2.63l.16,0H460c5.77-.74,10.87,2,14.17,6.66a17.35,17.35,0,0,1,2.5,5.11,12.12,12.12,0,0,1,.46,5.18,6.51,6.51,0,0,1-4.7,5.65l-1.85.55,1.29,1c3.57,2.76,7.05,5.65,10.36,8.72l1.29,1.22,1.58,1.51-.17-2.18C484.3,233.83,483.67,226.65,482.91,219.49Z" transform="translate(-120.83 -38.95)"/><path class="cls-3" d="M480.37,200l-.29-.2a61,61,0,0,0-14.32-6.9,160.42,160.42,0,0,0-21.32-5.73l-.77-.15-.2.75c-.63,2.25-1.35,4.48-2.17,6.67l-.27.72.05.11.74.25a11.65,11.65,0,0,1,6.88,6,22.28,22.28,0,0,1,2.07,8.07l.1,1.16,1.06-.47a48.34,48.34,0,0,1,7.77-2.63l.16,0h.06q7.6-5.59,20.86-5.05c-.11-.75-.23-1.49-.35-2.23Z" transform="translate(-120.83 -38.95)"/><path class="cls-4" d="M376.21,256.82c-23.27,4.56-47.52,3.38-70.77-.72l-1.4-.24.47,1.35c4.19,11.8,10.84,22.34,21.18,29.65l.74.52.46-.77c.53-.89,1.09-1.76,1.68-2.6a45,45,0,0,1,8.62-9.18l.42-.34.5-.1A244.88,244.88,0,0,1,367,270.21c6.38-.48,13.6-.66,19.91.59l.92.18.49.83a25.69,25.69,0,0,1,2.35,5.53c.37,1.24.68,2.49.93,3.76l.23,1.1,1-.53a46.3,46.3,0,0,0,10.92-8,53.33,53.33,0,0,0,12-18.91A127.73,127.73,0,0,1,422.43,240l1.54-2.85L421.24,239A127.68,127.68,0,0,1,376.21,256.82Z" transform="translate(-120.83 -38.95)"/><path class="cls-5" d="M311.29,324.37a127.32,127.32,0,0,1-.2-21.83l0-.48-.38-.27a68.59,68.59,0,0,1-9.92-8.65,85.21,85.21,0,0,1-10.67-14l-1.52-2.46,0,2.89a94.85,94.85,0,0,0,2.24,21.84c2,8.6,5.21,18.59,9.95,26.38-4.68-2.61-7.17-6-9.51-11.48l-.35-.81-.79.39c-1.84.9-3.71,1.75-5.6,2.53q-4.76,1.95-9.68,3.47l-.8.25-.74-.36c-8.18-4-16.09-3.48-23.41,2l-.12.09-.08.13a9.64,9.64,0,0,0-1,3.35,37.17,37.17,0,0,0-.46,5.48l0,.86h.87c1.56,0,3.11-.09,4.67-.17l1-.05.67.71a53.79,53.79,0,0,1,9.51,13.52l.37.79.77-.4a10.53,10.53,0,0,0,3.81-3.36c1.57-2.28,2.66-7.73,2.84-11.9,2.33,4.6,4,9.41.61,14.29a14.59,14.59,0,0,1-5.88,5l-.65.3.21.69.21.74A33,33,0,0,1,268.3,365v.21l2,4.37.81-.52a13.33,13.33,0,0,0,2.1-1.64,35.13,35.13,0,0,0,6.82-9.85,6.77,6.77,0,0,1,1.06,4.17l-.18,1.25,1.22-.32q2.65-.72,5.28-1.48c3.73-1.07,7.43-2.23,11.11-3.45l.07,0,.06,0c5.27-2.79,10.65-5.36,16.1-7.78l.62-.28-.15-.66A198,198,0,0,1,311.29,324.37Z" transform="translate(-120.83 -38.95)"/><path class="cls-4" d="M311.09,302.54l0-.48-.38-.27a68.59,68.59,0,0,1-9.92-8.65,85.21,85.21,0,0,1-10.67-14l-1.52-2.46,0,2.89a94.85,94.85,0,0,0,2.24,21.84c2,8.6,5.21,18.59,9.95,26.38-4.68-2.61-7.17-6-9.51-11.48l-.35-.81-.79.39c-1.84.9-3.71,1.75-5.6,2.53q-4.76,1.95-9.68,3.47l-.8.25-.74-.36c-8.18-4-16.09-3.48-23.41,2l-.12.09-.08.13a9.64,9.64,0,0,0-1,3.35,37.17,37.17,0,0,0-.46,5.48l0,.86h.87c1.56,0,3.11-.09,4.67-.17l1-.05.67.71a53.79,53.79,0,0,1,9.51,13.52l.37.79.77-.4a10.53,10.53,0,0,0,3.81-3.36c1.57-2.28,2.66-7.73,2.84-11.9,2.33,4.6,4,9.41.61,14.29-.15.22-.31.43-.47.64,2.42,5.37,8.35,6.33,18.12,4.59,6.79-1.21,14.41-4.54,22.62-11.7-1-5.4-1.76-10.84-2.26-16.3A127.32,127.32,0,0,1,311.09,302.54Z" transform="translate(-120.83 -38.95)"/><path class="cls-2" d="M307.23,299.1A64,64,0,0,1,289,289.63a89,89,0,0,0,1.85,11.81c.49,2.11,1,4.29,1.68,6.51q9.1,6.75,18.18,5.73c-.05-3.72.07-7.44.37-11.14l0-.48-.38-.27Q308.94,300.5,307.23,299.1Z" transform="translate(-120.83 -38.95)"/><path class="cls-5" d="M152,124.9a14,14,0,0,0-6.13,1.34,15.45,15.45,0,0,0-5.2,4.23l-.33.4,90.85,201.42.42.08c1.81.38,3.65.65,5.49.86q3,.33,6,.43l.85,0v-.85a43.6,43.6,0,0,1,.51-6.15c.09-.56.21-1.12.35-1.67l.07-.29L152.56,124.9Z" transform="translate(-120.83 -38.95)"/><path class="cls-6" d="M140.7,130.47l-.33.4,90.85,201.42.42.08c1.81.38,3.65.65,5.49.86.89.09,1.77.18,2.66.24l-94.5-206.92A16,16,0,0,0,140.7,130.47Z" transform="translate(-120.83 -38.95)"/><path class="cls-5" d="M267.49,375.16c-.76.21-1.54.39-2.32.55l-.13,0-.12.07a44.24,44.24,0,0,1-11,4.45l-1,.25,7.56,16.77,1-1.94q4.13-7.84,8.48-15.55l.21-.37L268.18,375Z" transform="translate(-120.83 -38.95)"/><path class="cls-5" d="M148.19,116.19a3.33,3.33,0,0,0-.5-.12c-2.37-.38-6.25.77-8.31,1.87a8.72,8.72,0,0,0-4.41,4.69,3.74,3.74,0,0,0-.24,1.09,2.11,2.11,0,0,0,.48,1.4,4.06,4.06,0,0,0,1.75,1.12,7.94,7.94,0,0,0,1.09.29l.44.09.31-.32a18.82,18.82,0,0,1,5.27-3.85,17.43,17.43,0,0,1,5-1.53l.61-.09.09-.62a5.81,5.81,0,0,0-.15-2.87A2,2,0,0,0,148.19,116.19Z" transform="translate(-120.83 -38.95)"/><path class="cls-6" d="M142.79,116.62a17.36,17.36,0,0,0-3.41,1.32,8.72,8.72,0,0,0-4.41,4.69,3.74,3.74,0,0,0-.24,1.09,2.11,2.11,0,0,0,.48,1.4,3.74,3.74,0,0,0,1.44,1c2.43-5.53,9.54-7,8.93-7.74A4,4,0,0,0,142.79,116.62Z" transform="translate(-120.83 -38.95)"/><path class="cls-2" d="M136.93,103.65c-1-.87-2-1.71-3-2.5l-1.29-1,0,1.62c0,1.08,0,2.15,0,3.23,0,3.17.13,6.35.27,9.52l0,.41.33.23c.31.22.64.42,1,.61l.49.28.44-.34a15.91,15.91,0,0,1,2.37-1.52,20.68,20.68,0,0,1,5.31-1.86l.52-.11.12-.52c.08-.36.16-.72.21-1.09l.06-.4-.28-.3C141.28,107.78,139.17,105.64,136.93,103.65Z" transform="translate(-120.83 -38.95)"/><path class="cls-3" d="M132.57,101.79c0,1.08,0,2.15,0,3.23,0,3.17.13,6.35.27,9.52l0,.41.14.1,4.4-2.67.14-2.62-4.91-9.35Z" transform="translate(-120.83 -38.95)"/><path class="cls-2" d="M226.26,89.46l0,0,0,0a41.49,41.49,0,0,1-6,9,62,62,0,0,1-9.06,8.53,1.77,1.77,0,0,1-.32.21,40,40,0,0,1-13.48,3.77,104.57,104.57,0,0,1-18.89.33,17.4,17.4,0,0,0-10.47,4,42.8,42.8,0,0,0-9.54,11.34l-.24.39L185,185.08l.46-2.63a30,30,0,0,1,2.79-8.66,19.33,19.33,0,0,1,13.13-10.23,2,2,0,0,1,.43-.06c12.39-.44,25.62-3.31,34.6-12.49s11.39-22.13,11.39-34.44v-.18c.32-8.48,1.52-17.86,5-25.69A29.4,29.4,0,0,1,261,79.64l1.18-1-1.44-.49C246.45,73.37,234.68,76.67,226.26,89.46Z" transform="translate(-120.83 -38.95)"/><path class="cls-3" d="M203.77,122.25q25.66,6.39,27.45-17.66Q223.89,118.36,203.77,122.25Z" transform="translate(-120.83 -38.95)"/><path class="cls-3" d="M226.26,89.46l0,0,0,0a41.49,41.49,0,0,1-6,9,62,62,0,0,1-9.06,8.53,1.77,1.77,0,0,1-.32.21,40,40,0,0,1-13.48,3.77,104.57,104.57,0,0,1-18.89.33,17.4,17.4,0,0,0-10.47,4,42.8,42.8,0,0,0-9.54,11.34l-.24.39,6.67,14.42q5.69-24,35.12-24.74,21.84-1,29.25-23.18,7.19-15.61,22.35-17.49C241.4,75.3,232.81,79.51,226.26,89.46Z" transform="translate(-120.83 -38.95)"/><path class="cls-5" d="M253.23,338.08l-.27-.29-.39,0a104.22,104.22,0,0,1-15.9-.4,54.11,54.11,0,0,1-12.12-2.65l-.37-.13-.34.21c-5.05,3.08-5.93,8.09-4.55,13.56,2.45,9.7,11.15,21,17.46,28.57l.22.26.34,0a47.21,47.21,0,0,0,13.27-.58,40.73,40.73,0,0,0,5.34-1.41l.43-.15.11-.43a29.18,29.18,0,0,0,.45-13.65,33.6,33.6,0,0,0-6.42-13.37l-.2-.25-.31-.06c-2.45-.46-4.91-.87-7.38-1.18-1.91-.24-3.86-.43-5.79-.5l.05-4.19c2.08.06,4.17.25,6.24.51,2.93.36,5.86.86,8.76,1.43l.75.15.48.6a38.31,38.31,0,0,1,7.94,16,32.45,32.45,0,0,1,.56,9.63l-.08.77,1.52.26.19-.75a29.09,29.09,0,0,0-.1-15.16C261.37,348.59,257.61,342.94,253.23,338.08Z" transform="translate(-120.83 -38.95)"/><path class="cls-4" d="M250.49,347.68l-.2-.25-.31-.06c-2.45-.46-4.91-.87-7.38-1.18-1.91-.24-3.86-.43-5.79-.5l0-2.7q-5-1.73-9.5-7.34c-.94-.26-1.87-.56-2.79-.89l-.37-.13-.34.21c-5.05,3.08-5.93,8.09-4.55,13.56,2.45,9.7,11.15,21,17.46,28.57l.22.26.34,0a47.21,47.21,0,0,0,13.27-.58,40.73,40.73,0,0,0,5.34-1.41l.43-.15.11-.43a29.18,29.18,0,0,0,.45-13.65A33.6,33.6,0,0,0,250.49,347.68Z" transform="translate(-120.83 -38.95)"/><path class="cls-7" d="M505.68,504.6l-1.18.83a90.72,90.72,0,0,1-8.07,5l-.45.25,0,.51c.26,8.22-.14,14.3-3.17,21.64.05-2.82-.06-5.62-.28-8.47-.25-3.43-.65-6.88-.69-10.32l0-1.27-1.15.51a47.09,47.09,0,0,1-17.23,4.31c-5.47.15-11-1.14-15.29-4.68a19.55,19.55,0,0,1-5.11-6.55l-.08-.18q-5.84-14.69-11.76-29.36-8.72-21.67-17.48-43.32l-.08-.19-.16-.13a109,109,0,0,0-22.65-14.51A147.78,147.78,0,0,0,372,408.47a72.74,72.74,0,0,0-28.88.34,76.37,76.37,0,0,0-25.65,11.08l-.31.21-.06.36c-.17,1.11-.35,2.22-.54,3.34-3,17.53-8.58,35-15,51.62l-.08.2,0,.17-.36.65a50.68,50.68,0,0,1-5.79,8.29,29.48,29.48,0,0,1-6.52,5.69l-.17.1-.1.05c-7,3.05-17.05,1.52-24.16-.45a85.08,85.08,0,0,1-27.62-13.59,101.88,101.88,0,0,1-12.92-11.37l-.76-.82-.56,1A60.48,60.48,0,0,0,218,475l-.28.75h0a108.12,108.12,0,0,0-4.26,15.83l-.07.35.2.29q3,4.29,5.79,8.78c.52.85,1,1.7,1.55,2.56l1.31,2.22.23-2.57c.11-1.17,2.22-6.64,3.79-9.71-.45,32.28-1.44,50.67,13.94,81.46a132.3,132.3,0,0,0,52.38,55.59,133.79,133.79,0,0,0,26.88,11.8,146,146,0,0,0,28.38,5.81,66.81,66.81,0,0,1-7.06,1.65,24,24,0,0,1-7.56.33l-1.59-.3,3.73,8.13.46.06a200.55,200.55,0,0,0,25.44,1.7,148.06,148.06,0,0,0,22.95-1.7l.37-.06.2-.31c.95-1.46,1.84-3,2.71-4.47.48-.84,1-1.68,1.42-2.53l.9-1.61-1.8.39a31.36,31.36,0,0,1-8.92,0,83.12,83.12,0,0,1-8.73-1.51c20.76-2.1,42.45-9.23,60-20.41A132.5,132.5,0,0,0,474.05,582l.11-.2h0q3.34-5.82,6.1-11.94a133.08,133.08,0,0,0,4.92-12.66l.45-1.36,1.44-.08A46.21,46.21,0,0,0,498.16,554c1.19-.38,3.19-1.1,3.94-2.16l.1-.15,0-.18c1.38-7.1,2.54-14.21,3.24-21.42a134.78,134.78,0,0,0,.33-24Z" transform="translate(-120.83 -38.95)"/><path class="cls-8" d="M317.38,528.67c-5,0-9.11,3.36-9.11,7.52s4.08,7.52,9.11,7.52,9.1-3.37,9.1-7.52S322.41,528.67,317.38,528.67Z" transform="translate(-120.83 -38.95)"/><path class="cls-8" d="M493.62,530.83a27.43,27.43,0,0,1-9.59,17q-.73-27.63-25.94-22.08-5.94.81-12.42-5.52-1.94,11.38-14.9,10.62-16.71-4.3-11.86-19.73-18.68-5.91-29.53-14.9,37,4.86,37.39-15.45-1.11-19.6-32.29-30.35-40.38-11.32-41.8,7.86c.11,16.31,8.39,26.84,22.62,35.74-6-.6-13.42-2.49-20.14-4a9.86,9.86,0,0,0-6.07,1.51c17.69,1.25,22,19.5,10.49,19.87-10.79.35-17.25-10.71-16.84-17.93q-4.55-23.36-29-14.91-20.14,9-12.42,35.6-.6,11.88-19.86,13.8,4.36,22.6-4.69,37.8,2.64,23.43,13,38.91-23.31-12.57-30.36-27.88a5.16,5.16,0,0,0,2-.73c12-10.85,10.43-25.45,10.09-40.11-1.57-8.61-4.07-12.73-9.22-19.56-5.83-7.75-6-5.86-13.32-10.74-7.57-5-5.7-2.39-11.92-4.67-5.35-2-6.57-3.29-9.72-7.52a102.59,102.59,0,0,1,4.52-20.86,91,91,0,0,1-8-7.46l-.76-.82-.56,1A60.48,60.48,0,0,0,218,475l-.28.75h0a108.12,108.12,0,0,0-4.26,15.83l-.07.35.2.29q3,4.29,5.79,8.78c.52.85,1,1.7,1.55,2.56l1.31,2.22.23-2.57c.11-1.17,2.22-6.64,3.79-9.71-.45,32.28-1.44,50.67,13.94,81.46a132.3,132.3,0,0,0,52.38,55.59,133.79,133.79,0,0,0,26.88,11.8,146,146,0,0,0,28.38,5.81,66.81,66.81,0,0,1-7.06,1.65,24,24,0,0,1-7.56.33l-1.59-.3,3.73,8.13.46.06a200.55,200.55,0,0,0,25.44,1.7,148.06,148.06,0,0,0,22.95-1.7l.37-.06.2-.31c.95-1.46,1.84-3,2.71-4.47.48-.84,1-1.68,1.42-2.53l.9-1.61-1.8.39a31.36,31.36,0,0,1-8.92,0,83.12,83.12,0,0,1-8.73-1.51,141.39,141.39,0,0,0,20.08-3.54q24.86-12.11,36.45-27.48c-11.68-6.26.18-32.11,13.24-22.91q-8.31-16.68-5.24-33.66,2,4.94,4.14,11.31,11.13,27.6,39.18-.55a10.62,10.62,0,0,1,.79,1.31c.42-.88.83-1.76,1.23-2.65a133.08,133.08,0,0,0,4.92-12.66l.45-1.36,1.44-.08A46.21,46.21,0,0,0,498.16,554c1.19-.38,3.19-1.1,3.94-2.16l.1-.15,0-.18c1.38-7.1,2.54-14.21,3.24-21.42.4-4.18.66-8.39.71-12.61q-6.92.66-10.52,4.73A39.77,39.77,0,0,1,493.62,530.83ZM317.38,543.71c-5,0-9.11-3.37-9.11-7.52s4.08-7.52,9.11-7.52,9.1,3.36,9.1,7.52S322.41,543.71,317.38,543.71Zm76.08,69.12c-4.3,0-7.79-3-7.79-6.76s3.49-6.76,7.79-6.76,7.8,3,7.8,6.76S397.77,612.83,393.46,612.83Z" transform="translate(-120.83 -38.95)"/><path class="cls-8" d="M393.46,599.31c-4.3,0-7.79,3-7.79,6.76s3.49,6.76,7.79,6.76,7.8-3,7.8-6.76S397.77,599.31,393.46,599.31Z" transform="translate(-120.83 -38.95)"/><path class="cls-2" d="M393.6,315.91l-.14-.67h-.68a19.85,19.85,0,0,1-7.37-1.17,12,12,0,0,1-4-2.51l-1.87-1.8.49,2.7a168.41,168.41,0,0,1,2.19,17.63l.11,1.66,1.26-1.09q1.73-1.5,3.41-3,3.5-3.18,6.82-6.53l.2-.21,0-.28a9.64,9.64,0,0,0,0-2A22.63,22.63,0,0,0,393.6,315.91Z" transform="translate(-120.83 -38.95)"/><path class="cls-2" d="M386.65,278.56c-.18-.6-.38-1.19-.6-1.78l-.36-.95-.86.54a77.18,77.18,0,0,1-10.62,5.48c.41-.44.82-.86,1.17-1.22,1-1,4.84-4.24,4.05-5.79a1.62,1.62,0,0,0-1.61-.74c-3.49-.09-7,0-10.49.31a241.3,241.3,0,0,0-27.69,4l-.21,0-.17.14a41.23,41.23,0,0,0-7.25,7.85,37.45,37.45,0,0,0-2.48,4.07l-.92,1.75,1.89-.56c3.82-1.13,7.72-2,11.62-2.77a116.78,116.78,0,0,1,22-2.53c-5.46,2.33-12.56,4-17.75,5.38-6.12,1.6-12.59,3.09-18.54,5.2l-.62.22.07.65c.76,7.17,1.79,14.34,3.22,21.41a147.37,147.37,0,0,0,4.66,17.68l.17.51.54.05c13.85,1.4,28.27,1.06,41.73-2.77l.64-.18,0-.67a171.3,171.3,0,0,0-2.35-20.57v-.09c-1.28-7.18-2.32-15.6-4.38-22.8,2,1.72,4.08,3.83,4.7,5.88l1.05,3.5.57-3.61a19,19,0,0,1,.52-2.35,14.55,14.55,0,0,1,6.58-8.69l.17-.09.2-.07q1-.34,1.95-.72l.64-.25-.12-.67A40.58,40.58,0,0,0,386.65,278.56Z" transform="translate(-120.83 -38.95)"/><path class="cls-3" d="M377.82,274.1c-3.49-.09-7,0-10.49.31a241.3,241.3,0,0,0-27.69,4l-.21,0-.17.14a41.23,41.23,0,0,0-7.25,7.85,37.45,37.45,0,0,0-2.48,4.07l-.92,1.75,1.89-.56c3.82-1.13,7.72-2,11.62-2.77a116.78,116.78,0,0,1,22-2.53c-5.46,2.33-12.56,4-17.75,5.38-6.12,1.6-12.59,3.09-18.54,5.2l-.62.22.07.65c.76,7.17,1.79,14.34,3.22,21.41a147.37,147.37,0,0,0,4.66,17.68l.17.51.54.05c2.16.22,4.32.39,6.5.52q-5.61-21.53-6.18-36,8.58-8.11,25.8-14.69a32.66,32.66,0,0,0,13.76-6.16l-1.58.69c.41-.44.82-.86,1.17-1.22,1-1,4.84-4.24,4.05-5.79A1.62,1.62,0,0,0,377.82,274.1Z" transform="translate(-120.83 -38.95)"/><path class="cls-2" d="M422.4,268.62a15.26,15.26,0,0,1-5.43-3.9l-.78-.87-.57,1a56.3,56.3,0,0,1-4.75,7.1l-.37.46.32.51a18,18,0,0,0,6.28,6.12,16.06,16.06,0,0,0,8.07,1.89h.48l.23-.42c1.69-3,3.23-6.16,4.66-9.33l.54-1.17h-1.3A18.63,18.63,0,0,1,422.4,268.62Z" transform="translate(-120.83 -38.95)"/><path class="cls-2" d="M407.35,288.87a16.88,16.88,0,0,1-4.83-7.16l-.38-1.06-.9.67a53,53,0,0,1-5.95,3.8l-.44.23v.5A17.43,17.43,0,0,0,398,296.6a19.06,19.06,0,0,0,9.79,6.39l.45.14.35-.31a69.13,69.13,0,0,0,7.84-8.21l.82-1-1.24-.34A21.68,21.68,0,0,1,407.35,288.87Z" transform="translate(-120.83 -38.95)"/><path class="cls-2" d="M421.25,254.71l-.82-.43-.76,2c-.78,2-1.63,3.95-2.58,5.86l-.24.47.33.41a14.13,14.13,0,0,0,5.71,4.47,18.39,18.39,0,0,0,8.24,1.26l.52,0,.66-1.55v0q1-3.12,2.14-6.17l.32-.83-.85-.27A82.77,82.77,0,0,1,421.25,254.71Z" transform="translate(-120.83 -38.95)"/><path class="cls-2" d="M397,297.36a18,18,0,0,1-3.39-10.08l-.06-1.24-1.13.53a56.61,56.61,0,0,1-5.47,2.25l-.09,0-.57.37-.05.4c-.53,4.78-.43,10.38,2.08,14.64a13.61,13.61,0,0,0,8.87,6.21l.31.08.29-.15A55.62,55.62,0,0,0,406,305l1.15-.91-1.36-.52A19.24,19.24,0,0,1,397,297.36Z" transform="translate(-120.83 -38.95)"/><path class="cls-2" d="M387.24,304.91c-2-3.43-2.58-7.6-2.51-11.52l.06-3.71L383.15,293a11.7,11.7,0,0,0-.77,2,19.86,19.86,0,0,0,.12,10.21,6.92,6.92,0,0,0,4.45,5,14,14,0,0,0,4.16.85l3.19.21-2.68-1.74A13.58,13.58,0,0,1,387.24,304.91Z" transform="translate(-120.83 -38.95)"/><path class="cls-2" d="M416.49,280.17a18.71,18.71,0,0,1-6.25-5.82l-.6-.87-.71.8c-.71.8-1.45,1.58-2.21,2.34-1,1-2,1.91-3.07,2.8l-.42.35.16.53a15.94,15.94,0,0,0,4.8,7.62,21.32,21.32,0,0,0,9.42,4.44l.53.12.32-.43a93.58,93.58,0,0,0,5.75-8.62l.7-1.17-1.37-.08A16.65,16.65,0,0,1,416.49,280.17Z" transform="translate(-120.83 -38.95)"/><path class="cls-2" d="M445.4,219l-.3,0-.25.18a50.19,50.19,0,0,0-6.45,5.65l-1.56,1.61,1.67.2a19,19,0,0,1,6.57,2,17.92,17.92,0,0,1,6.21,5.4l.53.72.68-.57a40,40,0,0,1,5.88-4.12l.59-.34-.21-.65C456.65,222.71,452,219.48,445.4,219Z" transform="translate(-120.83 -38.95)"/><path class="cls-2" d="M432.64,247a54.3,54.3,0,0,0-7-2.57l-.67-.2-.31.62c-1.24,2.47-2.38,5-3.45,7.53l-.29.71.68.36a81.92,81.92,0,0,0,12.93,5.23l.73.23.29-.7c1-2.36,2.12-4.67,3.35-6.91l.37-.69-.66-.42A48.14,48.14,0,0,0,432.64,247Z" transform="translate(-120.83 -38.95)"/><path class="cls-2" d="M470.7,216.69a11.07,11.07,0,0,0-9.54-5l-3.5.2,3.21,1.4a14.77,14.77,0,0,1,4.36,2.88,16.36,16.36,0,0,1,4.53,9.25l.13.74.76-.05.59,0h.18l.16-.08a2.67,2.67,0,0,0,1.33-2.08,8.07,8.07,0,0,0-.32-3.38A13.15,13.15,0,0,0,470.7,216.69Z" transform="translate(-120.83 -38.95)"/><path class="cls-2" d="M464.36,217.11a15.53,15.53,0,0,0-8.19-3.88l-.23,0-.21.08a44.69,44.69,0,0,0-7.11,3.42l-1.81,1.08,2.06.46c5.57,1.22,9.1,4.64,10.95,10l.31.87.83-.39a29.1,29.1,0,0,1,6.86-2.22l.82-.15-.15-.82A15,15,0,0,0,464.36,217.11Z" transform="translate(-120.83 -38.95)"/><path class="cls-2" d="M444.5,229.75a19,19,0,0,0-8.36-2h-.4l-.25.31q-1.83,2.16-3.48,4.47l-.84,1.18,1.44.13a24.06,24.06,0,0,1,6.8,1.64,20.79,20.79,0,0,1,6.41,4.13l.63.59.57-.65c.43-.5.88-1,1.33-1.47q1-1,2-2l.53-.5-.42-.59A16.59,16.59,0,0,0,444.5,229.75Z" transform="translate(-120.83 -38.95)"/><path class="cls-2" d="M438.93,236.65A23.35,23.35,0,0,0,430.8,235l-.47,0-.26.39c-1.44,2.21-2.78,4.49-4,6.82l-.48.9,1,.29a57.7,57.7,0,0,1,6.61,2.47,50.43,50.43,0,0,1,6,3.21l.73.45.43-.73a67,67,0,0,1,4.82-7l.47-.59-.55-.53A19.6,19.6,0,0,0,438.93,236.65Z" transform="translate(-120.83 -38.95)"/><path class="cls-3" d="M420.43,254.28l-.76,2c-.78,2-1.63,3.95-2.58,5.86l-.24.47.33.41a14.25,14.25,0,0,0,5.4,4.34q2.88-4.49,5.5-9.56a72.07,72.07,0,0,1-6.83-3Z" transform="translate(-120.83 -38.95)"/><path class="cls-3" d="M416.19,263.85l-.57,1a56.3,56.3,0,0,1-4.75,7.1l-.37.46.32.51a19.59,19.59,0,0,0,4.15,4.69,94.15,94.15,0,0,0,6.91-9.24,15.25,15.25,0,0,1-4.91-3.67Z" transform="translate(-120.83 -38.95)"/><path class="cls-3" d="M410.24,274.35l-.6-.87-.71.8c-.71.8-1.45,1.58-2.21,2.34-1,1-2,1.91-3.07,2.8l-.42.35.16.53a16.22,16.22,0,0,0,3.06,5.83,73.56,73.56,0,0,0,7.68-7.54A20.4,20.4,0,0,1,410.24,274.35Z" transform="translate(-120.83 -38.95)"/><path class="cls-3" d="M384.79,289.68,383.15,293a11.7,11.7,0,0,0-.77,2,15.8,15.8,0,0,0-.6,3.69c1.07-.25,2.13-.54,3.18-.85a30.24,30.24,0,0,1-.23-4.45Z" transform="translate(-120.83 -38.95)"/><path class="cls-3" d="M393.56,286l-1.13.53a56.61,56.61,0,0,1-5.47,2.25l-.09,0-.57.37-.05.4a34.85,34.85,0,0,0-.06,7.85,56.84,56.84,0,0,0,8.81-3.66,19.88,19.88,0,0,1-1.38-6.53Z" transform="translate(-120.83 -38.95)"/><path class="cls-3" d="M402.14,280.65l-.9.67a53,53,0,0,1-5.95,3.8l-.44.23v.5a19.53,19.53,0,0,0,1.28,7.37,62.32,62.32,0,0,0,9.34-6.28,17.05,17.05,0,0,1-3-5.23Z" transform="translate(-120.83 -38.95)"/><path class="cls-3" d="M425.64,244.44l-.67-.2-.31.62c-1.24,2.47-2.38,5-3.45,7.53l-.29.71.68.36a70,70,0,0,0,7.06,3.17q2.28-4.5,4.36-9.44l-.38-.18A54.3,54.3,0,0,0,425.64,244.44Z" transform="translate(-120.83 -38.95)"/><path class="cls-3" d="M446.81,217.77l.88.19,1-1.3-.05,0Z" transform="translate(-120.83 -38.95)"/><path class="cls-3" d="M445.1,219l-.25.18a50.19,50.19,0,0,0-6.45,5.65l-1.56,1.61,1.67.2a21.78,21.78,0,0,1,3.12.61,86.76,86.76,0,0,1,5.17-8.09c-.46-.06-.92-.11-1.4-.14Z" transform="translate(-120.83 -38.95)"/><path class="cls-3" d="M435.74,227.75l-.25.31q-1.83,2.16-3.48,4.47l-.84,1.18,1.44.13a25.21,25.21,0,0,1,5.17,1q1.49-3.31,3.21-6.47a21.22,21.22,0,0,0-4.85-.65Z" transform="translate(-120.83 -38.95)"/><path class="cls-3" d="M430.33,235l-.26.39c-1.44,2.21-2.78,4.49-4,6.82l-.48.9,1,.29a57.7,57.7,0,0,1,6.61,2.47l.36.17.18-.45a101.58,101.58,0,0,1,3.57-9.52A24,24,0,0,0,430.8,235Z" transform="translate(-120.83 -38.95)"/><path class="cls-2" d="M306.49,272.32l.17-.39-.21-.36c-.83-1.44-1.6-2.9-2.32-4.4l-.51-1-.82.8a25.18,25.18,0,0,0-3.41,4.16,40.06,40.06,0,0,0-4,7.87l-.15.4.24.36q1.65,2.46,3.48,4.82l.78,1,1.52-2.82C303.14,279.3,304.92,275.9,306.49,272.32Z" transform="translate(-120.83 -38.95)"/><path class="cls-2" d="M299,256.38l.65-.31-.54-1.73-.16-.15a10.34,10.34,0,0,1-2.15-2.85l-.36-.7-.73.32a12.33,12.33,0,0,0-5.3,4.66,23,23,0,0,0-3.05,9.12l0,.24.11.22c.52,1.15,1.07,2.29,1.63,3.41l.92,1.85.62-2a29.64,29.64,0,0,1,3.42-7.51A12.81,12.81,0,0,1,299,256.38Z" transform="translate(-120.83 -38.95)"/><path class="cls-2" d="M289.39,254.94a13.38,13.38,0,0,1,6-5.21l.65-.28-.17-.69a10.46,10.46,0,0,1-.24-1.08c-.05-.26-.09-.51-.12-.76l-.13-1-.92.26a11.38,11.38,0,0,0-6.72,4.42,13.23,13.23,0,0,0-1.81,7.81l.15,4.31,1.47-4.05A18.54,18.54,0,0,1,289.39,254.94Z" transform="translate(-120.83 -38.95)"/><path class="cls-2" d="M302.63,265.39l.47-.4-.25-.57c-.9-2-1.71-4.13-2.45-6.24l-.32-.93-.86.47a11.83,11.83,0,0,0-4.11,4,33.26,33.26,0,0,0-4.1,10.13l-.08.32.16.29c.79,1.43,1.61,2.85,2.46,4.24l.84,1.37.64-1.47a38.78,38.78,0,0,1,3.3-6.16A24.61,24.61,0,0,1,302.63,265.39Z" transform="translate(-120.83 -38.95)"/><path class="cls-2" d="M322,290.82c-.37,1.56-.76,3.12-1.16,4.68q-.76,3-1.61,5.93l-.18.65.59.31q1.4.75,2.82,1.41l1.37.65-.19-1.5c-.29-2.32-.55-4.65-.77-7l-.05-.45.15-.43c.37-1.12.79-2.23,1.25-3.31l.27-.63-2.21-1.53Z" transform="translate(-120.83 -38.95)"/><path class="cls-2" d="M321.1,289.29l.12-.51-.41-.33c-1-.78-1.94-1.59-2.86-2.44l-.94-.85-.41,1.2c-.69,2-1.4,4-2.17,5.91-.62,1.59-1.28,3.17-2,4.72l-.28.63.55.4c1.4,1,2.83,2,4.31,2.86l.94.56.29-1.05c.48-1.74.95-3.47,1.4-5.21Q320.42,292.24,321.1,289.29Z" transform="translate(-120.83 -38.95)"/><path class="cls-2" d="M310.63,278.53l.14-.41-.26-.35c-.77-1-1.52-2.12-2.23-3.22l-.82-1.26-.63,1.37c-1.37,3-2.88,5.81-4.42,8.68-.5.93-1,1.86-1.49,2.79l-.26.5.36.43c.92,1.09,1.87,2.16,2.86,3.19l1.43,1.48.52-1.08q1-2.16,1.93-4.38C308.81,283.73,309.75,281.14,310.63,278.53Z" transform="translate(-120.83 -38.95)"/><path class="cls-2" d="M315.84,284.65l.17-.49-.36-.36c-1-1.08-2-2.18-3-3.33l-.94-1.13-.49,1.39c-.71,2-1.46,4-2.28,6-.74,1.79-1.52,3.58-2.39,5.31l-.28.56.46.43c1.15,1.07,2.34,2.11,3.57,3.1l.84.68.44-1c.59-1.33,1.15-2.68,1.68-4C314.17,289.45,315,287.05,315.84,284.65Z" transform="translate(-120.83 -38.95)"/><path class="cls-3" d="M302.63,265.39l.47-.4-.25-.57c-.9-2-1.71-4.13-2.45-6.24l-.32-.93-.86.47a11.55,11.55,0,0,0-3.83,3.56,56.77,56.77,0,0,0,3.81,7.89A23.29,23.29,0,0,1,302.63,265.39Z" transform="translate(-120.83 -38.95)"/><path class="cls-3" d="M299,256.38l.65-.31-.54-1.73-.16-.15a10.34,10.34,0,0,1-2.15-2.85l-.36-.7-.73.32a12.33,12.33,0,0,0-5.3,4.66,23,23,0,0,0-3.05,9.12l0,.24.11.22c.52,1.15,1.07,2.29,1.63,3.41l.37.76a29.1,29.1,0,0,1,2.92-5.4,22.9,22.9,0,0,1,1.67-3A12.81,12.81,0,0,1,299,256.38Z" transform="translate(-120.83 -38.95)"/><path class="cls-3" d="M289.39,254.94a13.38,13.38,0,0,1,6-5.21l.65-.28-.17-.69a10.46,10.46,0,0,1-.24-1.08c-.05-.26-.09-.51-.12-.76l-.13-1-.92.26a11.38,11.38,0,0,0-6.72,4.42,13.23,13.23,0,0,0-1.81,7.81l.15,4.31,1.47-4.05A18.54,18.54,0,0,1,289.39,254.94Z" transform="translate(-120.83 -38.95)"/><path class="cls-3" d="M311.7,279.34l-.49,1.39-.22.63a27.15,27.15,0,0,0,4.11,1.87q-1.28-1.35-2.46-2.76Z" transform="translate(-120.83 -38.95)"/><path class="cls-3" d="M308.28,274.55l-.82-1.26-.63,1.37c-.42.89-.84,1.78-1.28,2.66a28.6,28.6,0,0,0,4.33,3.38c.26-.72.51-1.44.75-2.17l.14-.41-.26-.35C309.74,276.72,309,275.65,308.28,274.55Z" transform="translate(-120.83 -38.95)"/><path class="cls-3" d="M306.66,271.93l-.21-.36c-.83-1.44-1.6-2.9-2.32-4.4l-.51-1-.82.8a22.82,22.82,0,0,0-2.88,3.4,36.28,36.28,0,0,0,4.68,6c.65-1.33,1.29-2.68,1.89-4.05Z" transform="translate(-120.83 -38.95)"/><path class="cls-2" d="M260.91,449.13q-2.45-1.72-5-3.25l-.51-.31-24.1,21,.71.62q2.61,2.32,5.37,4.48l.56.44,23.82-22.38Z" transform="translate(-120.83 -38.95)"/><path class="cls-2" d="M237.79,437.79q-2.79-.92-5.64-1.67a20.44,20.44,0,0,0-5.55-.78,9.53,9.53,0,0,0-5.8,1.8,8.91,8.91,0,0,0-3,4.83,16.16,16.16,0,0,0-.51,4.15v.1l0,.1a26.5,26.5,0,0,0,1.39,4.08,33.74,33.74,0,0,0,2,3.91l.54.88,17.83-17Z" transform="translate(-120.83 -38.95)"/><path class="cls-2" d="M250.32,442.85c-2.07-1-4.17-2-6.31-2.81l-.5-.2-19.74,18.79.49.6c1.08,1.33,2.22,2.6,3.41,3.83l.55.57,23.22-20.22Z" transform="translate(-120.83 -38.95)"/><path class="cls-2" d="M284.11,478.93a63,63,0,0,0-2.64-6.1l-.5-1-15.28,14.3,1.49.38a56.82,56.82,0,0,0,6.86,1.3h.16a25.71,25.71,0,0,0,5.24-.86,8.33,8.33,0,0,0,4.1-2.34,4.85,4.85,0,0,0,1-3.52A10.75,10.75,0,0,0,284.11,478.93Z" transform="translate(-120.83 -38.95)"/><path class="cls-2" d="M270.33,457.16c-1.48-1.52-3-3-4.66-4.34l-.57-.48-23.75,22.3.86.59c2,1.33,4,2.57,6.07,3.72l.54.3,22.09-21.49Z" transform="translate(-120.83 -38.95)"/><path class="cls-2" d="M278.48,467.5a65.58,65.58,0,0,0-4.2-5.89l-.58-.71-20.93,20.37,1.11.51c2.2,1,4.46,1.93,6.75,2.74l.48.17,17.73-16.6Z" transform="translate(-120.83 -38.95)"/><path class="cls-2" d="M469.89,487.93a43.65,43.65,0,0,0-3.86,4.52l-.44.59,18.89,18.21.48-.17a59.17,59.17,0,0,0,5.76-2.39l1.08-.51-21.33-20.85Z" transform="translate(-120.83 -38.95)"/><path class="cls-2" d="M462.79,498a18.66,18.66,0,0,0-1.29,12l.07.32.27.19a19.25,19.25,0,0,0,11.51,3,32,32,0,0,0,4.88-.54l1.6-.29-16.48-15.9Z" transform="translate(-120.83 -38.95)"/><path class="cls-2" d="M480.66,479q-3.23,2.37-6.37,4.88l-.74.59,22.12,21.62.55-.32c2.44-1.43,4.79-3,7.08-4.63l.81-.58-22.88-22Z" transform="translate(-120.83 -38.95)"/><path class="cls-2" d="M492.91,470.73q-3.75,2.28-7.36,4.78l-.84.58L507.48,498l.58-.46q3.45-2.81,6.69-5.85l.64-.6-21.93-20.67Z" transform="translate(-120.83 -38.95)"/><path class="cls-2" d="M530.2,465.64a9,9,0,0,0-6.73-5,23.29,23.29,0,0,0-9.68.63l-1.42.36L528,477.47l.58-.75a34,34,0,0,0,2.93-4.43l.12-.21v-.24A16.34,16.34,0,0,0,530.2,465.64Z" transform="translate(-120.83 -38.95)"/><path class="cls-2" d="M507.44,463.33a82.37,82.37,0,0,0-9.17,4.32l-1,.54,21.15,19.92.57-.59q3-3,5.78-6.25l.51-.58L508,463.13Z" transform="translate(-120.83 -38.95)"/><path class="cls-2" d="M492.65,354.76c-1.22-6.59-2-13.37-2.66-20.06-.87-8.81-1.5-17.65-2-26.49l0-.57-.54-.18c-1.41-.47-2.81-.95-4.21-1.45l-1.23-.44.11,1.3a216.5,216.5,0,0,1,.63,21.81c-2-7.45-2.95-16.65-3.54-23.68l0-.51-.48-.2c-2.66-1-5.29-2.17-7.87-3.39l-1.23-.58,0,1.36c.21,8,.29,16.1.07,24.14a182.52,182.52,0,0,1-1.44,19.83l0,.31.17.26q3,4.63,6,9.26l.29.44.53-.08A10.83,10.83,0,0,0,484,347a13,13,0,0,1,.34,4.25c-.45,3.93-3,6.14-6.79,7l-1.18.27,3,4.6.49,0a39.23,39.23,0,0,0,6.1-.92,12.67,12.67,0,0,0,5.59-2.57,4.18,4.18,0,0,0,1.31-3.36,7.17,7.17,0,0,0-.2-1.3Z" transform="translate(-120.83 -38.95)"/><path class="cls-5" d="M561.41,176.8l-.07,0-.08,0c-4.12-1.05-8.65-1.35-12.61.45a12.2,12.2,0,0,0-1.59.86l-.42.26,0,.5c.54,8.15,3.68,26.69,9.09,36.08-8.64-7.14-11.69-19.65-12.82-30.39l-.27-2.52-1.28,2.18c-.38.64-.73,1.3-1,2l0,.09,0,.08a33.61,33.61,0,0,0,.24,14.8,73.51,73.51,0,0,0,7.25,18.55l0,.06.05.06c2.58,3.28,6.88,8.54,11.62,8a11.41,11.41,0,0,0,4.77-2c-5,8.11-11.88,4.82-18.19-1.74l-1.37-1.42-.07,2c-.09,2.7-2.46,5.39-4.7,7.37.88-7.19,0-18.05-2-24.13-1.27-3.81-4.49-11.77-8.89-12.86a3.59,3.59,0,0,0-1.63,0h0l-.09,0a8.24,8.24,0,0,0-4.14,2.83,13.07,13.07,0,0,0-2.73,5.18,6.86,6.86,0,0,0-.18,2.85v.06l0,.06a45.17,45.17,0,0,1,2.21,10.21,31.56,31.56,0,0,1-.54,9.5l-.21.94-.85.46A52.5,52.5,0,0,0,508,237.64a129.43,129.43,0,0,0-13.7,18.21,59.89,59.89,0,0,0-7.71,19.88c-2-6.88-.41-13.88,3.1-20.28L490,255l-.34-.44a103.09,103.09,0,0,0-10.32-11A153.19,153.19,0,0,0,465.09,232l-.37-.27-.43.17A36.26,36.26,0,0,0,451.42,241c-7.19,7.61-12.12,17.61-15.15,27.55l-.08.24A115,115,0,0,1,420,297a66.46,66.46,0,0,1-20.88,17.51l-.27.14-1.13.21.15.82a25.45,25.45,0,0,1,.38,2.6,11.2,11.2,0,0,1-.3,4.39l-.16.47-.34.36c-2.46,2.49-5,4.93-7.58,7.29s-5.31,4.7-8.05,6.94l-.32.26-.37.12c-15.23,4.8-31.73,5.15-47.49,3.39l-1.32-.15-.44-1.24a147.57,147.57,0,0,1-5.41-20q-1-5.13-1.82-10.32l-.07-.47-.44-.17a65.62,65.62,0,0,1-7.79-3.75l-1.17-.67-.07,1.35a125.35,125.35,0,0,0,.4,18,194.23,194.23,0,0,0,4.31,26l0,.1,0,.09A34.42,34.42,0,0,0,328,360.58a154.15,154.15,0,0,0,13,10.14c-5.51-1.23-12.27-3.9-15.79-7a38.56,38.56,0,0,1-8-9.59l-.38-.64-.68.3a234.62,234.62,0,0,0-22.71,11.5,110.71,110.71,0,0,0-17.2,12.1l-.11.09-.07.12q-5.56,9.74-10.81,19.65c-2.22,4.22-4.39,8.49-6.44,12.79l-.43.92,1,.25a44.64,44.64,0,0,1,5.86,1.93,40.58,40.58,0,0,1,9.85,6.17c-6.68-2.42-12.86-3.55-20.07-4.72s-15.35-1.5-22.27,1.37a23.07,23.07,0,0,0-5.8,3.47l-2.56,2.1,3.25-.64c7.38-1.44,17.3,2.32,24.89,5.71-1.48-.29-2.89-.58-3.41-.67a68.13,68.13,0,0,0-14.67-1.06c-4.58.25-9.34,1.22-13.27,3.7a18.38,18.38,0,0,0-2.14,1.57l-.15.13-.08.19c-.2.49-.4,1-.58,1.5l-.79,2.18,2-1.18a14.23,14.23,0,0,1,7.1-1.86,24.5,24.5,0,0,1,6.7.91c12.49,3.34,24.51,8.75,34.52,17a66.71,66.71,0,0,1,20.29,28.41l.06.18a14.46,14.46,0,0,1,.59,3.16,10.71,10.71,0,0,1-.15,2.71l-.49,2.5,1.87-1.73A27.86,27.86,0,0,0,292.2,482a43.49,43.49,0,0,0,4.75-6.68l.17-.28-.07-.31c-1.35-6.67-5.77-13.81-9.93-19.08-5.75-7.28-11.45-14.54-18-21.12,8.16,4,16.07,11.94,21.27,18.53a64,64,0,0,1,8.4,13.67l.84,1.91.71-2a258.19,258.19,0,0,0,12-43.56c2-11.57,3.14-24.74,1-36.47,6.85,4.67,10.37,16,9.57,23.71l-.17,1.64,1.42-.84c6.93-4.05,10.38-4.76,18-6.44a76.9,76.9,0,0,1,30.6-.34l.15,0a152.44,152.44,0,0,1,29.71,10.54A115.72,115.72,0,0,1,421.12,426l1.45,1.06-.12-1.79a41.48,41.48,0,0,1,.85-12c1-4.55,5.13-11.1,9.33-14.59a88.66,88.66,0,0,0-5.23,15.52,43.48,43.48,0,0,0,0,17.16l0,.08,0,.08q8.83,21.87,17.65,43.75,2.88,7.14,5.74,14.29l.89,2.21.68-2.29a42.08,42.08,0,0,1,2.88-7.15c2.14-4.19,7.68-8.79,12.51-11.9a85.56,85.56,0,0,0-8.78,13.8,40.39,40.39,0,0,0-4.19,15.06l0,.2,1.89,4.74.55-2.76a24.92,24.92,0,0,1,1.67-5.21c2.58-5.89,7.21-11,12-15.12l.06,0c10.82-8.66,24.67-18.38,37.88-22.8,4.73-1.58,10.37-2.78,15.35-1.83a13,13,0,0,1,8.94,5.88l1.32,2.12.22-2.49c0-.35,0-.71.07-1.07v-.25l-.14-.22c-4-6.52-9.72-10.55-17.44-11.11-11.81-.84-19,.89-28.38,5.52,7.09-6.42,20.12-10.14,28.69-9.71A24.77,24.77,0,0,1,530.94,450l2.75,2.06-1.5-3.09a38.63,38.63,0,0,0-10.34-12.66c-.31-.27-.67-.55-1-.81l-.05,0,0,0c-8.25-4.67-17.25-3.89-25.84-.51-11.85,4.66-23.33,14.17-32.59,23.15a29.13,29.13,0,0,1,9.56-14.72c4.36-3.74,9.08-6.09,14.05-8.82l.45-.25,0-.51c-.31-9.18-1.79-21.45-4.88-30.77,6.28,6.86,8.56,19.63,9,28l.06,1.2,1.1-.48c.59-.25,1.18-.5,1.77-.73.78-.3,1.56-.59,2.35-.86l.61-.21,0-.64c-.56-8.13-1.24-16.28-2.24-24.37a131.07,131.07,0,0,0-2.8-16.11l-.07-.26-.21-.18c-5.77-4.78-12.44-8.05-20-8.24s-17.63,2.77-24.74,6.73c4.66-8,11.74-10.05,21.31-10.82l1.37-.12-.73-1.16q-2.79-4.42-6-8.56a126.48,126.48,0,0,0-9.43-10.78c9.89,4.11,15.24,10.58,20.92,20.35l.21.36.41.05a33.28,33.28,0,0,1,8.44,2.23l2.52,1-1.51-2.26q-5.29-7.95-10.55-15.92c-4.05-6.16-8.1-12.33-12.08-18.55l-.21-.32-.37,0a58.59,58.59,0,0,0-30.81,3.48c-9.26,3.78-17.19,9.89-24,17.13a44,44,0,0,1,22.39-21,59.56,59.56,0,0,1,15.63-4l.46,0,.2-.41c4.57-9.48,6.32-21.81,6.64-32.63,3.57,9.5,2.16,22.68-1.53,31.51l-.5,1.17h1.28a69.89,69.89,0,0,1,12.17.92l.93.15,1.2,1.89.21-2.47c.34-4.08.53-8.17.64-12.26.25-9,.12-18.1-.16-27.13l0-.47-.41-.23c-12.64-7-23.13-15.36-22-30.1,1.78,5,4.89,11.14,8.15,13.54,1.83,1.36,2.32-3.17,2.63-6.55l0,.11c.39,2.08.79,4.16,1.34,6.21.74,2.75,2.07,6.79,4.51,8.48,10.23,7.08,22.74,12,34.59,15.6,16,3.62,43.58-30.12,52-40.44l.94-1.15-1.48-.21c-1.08-.14-2.15-.34-3.21-.57l-.52-.12-.33.43c-4.83,6.38-17.17,20.46-26.55,23.53,7.26-5.92,17.17-18.26,21.91-24.37l.67-.87-1-.41c-.88-.36-1.76-.76-2.61-1.2a41.81,41.81,0,0,1-10.85-8.73c8.55,5.57,16,8.25,27.74,8.53H551l.13,0c6.14-1.89,10.92-6.61,14.6-11.7a91.58,91.58,0,0,0,9.74-18.41l0-.08,0-.09c1.94-10.88,3.14-23.85.12-34.64C573.38,186.7,568.91,180.41,561.41,176.8Z" transform="translate(-120.83 -38.95)"/><path class="cls-4" d="M517.24,449.36c-11.81-.84-19,.89-28.38,5.52,4.53-4.1,11.49-7.11,18.16-8.62q-6.33-8.86-19.83-7.63c-9.06,5.1-17.65,12.44-24.88,19.45a29.13,29.13,0,0,1,9.56-14.72,48.17,48.17,0,0,1,6.84-4.81q-2-37.89-18.08-57.17a58,58,0,0,0-14.44,5.49c4.66-8,11.74-10.05,21.31-10.82l1.37-.12-.73-1.16q-2.79-4.42-6-8.56a126.48,126.48,0,0,0-9.43-10.78l.49.21q-9.25-8.53-17.83-11.77a55.47,55.47,0,0,0-5.69,2c-9.26,3.78-17.19,9.89-24,17.13a44,44,0,0,1,22.39-21,59.56,59.56,0,0,1,15.63-4l.46,0,.2-.41c4.54-9.43,6.3-21.66,6.63-32.43a47.32,47.32,0,0,1-14-19q-4.71,17.79-26.35,39.29-5.85,10.32-21.25,22.77a243,243,0,0,1-29.93,3.58q-17.19-3.36-26-10.16l-1.21-.14-.44-1.24a147.57,147.57,0,0,1-5.41-20q-1-5.13-1.82-10.32l-.07-.47-.44-.17a65.62,65.62,0,0,1-7.79-3.75l-1.17-.67-.07,1.35a125.35,125.35,0,0,0,.4,18,194.23,194.23,0,0,0,4.31,26l0,.1,0,.09A34.42,34.42,0,0,0,328,360.58a154.15,154.15,0,0,0,13,10.14c-5.51-1.23-12.27-3.9-15.79-7a38.56,38.56,0,0,1-8-9.59l-.38-.64-.68.3a234.62,234.62,0,0,0-22.71,11.5,110.71,110.71,0,0,0-17.2,12.1l-.11.09-.07.12q-5.56,9.74-10.81,19.65c-2.22,4.22-4.39,8.49-6.44,12.79l-.43.92,1,.25a44.64,44.64,0,0,1,5.86,1.93,40.58,40.58,0,0,1,9.85,6.17c-6.68-2.42-12.86-3.55-20.07-4.72s-15.35-1.5-22.27,1.37a23.07,23.07,0,0,0-5.8,3.47l-2.56,2.1,3.25-.64c7.38-1.44,17.3,2.32,24.89,5.71-1.48-.29-2.89-.58-3.41-.67a68.13,68.13,0,0,0-14.67-1.06c-4.58.25-9.34,1.22-13.27,3.7a18.38,18.38,0,0,0-2.14,1.57l-.15.13-.08.19c-.2.49-.4,1-.58,1.5l-.79,2.18,2-1.18a14.23,14.23,0,0,1,7.1-1.86,24.5,24.5,0,0,1,6.7.91c12.49,3.34,24.51,8.75,34.52,17a66.71,66.71,0,0,1,20.29,28.41l.06.18a14.46,14.46,0,0,1,.59,3.16,10.71,10.71,0,0,1-.15,2.71l-.49,2.5,1.87-1.73A27.86,27.86,0,0,0,292.2,482a43.49,43.49,0,0,0,4.75-6.68l.17-.28-.07-.31c-1.35-6.67-5.77-13.81-9.93-19.08-5.75-7.28-11.45-14.54-18-21.12,8.16,4,16.07,11.94,21.27,18.53.25.31.49.62.73.94q10.13-18.06-2.74-35.86,10,2.58,17.11-10.76,7.07-15.48-1.93-29,8.06.76,13.26,11.49a29,29,0,0,1,5.48,11.89q11-8.85,29.54-11.52,2.44,6.84,21.8,5.8,8.31-.53,21.53-14.9,0,11.6,5.79,18.48a154.15,154.15,0,0,0,22.85,11.89,32.89,32.89,0,0,1,8.8-12.8,88.66,88.66,0,0,0-5.23,15.52,43.48,43.48,0,0,0,0,17.16l0,.08,0,.08q8.83,21.87,17.65,43.75,2.88,7.14,5.74,14.29l.89,2.21.68-2.29a42.08,42.08,0,0,1,2.88-7.15c2.14-4.19,7.68-8.79,12.51-11.9a85.56,85.56,0,0,0-8.78,13.8,40.39,40.39,0,0,0-4.19,15.06l0,.2,1.89,4.74.55-2.76a24.92,24.92,0,0,1,1.67-5.21c2.58-5.89,7.21-11,12-15.12l.06,0c10.82-8.66,24.67-18.38,37.88-22.8,4.73-1.58,10.37-2.78,15.35-1.83a13,13,0,0,1,8.94,5.88l1.32,2.12.22-2.49c0-.35,0-.71.07-1.07v-.25l-.14-.22C530.65,454,525,449.92,517.24,449.36Z" transform="translate(-120.83 -38.95)"/><path class="cls-6" d="M451.14,305.09c.33.92.62,1.87.87,2.86-.05-.8-.12-1.58-.21-2.35Z" transform="translate(-120.83 -38.95)"/><path class="cls-6" d="M553.64,210.5a37.62,37.62,0,0,0,2.12,4.4c-8.64-7.14-11.69-19.65-12.82-30.39l-.27-2.52-1.28,2.18c-.38.64-.73,1.3-1,2l0,.09,0,.08a33.61,33.61,0,0,0,.24,14.8,73.51,73.51,0,0,0,7.25,18.55l0,.06.05.06c2.58,3.28,6.88,8.54,11.62,8a8.32,8.32,0,0,0,2.55-.74,9.8,9.8,0,0,0-1.42-9.71A27.8,27.8,0,0,1,553.64,210.5Z" transform="translate(-120.83 -38.95)"/><path class="cls-4" d="M546.05,224.1l-1.37-1.42-.07,2c-.09,2.7-2.46,5.39-4.7,7.37.88-7.19,0-18.05-2-24.13-1.27-3.81-4.49-11.77-8.89-12.86a3.59,3.59,0,0,0-1.63,0h0l-.09,0a8.24,8.24,0,0,0-4.14,2.83,13.07,13.07,0,0,0-2.73,5.18,6.86,6.86,0,0,0-.18,2.85v.06l0,.06a45.17,45.17,0,0,1,2.21,10.21,31.56,31.56,0,0,1-.54,9.5l-.21.94-.85.46A52.5,52.5,0,0,0,508,237.64a129.43,129.43,0,0,0-13.7,18.21,59.89,59.89,0,0,0-7.71,19.88c-2-6.88-.41-13.88,3.1-20.28L490,255l-.34-.44a103.09,103.09,0,0,0-10.32-11A153.19,153.19,0,0,0,465.09,232l-.37-.27-.43.17A36.26,36.26,0,0,0,451.42,241a64.91,64.91,0,0,0-12.48,20,49.73,49.73,0,0,0,3.9,11,27.63,27.63,0,0,1,0-4.17c1.78,5,4.89,11.14,8.15,13.54,1.83,1.36,2.32-3.17,2.63-6.55l0,.11c.39,2.08.79,4.16,1.34,6.21a21,21,0,0,0,3,7q9.54,5.56,23.44,7,6.6.74,8-6.07,15.3,4.27,28.27-3.58a18.82,18.82,0,0,1-2.76,1.17c7.26-5.92,17.17-18.26,21.91-24.37l.67-.87-1-.41c-.88-.36-1.76-.76-2.61-1.2a41.81,41.81,0,0,1-10.85-8.73A54,54,0,0,0,534,256.69q20.63-4.47,27.37-27.5C556.74,232.64,551.21,229.46,546.05,224.1Z" transform="translate(-120.83 -38.95)"/><path class="cls-2" d="M517.24,449.36c-11.81-.84-19,.89-28.38,5.52l-.22.11c-7.32,4.11-14.36,9.61-22.12,17.19A84.31,84.31,0,0,0,459,484.26a40.39,40.39,0,0,0-4.19,15.06l0,.2,1.89,4.74.55-2.76a24.92,24.92,0,0,1,1.67-5.21c2.58-5.89,7.21-11,12-15.12l.06,0c10.82-8.66,24.67-18.38,37.88-22.8,4.73-1.58,10.37-2.78,15.35-1.83a13,13,0,0,1,8.94,5.88l1.32,2.12.22-2.49c0-.35,0-.71.07-1.07v-.25l-.14-.22C530.65,454,525,449.92,517.24,449.36Z" transform="translate(-120.83 -38.95)"/><path class="cls-3" d="M488.64,455c-7.32,4.11-14.36,9.61-22.12,17.19A84.31,84.31,0,0,0,459,484.26a40.39,40.39,0,0,0-4.19,15.06l0,.2,1.89,4.74.55-2.76a24.92,24.92,0,0,1,1.67-5.21c2.58-5.89,7.21-11,12-15.12l.06,0c3.64-2.92,7.64-6,11.84-8.88a23.89,23.89,0,0,1,5-11.1q8.14-7.9,22.79-12c-8.2.16-14.31,2-21.79,5.71Z" transform="translate(-120.83 -38.95)"/><path class="cls-2" d="M287.12,455.62A249.26,249.26,0,0,0,269.59,435a69,69,0,0,0-18.13-8.79l1.07.47c-1.48-.29-2.89-.58-3.41-.67a68.13,68.13,0,0,0-14.67-1.06c-4.58.25-9.34,1.22-13.27,3.7a18.38,18.38,0,0,0-2.14,1.57l-.15.13-.08.19c-.2.49-.4,1-.58,1.5l-.79,2.18,2-1.18a14.23,14.23,0,0,1,7.1-1.86,24.5,24.5,0,0,1,6.7.91c12.49,3.34,24.51,8.75,34.52,17a66.71,66.71,0,0,1,20.29,28.41l.06.18a14.46,14.46,0,0,1,.59,3.16,10.71,10.71,0,0,1-.15,2.71l-.49,2.5,1.87-1.73A27.86,27.86,0,0,0,292.2,482a43.49,43.49,0,0,0,4.75-6.68l.17-.28-.07-.31C295.7,468,291.28,460.89,287.12,455.62Z" transform="translate(-120.83 -38.95)"/><path class="cls-3" d="M251.46,426.17l1.07.47c-1.48-.29-2.89-.58-3.41-.67a68.13,68.13,0,0,0-14.67-1.06c-4.58.25-9.34,1.22-13.27,3.7a18.38,18.38,0,0,0-2.14,1.57l-.15.13-.08.19c-.2.49-.4,1-.58,1.5l-.79,2.18,2-1.18a14.23,14.23,0,0,1,7.1-1.86,24.5,24.5,0,0,1,6.7.91,108.85,108.85,0,0,1,13,4.36,27.63,27.63,0,0,1,6-3.15q12.94,1.5,28.8,14.81c-3.66-4.53-7.43-8.95-11.52-13.11A69,69,0,0,0,251.46,426.17Z" transform="translate(-120.83 -38.95)"/><path class="cls-4" d="M440,199.58l-.75-.31-.33.74c-1.88,4.26-6.66,9-10.1,12-1.48,1.32-7.44,6.21-11.7,9.11,6-5.89,13.72-14.62,17-20.69,8-14.88,9.85-31.81,7-48.32-2.56-14.92-12.17-33.29-23.69-43.6,1.88-.2,4.4-.38,5-.05l1.21,1,.14-1.61a79.75,79.75,0,0,0-4-32.14c-3.24-9.44-8.92-19.57-17.84-24.67a3.69,3.69,0,0,0-1.41-.42c-2-.16-3.9,1.22-5.27,2.46a29.74,29.74,0,0,0-5.87,8.09,51,51,0,0,0-5.45,19l-.19,2.32-2.28-.42A120,120,0,0,0,352,80.07a144.82,144.82,0,0,0-15.91,2.18c-6.33,1.15-12.63,2.49-18.9,3.91a29.41,29.41,0,0,1,5.29-3.79l1.32-.5L322.71,81c-7.28-6.18-20-16-30.17-15.35h-.23l-.2.14c-4.14,2.91-5.52,8.35-6,13.11-.71,7.46.53,15.84,2,23.14l.33,1.58,1.89-2-.11-.45a58.49,58.49,0,0,1-2-12.47,35.53,35.53,0,0,1,1.44-12l.78-2.47,2.25,1.25a32.87,32.87,0,0,1,7.47,5.92,57.94,57.94,0,0,1,6.92,9L308.26,92l-1.64,1.16A82.41,82.41,0,0,0,278,127.55c-6.7,15.15-8.66,31.83-8,48.26a86.8,86.8,0,0,0,8.48,34.85,68.74,68.74,0,0,0,21,25.6l.12.09a74,74,0,0,0,8.07,4.69c1.66.85,12.58,5.78,16.27,7.87-7.8-1.15-16.32-2.78-23.07-6.77l-1.16-.69-.1,1.34a16.47,16.47,0,0,0,.16,4.15,7.46,7.46,0,0,0,2,4.05l.18.18.26.05c24,4.59,49.16,6.18,73.24,1.46,21.14-4.14,40.15-12.93,56.52-26.93l.05,0,0-.06c1.08-1.29,2.2-2.53,3.37-3.74C440.53,216.64,451.73,204.4,440,199.58Z" transform="translate(-120.83 -38.95)"/><path class="cls-2" d="M401.88,51.11a3.69,3.69,0,0,0-1.41-.42c-2-.16-3.9,1.22-5.27,2.46a29.74,29.74,0,0,0-5.87,8.09,51,51,0,0,0-5.45,19l-.19,2.32-2.28-.42A120,120,0,0,0,352,80.07a144.82,144.82,0,0,0-15.91,2.18c-6.33,1.15-12.63,2.49-18.9,3.91a29.41,29.41,0,0,1,5.29-3.79l1.32-.5L322.71,81c-7.28-6.18-20-16-30.17-15.35h-.23l-.2.14c-4.14,2.91-5.52,8.35-6,13.11-.71,7.46.53,15.84,2,23.14l.33,1.58,1.89-2-.11-.45a58.49,58.49,0,0,1-2-12.47,35.53,35.53,0,0,1,1.44-12l.78-2.47,2.25,1.25a32.87,32.87,0,0,1,7.47,5.92,57.94,57.94,0,0,1,6.92,9L308.26,92l-1.64,1.16c-.68.48-1.35,1-2,1.46a45.24,45.24,0,0,0,.12,12.92q78.39-3.15,83.19-5.45,4-12.93,6.35-15.86a75.17,75.17,0,0,1,24.44,22.18,10.58,10.58,0,0,1,3.7.07l1.21,1,.14-1.61a79.75,79.75,0,0,0-4-32.14C416.48,66.34,410.8,56.21,401.88,51.11Z" transform="translate(-120.83 -38.95)"/><path class="cls-3" d="M352,80.07a144.82,144.82,0,0,0-15.91,2.18c-6.1,1.1-12.16,2.39-18.2,3.75Q307.55,93.37,306,107.5l15.19-.64q5.37-12.36,10.07-19Q345.53,81,369.5,80.43A105.43,105.43,0,0,0,352,80.07Z" transform="translate(-120.83 -38.95)"/><path class="cls-3" d="M401.88,51.11a3.69,3.69,0,0,0-1.41-.42c-2-.16-3.9,1.22-5.27,2.46a29.74,29.74,0,0,0-5.87,8.09,51,51,0,0,0-5.45,19l-.19,2.32-2.28-.42q-2.73-.5-5.46-.9,8.76,2.93,11.91,2.19,9-21.78,13.52-23,7.94,1,15.31,8C413.31,61.42,408.48,54.89,401.88,51.11Z" transform="translate(-120.83 -38.95)"/><path class="cls-3" d="M292.31,65.62l-.2.14c-4.14,2.91-5.52,8.35-6,13.11-.71,7.46.53,15.84,2,23.14l.33,1.58,1.89-2-.11-.45a58.49,58.49,0,0,1-2-12.47,35.53,35.53,0,0,1,1.44-12l.78-2.47,2.25,1.25c.61.34,1.2.71,1.78,1.09q4.08-6.78,14.94-5.3c-5.58-3.39-11.62-5.93-17-5.61Z" transform="translate(-120.83 -38.95)"/><path class="cls-2" d="M479.31,243.53c-.6-.56-1.21-1.11-1.83-1.66q-20.67,1-23.35,35.5c.25,1.24.53,2.49.86,3.72.74,2.75,2.07,6.79,4.51,8.48a87.61,87.61,0,0,0,8.79,5.31q1.83-33.48,18.87-43.31A108.32,108.32,0,0,0,479.31,243.53Z" transform="translate(-120.83 -38.95)"/><path class="cls-9" d="M349.32,89.43c-41.6,0-74.45,35.08-73.36,78.35s35.69,78.34,77.29,78.34,74.45-35.07,73.36-78.34S390.92,89.43,349.32,89.43Z" transform="translate(-120.83 -38.95)"/><path class="cls-10" d="M349.55,98.45c-36.82,0-65.88,31-64.92,69.33.83,33.26,24.06,61.06,54.29,67.77-24.56-11-42.16-36.24-42.89-65.57q0-.84,0-1.68,14.46-4.11,15.72-16.19,1.08-12.54-8.75-15.19c10-20.89,29.71-35.72,53.27-38.13C354,98.57,351.8,98.45,349.55,98.45Z" transform="translate(-120.83 -38.95)"/><path class="cls-10" d="M316.9,136.8c-1.17,4.27,1,7.73,4.92,7.73s8-3.46,9.16-7.73-1-7.73-4.91-7.73S318.08,132.53,316.9,136.8Z" transform="translate(-120.83 -38.95)"/><path class="cls-9" d="M268.62,538.38q3.27,26.94-14.9,31.73c-18.68,3.54-35.24-35.64-21.52-59.6-21.84,13.48-1.69,73.26,24,70.09q21.66-5.37,17.66-37.81Q271.65,535.26,268.62,538.38Z" transform="translate(-120.83 -38.95)"/><path class="cls-9" d="M312,566.25c-21.65,6.11,12.18,28.88,21.08,18.11C340,575.94,319,564.26,312,566.25Z" transform="translate(-120.83 -38.95)"/><path class="cls-9" d="M371.13,447.46q4.89-.13-3.51-2.14c-15.36-1.51-24.1,10.82-15.59,22.49q4,4.37,2.82-4.34Q353.33,449.06,371.13,447.46Z" transform="translate(-120.83 -38.95)"/><path class="cls-9" d="M318.65,509.34a15.25,15.25,0,0,0,14.63-12.82c1-7.09-3.95-12.84-11-12.84a15.26,15.26,0,0,0-14.62,12.84C306.63,503.6,311.57,509.34,318.65,509.34Z" transform="translate(-120.83 -38.95)"/><path class="cls-9" d="M249.28,552.93c10.89-1,4.29-24.14-2.1-27.72C227.55,514.22,235.37,554.24,249.28,552.93Z" transform="translate(-120.83 -38.95)"/><path class="cls-9" d="M260.65,517c3,3.81,5.19,14.11,6.6,12.75C276.42,520.88,258.67,502,249,506,245.14,507.67,251.72,505.63,260.65,517Z" transform="translate(-120.83 -38.95)"/><path class="cls-9" d="M373.63,532.73c4.07-1-1.77-3.59-7.59.55-4.78,4-5.07,14.13,6.9,23.32,6.83,5.24,8.06,3,1.38-3.87C366,544.17,367.06,534.73,373.63,532.73Z" transform="translate(-120.83 -38.95)"/><path class="cls-9" d="M437.28,549c-12.18,3.85-4.75,28.7,5.69,29.37,4.21.27-2.58-.84-5.48-15C436.52,558.61,439.14,548.42,437.28,549Z" transform="translate(-120.83 -38.95)"/><path class="cls-9" d="M396.47,556.36c7.63-4.61-5.4-19.24-11.35-19.61C366.82,535.63,386.72,562.25,396.47,556.36Z" transform="translate(-120.83 -38.95)"/><path class="cls-9" d="M470.33,523.07q-14.5-5-23,8.69-3.84,8.43-.69,4,8.81-12,25.39-7.59Q478.59,529.56,470.33,523.07Z" transform="translate(-120.83 -38.95)"/><path class="cls-9" d="M462.34,540c-6.32,0-12.66,6.23-14.15,13.93s2.42,13.94,8.75,13.94,12.66-6.24,14.15-13.94S468.66,540,462.34,540Z" transform="translate(-120.83 -38.95)"/><path class="cls-9" d="M403.15,550.39q4.78,14.67-10.76,13.24a61.19,61.19,0,0,1-7-1c-2.56-.23-2,2,2.89,4.62,8.12,4.28,15.52,2.6,19.25-4,2.45-4.34.87-9.09-2.69-13.32C403.2,547.8,402.62,548,403.15,550.39Z" transform="translate(-120.83 -38.95)"/><path class="cls-9" d="M373.8,454.94c-6.91,0-12.7,9,.65,16.45,6.65,3.7,30,19.39,35.91,5.1C414,467.84,385.61,454.94,373.8,454.94Z" transform="translate(-120.83 -38.95)"/><path class="cls-9" d="M417.77,460.85q-9.36-4.46-5.25-1.11,22.75,20.85,4.28,34.49c-5.45,2.55,10.32,2.41,13.8-7.45Q434.37,471.17,417.77,460.85Z" transform="translate(-120.83 -38.95)"/><path class="cls-11" d="M358.08,298.83a7.52,7.52,0,1,0,7.45,7.52A7.48,7.48,0,0,0,358.08,298.83Z" transform="translate(-120.83 -38.95)"/><path class="cls-11" d="M339.32,302.05a4.6,4.6,0,1,0,4.55,4.6A4.58,4.58,0,0,0,339.32,302.05Z" transform="translate(-120.83 -38.95)"/><path class="cls-12" d="M563.28,172.12,563,172l-.23-.07q-9.31-2.44-16.2.67t-10.93,11.69l-.13.29-.07.25a33,33,0,0,0-.93,7.73,10.72,10.72,0,0,0-4.34-2.43,8.76,8.76,0,0,0-4,0,13.2,13.2,0,0,0-6.88,4.47,18.13,18.13,0,0,0-3.79,7.23,11.5,11.5,0,0,0-.17,5.33l.08.3a40.27,40.27,0,0,1,2,9.21,26.89,26.89,0,0,1-.21,6.75,59.14,59.14,0,0,0-12.85,10.82,126.57,126.57,0,0,0-12.06,15.57c-.59-.7-1.2-1.4-1.82-2.1q-1.23-16.4-2.53-28.71-1.34-12.69-2.72-20.69l-.2-1.15-.94-.7q-6.17-4.63-16.62-8.34a167.49,167.49,0,0,0-21.8-5.87,84,84,0,0,0,.45-30.94c-2.58-15-9.12-28.54-17.91-38.29,1.93-11.65.68-26.16-3.69-38.86-4-11.78-10.79-22.12-20.22-27.46l-.09-.06a8.66,8.66,0,0,0-3.32-1c-3.08-.25-6.18,1.15-9.05,3.76a34.63,34.63,0,0,0-7,9.49,56.66,56.66,0,0,0-5.64,17.73A120,120,0,0,0,351.68,75a99,99,0,0,0-23.1,4.32q-23-20.25-37.27-18.7l-.64.07-.56.34q-7.78,4.73-9,17.33-1.06,11.19,3.09,29a84.4,84.4,0,0,0-10.81,18.08C267,140,264.23,156.82,265,176a91.61,91.61,0,0,0,9,36.89A74.46,74.46,0,0,0,295,239.21c-.11.6-.19,1.18-.26,1.75q-7.71,1.62-11.2,6.9t-2.39,13.67c.12,1,.27,1.85.43,2.67l.05.25.15.34c.74,1.7,1.5,3.37,2.29,5A105.41,105.41,0,0,0,286,302.57a84.29,84.29,0,0,0,2.46,8.61c-1.82.9-3.74,1.78-5.76,2.61q-3.81,1.57-8.18,3-14.16-6.35-26.58,2.31l-58-125.49q-.42-11.13,2.88-17.46a14.49,14.49,0,0,1,9.59-7.6q25-1,37.7-14t12.8-37.93q.57-14.84,4.61-23.84,3.81-8.49,10.79-11.67a2.94,2.94,0,0,0,0-5.35q-30-13.62-46.21,11a2.83,2.83,0,0,0-.29.47,36.49,36.49,0,0,1-5.31,8.08,56.1,56.1,0,0,1-8.11,7.67,35.35,35.35,0,0,1-11.53,3.1,100.56,100.56,0,0,1-18,.31h-.2a22.1,22.1,0,0,0-13.63,5.11A43.07,43.07,0,0,0,156.3,121l-.38-.82-1.08-.11a9.85,9.85,0,0,0-.59-4.59,6.8,6.8,0,0,0-4.68-4.12h0l-.95-.21a9.81,9.81,0,0,0,.06-1.91l-.06-1.08-.75-.79c-2.45-2.53-5-5.17-7.57-7.46A36.69,36.69,0,0,0,132,94l-3.89-1.84-.3,4.3c-.19,2.7-.27,5.36-.26,8.53s.12,6.64.33,11l.06,1.17.84.81a13.77,13.77,0,0,0,2,1.59,11.13,11.13,0,0,0-.56,1.32,8.53,8.53,0,0,0-.5,2.56h0a6.86,6.86,0,0,0,1.61,4.8,8.75,8.75,0,0,0,3.49,2.48l89.53,198.48-.44-.17-1.16.58q-11.9,5.91-8.34,19.92,3.14,12.38,19.26,31.51l.75.89,1.17.14a54.26,54.26,0,0,0,12.61,0l9,19.88c-1.33,2.65-2.52,5.1-3.54,7.3-9-1.16-16.48-.63-22.8,2-7,2.9-12.37,8.25-16.38,16.57l0,.11c-3.53,8.15-3.9,16.12-.3,24.39a41.12,41.12,0,0,0,5.16,8.61,64.38,64.38,0,0,0-6,12.25h0a115.62,115.62,0,0,0-5,18.63l-.23,1.24.74,1q3.06,4.24,6.3,9.52,3,4.94,6,10.46A138.12,138.12,0,0,0,318,647.2q3.94,1.23,7.92,2.21L332,662.63l1.6.21a206.66,206.66,0,0,0,27.71,2,152,152,0,0,0,25-2l1.23-.21.71-1c1-1.49,2.22-3.45,3.61-5.86q1.88-3.26,4.05-7.34a137.46,137.46,0,0,0,82.48-63.9,141.32,141.32,0,0,0,6.45-12.61q2.52-5.62,4.48-11.26a46.46,46.46,0,0,0,10.36-1.84c3.8-1.22,6.23-3,7.21-5.26l.13-.3.07-.32c1-5.15,2.48-13,3.38-22.35a135.24,135.24,0,0,0,0-28.52,145.34,145.34,0,0,0,21.25-21.16l.82-1c6.6-8.49,8.45-17.31,6.75-25.61s-6.81-15.69-14.21-21.8c0,0-1.22-1-1.4-1.12l-.2-.12a31.08,31.08,0,0,0-22.24-3.39q-.94-13.67-2.17-23.48a130.84,130.84,0,0,0-3.2-17.71l-.13-.47-.26-.39q-6.63-9.93-12-18c1.33-.19,2.57-.42,3.7-.69a17.1,17.1,0,0,0,7.88-3.82,8.91,8.91,0,0,0,2.87-7.27h0a11.69,11.69,0,0,0-.32-2.13q-1.41-7.69-2.59-19.59-1-10.41-1.88-24.09,19.61,4.29,59.86-45.88c6.88-2.25,12.37-7.32,16.79-13.46a97.79,97.79,0,0,0,10.43-19.7l.12-.28,0-.32q4.13-22.77.08-37.21Q576.23,178.2,563.28,172.12ZM444.27,188a161.39,161.39,0,0,1,21.21,5.69,60.22,60.22,0,0,1,14.12,6.81q1.27,7.67,2.48,19.13,1,9.38,2,21.49c-.42-.41-.86-.82-1.3-1.23q-4.74-4.4-10.41-8.77l.29-.09a7.32,7.32,0,0,0,5.29-6.31,13,13,0,0,0-.49-5.55,18.24,18.24,0,0,0-2.62-5.36c-3.12-4.4-8.37-7.81-15-7l-.13,0-.21.05a48.7,48.7,0,0,0-7.9,2.68,22.9,22.9,0,0,0-2.16-8.38,12.46,12.46,0,0,0-7.36-6.44Q443.33,191.33,444.27,188ZM375.06,313.34h0a170.63,170.63,0,0,1,2.35,20.55Q359.48,339,336,336.64a146.15,146.15,0,0,1-4.63-17.58q-2-9.78-3.21-21.33c10.62-3.76,31.11-7.46,39.47-12.1-9.36-.48-18.64,1.1-25.66,2.45q-6.46,1.25-11.69,2.79a35.77,35.77,0,0,1,2.42-4,39.86,39.86,0,0,1,7.11-7.69,246.7,246.7,0,0,1,27.59-4,101.32,101.32,0,0,1,10.44-.3c3.55-.08-4.44,5.52-6.15,8.9a77.32,77.32,0,0,0,13.59-6.77c.2.54.4,1.12.58,1.73a39.14,39.14,0,0,1,1.09,4.66c-.64.25-1.28.48-1.93.71l-.27.1-.24.13a15.36,15.36,0,0,0-7,9.18A18.28,18.28,0,0,0,377,296c-.93-3.1-4.76-6.13-7.15-8.11C372.08,294.39,373.77,306.13,375.06,313.34Zm-53-17.28q.35,3.57.77,7c-.94-.44-1.86-.9-2.78-1.39q.85-3,1.61-6c.41-1.56.8-3.12,1.17-4.69l.64.45c-.47,1.1-.89,2.23-1.28,3.38l-.19.6Zm-22-24.49a24.25,24.25,0,0,1,3.28-4q1.13,2.29,2.36,4.44c-1.84,4.18-3.6,7.45-5.17,10.36l-.91,1.7c-1.19-1.52-2.33-3.12-3.45-4.78A38.64,38.64,0,0,1,300.09,271.57Zm-5.83,4.67c-.83-1.36-1.65-2.77-2.44-4.21a32.47,32.47,0,0,1,4-9.88,11.2,11.2,0,0,1,3.81-3.7q1.14,3.29,2.48,6.31a25.24,25.24,0,0,0-4.45,5.18A40.14,40.14,0,0,0,294.26,276.24Zm8.88,7.49c1.36-2.52,2.86-5.29,4.44-8.72.73,1.12,1.48,2.2,2.26,3.25q-1.44,4.26-2.85,7.7-1,2.35-1.91,4.32l-.6-.61q-1.44-1.51-2.82-3.15C302.13,285.61,302.63,284.69,303.14,283.73Zm6.56,3.34c.77-1.85,1.53-3.88,2.3-6.07q1.47,1.75,3.05,3.38-1.32,3.93-2.58,7.13c-.57,1.45-1.12,2.79-1.66,4q-1.8-1.45-3.53-3.06C308.09,290.85,308.89,289.06,309.7,287.07Zm5.51,5.51c.71-1.81,1.43-3.79,2.18-5.95.94.86,1.91,1.68,2.9,2.47-.45,1.94-.94,3.9-1.45,5.87-.44,1.73-.91,3.46-1.39,5.19q-2.18-1.31-4.25-2.82Q314.19,295.2,315.21,292.58Zm-9.91-35.65q39.34,6.92,71.07.71a128.41,128.41,0,0,0,45.33-18A129.06,129.06,0,0,0,415,254.43a52.23,52.23,0,0,1-11.81,18.62,45.46,45.46,0,0,1-10.72,7.88c-.28-1.37-.6-2.65-1-3.83a26.18,26.18,0,0,0-2.42-5.72l-.68-1.14-1.29-.26q-7.72-1.53-20.13-.6a251.73,251.73,0,0,0-29,4.19l-.7.14-.59.47a46.06,46.06,0,0,0-8.77,9.35c-.61.86-1.18,1.74-1.71,2.65Q312.15,276.28,305.3,256.93Zm81.22,48.41a14.42,14.42,0,0,0,4.64,4.84,13,13,0,0,1-3.91-.8,6.09,6.09,0,0,1-3.94-4.36,18.9,18.9,0,0,1-.13-9.79,10.46,10.46,0,0,1,.72-1.85Q383.77,300.67,386.52,305.34Zm-1.41,9.52a20.72,20.72,0,0,0,7.68,1.22,24.58,24.58,0,0,1,.41,2.61,9.57,9.57,0,0,1,0,1.83q-3.27,3.3-6.79,6.5-1.68,1.53-3.39,3a169.83,169.83,0,0,0-2.2-17.72l0-.15A12.67,12.67,0,0,0,385.11,314.86Zm3.94-11q-3-5-2-14.13l.16-.1a59.68,59.68,0,0,0,5.55-2.28,18.69,18.69,0,0,0,3.55,10.53,20,20,0,0,0,9.1,6.53,55,55,0,0,1-8,5.27A12.75,12.75,0,0,1,389.05,303.84Zm9.63-7.74a16.53,16.53,0,0,1-3-10.25,53,53,0,0,0,6-3.86,17.72,17.72,0,0,0,5.07,7.51,22.38,22.38,0,0,0,9,4.58,68.22,68.22,0,0,1-7.75,8.11Q401.75,300.2,398.68,296.1Zm10.05-8.81a15,15,0,0,1-4.54-7.23c1.07-.91,2.11-1.85,3.11-2.85.78-.77,1.53-1.56,2.26-2.38a19.56,19.56,0,0,0,6.53,6.08,17.39,17.39,0,0,0,7.4,2.1,94.55,94.55,0,0,1-5.7,8.54A20.45,20.45,0,0,1,408.73,287.29Zm8.78-9a16.92,16.92,0,0,1-6-5.85,57.21,57.21,0,0,0,4.83-7.2,16.23,16.23,0,0,0,5.72,4.11,19.52,19.52,0,0,0,7.71,1.46q-2.2,4.89-4.63,9.26A15,15,0,0,1,417.51,278.33Zm5.71-11.64a13.45,13.45,0,0,1-5.38-4.22q1.41-2.84,2.6-5.93l.43-1.09a84,84,0,0,0,12.81,5.17c-.78,2-1.5,4.08-2.16,6.22l-.43,1A17.45,17.45,0,0,1,423.22,266.69Zm-1.24-14c1.11-2.64,2.25-5.14,3.42-7.48a53.62,53.62,0,0,1,6.9,2.53,46.86,46.86,0,0,1,5.86,3.14c-1.2,2.2-2.33,4.53-3.37,7A81.77,81.77,0,0,1,422,252.72Zm11.51-7.63a55.65,55.65,0,0,0-6.71-2.51q1.94-3.62,4-6.75a22.71,22.71,0,0,1,7.85,1.59,19,19,0,0,1,5.89,3.84,65.88,65.88,0,0,0-4.88,7.09A52.64,52.64,0,0,0,433.49,245.09Zm6.24-10.38a24.45,24.45,0,0,0-7-1.7c1.12-1.57,2.27-3,3.43-4.41a18,18,0,0,1,8,1.89,16,16,0,0,1,5.64,5c-.68.65-1.35,1.32-2,2-.46.48-.91,1-1.36,1.49A21.6,21.6,0,0,0,439.73,234.71Zm5.73-6.83a19.75,19.75,0,0,0-6.85-2l.39-.4a51.27,51.27,0,0,1,6.35-5.56q9.69.66,12.61,9.45a41.1,41.1,0,0,0-6,4.21A18.53,18.53,0,0,0,445.46,227.88Zm3.59-10.47a43.64,43.64,0,0,1,7-3.36,14.58,14.58,0,0,1,7.76,3.66,14.18,14.18,0,0,1,3.89,8,29.67,29.67,0,0,0-7.06,2.29Q457.63,219.29,449.05,217.41Zm16.76-1.82a15.34,15.34,0,0,0-4.61-3,10.16,10.16,0,0,1,8.82,4.62,12.46,12.46,0,0,1,1.77,3.61,7.21,7.21,0,0,1,.3,3,1.91,1.91,0,0,1-.89,1.47l-.61,0A17.13,17.13,0,0,0,465.81,215.59Zm-186.59-5.3a85.48,85.48,0,0,1-8.4-34.51c-.69-18.26,1.93-34.22,8-47.89s15.4-24.92,28.31-34l2.29-1.62-1.51-2.36a59,59,0,0,0-7-9.1,33.18,33.18,0,0,0-7.66-6.06L290.05,73,289,76.4a36.23,36.23,0,0,0-1.47,12.28,59.49,59.49,0,0,0,2,12.65l-.48.51q-2.87-14-2-22.89.87-9.15,5.62-12.51,10.95-.66,29.58,15.15c-1.54.6-6.83,4.58-7.16,5.92,7.12-1.64,25.73-5.86,37-6.6a118.08,118.08,0,0,1,29.21,2l3.19.58.26-3.23a50.42,50.42,0,0,1,5.36-18.66,28.66,28.66,0,0,1,5.7-7.86c1.67-1.52,3.28-2.36,4.63-2.25a2.92,2.92,0,0,1,1.07.32c8,4.58,13.85,13.71,17.46,24.2a79.25,79.25,0,0,1,4,31.8c-.91-.78-6.26-.07-7.48.08,10.78,8.89,21.94,27.38,24.86,44.36,2.59,15.08,1.47,32.14-6.93,47.78-3.84,7.17-14.85,18.87-19.94,23.43-3.71,4.3,21.42-12.15,26.27-23.14,10.15,4.17,1.35,14.56-4.91,21q-1.73,1.78-3.41,3.79-23.89,20.43-56.14,26.74t-72.93-1.46a6.7,6.7,0,0,1-1.73-3.61,15.16,15.16,0,0,1-.14-3.94c7.23,4.28,16.49,5.92,25,7.13,3.66-1.24-14.75-7-25.37-14.31l-.12-.08A68,68,0,0,1,279.22,210.29Zm9.21,40.81a10.48,10.48,0,0,1,6.25-4.07c0,.27.08.53.13.8s.15.77.25,1.14a14.26,14.26,0,0,0-6.38,5.51,20,20,0,0,0-1.91,3.94A12.28,12.28,0,0,1,288.43,251.1Zm-.2,13.76a22,22,0,0,1,2.92-8.79,11.39,11.39,0,0,1,5-4.35,11.19,11.19,0,0,0,2.32,3.08l.26.83a13.54,13.54,0,0,0-5.32,4.89,30.73,30.73,0,0,0-3.52,7.72C289.29,267.14,288.75,266,288.23,264.86ZM249.5,327.51a8.8,8.8,0,0,1,.93-3q10.44-7.82,22.54-1.92l1,.51,1.11-.35q5.13-1.61,9.75-3.5c2-.81,3.85-1.66,5.65-2.55,2.91,6.78,6.09,10.42,12.62,13.22-5.45-7.78-9.27-19-11.47-28.63a93.54,93.54,0,0,1-2.23-21.65,86.11,86.11,0,0,0,10.78,14.11,70.19,70.19,0,0,0,10,8.75,127.65,127.65,0,0,0,.2,22,197.2,197.2,0,0,0,4,24.67q-8.76,3.88-16.15,7.8-5.83,1.93-11.08,3.44-2.64.76-5.26,1.47c.26-1.82-.37-3.56-2.14-6.31-.59,3.45-5.09,9.28-7.15,11.27a12.53,12.53,0,0,1-2,1.54l-1.53-3.3A33.64,33.64,0,0,0,268,353.63l-.21-.75a15.5,15.5,0,0,0,6.21-5.27c4.44-6.45.77-12.73-2.3-18.41.9,4.56-1.1,13-2.53,15.07a9.48,9.48,0,0,1-3.51,3.1A53.82,53.82,0,0,0,256,333.63l-.93-1-1.36.07c-1.59.08-3.13.14-4.63.16A36.87,36.87,0,0,1,249.5,327.51Zm-80.95-211.4a16.51,16.51,0,0,1,9.9-3.87,106.23,106.23,0,0,0,19-.33,40.43,40.43,0,0,0,13.77-3.86,5,5,0,0,0,.45-.29,62.24,62.24,0,0,0,9.17-8.64A42,42,0,0,0,227,89.91q12-18.18,33.56-10.92a30,30,0,0,0-8.43,11.37q-4.5,10-5.11,26v.19q0,22.44-11.15,33.85t-34,12.25a2.89,2.89,0,0,0-.6.08,20.17,20.17,0,0,0-13.67,10.66,30.12,30.12,0,0,0-2.87,8.9L159.2,127.24A41.69,41.69,0,0,1,168.55,116.11Zm-34-1a9.85,9.85,0,0,1-.89-.57c-.18-3.8-.27-6.85-.28-9.48,0-1.11,0-2.17,0-3.21,1,.75,2,1.58,3,2.46,2.18,1.94,4.32,4.11,6.38,6.24,0,.33-.12.67-.2,1a21.28,21.28,0,0,0-5.53,2A16.39,16.39,0,0,0,134.54,115.07Zm2.7,10.38a3.22,3.22,0,0,1-1.39-.86,1.22,1.22,0,0,1-.28-.84,3.18,3.18,0,0,1,.18-.84,8,8,0,0,1,4-4.24,15.14,15.14,0,0,1,7.8-1.77l.4.09a1.23,1.23,0,0,1,.87.67,4.93,4.93,0,0,1,.1,2.43,18.31,18.31,0,0,0-5.22,1.61,19.63,19.63,0,0,0-5.5,4A5.74,5.74,0,0,1,137.24,125.45Zm4.1,5.55a14.7,14.7,0,0,1,4.92-4,13.08,13.08,0,0,1,5.77-1.25l92,199.07c-.14.55-.26,1.12-.36,1.74a42.54,42.54,0,0,0-.52,6.28c-2.09-.08-4.08-.23-6-.43s-3.72-.5-5.42-.85Zm96,245.44Q222.83,359,220.1,348.19q-2.21-8.74,4.17-12.64a54.54,54.54,0,0,0,12.31,2.69,105.72,105.72,0,0,0,16,.4q7.42,8.24,9.71,16.53a28.44,28.44,0,0,1,.1,14.74,33.34,33.34,0,0,0-.57-9.88,39.09,39.09,0,0,0-8.11-16.36l-.67-.84-1-.21q-4.86-.94-8.82-1.44a62.17,62.17,0,0,0-7.17-.53l-.06,5.86a58.31,58.31,0,0,1,6.52.51q3.34.42,7.33,1.17a32.52,32.52,0,0,1,6.28,13,28.38,28.38,0,0,1-.45,13.27,37.91,37.91,0,0,1-5.23,1.38A45.94,45.94,0,0,1,237.39,376.44Zm16.74,4.62a44.57,44.57,0,0,0,11.2-4.54c.83-.16,1.62-.34,2.39-.56l1.58,3.41c-3.08,5.47-5.94,10.73-8.49,15.57l-.22.43Zm-36,65.06a15.64,15.64,0,0,1,.48-3.94,8.05,8.05,0,0,1,2.7-4.38,8.7,8.7,0,0,1,5.31-1.63,20,20,0,0,1,5.32.75c1.91.52,3.78,1.07,5.59,1.66l-16.07,15.29a33.06,33.06,0,0,1-2-3.81A24.83,24.83,0,0,1,218.13,446.12Zm42.78,37.61c-2.23-.78-4.47-1.69-6.69-2.71l19.41-18.88a60.85,60.85,0,0,1,4.14,5.81Zm19.81-10.52a60.36,60.36,0,0,1,2.58,6,9.79,9.79,0,0,1,.37,2,4,4,0,0,1-.78,2.93,7.37,7.37,0,0,1-3.68,2.07,25.5,25.5,0,0,1-5.07.83,56.65,56.65,0,0,1-6.76-1.29Zm-32,5c-2.06-1.14-4.07-2.37-6-3.68l22.45-21.09c1.62,1.38,3.16,2.81,4.6,4.29ZM237.87,471c-1.92-1.51-3.69-3-5.32-4.44l22.92-20c1.72,1,3.38,2.1,5,3.21Zm-9.6-8.52q-1.85-1.91-3.36-3.78l18.79-17.89q3.26,1.31,6.25,2.79ZM504.65,530c-.83,8.64-2.24,16.25-3.23,21.34-.43.61-1.6,1.24-3.52,1.86a45.83,45.83,0,0,1-10.88,1.7l-2,.11-.62,1.9a131.95,131.95,0,0,1-11.06,24.63v0A131.48,131.48,0,0,1,430,626.87c-18,11.46-40.39,18.63-61.52,20.46-4.81.56,12.79,4.47,19.77,3-.5.9-1,1.74-1.42,2.51q-1.5,2.61-2.68,4.44a147.89,147.89,0,0,1-22.82,1.69,199.63,199.63,0,0,1-25.33-1.7L333.09,651c5.92,1.13,20.31-3.08,16.91-3.45a147.46,147.46,0,0,1-30.26-6,132.32,132.32,0,0,1-78.77-67c-16-32-14.23-50.31-13.81-83.85-1.62,1.09-5.36,11-5.49,12.39-.51-.87-1-1.73-1.55-2.56q-2.85-4.65-5.82-8.83a107.64,107.64,0,0,1,4.51-16.46h0a61.49,61.49,0,0,1,4.47-9.58,102.48,102.48,0,0,0,13,11.46,86.1,86.1,0,0,0,27.9,13.73c9.61,2.67,18.67,3.06,24.71.42l.16-.08.22-.13a30.59,30.59,0,0,0,6.71-5.84,51.38,51.38,0,0,0,5.88-8.44l.51-.9,0-.23c7.42-19.24,12.4-36.62,15-51.78.2-1.13.38-2.25.55-3.35a75.34,75.34,0,0,1,25.37-11,71.82,71.82,0,0,1,28.5-.34,146.15,146.15,0,0,1,28.71,10.18A108,108,0,0,1,423,433.86q10.18,25.2,17.48,43.31c5.18,12.89,9.1,22.66,11.77,29.38l.09.21a20.29,20.29,0,0,0,5.33,6.83c4.12,3.4,9.53,5,15.85,4.88A47.74,47.74,0,0,0,491,514.09c.08,6.67,1.53,13.25.78,23.19,2.72-6.23,5.53-10.75,5-26.08a89,89,0,0,0,8.15-5.09A134.87,134.87,0,0,1,504.65,530Zm-14.29-22.05a59.64,59.64,0,0,1-5.67,2.36L466.7,493a42.32,42.32,0,0,1,3.79-4.44Zm-15.55-23.41c2.16-1.72,4.28-3.33,6.35-4.86l21.65,20.79c-2.37,1.72-4.71,3.24-7,4.59Zm3.27,27.55a30.09,30.09,0,0,1-4.75.52,18.21,18.21,0,0,1-11-2.82,18.09,18.09,0,0,1,1.24-11.48l.07-.16Zm29.45-15.22L486,476.2q3.78-2.61,7.33-4.76l20.82,19.61Q510.84,494.18,507.53,496.86Zm10.84-9.92-19.7-18.56a83.06,83.06,0,0,1,9.08-4.27l16.37,16.61Q521.26,484,518.37,486.94Zm9.53-10.74L514,462.08a22.19,22.19,0,0,1,9.32-.62,8.12,8.12,0,0,1,6.14,4.54,15.29,15.29,0,0,1,1.31,5.88A31.3,31.3,0,0,1,527.9,476.2ZM491,359a11.56,11.56,0,0,1-5.21,2.37,39.45,39.45,0,0,1-6,.9l-2.1-3.19c10.27-2.31,7.72-13.1,5.57-15.38.59,5-2.7,10.55-8.21,11.37q-3.29-5-6.05-9.26a185.8,185.8,0,0,0,1.45-19.92q.28-10.6-.07-24.18,3.72,1.75,7.92,3.41c.81,9.6,2.33,21.47,5.09,28.54a254.61,254.61,0,0,0-.52-26.82c1.38.5,2.79,1,4.24,1.47q.9,15.09,2,26.52,1.2,12.21,2.68,20.15l0,.16a6.31,6.31,0,0,1,.18,1.16A3.33,3.33,0,0,1,491,359Zm83.67-129.83A91.19,91.19,0,0,1,565,247.36c-3.83,5.3-8.48,9.64-14.17,11.39-15.19-.36-23.09-5.14-32.17-11.77,3.7,5.19,9.68,10.91,14.88,13.56.87.44,1.76.85,2.68,1.22-5.14,6.63-17.94,22.3-24.68,26.32,9.61,0,24.3-16.1,30.65-24.46,1.07.23,2.16.43,3.28.58q-35.73,43.65-51.15,40.17c-15-4.52-26.3-9.92-34.35-15.48-4.52-3.13-5.48-16.14-6.34-17.74s-1,10.34-2.15,9.5c-2.76-2-7.14-9.32-9-16.73-3.18,16.52,6.42,26.06,21.92,34.68q.48,15.4.17,27.08-.19,6.72-.64,12.22l-.08-.12-1.3-.2a71.41,71.41,0,0,0-12.31-.94c5-11.89,4.78-27,0-35.49,0,13.34-2.12,26.6-6.61,35.92a60.54,60.54,0,0,0-15.85,4.09,45.11,45.11,0,0,0-24.95,26.31Q415.3,352.61,430,346.61a57.5,57.5,0,0,1,30.37-3.43q4.85,7.56,12.09,18.55,4.89,7.41,10.55,15.92a34,34,0,0,0-8.65-2.29c-7.1-12.2-13.4-18.29-25-22.06a139,139,0,0,1,12.14,13.43,100.33,100.33,0,0,1,5.94,8.48c-11.4.93-18.75,3.79-23.34,13.92,7.9-5.3,19.74-8.33,26.82-8.16q10.14.27,19.53,8.06a133.88,133.88,0,0,1,2.78,16q1.27,10.2,2.23,24.33c-.79.27-1.58.56-2.38.88-.6.23-1.2.48-1.8.74-.65-13.15-4.69-25.7-11.74-30.84,3,7.35,5.55,20.78,6,33.67-7.88,4.33-21.75,10.51-24.64,26.84q19.08-19,34.32-24.94,14.35-5.64,25.13.45l1,.8a37.81,37.81,0,0,1,10.12,12.38,25.62,25.62,0,0,0-13.85-5c-12.73-.64-27.52,6.3-32.32,13.36,8.43-4.56,16.18-8.62,31.91-7.5q10.64.76,16.79,10.72c0,.34,0,.69-.06,1a13.78,13.78,0,0,0-9.5-6.25c-4.3-.83-9.61-.21-15.76,1.85-10.36,3.46-23.39,11.13-38.12,22.92l-.09.07q-8.83,7.62-12.27,15.42a26.85,26.85,0,0,0-1.72,5.38l-.77-1.94a39.67,39.67,0,0,1,4.1-14.75c4.05-7.89,6.53-11,11.38-17.12-5.76,3-13.87,9.13-16.6,14.46a43.2,43.2,0,0,0-2.93,7.29L445.9,475q-7.35-18.25-17.66-43.75a42.37,42.37,0,0,1,0-16.82c1.81-7.83,3.36-11.16,6.32-18-4.93,2.64-10.7,10.88-12,16.72a42.56,42.56,0,0,0-.86,12.21A117.82,117.82,0,0,0,403,414.17a151.92,151.92,0,0,0-29.9-10.6l-.17,0a77.65,77.65,0,0,0-30.93.34c-8,1.75-10.8,2.16-18.28,6.54.88-8.5-3.32-21.35-11.59-25.45,2.19,10,2,22.83-.6,38a258.38,258.38,0,0,1-12,43.41,65.06,65.06,0,0,0-8.5-13.85c-5.25-6.64-15.27-17.1-25.58-20.39,7.65,7.13,13.66,14.76,21,24,5.73,7.27,8.8,14,9.77,18.72a43.8,43.8,0,0,1-4.66,6.56c-.73.83-1.47,1.59-2.21,2.28a11.27,11.27,0,0,0,.16-2.93,15.44,15.44,0,0,0-.63-3.35l-.06-.21a67.47,67.47,0,0,0-20.55-28.77c-9-7.48-20.61-13.39-34.84-17.2a25.32,25.32,0,0,0-6.92-.93,14.85,14.85,0,0,0-7.51,2c.17-.49.36-1,.56-1.46,12.82-11,40.37-.5,37.26-3.12-11.53-5.38-21.59-9.1-29.36-7.58a22,22,0,0,1,5.59-3.35c5.78-2.4,13-2.69,21.82-1.32h0c8,1.35,14.36,2.34,22.71,5.77-1.41-3.25-9-7.54-12-8.81a45,45,0,0,0-6-2c1.73-3.64,3.91-8,6.43-12.76,3.12-5.93,6.78-12.61,10.8-19.62a110.24,110.24,0,0,1,17.07-12,232.17,232.17,0,0,1,22.63-11.45,39.31,39.31,0,0,0,8.17,9.79c4,3.45,13.11,7.08,19.9,7.78a145.41,145.41,0,0,1-16-12.22,33.3,33.3,0,0,1-8-10.13,196.42,196.42,0,0,1-4.29-25.9,125.78,125.78,0,0,1-.4-17.85,65,65,0,0,0,7.89,3.79q.81,5.38,1.82,10.35a149.34,149.34,0,0,0,5.44,20.13l.62,1.74,1.83.21q27.31,3.06,47.84-3.43l.52-.16.45-.37q4.21-3.43,8.09-7T398,324l.49-.49.21-.67a11.8,11.8,0,0,0,.34-4.72,24.77,24.77,0,0,0-.39-2.68l.44-.07.37-.2a66.71,66.71,0,0,0,21.15-17.72Q429.91,286,437,269l.09-.28c3.49-11.46,8.82-20.72,14.95-27.22a35.22,35.22,0,0,1,12.58-8.9,151.38,151.38,0,0,1,14.14,11.51A100.3,100.3,0,0,1,489,255c-5,9.15-5.07,17.35-2,24.23.53-7.91,4.21-16.67,8-23h0a128.83,128.83,0,0,1,13.61-18.1,51.5,51.5,0,0,1,12.59-10.36l1.19-.64.28-1.31a32,32,0,0,0,.57-9.75A46.62,46.62,0,0,0,521,205.73a6.1,6.1,0,0,1,.17-2.5,12.31,12.31,0,0,1,2.55-4.84,7.48,7.48,0,0,1,3.69-2.56h0a2.93,2.93,0,0,1,1.35,0c3,.75,6.13,5.83,8.3,12.31,2.27,6.82,3,19.39,1.67,25.91,3-2.29,6.58-5.76,6.71-9.38,4.8,5,14.78,13.06,21.08-1.46-6.18,4.41-9.39,7-18-4a72.26,72.26,0,0,1-7.18-18.33,32.52,32.52,0,0,1-.24-14.42c.33-.67.66-1.3,1-1.9,1.52,14.54,6.15,27.89,17.41,33.8-7.14-6.16-11.4-30.26-12-39.64a12.71,12.71,0,0,1,1.5-.8q4.9-2.24,12-.4,10.29,4.94,13.74,17.3Q578.45,207.91,574.66,229.12Z" transform="translate(-120.83 -38.95)"/><path class="cls-11" d="M400.59,62.36c-3.31,1.75-8.1,8.83-9.1,22.07a123.71,123.71,0,0,1,22.9,19.73C418.37,85.49,407.88,65.9,400.59,62.36Z" transform="translate(-120.83 -38.95)"/></svg>